<?xml version="1.0" encoding="iso-8859-1"?>
<!-- Generator: Adobe Illustrator 16.0.0, SVG Export Plug-In . SVG Version: 6.00 Build 0)  -->
<!DOCTYPE svg PUBLIC "-//W3C//DTD SVG 1.1//EN" "http://www.w3.org/Graphics/SVG/1.1/DTD/svg11.dtd">
<svg version="1.1" id="Capa_1" xmlns="http://www.w3.org/2000/svg" xmlns:xlink="http://www.w3.org/1999/xlink" x="0px" y="0px"
	 width="550.801px" height="550.801px" viewBox="0 0 550.801 550.801" style="enable-background:new 0 0 550.801 550.801;"
	 xml:space="preserve">
<g>
	<path d="M488.427,197.019h-13.226v-63.816c0-0.401-0.063-0.799-0.116-1.205c-0.021-2.531-0.833-5.021-2.563-6.992L366.325,3.694
		c-0.031-0.031-0.063-0.045-0.084-0.076c-0.633-0.707-1.371-1.295-2.151-1.804c-0.232-0.155-0.465-0.287-0.707-0.422
		c-0.675-0.366-1.393-0.675-2.131-0.896c-0.2-0.053-0.379-0.135-0.58-0.188C359.871,0.119,359.037,0,358.193,0H97.201
		c-11.918,0-21.6,9.693-21.6,21.601v175.413H62.375c-17.041,0-30.871,13.818-30.871,30.873v160.545
		c0,17.038,13.83,30.87,30.871,30.87h13.226V529.2c0,11.907,9.682,21.601,21.6,21.601h356.4c11.907,0,21.601-9.693,21.601-21.601
		V419.302h13.226c17.054,0,30.87-13.827,30.87-30.87v-160.54C519.297,210.832,505.48,197.019,488.427,197.019z M97.201,21.605
		h250.193v110.51c0,5.967,4.841,10.8,10.8,10.8h95.407v54.108h-356.4V21.605z M295.577,290.873v28.75h-56.109v62.828h-35.456
		V226.202h95.505v28.964h-60.049v35.707H295.577L295.577,290.873z M58.892,306.646c0-53.33,38.032-83.009,85.316-83.009
		c18.333,0,32.221,3.715,38.486,6.971l-7.193,28.031c-7.172-3.003-17.152-5.79-29.658-5.79c-28.052,0-49.853,16.93-49.853,51.703
		c0,31.293,18.544,51.005,50.074,51.005c10.666,0,22.497-2.32,29.437-5.104l5.334,27.58c-6.484,3.248-21.102,6.729-40.1,6.729
		C86.73,384.761,58.892,351.148,58.892,306.646z M453.601,523.353h-356.4V419.302h356.4V523.353z M457.377,382.451l-2.32-59.816
		c-0.712-18.779-1.397-41.508-1.397-64.223h-0.686c-4.878,19.941-11.364,42.206-17.393,60.505l-19.011,60.981h-27.59l-16.696-60.518
		c-5.104-18.31-10.426-40.568-14.122-60.969h-0.475c-0.938,21.102-1.624,45.201-2.773,64.687l-2.79,59.353h-32.7l9.982-156.249
		h47.06l15.293,52.151c4.868,18.088,9.751,37.552,13.216,55.867h0.696c4.403-18.083,9.734-38.718,14.839-56.1l16.696-51.919h46.121
		l8.585,156.249H457.377z"/>
</g>
<g>
</g>
<g>
</g>
<g>
</g>
<g>
</g>
<g>
</g>
<g>
</g>
<g>
</g>
<g>
</g>
<g>
</g>
<g>
</g>
<g>
</g>
<g>
</g>
<g>
</g>
<g>
</g>
<g>
</g>
</svg>
