<?xml version="1.0" encoding="iso-8859-1"?>
<!-- Generator: Adobe Illustrator 16.0.0, SVG Export Plug-In . SVG Version: 6.00 Build 0)  -->
<!DOCTYPE svg PUBLIC "-//W3C//DTD SVG 1.1//EN" "http://www.w3.org/Graphics/SVG/1.1/DTD/svg11.dtd">
<svg version="1.1" id="Capa_1" xmlns="http://www.w3.org/2000/svg" xmlns:xlink="http://www.w3.org/1999/xlink" x="0px" y="0px"
	 width="550.801px" height="550.801px" viewBox="0 0 550.801 550.801" style="enable-background:new 0 0 550.801 550.801;"
	 xml:space="preserve">
<g>
	<path d="M278.656,254.156c-8.332,0-13.057,0.675-15.535,1.129v41.884h13.511c17.109,0,27.245-8.554,27.245-21.845
		C303.877,261.36,294.427,254.389,278.656,254.156z"/>
	<path d="M488.426,197.014H475.2v-63.817c0-0.401-0.063-0.799-0.116-1.205c-0.021-2.531-0.833-5.023-2.562-6.993L366.319,3.694
		c-0.026-0.034-0.058-0.045-0.079-0.076c-0.633-0.707-1.371-1.298-2.151-1.804c-0.231-0.155-0.464-0.285-0.706-0.422
		c-0.676-0.366-1.393-0.675-2.131-0.896c-0.2-0.053-0.38-0.135-0.58-0.188C359.87,0.119,359.037,0,358.193,0H97.2
		c-11.918,0-21.6,9.693-21.6,21.601v175.413H62.375c-17.046,0-30.871,13.818-30.871,30.873v160.545
		c0,17.038,13.824,30.87,30.871,30.87h13.226V529.2c0,11.907,9.682,21.601,21.6,21.601h356.4c11.907,0,21.6-9.693,21.6-21.601
		V419.302h13.226c17.044,0,30.871-13.832,30.871-30.87V227.887C519.297,210.832,505.47,197.014,488.426,197.014z M97.2,21.601
		h250.193v110.51c0,5.967,4.841,10.8,10.8,10.8h95.407v54.108H97.2V21.601z M331.352,338.829
		c4.725,17.118,9.45,36.936,12.382,42.789h-35.132c-2.479-4.282-6.074-16.664-10.578-35.354c-4.05-18.921-10.589-24.1-24.545-24.321
		h-10.362v59.675h-34.001V231.865c11.032-1.803,27.472-3.153,45.713-3.153c22.521,0,38.277,3.375,49.088,11.95
		c9.007,7.204,13.964,17.782,13.964,31.746c0,19.367-13.731,32.656-26.8,37.38v0.675C321.67,314.74,327.523,324.865,331.352,338.829
		z M72.36,380.943V231.865c12.609-2.024,29.046-3.153,46.385-3.153c28.827,0,47.516,5.179,62.155,16.221
		c15.762,11.707,25.666,30.396,25.666,57.182c0,29.072-10.579,49.102-25.218,61.494c-15.984,13.289-40.312,19.585-70.034,19.585
		C93.527,383.189,80.913,382.061,72.36,380.943z M453.601,523.347H97.2V419.302h356.4V523.347z M437.205,381.618h-40.078
		l-48.647-151.777h37.61l18.468,64.175c5.173,18.029,9.903,35.358,13.511,54.279h0.675c3.828-18.246,8.559-36.25,13.731-53.604
		l19.364-64.85h36.481L437.205,381.618z"/>
	<path d="M170.095,303.255c0.227-31.527-18.241-48.191-47.743-48.191c-7.657,0-12.609,0.675-15.536,1.35v99.302
		c2.927,0.675,7.657,0.675,11.934,0.675C149.829,356.622,170.095,339.504,170.095,303.255z"/>
</g>
<g>
</g>
<g>
</g>
<g>
</g>
<g>
</g>
<g>
</g>
<g>
</g>
<g>
</g>
<g>
</g>
<g>
</g>
<g>
</g>
<g>
</g>
<g>
</g>
<g>
</g>
<g>
</g>
<g>
</g>
</svg>
