<?xml version="1.0" encoding="iso-8859-1"?>
<!-- Generator: Adobe Illustrator 16.0.0, SVG Export Plug-In . SVG Version: 6.00 Build 0)  -->
<!DOCTYPE svg PUBLIC "-//W3C//DTD SVG 1.1//EN" "http://www.w3.org/Graphics/SVG/1.1/DTD/svg11.dtd">
<svg version="1.1" id="Capa_1" xmlns="http://www.w3.org/2000/svg" xmlns:xlink="http://www.w3.org/1999/xlink" x="0px" y="0px"
	 width="550.801px" height="550.801px" viewBox="0 0 550.801 550.801" style="enable-background:new 0 0 550.801 550.801;"
	 xml:space="preserve">
<g>
	<g>
		<path d="M488.427,197.019h-13.226v-63.816c0-0.401-0.063-0.799-0.116-1.205c-0.021-2.531-0.833-5.021-2.563-6.992L366.325,3.694
			c-0.031-0.031-0.063-0.045-0.084-0.076c-0.633-0.707-1.371-1.295-2.151-1.804c-0.232-0.155-0.465-0.287-0.707-0.422
			c-0.675-0.366-1.393-0.675-2.131-0.896c-0.2-0.053-0.379-0.135-0.58-0.188C359.871,0.119,359.037,0,358.193,0H97.201
			c-11.918,0-21.6,9.693-21.6,21.601v175.413H62.375c-17.041,0-30.871,13.818-30.871,30.873v160.545
			c0,17.038,13.83,30.87,30.871,30.87h13.226V529.2c0,11.907,9.682,21.601,21.6,21.601h356.4c11.907,0,21.601-9.693,21.601-21.601
			V419.302h13.226c17.054,0,30.87-13.827,30.87-30.87v-160.54C519.297,210.832,505.48,197.019,488.427,197.019z M97.201,21.605
			h250.193v110.51c0,5.967,4.841,10.8,10.8,10.8h95.407v54.108h-356.4V21.605z M210.432,255.554v-28.79h116.48v28.79h-41.387
			v122.753h-34.393V255.554H210.432z M71.659,377.642V228.788c12.593-2.024,28.99-3.148,46.319-3.148
			c28.772,0,47.44,5.178,62.058,16.182c15.725,11.707,25.629,30.359,25.629,57.12c0,28.993-10.579,49-25.197,61.383
			c-15.958,13.257-40.236,19.564-69.902,19.564C92.795,379.889,80.212,378.76,71.659,377.642z M453.601,523.353h-356.4V419.302
			h356.4V523.353z M453.97,360.324c-15.957,13.257-40.247,19.564-69.937,19.564c-17.75,0-30.343-1.129-38.886-2.247V228.788
			c12.593-2.024,28.982-3.148,46.321-3.148c28.772,0,47.43,5.178,62.059,16.182c15.715,11.707,25.618,30.359,25.618,57.12
			C479.146,327.935,468.588,347.941,453.97,360.324z"/>
		<path d="M395.055,251.947c-7.646,0-12.582,0.675-15.504,1.339v99.159c2.922,0.675,7.646,0.675,11.918,0.675
			c31.029,0.243,51.248-16.854,51.248-53.051C442.948,268.59,424.502,251.947,395.055,251.947z"/>
		<path d="M169.236,300.069c0.222-31.479-18.214-48.123-47.648-48.123c-7.67,0-12.604,0.675-15.525,1.339v99.159
			c2.922,0.675,7.646,0.675,11.916,0.675C149.007,353.363,169.236,336.267,169.236,300.069z"/>
	</g>
</g>
<g>
</g>
<g>
</g>
<g>
</g>
<g>
</g>
<g>
</g>
<g>
</g>
<g>
</g>
<g>
</g>
<g>
</g>
<g>
</g>
<g>
</g>
<g>
</g>
<g>
</g>
<g>
</g>
<g>
</g>
</svg>
