<?xml version="1.0" encoding="iso-8859-1"?>
<!-- Generator: Adobe Illustrator 16.0.0, SVG Export Plug-In . SVG Version: 6.00 Build 0)  -->
<!DOCTYPE svg PUBLIC "-//W3C//DTD SVG 1.1//EN" "http://www.w3.org/Graphics/SVG/1.1/DTD/svg11.dtd">
<svg version="1.1" id="Capa_1" xmlns="http://www.w3.org/2000/svg" xmlns:xlink="http://www.w3.org/1999/xlink" x="0px" y="0px"
	 width="548.29px" height="548.291px" viewBox="0 0 548.29 548.291" style="enable-background:new 0 0 548.29 548.291;"
	 xml:space="preserve">
<g>
	<path d="M260.234,286.209c-2.446-8.137-4.872-18.301-6.918-26.437h-0.407c-2.028,8.136-4.065,18.508-6.302,26.437l-8.137,29.08
		h30.311L260.234,286.209z"/>
	<path d="M486.2,196.116h-13.164V132.59c0-0.399-0.064-0.795-0.116-1.2c-0.021-2.52-0.824-4.997-2.551-6.96L364.656,3.677
		c-0.031-0.031-0.064-0.044-0.085-0.075c-0.629-0.704-1.364-1.29-2.141-1.796c-0.231-0.154-0.462-0.283-0.704-0.419
		c-0.672-0.365-1.386-0.672-2.121-0.893c-0.199-0.052-0.377-0.134-0.576-0.186C358.229,0.118,357.4,0,356.562,0H96.757
		C84.893,0,75.256,9.649,75.256,21.502v174.613H62.093c-16.967,0-30.733,13.756-30.733,30.733v159.812
		c0,16.961,13.766,30.731,30.733,30.731h13.163V526.79c0,11.854,9.637,21.501,21.501,21.501h354.777
		c11.853,0,21.502-9.647,21.502-21.501V417.392H486.2c16.977,0,30.729-13.771,30.729-30.731V226.849
		C516.93,209.872,503.177,196.116,486.2,196.116z M96.757,21.502h249.053v110.006c0,5.943,4.818,10.751,10.751,10.751h94.973v53.861
		H96.757V21.502z M317.17,373.653h-33.342l-10.575-35.181h-39.255l-9.765,35.181h-32.126l41.891-137.059h40.67L317.17,373.653z
		 M76.434,356.573c-12.622-11.79-19.53-29.681-19.32-49.817c0.2-45.56,33.344-71.591,78.282-71.591
		c17.69,0,31.317,3.467,38.027,6.718l-6.499,24.809c-7.525-3.254-16.884-5.902-31.924-5.902c-25.83,0-45.358,14.648-45.358,44.329
		c0,28.272,17.69,44.939,43.116,44.939c7.105,0,12.809-0.813,15.255-2.025v-28.673h-21.169v-24.195h51.046v72.191
		c-9.554,3.254-27.647,7.731-45.757,7.731C107.133,375.082,89.027,368.771,76.434,356.573z M451.534,520.962H96.757v-103.57h354.777
		V520.962z M453.391,373.653l-2.025-52.461c-0.608-16.475-1.218-36.411-1.218-56.33h-0.618c-4.264,17.483-9.965,37-15.244,53.074
		l-16.683,53.48h-24.19l-14.651-53.07c-4.473-16.064-9.139-35.591-12.409-53.484h-0.399c-0.803,18.496-1.443,39.658-2.446,56.738
		l-2.436,52.053h-28.673l8.736-137.059h41.286l13.438,45.751c4.262,15.864,8.525,32.95,11.585,49.009h0.61
		c3.862-15.864,8.523-33.947,13.008-49.203l14.649-45.557h40.447l7.522,137.059H453.391z"/>
</g>
<g>
</g>
<g>
</g>
<g>
</g>
<g>
</g>
<g>
</g>
<g>
</g>
<g>
</g>
<g>
</g>
<g>
</g>
<g>
</g>
<g>
</g>
<g>
</g>
<g>
</g>
<g>
</g>
<g>
</g>
</svg>
