<?xml version="1.0" encoding="iso-8859-1"?>
<!-- Generator: Adobe Illustrator 16.0.0, SVG Export Plug-In . SVG Version: 6.00 Build 0)  -->
<!DOCTYPE svg PUBLIC "-//W3C//DTD SVG 1.1//EN" "http://www.w3.org/Graphics/SVG/1.1/DTD/svg11.dtd">
<svg version="1.1" id="Capa_1" xmlns="http://www.w3.org/2000/svg" xmlns:xlink="http://www.w3.org/1999/xlink" x="0px" y="0px"
	 width="550.801px" height="550.801px" viewBox="0 0 550.801 550.801" style="enable-background:new 0 0 550.801 550.801;"
	 xml:space="preserve">
<g>
	<path d="M164.405,273.71c0-14.283-9.906-22.815-27.39-22.815c-7.161,0-11.995,0.696-14.52,1.395v45.833
		c2.987,0.686,6.673,0.918,11.738,0.918C152.886,299.047,164.405,289.607,164.405,273.71z"/>
	<path d="M488.427,197.014h-13.226v-63.817c0-0.401-0.063-0.799-0.116-1.205c-0.021-2.531-0.828-5.021-2.563-6.993L366.325,3.694
		c-0.031-0.031-0.063-0.045-0.084-0.076c-0.633-0.707-1.371-1.295-2.151-1.804c-0.232-0.155-0.465-0.285-0.707-0.422
		c-0.675-0.366-1.393-0.675-2.131-0.896c-0.2-0.053-0.379-0.135-0.58-0.188C359.871,0.119,359.037,0,358.193,0H97.201
		c-11.918,0-21.6,9.693-21.6,21.601v175.413H62.378c-17.044,0-30.874,13.818-30.874,30.873v160.545
		c0,17.038,13.83,30.87,30.874,30.87h13.223V529.2c0,11.907,9.682,21.601,21.6,21.601h356.4c11.907,0,21.601-9.693,21.601-21.601
		V419.302h13.226c17.054,0,30.87-13.832,30.87-30.87V227.887C519.297,210.832,505.48,197.014,488.427,197.014z M97.201,21.601
		h250.193v110.51c0,5.97,4.841,10.8,10.8,10.8h95.407v54.108h-356.4V21.601z M300.987,354.091c10.589,0,22.349-2.31,29.247-5.068
		l5.305,27.412c-6.455,3.222-20.973,6.676-39.852,6.676c-53.665,0-81.306-33.396-81.306-77.625
		c0-52.982,37.779-82.461,84.749-82.461c18.204,0,32.026,3.694,38.243,6.908l-7.146,27.875c-7.14-2.998-17.044-5.758-29.483-5.758
		c-27.86,0-49.525,16.812-49.525,51.363C251.225,334.516,269.65,354.091,300.987,354.091z M87.708,380.806V227.644
		c10.821-1.848,26.038-3.219,47.461-3.219c21.642,0,37.07,4.137,47.427,12.438c9.914,7.823,16.59,20.725,16.59,35.92
		c0,15.206-5.065,28.094-14.283,36.858c-11.974,11.291-29.71,16.348-50.448,16.348c-4.612,0-8.741-0.232-11.971-0.696v55.503H87.708
		V380.806z M453.601,523.347h-356.4V419.302h356.4V523.347z M469.348,255.053h-42.389v125.753h-35.227V255.053h-41.691v-29.489
		h119.307V255.053z"/>
</g>
<g>
</g>
<g>
</g>
<g>
</g>
<g>
</g>
<g>
</g>
<g>
</g>
<g>
</g>
<g>
</g>
<g>
</g>
<g>
</g>
<g>
</g>
<g>
</g>
<g>
</g>
<g>
</g>
<g>
</g>
</svg>
