<?xml version="1.0" encoding="iso-8859-1"?>
<!-- Generator: Adobe Illustrator 19.0.0, SVG Export Plug-In . SVG Version: 6.00 Build 0)  -->
<svg version="1.1" id="Capa_1" xmlns="http://www.w3.org/2000/svg" xmlns:xlink="http://www.w3.org/1999/xlink" x="0px" y="0px"
	 viewBox="0 0 490 490" style="enable-background:new 0 0 490 490;" xml:space="preserve">
<g>
	<path d="M154.803,296.667h-3.753h-30.371v75.366h14.296v-24.345h16.853l3.305-0.06c10.303,0,17.152-1.66,20.546-4.965
		c3.38-3.32,5.069-10.019,5.069-20.113c0-10.154-1.764-17.017-5.323-20.561C171.88,298.431,165.002,296.667,154.803,296.667z
		 M163.611,333.408c-1.75,1.495-5.862,2.243-12.337,2.243h-16.299v-26.946h17.735c6.101,0,9.884,0.763,11.335,2.288
		c1.465,1.525,2.183,5.473,2.183,11.843C166.228,328.398,165.361,331.912,163.611,333.408z"/>
	<path d="M245.527,340.062l0.105,9.72l0.179,4.86l0.165,4.86h-0.508l-2.871-6.191l-2.871-6.131
		c-2.273-4.815-4.277-8.927-6.011-12.307l-19.604-38.207h-24.24v75.366h14.296v-43.231l-0.105-9.884l-0.165-4.92l-0.224-4.965h0.553
		l2.378,5.413l2.423,5.398c2.288,5.159,3.963,8.763,5.024,10.826l21.533,41.362h24.24v-75.366h-14.296V340.062z"/>
	<path d="M302.74,331.942v10.542h18.946l-0.06,3.095c0,6.445-1.062,10.527-3.17,12.262c-2.123,1.735-7.088,2.602-14.894,2.602
		c-8.015,0-13.129-1.032-15.342-3.065c-2.213-2.049-3.32-6.804-3.32-14.281l-0.105-9.66l0.06-7.566
		c0-7.626,1.106-12.456,3.335-14.52c2.228-2.064,7.477-3.095,15.761-3.095c7.626,0,12.382,0.598,14.281,1.794
		c1.899,1.196,2.976,4.262,3.23,9.196h14.46c0-9.795-1.944-16.12-5.847-18.976c-3.903-2.841-12.561-4.277-25.96-4.277
		c-10.228,0-17.481,0.927-21.758,2.766c-4.262,1.839-7.447,5.413-9.555,10.707c-1.69,4.352-2.527,14.759-2.527,31.253
		c0,12.92,2.108,21.488,6.34,25.675c4.232,4.202,12.875,6.296,25.9,6.296c14.221,0,23.372-1.57,27.47-4.71
		c4.112-3.155,6.161-10.168,6.161-21.07l-0.224-14.969H302.74z"/>
	<path d="M77.788,0v265.111H42.189v139.615h0.001l35.59,35.591L77.788,490h370.023V102.422L345.388,0H77.788z M395.793,389.413
		H57.501v-108.99h338.292V389.413z M353.022,36.962l57.816,57.804h-57.816V36.962z"/>
</g>
<g>
</g>
<g>
</g>
<g>
</g>
<g>
</g>
<g>
</g>
<g>
</g>
<g>
</g>
<g>
</g>
<g>
</g>
<g>
</g>
<g>
</g>
<g>
</g>
<g>
</g>
<g>
</g>
<g>
</g>
</svg>
