<?xml version="1.0" encoding="iso-8859-1"?>
<!-- Generator: Adobe Illustrator 16.0.0, SVG Export Plug-In . SVG Version: 6.00 Build 0)  -->
<!DOCTYPE svg PUBLIC "-//W3C//DTD SVG 1.1//EN" "http://www.w3.org/Graphics/SVG/1.1/DTD/svg11.dtd">
<svg version="1.1" id="Capa_1" xmlns="http://www.w3.org/2000/svg" xmlns:xlink="http://www.w3.org/1999/xlink" x="0px" y="0px"
	 width="548.291px" height="548.291px" viewBox="0 0 548.291 548.291" style="enable-background:new 0 0 548.291 548.291;"
	 xml:space="preserve">
<g>
	<path d="M486.201,196.124h-13.166V132.59c0-0.396-0.062-0.795-0.115-1.196c-0.021-2.523-0.825-5-2.552-6.963L364.657,3.677
		c-0.033-0.031-0.064-0.042-0.085-0.073c-0.63-0.707-1.364-1.292-2.143-1.795c-0.229-0.157-0.461-0.286-0.702-0.421
		c-0.672-0.366-1.387-0.671-2.121-0.892c-0.2-0.055-0.379-0.136-0.577-0.188C358.23,0.118,357.401,0,356.562,0H96.757
		C84.894,0,75.256,9.651,75.256,21.502v174.613H62.092c-16.971,0-30.732,13.756-30.732,30.733v159.812
		c0,16.968,13.761,30.731,30.732,30.731h13.164V526.79c0,11.854,9.638,21.501,21.501,21.501h354.776
		c11.853,0,21.501-9.647,21.501-21.501V417.392h13.166c16.966,0,30.729-13.764,30.729-30.731V226.854
		C516.93,209.872,503.167,196.124,486.201,196.124z M451.534,520.962H96.757v-103.57h354.776V520.962z M213.05,336.415
		c4.551,16.419,9.084,35.443,11.89,41.071h-33.714c-2.383-4.116-5.842-16-10.166-33.938c-3.893-18.162-10.161-23.146-23.56-23.355
		h-9.955v57.293H114.91V233.728c10.59-1.729,26.368-3.032,43.88-3.032c21.62,0,36.756,3.246,47.126,11.457
		c8.659,6.929,13.417,17.082,13.417,30.488c0,18.595-13.197,31.352-25.737,35.888v0.649
		C203.756,313.28,209.378,323.007,213.05,336.415z M232.1,259.45v-27.672h112v27.672h-39.79v118.036h-33.071V259.45H232.1z
		 M447.013,292.088v26.803h-52.32v58.595h-33.071V231.778h89.061v27.021h-55.989v33.29H447.013z M451.534,196.124H96.757V21.502
		h249.054v110.009c0,5.939,4.817,10.75,10.751,10.75h94.972V196.124z"/>
	<path d="M162.462,255.124c-7.982,0-12.537,0.649-14.912,1.079v40.209h12.977c16.425,0,26.155-8.209,26.155-20.965
		C186.677,262.041,177.593,255.342,162.462,255.124z"/>
</g>
<g>
</g>
<g>
</g>
<g>
</g>
<g>
</g>
<g>
</g>
<g>
</g>
<g>
</g>
<g>
</g>
<g>
</g>
<g>
</g>
<g>
</g>
<g>
</g>
<g>
</g>
<g>
</g>
<g>
</g>
</svg>
