<?xml version="1.0" encoding="iso-8859-1"?>
<!-- Generator: Adobe Illustrator 19.0.0, SVG Export Plug-In . SVG Version: 6.00 Build 0)  -->
<svg version="1.1" id="Capa_1" xmlns="http://www.w3.org/2000/svg" xmlns:xlink="http://www.w3.org/1999/xlink" x="0px" y="0px"
	 viewBox="0 0 490 490" style="enable-background:new 0 0 490 490;" xml:space="preserve">
<g>
	<path d="M143.57,328.022c-9.496-0.508-15.088-1.256-16.778-2.213c-1.705-0.957-2.542-3.813-2.542-8.553
		c0-4.008,1.032-6.639,3.11-7.895c2.079-1.256,6.505-1.884,13.279-1.884c5.742,0,9.391,0.553,10.946,1.63
		c1.54,1.092,2.482,3.753,2.811,7.985c0,0.329,0.03,0.837,0.105,1.54h13.982v-2.871c0-7.806-1.974-13.04-5.922-15.731
		c-3.933-2.692-11.574-4.038-22.909-4.038c-11.963,0-19.948,1.466-23.941,4.396c-3.993,2.916-5.981,8.793-5.981,17.585
		c0,8.613,1.645,14.221,4.965,16.838c3.305,2.617,10.931,4.277,22.864,4.965l7.895,0.508c4.456,0.254,7.342,0.987,8.688,2.183
		c1.346,1.196,2.019,3.604,2.019,7.253c0,4.935-0.882,8.09-2.647,9.451c-1.765,1.361-5.862,2.034-12.262,2.034
		c-8.21,0-13.234-0.583-15.073-1.764c-1.839-1.181-2.766-4.396-2.766-9.66l-0.045-1.6h-13.922l0.06,2.751
		c0,8.763,1.944,14.58,5.817,17.451c3.888,2.871,11.754,4.307,23.612,4.307c13.174,0,21.698-1.466,25.571-4.381
		c3.858-2.931,5.787-9.406,5.787-19.41c0-8.135-1.645-13.488-4.935-16.075C162.067,330.25,154.8,328.651,143.57,328.022z"/>
	<path d="M260.417,337.967c-0.778,2.901-1.645,6.58-2.602,11.036l-1.151,5.518l-1.226,5.533h-0.434l-1.331-5.533l-1.271-5.458
		c-0.912-3.798-1.854-7.462-2.811-10.991l-11.32-41.407h-16.793l-11.589,41.407c-1.256,4.456-2.228,8.12-2.931,10.991l-1.331,5.458
		c-0.284,1.256-0.733,3.095-1.316,5.533h-0.493l-1.107-5.533l-1.166-5.518c-0.987-4.665-1.824-8.329-2.482-10.991l-10.871-41.347
		h-14.58l19.544,75.366h20.92l10.782-38.595c0.882-3.125,1.705-6.266,2.482-9.391l1.047-4.636l1.107-4.695h0.493l1.047,4.636
		c1.286,5.862,2.408,10.527,3.365,14.026l10.497,38.655h21.144l20.158-75.366h-14.625L260.417,337.967z"/>
	<polygon points="292.882,372.031 307.192,372.031 307.192,341.047 340.972,341.047 340.972,329.009 307.192,329.009 
		307.192,308.702 342.797,308.702 342.797,296.665 292.882,296.665 	"/>
	<path d="M77.788,0v265.111H42.189v139.615h0.001l35.59,35.591L77.788,490h370.023V102.422L345.388,0H77.788z M395.793,389.413
		H57.501v-108.99h338.292V389.413z M353.022,36.962l57.816,57.804h-57.816V36.962z"/>
</g>
<g>
</g>
<g>
</g>
<g>
</g>
<g>
</g>
<g>
</g>
<g>
</g>
<g>
</g>
<g>
</g>
<g>
</g>
<g>
</g>
<g>
</g>
<g>
</g>
<g>
</g>
<g>
</g>
<g>
</g>
</svg>
