<?xml version="1.0" encoding="iso-8859-1"?>
<!-- Generator: Adobe Illustrator 19.0.0, SVG Export Plug-In . SVG Version: 6.00 Build 0)  -->
<svg version="1.1" id="Capa_1" xmlns="http://www.w3.org/2000/svg" xmlns:xlink="http://www.w3.org/1999/xlink" x="0px" y="0px"
	 viewBox="0 0 490 490" style="enable-background:new 0 0 490 490;" xml:space="preserve">
<g>
	<polygon points="132.668,309.465 154.441,309.465 154.441,372.031 168.737,372.031 168.737,309.465 191.257,309.465 
		191.257,296.665 132.668,296.665 	"/>
	<path d="M261.987,296.665H245.09l-10.049,16.838c-1.764,2.946-3.23,5.563-4.411,7.836l-1.376,2.602
		c-0.299,0.583-0.763,1.466-1.391,2.647h-0.209l-1.376-2.647l-1.391-2.662c-1.391-2.572-2.886-5.189-4.471-7.836l-10.049-16.778
		h-17.062l22.969,36.487l-24.733,38.879h17.227l10.871-18.109c2.437-4.007,4.606-7.821,6.52-11.439l1.6-2.976h0.224l1.6,2.931
		l1.54,2.976c1.525,2.871,3.11,5.712,4.755,8.509l10.826,18.109h16.778l-24.135-38.879L261.987,296.665z"/>
	<polygon points="263.707,309.465 285.465,309.465 285.465,372.031 299.76,372.031 299.76,309.465 322.31,309.465 322.31,296.665 
		263.707,296.665 	"/>
	<path d="M77.788,0v265.111H42.189v139.615h0.001l35.59,35.591L77.788,490h370.023V102.422L345.388,0H77.788z M395.793,389.413
		H57.501v-108.99h338.292V389.413z M353.022,36.962l57.816,57.804h-57.816V36.962z"/>
</g>
<g>
</g>
<g>
</g>
<g>
</g>
<g>
</g>
<g>
</g>
<g>
</g>
<g>
</g>
<g>
</g>
<g>
</g>
<g>
</g>
<g>
</g>
<g>
</g>
<g>
</g>
<g>
</g>
<g>
</g>
</svg>
