<svg xmlns="http://www.w3.org/2000/svg" id="Layer_1" viewBox="0 0 159.7 73.3">
    <style>
        .st0{fill:#555}
    </style>
    <path d="M148.5 0H11.2C5 0 0 5 0 11.2v50.9c0 6.2 5 11.2 11.2 11.2h137.3c6.2 0 11.2-5 11.2-11.2V11.2c0-6.2-5-11.2-11.2-11.2zM61.4 52.3l-9.3-12.8-9.3 12.8h-7.2l13-17.4-12.5-16.7h7.2l8.8 12.2L61 18.2h7.2L55.7 35l13 17.4h-7.3zM95.5 48c-1.1 1.5-2.7 2.7-4.7 3.5-2 .8-4.5 1.2-7.2 1.2-2.6 0-5.1-.4-7.4-1.1-2.3-.7-4.2-1.7-5.8-3l2.1-4.5c1.7 1.2 3.4 2.2 5.2 2.8 1.8.6 3.8.9 5.9.9 2.4 0 4.2-.4 5.5-1.2s1.9-2 1.9-3.5c0-1.3-.6-2.3-1.8-3-1.2-.7-3.2-1.3-5.9-1.9-4.3-.9-7.4-2.1-9.4-3.6C72 33.1 71 31 71 28.2c0-2 .5-3.8 1.6-5.4 1.1-1.6 2.6-2.8 4.6-3.7 2-.9 4.3-1.3 6.9-1.3 2.4 0 4.7.4 6.8 1.1 2.2.7 3.9 1.7 5.3 3l-2.1 4.5c-3-2.4-6.4-3.6-10.1-3.6-2.2 0-4 .5-5.2 1.4-1.3.9-1.9 2.2-1.9 3.7 0 1.3.6 2.4 1.7 3.1 1.1.7 3.1 1.4 5.8 2 2.8.7 5.2 1.4 7 2.2s3.2 1.8 4.1 3c1 1.2 1.4 2.8 1.4 4.6.2 1.9-.3 3.7-1.4 5.2zm29.6 4.3h-22.2V18.2h6.2v29.1h16v5z" class="st0"/>
</svg>
