<svg xmlns="http://www.w3.org/2000/svg" width="56.693" height="56.693" viewBox="0 0 56.693 56.693">
    <path d="M15.206 42.948c1.004.659 3.024 1.427 5.416 1.427 5.352 0 7.788-3.398 7.788-6.557 0-2.189-1.17-4.044-3.047-5.042 1.49-1.056 2.314-2.591 2.314-4.395 0-2.682-1.946-5.385-6.295-5.385-2.382 0-4.453.874-5.5 1.622a.843.843 0 0 0-.3.981l.705 1.877a.842.842 0 0 0 1.278.388c.71-.508 2.008-1.104 3.32-1.104 1.611 0 2.499.721 2.499 2.03 0 1.747-2.038 2.38-3.408 2.38h-1.435a.842.842 0 0 0-.842.842v1.936c0 .464.377.843.842.843h1.435c.677 0 4.05.144 4.083 2.982.012.726-.255 1.423-.736 1.912-.603.612-1.521.925-2.731.925-1.605 0-3.135-.664-3.787-1.055a.844.844 0 0 0-1.227.44l-.705 1.964a.844.844 0 0 0 .333.989zM31.472 28.561a.846.846 0 0 0 1.218.534l2.128-1.148v15.265c0 .464.377.841.842.841h2.492a.842.842 0 0 0 .842-.841V24.163a.844.844 0 0 0-.842-.844h-2.199a.832.832 0 0 0-.396.1l-4.162 2.227a.84.84 0 0 0-.418.95l.495 1.965z"/>
    <path d="M48.142 4.374H8.553a5.183 5.183 0 0 0-5.178 5.177v39.678a5.184 5.184 0 0 0 5.178 5.177h39.589a5.183 5.183 0 0 0 5.177-5.177V9.551a5.183 5.183 0 0 0-5.177-5.177zm-8.97 3.738a2.005 2.005 0 1 1-.001 4.01 2.005 2.005 0 0 1 .001-4.01zm-21.544-.016a2.005 2.005 0 1 1-.001 4.01 2.005 2.005 0 0 1 .001-4.01zM49.95 49.229c0 .995-.812 1.808-1.809 1.808H8.553a1.81 1.81 0 0 1-1.807-1.808V15.167H49.95v34.062z"/>
</svg>
