<?xml version="1.0" encoding="utf-8"?>
<!-- Generator: Adobe Illustrator 17.1.0, SVG Export Plug-In . SVG Version: 6.00 Build 0)  -->
<!DOCTYPE svg PUBLIC "-//W3C//DTD SVG 1.1//EN" "http://www.w3.org/Graphics/SVG/1.1/DTD/svg11.dtd">
<svg version="1.1" id="Layer_1" xmlns="http://www.w3.org/2000/svg" xmlns:xlink="http://www.w3.org/1999/xlink" x="0px" y="0px"
	 viewBox="0 1 16 14" enable-background="new 0 1 16 14" xml:space="preserve">
<path fill="#FFFFFF" d="M7.5,11.1C7.7,10.6,9,8.9,9,6c0-1.7-1.3-3-3-3S3,4.3,3,6c0,2.9,1.3,4.6,1.5,5.1C3,11.2,0,12.2,0,14
	c0,0.4,0.3,1,1,1h10c0.7,0,1-0.6,1-1C12,12.2,9,11.2,7.5,11.1z M12.6,8C12.9,7.3,14,5.3,14,4c0-1.7-1.3-3-3-3
	c-0.8,0-1.6,0.3-2.1,0.9C10.1,2.8,11,4.3,11,6c0,1.5-0.3,2.8-0.6,3.7c0.8,0.3,1.5,0.7,2.1,1.3H15c0.6,0,1-0.5,1-1
	C16,8.7,13.6,8.2,12.6,8z"/>
</svg>
