<svg xmlns="http://www.w3.org/2000/svg" viewBox="0 0 480 480"><defs><style>.a{fill:none;}.b,.c{fill:#f2f2f2;}.b{fill-rule:evenodd;}</style></defs><title>business-areas</title><path class="a" d="M-449-209H2167V847H-449Z"/><path class="a" d="M49,289h60v60H49Z"/><path class="b" d="M85,339H82v-8H76v8H73v-8H67v-6H59v-3h8v-6H59v-3h8v-6h6v-8h3v8h6v-8h3v8h6v6h8v3H91v6h8v3H91v6H85Zm3-29H70v18H88Z"/><path class="a" d="M169,169h60v60H169Z"/><path class="b" d="M205,219h-3v-8h-6v8h-3v-8h-6v-6h-8v-3h8v-6h-8v-3h8v-6h6v-8h3v8h6v-8h3v8h6v6h8v3h-8v6h8v3h-8v6h-6Zm3-29H190v18h18Z"/><path class="a" d="M229,349h60v60H229Z"/><path class="b" d="M265,399h-3v-8h-6v8h-3v-8h-6v-6h-8v-3h8v-6h-8v-3h8v-6h6v-8h3v8h6v-8h3v8h6v6h8v3h-8v6h8v3h-8v6h-6Zm3-29H250v18h18Z"/><path class="a" d="M409,409h60v60H409Z"/><path class="b" d="M445,459h-3v-8h-6v8h-3v-8h-6v-6h-8v-3h8v-6h-8v-3h8v-6h6v-8h3v8h6v-8h3v8h6v6h8v3h-8v6h8v3h-8v6h-6Zm3-29H430v18h18Z"/><path class="a" d="M109-11h60V49H109Z"/><path class="b" d="M145,39h-3V31h-6v8h-3V31h-6V25h-8V22h8V16h-8V13h8V7h6V-1h3V7h6V-1h3V7h6v6h8v3h-8v6h8v3h-8v6h-6Zm3-29H130V28h18Z"/><path class="a" d="M109,469h60v60H109Z"/><path class="b" d="M145,519h-3v-8h-6v8h-3v-8h-6v-6h-8v-3h8v-6h-8v-3h8v-6h6v-8h3v8h6v-8h3v8h6v6h8v3h-8v6h8v3h-8v6h-6Zm3-29H130v18h18Z"/><path class="a" d="M289,49h60v60H289Z"/><path class="b" d="M325,99h-3V91h-6v8h-3V91h-6V85h-8V82h8V76h-8V73h8V67h6V59h3v8h6V59h3v8h6v6h8v3h-8v6h8v3h-8v6h-6Zm3-29H310V88h18Z"/><path class="a" d="M-11,109H49v60H-11Z"/><path class="b" d="M25,159H22v-8H16v8H13v-8H7v-6H-1v-3H7v-6H-1v-3H7v-6h6v-8h3v8h6v-8h3v8h6v6h8v3H31v6h8v3H31v6H25Zm3-29H10v18H28Z"/><path class="a" d="M469,109h60v60H469Z"/><path class="b" d="M505,159h-3v-8h-6v8h-3v-8h-6v-6h-8v-3h8v-6h-8v-3h8v-6h6v-8h3v8h6v-8h3v8h6v6h8v3h-8v6h8v3h-8v6h-6Zm3-29H490v18h18Z"/><path class="a" d="M349,229h60v60H349Z"/><path class="b" d="M385,279h-3v-8h-6v8h-3v-8h-6v-6h-8v-3h8v-6h-8v-3h8v-6h6v-8h3v8h6v-8h3v8h6v6h8v3h-8v6h8v3h-8v6h-6Zm3-29H370v18h18Z"/><path class="a" d="M409,289h60v60H409Z"/><path class="c" d="M438,300v18H420V300Zm-3,3H423v12h12Zm23-3v18H440V300Zm-3,3H443v12h12Zm-17,17v18H420V320Zm-3,3H423v12h12Zm23-3v18H440V320Zm-3,3H443v12h12Z"/><path class="a" d="M109,349h60v60H109Z"/><path class="c" d="M138,360v18H120V360Zm-3,3H123v12h12Zm23-3v18H140V360Zm-3,3H143v12h12Zm-17,17v18H120V380Zm-3,3H123v12h12Zm23-3v18H140V380Zm-3,3H143v12h12Z"/><path class="a" d="M289,409h60v60H289Z"/><path class="c" d="M318,420v18H300V420Zm-3,3H303v12h12Zm23-3v18H320V420Zm-3,3H323v12h12Zm-17,17v18H300V440Zm-3,3H303v12h12Zm23-3v18H320V440Zm-3,3H323v12h12Z"/><path class="a" d="M-11-11H49V49H-11Z"/><path class="c" d="M18,0V18H0V0ZM15,3H3V15H15ZM38,0V18H20V0ZM35,3H23V15H35ZM18,20V38H0V20Zm-3,3H3V35H15Zm23-3V38H20V20Zm-3,3H23V35H35Z"/><path class="a" d="M-11,469H49v60H-11Z"/><path class="a" d="M469-11h60V49H469Z"/><path class="a" d="M469,469h60v60H469Z"/><path class="a" d="M169,49h60v60H169Z"/><path class="c" d="M198,60V78H180V60Zm-3,3H183V75h12Zm23-3V78H200V60Zm-3,3H203V75h12ZM198,80V98H180V80Zm-3,3H183V95h12Zm23-3V98H200V80Zm-3,3H203V95h12Z"/><path class="a" d="M349,109h60v60H349Z"/><path class="c" d="M378,120v18H360V120Zm-3,3H363v12h12Zm23-3v18H380V120Zm-3,3H383v12h12Zm-17,17v18H360V140Zm-3,3H363v12h12Zm23-3v18H380V140Zm-3,3H383v12h12Z"/><path class="a" d="M229,229h60v60H229Z"/><path class="c" d="M258,240v18H240V240Zm-3,3H243v12h12Zm23-3v18H260V240Zm-3,3H263v12h12Zm-17,17v18H240V260Zm-3,3H243v12h12Zm23-3v18H260V260Zm-3,3H263v12h12Z"/><path class="a" d="M49,169h60v60H49Z"/><path class="c" d="M78,180v18H60V180Zm-3,3H63v12H75Zm23-3v18H80V180Zm-3,3H83v12H95ZM78,200v18H60V200Zm-3,3H63v12H75Zm23-3v18H80V200Zm-3,3H83v12H95Z"/><path class="a" d="M169,289h60v60H169Z"/><path class="c" d="M219,301v36l-8-1.2v-3l5,.75v-29l-5,.75v-3Zm-10-1v38l-8-1.6v-3.06l5,1V303.66l-5,1V301.6Zm-10-1v40l-20-5V304Zm-17,7.34v25.32l14,3.5V302.84Z"/><path class="a" d="M289,169h60v60H289Z"/><path class="c" d="M339,181v36l-8-1.2v-3l5,.75v-29l-5,.75v-3Zm-10-1v38l-8-1.6v-3.06l5,1V183.66l-5,1V181.6Zm-10-1v40l-20-5V184Zm-17,7.34v25.32l14,3.5V182.84Z"/><path class="a" d="M-11,229H49v60H-11Z"/><path class="c" d="M39,241v36l-8-1.2v-3l5,.75v-29l-5,.75v-3Zm-10-1v38l-8-1.6v-3.06l5,1V243.66l-5,1V241.6Zm-10-1v40l-20-5V244ZM2,246.34v25.32l14,3.5V242.84Z"/><path class="a" d="M469,229h60v60H469Z"/><path class="c" d="M519,241v36l-8-1.2v-3l5,.75v-29l-5,.75v-3Zm-10-1v38l-8-1.6v-3.06l5,1V243.66l-5,1V241.6Zm-10-1v40l-20-5V244Zm-17,7.34v25.32l14,3.5V242.84Z"/><path class="a" d="M409,49h60v60H409Z"/><path class="c" d="M459,61V97l-8-1.2v-3l5,.75v-29l-5,.75v-3Zm-10-1V98l-8-1.6V93.34l5,1V63.66l-5,1V61.6Zm-10-1V99l-20-5V64Zm-17,7.34V91.66l14,3.5V62.84l-14,3.5Z"/><path class="a" d="M109,109h60v60H109Z"/><path class="c" d="M159,121v36l-8-1.2v-3l5,.75v-29l-5,.75v-3Zm-10-1v38l-8-1.6v-3.06l5,1V123.66l-5,1V121.6Zm-10-1v40l-20-5V124Zm-17,7.34v25.32l14,3.5V122.84Z"/><path class="a" d="M349,349h60v60H349Z"/><path class="c" d="M399,361v36l-8-1.2v-3l5,.75v-29l-5,.75v-3Zm-10-1v38l-8-1.6v-3.06l5,1V363.66l-5,1V361.6Zm-10-1v40l-20-5V364Zm-17,7.34v25.32l14,3.5V362.84Z"/><path class="a" d="M49,409h60v60H49Z"/><path class="c" d="M99,421v36l-8-1.2v-3l5,.75v-29l-5,.75v-3Zm-10-1v38l-8-1.6v-3.06l5,1V423.66l-5,1V421.6Zm-10-1v40l-20-5V424Zm-17,7.34v25.32l14,3.5V422.84Z"/><path class="a" d="M229-11h60V49H229Z"/><path class="c" d="M279,1V37l-8-1.2v-3l5,.75v-29l-5,.75v-3ZM269,0V38l-8-1.6V33.34l5,1V3.66l-5,1V1.6ZM259-1V39l-20-5V4ZM242,6.34V31.66l14,3.5V2.84l-14,3.5Z"/><path class="a" d="M229,469h60v60H229Z"/><path class="c" d="M279,481v36l-8-1.2v-3l5,.75v-29l-5,.75v-3Zm-10-1v38l-8-1.6v-3.06l5,1V483.66l-5,1V481.6Zm-10-1v40l-20-5V484Zm-17,7.34v25.32l14,3.5V482.84Z"/><path class="a" d="M289,289h60v60H289Z"/><path class="c" d="M323,335h9v3H320v-8h-2v8H306v-3h9v-5h-8.27A9,9,0,0,1,305,312.22V312a12,12,0,0,1,23.33-4l.67,0a11,11,0,0,1,.29,22H323Zm-6-32a9,9,0,0,0-9,9l0,2.64-2.36.54A6,6,0,0,0,306.78,327h22.43a8,8,0,0,0-.39-16l-.3,0-2.27.14-.76-2.14A9,9,0,0,0,317,303Z"/><path class="a" d="M-11,349H49v60H-11Z"/><path class="c" d="M23,395h9v3H20v-8H18v8H6v-3h9v-5H6.73A9,9,0,0,1,5,372.22V372a12,12,0,0,1,23.33-4l.67,0a11,11,0,0,1,.29,22H23Zm-6-32a9,9,0,0,0-9,9l0,2.64-2.35.54A6,6,0,0,0,6.78,387H29.21a8,8,0,0,0-.39-16l-.31,0-2.26.14L25.49,369A9,9,0,0,0,17,363Z"/><path class="a" d="M469,349h60v60H469Z"/><path class="c" d="M503,395h9v3H500v-8h-2v8H486v-3h9v-5h-8.27A9,9,0,0,1,485,372.22V372a12,12,0,0,1,23.33-4l.67,0a11,11,0,0,1,.29,22H503Zm-6-32a9,9,0,0,0-9,9l0,2.64-2.36.54A6,6,0,0,0,486.78,387h22.43a8,8,0,0,0-.39-16l-.3,0-2.27.14-.76-2.14A9,9,0,0,0,497,363Z"/><path class="a" d="M349-11h60V49H349Z"/><path class="c" d="M383,35h9v3H380V30h-2v8H366V35h9V30h-8.27A9,9,0,0,1,365,12.22V12a12,12,0,0,1,23.33-4L389,8a11,11,0,0,1,.29,22H383ZM377,3a9,9,0,0,0-9,9l0,2.64-2.36.54A6,6,0,0,0,366.78,27h22.43a8,8,0,0,0-.39-16h-.3l-2.27.15L385.49,9A9,9,0,0,0,377,3Z"/><path class="a" d="M349,469h60v60H349Z"/><path class="a" d="M169,409h60v60H169Z"/><path class="c" d="M203,455h9v3H200v-8h-2v8H186v-3h9v-5h-8.27A9,9,0,0,1,185,432.22V432a12,12,0,0,1,23.33-4l.67,0a11,11,0,0,1,.29,22H203Zm-6-32a9,9,0,0,0-9,9l0,2.64-2.36.54A6,6,0,0,0,186.78,447h22.43a8,8,0,0,0-.39-16l-.3,0-2.27.14-.76-2.14A9,9,0,0,0,197,423Z"/><path class="a" d="M49,49h60v60H49Z"/><path class="c" d="M83,95h9v3H80V90H78v8H66V95h9V90H66.73A9,9,0,0,1,65,72.22V72a12,12,0,0,1,23.33-4L89,68a11,11,0,0,1,.29,22H83ZM77,63a9,9,0,0,0-9,9l0,2.64-2.35.54A6,6,0,0,0,66.78,87H89.21a8,8,0,0,0-.39-16l-.31,0-2.26.14L85.49,69A9,9,0,0,0,77,63Z"/><path class="a" d="M409,169h60v60H409Z"/><path class="c" d="M443,215h9v3H440v-8h-2v8H426v-3h9v-5h-8.27A9,9,0,0,1,425,192.22V192a12,12,0,0,1,23.33-4l.67,0a11,11,0,0,1,.29,22H443Zm-6-32a9,9,0,0,0-9,9l0,2.64-2.36.54A6,6,0,0,0,426.78,207h22.43a8,8,0,0,0-.39-16l-.3,0-2.27.14-.76-2.14A9,9,0,0,0,437,183Z"/><path class="a" d="M229,109h60v60H229Z"/><path class="c" d="M263,155h9v3H260v-8h-2v8H246v-3h9v-5h-8.27A9,9,0,0,1,245,132.22V132a12,12,0,0,1,23.33-4l.67,0a11,11,0,0,1,.29,22H263Zm-6-32a9,9,0,0,0-9,9l0,2.64-2.36.54A6,6,0,0,0,246.78,147h22.43a8,8,0,0,0-.39-16l-.3,0-2.27.14-.76-2.14A9,9,0,0,0,257,123Z"/><path class="a" d="M106,229h60v60H106Z"/><path class="c" d="M140,275h9v3H137v-8h-2v8H123v-3h9v-5h-8.27A9,9,0,0,1,122,252.22V252a12,12,0,0,1,23.33-4l.67,0a11,11,0,0,1,.29,22H140Zm-6-32a9,9,0,0,0-9,9l0,2.64-2.36.54A6,6,0,0,0,123.78,267h22.43a8,8,0,0,0-.39-16l-.3,0-2.27.14-.76-2.14A9,9,0,0,0,134,243Z"/></svg>