<?xml version="1.0" encoding="iso-8859-1"?>
<!-- Generator: Adobe Illustrator 16.0.0, SVG Export Plug-In . SVG Version: 6.00 Build 0)  -->
<!DOCTYPE svg PUBLIC "-//W3C//DTD SVG 1.1//EN" "http://www.w3.org/Graphics/SVG/1.1/DTD/svg11.dtd">
<svg version="1.1" id="Capa_1" xmlns="http://www.w3.org/2000/svg" xmlns:xlink="http://www.w3.org/1999/xlink" x="0px" y="0px"
	 width="550.801px" height="550.801px" viewBox="0 0 550.801 550.801" style="enable-background:new 0 0 550.801 550.801;"
	 xml:space="preserve">
<g>
	<path d="M488.426,197.014H475.2v-63.817c0-0.401-0.063-0.799-0.116-1.205c-0.021-2.534-0.827-5.023-2.562-6.993L366.325,3.694
		c-0.032-0.034-0.063-0.045-0.085-0.076c-0.633-0.707-1.371-1.298-2.151-1.804c-0.231-0.158-0.464-0.287-0.706-0.422
		c-0.676-0.366-1.393-0.675-2.131-0.896c-0.2-0.053-0.38-0.135-0.58-0.19C359.87,0.119,359.037,0,358.193,0H97.2
		c-11.918,0-21.6,9.693-21.6,21.601v175.413H62.377c-17.049,0-30.873,13.818-30.873,30.87v160.542
		c0,17.044,13.824,30.876,30.873,30.876h13.224V529.2c0,11.907,9.682,21.601,21.6,21.601h356.4c11.907,0,21.6-9.693,21.6-21.601
		V419.302h13.226c17.044,0,30.871-13.827,30.871-30.87v-160.54C519.297,210.832,505.47,197.014,488.426,197.014z M97.2,21.601
		h250.193v110.51c0,5.967,4.841,10.8,10.8,10.8h95.407v54.108H97.2V21.601z M317.546,297.56c0,26.82-9.756,45.319-23.267,56.742
		c-14.752,12.271-37.212,18.088-64.642,18.088c-16.422,0-28.055-1.044-35.965-2.078v-137.61c11.641-1.856,26.82-2.9,42.823-2.9
		c26.599,0,43.851,4.78,57.362,14.966C308.412,255.577,317.546,272.824,317.546,297.56z M70.401,366.31l6.739-24.743
		c5.854,3.043,19.312,8.675,32.767,8.675c17.141,0,25.819-8.243,25.819-18.868c0-13.886-13.901-20.182-28.427-20.182H93.831v-23.657
		h12.804c11.077-0.211,25.175-4.34,25.175-16.276c0-8.466-6.951-14.752-20.838-14.752c-11.485,0-23.646,4.988-29.499,8.456
		l-6.729-23.868c8.467-5.421,25.384-10.634,43.62-10.634c30.156,0,46.873,15.844,46.873,35.155c0,14.975-8.456,26.702-25.826,32.767
		v0.433c16.928,3.037,30.607,15.842,30.607,34.288c0,24.954-21.93,43.189-57.734,43.189C94.058,376.303,78.646,371.52,70.401,366.31
		z M453.601,523.347H97.2V419.302h356.4V523.347z M458.885,370.934l-2.078-53.615c-0.622-16.838-1.25-37.22-1.25-57.585h-0.622
		c-4.355,17.872-10.178,37.827-15.588,54.248l-17.055,54.665H397.57l-14.961-54.248c-4.566-16.422-9.339-36.371-12.688-54.665
		h-0.401c-0.844,18.916-1.461,40.537-2.489,57.987l-2.499,53.214h-29.305l8.934-140.083h42.192l13.711,46.754
		c4.355,16.211,8.723,33.677,11.854,50.098h0.612c3.949-16.216,8.732-34.715,13.31-50.298l14.966-46.554h41.35l7.704,140.083
		H458.885z"/>
	<path d="M239.815,254.125c-7.069,0-11.631,0.608-14.331,1.241v91.663c2.7,0.622,7.069,0.622,11.011,0.622
		c28.677,0.211,47.384-15.588,47.384-49.054C284.091,269.497,267.047,254.125,239.815,254.125z"/>
</g>
<g>
</g>
<g>
</g>
<g>
</g>
<g>
</g>
<g>
</g>
<g>
</g>
<g>
</g>
<g>
</g>
<g>
</g>
<g>
</g>
<g>
</g>
<g>
</g>
<g>
</g>
<g>
</g>
<g>
</g>
</svg>
