<?xml version="1.0" encoding="iso-8859-1"?>
<!-- Generator: Adobe Illustrator 16.0.0, SVG Export Plug-In . SVG Version: 6.00 Build 0)  -->
<!DOCTYPE svg PUBLIC "-//W3C//DTD SVG 1.1//EN" "http://www.w3.org/Graphics/SVG/1.1/DTD/svg11.dtd">
<svg version="1.1" id="Capa_1" xmlns="http://www.w3.org/2000/svg" xmlns:xlink="http://www.w3.org/1999/xlink" x="0px" y="0px"
	 width="548.291px" height="548.291px" viewBox="0 0 548.291 548.291" style="enable-background:new 0 0 548.291 548.291;"
	 xml:space="preserve">
<g>
	<path d="M271.216,258.917c-7.494,0-12.325,0.667-15.184,1.318v97.039c2.859,0.652,7.481,0.652,11.66,0.652
		c30.365,0.23,50.171-16.493,50.171-51.927C318.073,275.196,300.041,258.917,271.216,258.917z"/>
	<path d="M486.201,196.116h-13.166V132.59c0-0.399-0.062-0.795-0.115-1.2c-0.021-2.522-0.825-5-2.552-6.96L364.657,3.677
		c-0.033-0.034-0.064-0.044-0.085-0.075c-0.63-0.704-1.364-1.292-2.143-1.796c-0.229-0.157-0.461-0.286-0.702-0.419
		c-0.672-0.365-1.387-0.672-2.121-0.893c-0.2-0.052-0.379-0.134-0.577-0.188C358.23,0.118,357.401,0,356.562,0H96.757
		C84.894,0,75.256,9.649,75.256,21.502v174.613H62.092c-16.971,0-30.732,13.756-30.732,30.73v159.81
		c0,16.966,13.761,30.736,30.732,30.736h13.164V526.79c0,11.854,9.638,21.501,21.501,21.501h354.776
		c11.853,0,21.501-9.647,21.501-21.501V417.392h13.166c16.966,0,30.729-13.764,30.729-30.731V226.854
		C516.93,209.872,503.167,196.116,486.201,196.116z M96.757,21.502h249.054v110.006c0,5.94,4.817,10.751,10.751,10.751h94.972
		v53.861H96.757V21.502z M353.505,304.902c0,28.384-10.341,47.975-24.64,60.069c-15.617,12.987-39.382,19.149-68.432,19.149
		c-17.377,0-29.704-1.102-38.058-2.199V236.247c12.326-1.966,28.383-3.068,45.321-3.068c28.154,0,46.429,5.064,60.728,15.836
		C343.827,260.46,353.505,278.722,353.505,304.902z M90.915,378.893l7.252-26.668c6.315,3.28,20.814,9.365,35.315,9.365
		c18.48,0,27.83-8.893,27.83-20.347c0-14.982-14.961-21.769-30.641-21.769h-14.496v-25.486h13.793
		c11.939-0.241,27.145-4.682,27.145-17.555c0-9.11-7.499-15.89-22.462-15.89c-12.392,0-25.492,5.375-31.806,9.108l-7.258-25.722
		c9.121-5.848,27.376-11.47,47.009-11.47c32.52,0,50.534,17.082,50.534,37.905c0,16.137-9.124,28.768-27.84,35.318v0.462
		c18.244,3.267,32.969,17.077,32.969,36.956c0,26.897-23.61,46.551-62.207,46.551C116.4,389.665,99.797,384.51,90.915,378.893z
		 M451.534,520.962H96.757v-103.57h354.776V520.962z M411.801,384.778c-16.93,0-33.666-4.399-42.023-9.024l6.825-27.722
		c9.023,4.614,22.889,9.242,37.188,9.242c15.402,0,23.538-6.383,23.538-16.062c0-9.245-7.034-14.52-24.855-20.903
		c-24.642-8.588-40.714-22.227-40.714-43.791c0-25.299,21.128-44.673,56.12-44.673c16.708,0,29.035,3.528,37.839,7.488
		l-7.486,27.066c-5.942-2.855-16.504-7.047-31.023-7.047c-14.521,0-21.555,6.601-21.555,14.31c0,9.458,8.347,13.637,27.491,20.903
		c26.183,9.68,38.51,23.312,38.51,44.221C471.655,363.647,452.51,384.778,411.801,384.778z"/>
</g>
<g>
</g>
<g>
</g>
<g>
</g>
<g>
</g>
<g>
</g>
<g>
</g>
<g>
</g>
<g>
</g>
<g>
</g>
<g>
</g>
<g>
</g>
<g>
</g>
<g>
</g>
<g>
</g>
<g>
</g>
</svg>
