<?xml version="1.0" encoding="iso-8859-1"?>
<!-- Generator: Adobe Illustrator 16.0.0, SVG Export Plug-In . SVG Version: 6.00 Build 0)  -->
<!DOCTYPE svg PUBLIC "-//W3C//DTD SVG 1.1//EN" "http://www.w3.org/Graphics/SVG/1.1/DTD/svg11.dtd">
<svg version="1.1" id="Capa_1" xmlns="http://www.w3.org/2000/svg" xmlns:xlink="http://www.w3.org/1999/xlink" x="0px" y="0px"
	 width="550.801px" height="550.801px" viewBox="0 0 550.801 550.801" style="enable-background:new 0 0 550.801 550.801;"
	 xml:space="preserve">
<g>
	<path d="M122.474,288.711c-2.215-7.404-4.44-16.644-6.296-24.058h-0.345c-1.859,7.414-3.715,16.843-5.74,24.058l-7.415,26.462
		h27.578L122.474,288.711z"/>
	<path d="M488.427,197.014h-13.226v-63.817c0-0.401-0.063-0.799-0.116-1.205c-0.021-2.531-0.828-5.021-2.563-6.993L366.325,3.694
		c-0.031-0.031-0.063-0.045-0.084-0.076c-0.633-0.707-1.371-1.295-2.151-1.804c-0.232-0.155-0.465-0.285-0.707-0.422
		c-0.675-0.366-1.393-0.675-2.131-0.896c-0.2-0.053-0.379-0.135-0.58-0.188C359.871,0.119,359.037,0,358.193,0H97.201
		c-11.918,0-21.6,9.693-21.6,21.601v175.413H62.378c-17.044,0-30.874,13.818-30.874,30.873v160.545
		c0,17.038,13.83,30.87,30.874,30.87h13.223V529.2c0,11.907,9.682,21.601,21.6,21.601h356.4c11.907,0,21.601-9.693,21.601-21.601
		V419.302h13.226c17.054,0,30.87-13.832,30.87-30.87V227.887C519.297,210.832,505.48,197.014,488.427,197.014z M97.201,21.601
		h250.193v110.51c0,5.97,4.841,10.8,10.8,10.8h95.407v54.108h-356.4V21.601z M380.543,281.496c0,12.214-4.061,22.57-11.476,29.605
		c-9.618,9.07-23.878,13.142-40.542,13.142c-3.691,0-7.024-0.19-9.619-0.549v44.603h-27.949V245.215
		c8.712-1.487,20.926-2.586,38.127-2.586c17.408,0,29.816,3.33,38.133,10.001C375.185,258.916,380.543,269.294,380.543,281.496z
		 M222.086,315.922c-20.735-7.215-34.225-18.689-34.225-36.83c0-21.268,17.761-37.555,47.184-37.555
		c14.067,0,24.437,2.953,31.833,6.265l-6.307,22.781c-4.989-2.402-13.877-5.93-26.08-5.93c-12.227,0-18.141,5.558-18.141,12.039
		c0,7.952,7.037,11.475,23.14,17.571c22.022,8.142,32.379,19.627,32.379,37.209c0,20.925-16.092,38.676-50.33,38.676
		c-14.259,0-28.326-3.707-35.353-7.589l5.74-23.309c7.583,3.882,19.24,7.752,31.282,7.752c12.938,0,19.796-5.347,19.796-13.489
		C243.001,325.73,237.084,321.29,222.086,315.922z M89.712,368.297H60.477l38.14-124.751h37.001l38.686,124.751h-30.364
		l-9.619-32.01H98.622L89.712,368.297z M453.601,523.347h-356.4V419.302h356.4V523.347z M459.043,368.297l-11.285-22.591
		c-4.63-8.681-7.583-15.183-11.096-22.392h-0.369c-2.594,7.215-5.737,13.711-9.629,22.392l-10.367,22.591h-32.2l36.103-63.112
		l-34.811-61.639H417.8l10.91,22.784c3.702,7.591,6.471,13.689,9.439,20.714h0.375c2.963-7.952,5.357-13.5,8.5-20.714l10.542-22.784
		h32.205l-35.169,60.89l37.015,63.861H459.043L459.043,368.297z"/>
	<path d="M330.571,263.915c-5.737,0-9.618,0.551-11.665,1.107v36.829c2.416,0.549,5.379,0.738,9.439,0.738
		c14.998,0,24.248-7.594,24.248-20.355C352.594,270.763,344.631,263.915,330.571,263.915z"/>
</g>
<g>
</g>
<g>
</g>
<g>
</g>
<g>
</g>
<g>
</g>
<g>
</g>
<g>
</g>
<g>
</g>
<g>
</g>
<g>
</g>
<g>
</g>
<g>
</g>
<g>
</g>
<g>
</g>
<g>
</g>
</svg>
