<?xml version="1.0" encoding="iso-8859-1"?>
<!-- Generator: Adobe Illustrator 16.0.0, SVG Export Plug-In . SVG Version: 6.00 Build 0)  -->
<!DOCTYPE svg PUBLIC "-//W3C//DTD SVG 1.1//EN" "http://www.w3.org/Graphics/SVG/1.1/DTD/svg11.dtd">
<svg version="1.1" id="Capa_1" xmlns="http://www.w3.org/2000/svg" xmlns:xlink="http://www.w3.org/1999/xlink" x="0px" y="0px"
	 width="550.801px" height="550.801px" viewBox="0 0 550.801 550.801" style="enable-background:new 0 0 550.801 550.801;"
	 xml:space="preserve">
<g>
	<path d="M284.511,284.102c-1.856-6.697-3.687-15.074-5.231-21.776h-0.303c-1.545,6.702-3.077,15.248-4.762,21.776l-6.157,23.968
		h22.899L284.511,284.102z"/>
	<path d="M488.427,197.019h-13.226v-63.822c0-0.401-0.063-0.799-0.116-1.205c-0.021-2.531-0.828-5.023-2.563-6.993L366.325,3.694
		c-0.031-0.034-0.063-0.045-0.084-0.076c-0.633-0.709-1.371-1.298-2.151-1.804c-0.232-0.158-0.465-0.287-0.707-0.422
		c-0.675-0.366-1.393-0.675-2.131-0.896c-0.2-0.053-0.379-0.135-0.58-0.19C359.871,0.119,359.037,0,358.193,0H97.201
		c-11.918,0-21.6,9.693-21.6,21.601v175.413H62.378c-17.049,0-30.874,13.818-30.874,30.87v160.542
		c0,17.044,13.824,30.876,30.874,30.876h13.223V529.2c0,11.907,9.682,21.601,21.6,21.601h356.4c11.907,0,21.601-9.693,21.601-21.601
		V419.302h13.226c17.044,0,30.87-13.827,30.87-30.87V227.89C519.297,210.832,505.471,197.019,488.427,197.019z M97.201,21.601
		h250.193v110.51c0,5.967,4.841,10.8,10.8,10.8h95.407v54.108h-356.4V21.601z M367.206,308.733
		c-17.218-6.528-28.435-16.917-28.435-33.344c0-19.269,14.75-34.011,39.182-34.011c11.687,0,20.292,2.684,26.436,5.692
		l-5.221,20.606c-4.149-2.17-11.527-5.358-21.668-5.358s-15.062,5.028-15.062,10.887c0,7.204,5.844,10.399,19.212,15.92
		c18.288,7.378,26.895,17.761,26.895,33.682c0,18.932-13.374,35.01-41.813,35.01c-11.828,0-23.515-3.348-29.347-6.86l4.757-21.114
		c6.307,3.522,15.983,7.039,25.977,7.039c10.753,0,16.442-4.856,16.442-12.229C384.571,317.619,379.656,313.591,367.206,308.733z
		 M327.545,356.158h-25.202l-8-28.988h-29.655l-7.375,28.988h-24.295l31.669-112.931h30.731L327.545,356.158z M225.804,334.705
		v21.453h-64.716V243.227H184.6v91.478H225.804z M64.867,301.367c0-38.539,25.212-59.983,56.56-59.983
		c12.145,0,21.374,2.685,25.516,5.028l-4.77,20.271c-4.762-2.181-11.372-4.185-19.673-4.185c-18.591,0-33.041,12.231-33.041,37.359
		c0,22.618,12.295,36.861,33.199,36.861c7.062,0,14.903-1.677,19.515-3.687l3.549,19.939c-4.311,2.347-13.998,4.856-26.591,4.856
		C83.318,357.824,64.867,333.535,64.867,301.367z M453.601,523.347h-356.4V419.302h356.4V523.347z M449.746,357.824
		c-11.839,0-23.515-3.344-29.357-6.866l4.768-21.109c6.296,3.518,15.983,7.04,25.977,7.04c10.753,0,16.442-4.852,16.442-12.234
		c0-7.035-4.925-11.053-17.376-15.915c-17.207-6.528-28.439-16.917-28.439-33.344c0-19.269,14.766-34.011,39.203-34.011
		c11.686,0,20.281,2.685,26.44,5.693l-5.236,20.606c-4.14-2.17-11.512-5.357-21.669-5.357c-10.141,0-15.05,5.028-15.05,10.887
		c0,7.203,5.832,10.394,19.206,15.921c18.288,7.372,26.889,17.761,26.889,33.676C491.543,341.74,478.186,357.824,449.746,357.824z"
		/>
</g>
<g>
</g>
<g>
</g>
<g>
</g>
<g>
</g>
<g>
</g>
<g>
</g>
<g>
</g>
<g>
</g>
<g>
</g>
<g>
</g>
<g>
</g>
<g>
</g>
<g>
</g>
<g>
</g>
<g>
</g>
</svg>
