<?xml version="1.0" encoding="iso-8859-1"?>
<!-- Generator: Adobe Illustrator 19.0.0, SVG Export Plug-In . SVG Version: 6.00 Build 0)  -->
<svg version="1.1" id="Capa_1" xmlns="http://www.w3.org/2000/svg" xmlns:xlink="http://www.w3.org/1999/xlink" x="0px" y="0px"
	 viewBox="0 0 360 360" style="enable-background:new 0 0 360 360;" xml:space="preserve">
<g id="XMLID_14_">
	<path id="XMLID_15_" d="M345.253,124.865h-50.507V77.834L211.724,0H14.747v360h280v-52.408h50.507V124.865z M315.253,277.592h-210
		V154.865h210V277.592z"/>
	<path id="XMLID_18_" d="M135.366,234.136c2.668,3.023,5.852,5.471,9.548,7.348c3.695,1.878,7.772,2.816,12.231,2.816
		c2.523,0,5.105-0.323,7.744-0.968c2.64-0.645,5.118-1.584,7.437-2.816c2.316-1.232,4.399-2.742,6.248-4.532
		c1.848-1.789,3.27-3.857,4.268-6.204l-9.944-5.72c-0.704,1.702-1.643,3.154-2.815,4.356c-1.175,1.203-2.45,2.186-3.828,2.948
		c-1.379,0.763-2.831,1.32-4.356,1.672c-1.526,0.352-2.992,0.528-4.4,0.528c-2.699,0-5.179-0.586-7.437-1.76
		c-2.259-1.173-4.195-2.728-5.808-4.664c-1.614-1.936-2.86-4.18-3.74-6.732c-0.88-2.552-1.32-5.206-1.32-7.964
		c0-2.464,0.381-4.941,1.145-7.436c0.762-2.493,1.892-4.722,3.388-6.688c1.496-1.965,3.373-3.564,5.632-4.796
		c2.258-1.232,4.913-1.848,7.964-1.848c1.408,0,2.846,0.163,4.313,0.484c1.466,0.323,2.874,0.836,4.224,1.54
		c1.35,0.704,2.61,1.658,3.784,2.86c1.173,1.203,2.17,2.684,2.992,4.444l9.328-6.424c-2.055-4.048-5.179-7.333-9.372-9.856
		c-4.195-2.522-9.167-3.784-14.916-3.784c-4.87,0-9.211,0.91-13.024,2.728c-3.813,1.819-7.04,4.195-9.68,7.128
		c-2.64,2.934-4.65,6.263-6.028,9.988c-1.379,3.726-2.067,7.495-2.067,11.308c0,3.99,0.748,7.906,2.244,11.748
		C130.613,227.683,132.695,231.115,135.366,234.136z"/>
	<path id="XMLID_19_" d="M212.849,233.564c-2.406,0-4.752-0.293-7.04-0.88c-2.288-0.586-4.371-1.305-6.248-2.156
		c-1.878-0.85-3.506-1.701-4.884-2.552c-1.379-0.85-2.332-1.54-2.859-2.068l-5.368,10.472c3.637,2.583,7.744,4.576,12.319,5.984
		c4.576,1.408,9.21,2.112,13.904,2.112c3.05,0,5.969-0.338,8.756-1.012c2.786-0.674,5.25-1.745,7.393-3.212
		c2.141-1.466,3.842-3.388,5.104-5.764c1.261-2.376,1.893-5.236,1.893-8.58c0-2.874-0.471-5.294-1.408-7.26
		c-0.939-1.965-2.274-3.652-4.004-5.06c-1.732-1.408-3.844-2.581-6.336-3.52c-2.495-0.938-5.267-1.818-8.316-2.64
		c-2.347-0.585-4.415-1.144-6.204-1.672c-1.79-0.528-3.271-1.114-4.444-1.76c-1.174-0.645-2.067-1.393-2.684-2.244
		c-0.616-0.85-0.924-1.921-0.924-3.212c0-2.229,0.82-3.96,2.464-5.192c1.642-1.232,4.136-1.848,7.48-1.848
		c1.876,0,3.725,0.235,5.544,0.704c1.817,0.47,3.505,1.042,5.059,1.716c1.554,0.675,2.874,1.364,3.96,2.068
		c1.085,0.704,1.833,1.262,2.244,1.672l5.368-9.856c-2.759-1.877-5.984-3.505-9.681-4.884c-3.695-1.378-7.743-2.068-12.143-2.068
		c-3.168,0-6.131,0.426-8.888,1.276c-2.759,0.851-5.179,2.098-7.261,3.74c-2.083,1.643-3.711,3.696-4.884,6.16
		c-1.174,2.464-1.76,5.28-1.76,8.448c0,2.406,0.365,4.474,1.1,6.204c0.733,1.731,1.833,3.256,3.301,4.576
		c1.465,1.32,3.3,2.464,5.5,3.432c2.199,0.968,4.796,1.863,7.787,2.684c2.465,0.704,4.693,1.35,6.689,1.936
		c1.994,0.587,3.696,1.232,5.104,1.936c1.408,0.704,2.493,1.526,3.257,2.464c0.762,0.939,1.144,2.083,1.144,3.432
		C222.881,231.423,219.537,233.564,212.849,233.564z"/>
	<polygon id="XMLID_20_" points="271.985,243.772 296.361,181.292 283.601,181.292 266.881,228.548 249.985,181.292 
		237.225,181.292 261.777,243.772 	"/>
</g>
<g>
</g>
<g>
</g>
<g>
</g>
<g>
</g>
<g>
</g>
<g>
</g>
<g>
</g>
<g>
</g>
<g>
</g>
<g>
</g>
<g>
</g>
<g>
</g>
<g>
</g>
<g>
</g>
<g>
</g>
</svg>
