<?xml version="1.0" encoding="iso-8859-1"?>
<!-- Generator: Adobe Illustrator 16.0.0, SVG Export Plug-In . SVG Version: 6.00 Build 0)  -->
<!DOCTYPE svg PUBLIC "-//W3C//DTD SVG 1.1//EN" "http://www.w3.org/Graphics/SVG/1.1/DTD/svg11.dtd">
<svg version="1.1" id="Capa_1" xmlns="http://www.w3.org/2000/svg" xmlns:xlink="http://www.w3.org/1999/xlink" x="0px" y="0px"
	 width="550.801px" height="550.801px" viewBox="0 0 550.801 550.801" style="enable-background:new 0 0 550.801 550.801;"
	 xml:space="preserve">
<g>
	<g>
		<path d="M488.426,197.014H475.2v-63.817c0-0.401-0.063-0.799-0.116-1.205c-0.021-2.531-0.833-5.023-2.562-6.993L366.319,3.694
			c-0.026-0.034-0.058-0.045-0.079-0.076c-0.633-0.707-1.371-1.298-2.151-1.804c-0.231-0.155-0.464-0.285-0.706-0.422
			c-0.676-0.366-1.393-0.675-2.131-0.896c-0.2-0.053-0.38-0.135-0.58-0.188C359.87,0.119,359.037,0,358.193,0H97.2
			c-11.918,0-21.6,9.693-21.6,21.601v175.413H62.375c-17.046,0-30.871,13.818-30.871,30.873v160.545
			c0,17.038,13.824,30.87,30.871,30.87h13.226V529.2c0,11.907,9.682,21.601,21.6,21.601h356.4c11.907,0,21.6-9.693,21.6-21.601
			V419.302h13.226c17.044,0,30.871-13.832,30.871-30.87V227.887C519.297,210.832,505.47,197.014,488.426,197.014z M97.2,21.601
			h250.193v110.51c0,5.967,4.841,10.8,10.8,10.8h95.407v54.108H97.2V21.601z M236.04,232.49h36.481l12.297,25.645
			c4.166,8.543,7.294,15.42,10.632,23.335h0.416c3.328-8.949,6.038-15.211,9.593-23.335l11.887-25.645h36.271l-39.604,68.586
			l41.681,71.914h-36.692l-12.709-25.428c-5.21-9.804-8.548-17.107-12.509-25.229h-0.411c-2.921,8.121-6.465,15.42-10.842,25.229
			l-11.673,25.428h-36.276l40.646-71.07L236.04,232.49z M231.056,299.405c0,26.884-9.801,45.425-23.356,56.9
			c-14.795,12.303-37.31,18.135-64.821,18.135c-16.472,0-28.134-1.038-36.062-2.083V234.365c11.676-1.88,26.887-2.922,42.941-2.922
			c26.681,0,43.989,4.796,57.536,15.014C221.875,257.299,231.056,274.596,231.056,299.405z M453.601,523.347H97.2V419.302h356.4
			V523.347z M458.642,258.552h-53.989v32.104h50.445v25.835h-50.445v56.499h-31.894v-140.5h85.883V258.552L458.642,258.552z"/>
		<path d="M153.091,255.841c-7.085,0-11.675,0.623-14.386,1.253v91.924c2.71,0.622,7.09,0.622,11.048,0.622
			c28.771,0.216,47.524-15.641,47.524-49.19C197.488,271.258,180.392,255.841,153.091,255.841z"/>
	</g>
</g>
<g>
</g>
<g>
</g>
<g>
</g>
<g>
</g>
<g>
</g>
<g>
</g>
<g>
</g>
<g>
</g>
<g>
</g>
<g>
</g>
<g>
</g>
<g>
</g>
<g>
</g>
<g>
</g>
<g>
</g>
</svg>
