<svg xmlns="http://www.w3.org/2000/svg" id="Layer_1" viewBox="0 0 159.7 73.3">
    <style>
        .st0{fill:#555}
    </style>
    <path d="M43.5 23.2h-6v24.1h6c7.9 0 11.8-4 11.8-12.1 0-8-4-12-11.8-12zM83 22.7c-3.2 0-5.6 1.1-7.4 3.2-1.7 2.1-2.6 5.3-2.6 9.3 0 4.1.9 7.2 2.6 9.4 1.8 2.2 4.2 3.3 7.4 3.3s5.6-1.1 7.4-3.3c1.8-2.2 2.6-5.3 2.6-9.4 0-4-.9-7.1-2.6-9.3s-4.2-3.2-7.4-3.2z" class="st0"/>
    <path d="M148.5 0H11.2C5 0 0 5 0 11.2v50.9c0 6.2 5 11.2 11.2 11.2h137.3c6.2 0 11.2-5 11.2-11.2V11.2c0-6.2-5-11.2-11.2-11.2zM56.9 47.9c-3.1 3-7.4 4.5-13 4.5H31.3V18.2h12.6c5.6 0 9.9 1.5 13 4.5 3.1 3 4.6 7.2 4.6 12.6 0 5.4-1.5 9.6-4.6 12.6zm40.4-3.4c-1.3 2.6-3.2 4.7-5.6 6.1-2.4 1.4-5.3 2.1-8.6 2.1s-6.2-.7-8.6-2.1c-2.4-1.4-4.3-3.5-5.7-6.1-1.3-2.6-2-5.8-2-9.3 0-3.6.7-6.6 2-9.3 1.3-2.6 3.2-4.7 5.6-6.1 2.4-1.4 5.3-2.1 8.7-2.1s6.2.7 8.7 2.1c2.4 1.4 4.3 3.4 5.6 6.1 1.3 2.6 1.9 5.7 1.9 9.3-.1 3.6-.7 6.7-2 9.3zm16.2 0c1.8 2.2 4.4 3.2 7.7 3.2 1.7 0 3.4-.3 4.9-.8 1.5-.6 3-1.5 4.6-2.7l2 4.5c-1.3 1.3-3 2.3-5.1 3-2 .7-4.2 1.1-6.5 1.1-3.4 0-6.3-.7-8.8-2.2-2.5-1.4-4.4-3.5-5.8-6.1-1.3-2.6-2-5.7-2-9.3 0-3.5.7-6.6 2-9.2 1.3-2.6 3.3-4.7 5.8-6.1 2.5-1.4 5.4-2.1 8.8-2.1 2.3 0 4.5.4 6.5 1.1 2 .7 3.7 1.7 5.1 3l-2 4.5c-1.5-1.2-3.1-2.2-4.6-2.7-1.5-.6-3.1-.8-4.9-.8-3.3 0-5.8 1.1-7.7 3.2-1.8 2.1-2.7 5.2-2.7 9.2 0 3.9.9 7 2.7 9.2z" class="st0"/>
</svg>
