<?xml version="1.0" encoding="iso-8859-1"?>
<!-- Generator: Adobe Illustrator 19.0.0, SVG Export Plug-In . SVG Version: 6.00 Build 0)  -->
<svg version="1.1" id="Capa_1" xmlns="http://www.w3.org/2000/svg" xmlns:xlink="http://www.w3.org/1999/xlink" x="0px" y="0px"
	 viewBox="0 0 490 490" style="enable-background:new 0 0 490 490;" xml:space="preserve">
<g>
	<path d="M160.437,296.665h-37.055v75.366h37.489c11.903,0,19.529-2.677,22.924-8.03c3.394-5.353,5.069-17.451,5.069-36.263
		c0-11.514-2.094-19.574-6.31-24.18C178.337,298.953,170.965,296.665,160.437,296.665z M171.339,355.268
		c-2.004,3.155-6.43,4.725-13.279,4.725h-20.367v-51.291h21.249c6.654,0,10.901,1.495,12.696,4.516
		c1.809,3.021,2.721,10.094,2.721,21.204C174.359,345.174,173.342,352.128,171.339,355.268z"/>
	<path d="M230.615,295.992c-15.372,0-25.047,2.303-28.98,6.909c-3.948,4.606-5.922,15.881-5.922,33.84
		c0,15.103,2.004,24.868,6.026,29.294c4.023,4.441,12.875,6.654,26.573,6.654c15.193,0,24.763-2.243,28.741-6.729
		c3.948-4.501,5.922-15.372,5.922-32.644c0-15.791-1.974-25.959-5.907-30.505S244.312,295.992,230.615,295.992z M245.807,356.703
		c-1.764,2.482-7.088,3.738-15.97,3.738c-9.271,0-14.864-1.107-16.748-3.32c-1.899-2.213-2.841-8.718-2.841-19.544
		c0-14.625,0.807-23.163,2.423-25.63c1.615-2.467,7.238-3.693,16.838-3.693c9.286,0,14.759,1.151,16.434,3.454
		c1.675,2.303,2.512,9.765,2.512,22.385C248.454,346.685,247.572,354.221,245.807,356.703z"/>
	<path d="M319.29,348.509c0,5.009-1.047,8.24-3.17,9.72c-2.123,1.465-6.729,2.213-13.817,2.213c-8.763,0-13.952-1.331-15.552-3.978
		c-1.6-2.662-2.393-11.2-2.393-25.63c0-10.707,0.882-17.152,2.662-19.32c1.794-2.168,7.118-3.26,16-3.26
		c6.609,0,10.856,0.688,12.711,2.064c1.884,1.391,2.811,4.546,2.811,9.481v1.929h14.355l-0.06-1.705
		c0-9.585-1.824-15.971-5.413-19.201c-3.619-3.215-10.796-4.83-21.533-4.83c-14.774,0-24.464,1.959-29.1,5.877
		c-4.636,3.933-6.968,12.112-6.968,24.554c0,21.13,1.72,34.124,5.144,38.984c3.409,4.86,12.561,7.282,27.425,7.282
		c13.129,0,21.593-1.525,25.421-4.606c3.828-3.081,5.742-9.854,5.742-20.352v-2.587H319.2L319.29,348.509z"/>
	<path d="M77.788,0v265.111H42.189v139.615h0.001l35.59,35.591L77.788,490h370.023V102.422L345.388,0H77.788z M395.793,389.413
		H57.501v-108.99h338.292V389.413z M353.022,36.962l57.816,57.804h-57.816V36.962z"/>
</g>
<g>
</g>
<g>
</g>
<g>
</g>
<g>
</g>
<g>
</g>
<g>
</g>
<g>
</g>
<g>
</g>
<g>
</g>
<g>
</g>
<g>
</g>
<g>
</g>
<g>
</g>
<g>
</g>
<g>
</g>
</svg>
