<?xml version="1.0" encoding="iso-8859-1"?>
<!-- Generator: Adobe Illustrator 16.0.0, SVG Export Plug-In . SVG Version: 6.00 Build 0)  -->
<!DOCTYPE svg PUBLIC "-//W3C//DTD SVG 1.1//EN" "http://www.w3.org/Graphics/SVG/1.1/DTD/svg11.dtd">
<svg version="1.1" id="Capa_1" xmlns="http://www.w3.org/2000/svg" xmlns:xlink="http://www.w3.org/1999/xlink" x="0px" y="0px"
	 width="548.291px" height="548.291px" viewBox="0 0 548.291 548.291" style="enable-background:new 0 0 548.291 548.291;"
	 xml:space="preserve">
<g>
	<path d="M486.201,196.124h-13.166V132.59c0-0.396-0.062-0.795-0.115-1.196c-0.021-2.523-0.825-5-2.552-6.963L364.657,3.677
		c-0.033-0.031-0.064-0.042-0.085-0.073c-0.63-0.707-1.364-1.292-2.143-1.795c-0.229-0.157-0.461-0.286-0.702-0.421
		c-0.672-0.366-1.387-0.671-2.121-0.892c-0.2-0.055-0.379-0.136-0.577-0.188C358.23,0.118,357.401,0,356.562,0H96.757
		C84.894,0,75.256,9.651,75.256,21.502v174.613H62.092c-16.971,0-30.732,13.756-30.732,30.733v159.812
		c0,16.968,13.761,30.731,30.732,30.731h13.164V526.79c0,11.854,9.638,21.501,21.501,21.501h354.776
		c11.853,0,21.501-9.647,21.501-21.501V417.392h13.166c16.966,0,30.729-13.764,30.729-30.731V226.854
		C516.93,209.872,503.167,196.124,486.201,196.124z M96.757,21.502h249.054v110.009c0,5.939,4.817,10.75,10.751,10.75h94.972v53.861
		H96.757V21.502z M320.242,350.335v30.487H219.955V220.289h36.441v130.046H320.242z M94.403,380.823V220.289h98.151v29.765h-61.699
		v36.69h57.644v29.533h-57.644v64.546H94.403z M451.534,520.962H96.757v-103.57h354.776V520.962z M438.872,380.823l-12.393-41.206
		h-45.976l-11.422,41.206h-37.634l49.061-160.534h47.644l49.785,160.534H438.872z"/>
	<path d="M403.138,247.442h-0.478c-2.372,9.529-4.756,21.677-7.381,30.971l-9.521,34.063h35.49l-10.006-34.059
		C408.383,268.867,405.527,256.972,403.138,247.442z"/>
</g>
<g>
</g>
<g>
</g>
<g>
</g>
<g>
</g>
<g>
</g>
<g>
</g>
<g>
</g>
<g>
</g>
<g>
</g>
<g>
</g>
<g>
</g>
<g>
</g>
<g>
</g>
<g>
</g>
<g>
</g>
</svg>
