<?xml version="1.0" encoding="iso-8859-1"?>
<!-- Generator: Adobe Illustrator 16.0.0, SVG Export Plug-In . SVG Version: 6.00 Build 0)  -->
<!DOCTYPE svg PUBLIC "-//W3C//DTD SVG 1.1//EN" "http://www.w3.org/Graphics/SVG/1.1/DTD/svg11.dtd">
<svg version="1.1" id="Capa_1" xmlns="http://www.w3.org/2000/svg" xmlns:xlink="http://www.w3.org/1999/xlink" x="0px" y="0px"
	 width="548.29px" height="548.291px" viewBox="0 0 548.29 548.291" style="enable-background:new 0 0 548.29 548.291;"
	 xml:space="preserve">
<g>
	<path d="M486.2,196.121h-13.164v-63.525c0-0.399-0.064-0.795-0.116-1.2c-0.021-2.52-0.829-4.997-2.551-6.96L364.651,3.677
		c-0.026-0.031-0.06-0.044-0.08-0.075c-0.629-0.704-1.364-1.29-2.141-1.796c-0.231-0.154-0.462-0.286-0.704-0.419
		c-0.672-0.365-1.386-0.672-2.121-0.893c-0.199-0.052-0.377-0.134-0.576-0.186C358.229,0.118,357.4,0,356.562,0H96.757
		C84.893,0,75.256,9.649,75.256,21.502v174.613H62.09c-16.969,0-30.729,13.756-30.729,30.733v159.812
		c0,16.961,13.761,30.731,30.729,30.731h13.166V526.79c0,11.854,9.637,21.501,21.501,21.501h354.777
		c11.853,0,21.502-9.647,21.502-21.501V417.392H486.2c16.966,0,30.729-13.764,30.729-30.731V226.854
		C516.93,209.872,503.166,196.121,486.2,196.121z M96.757,21.507h249.053v110.006c0,5.94,4.818,10.751,10.751,10.751h94.973v53.861
		H96.757V21.507z M289.757,333.086v42.257H260.62V235.041h37.054l29.144,51.41c8.325,14.781,16.651,32.272,22.899,48.095h0.623
		c-2.078-18.531-2.708-37.471-2.708-58.5v-41.01h29.145v140.308h-33.308l-29.974-54.12c-8.326-14.994-17.48-33.103-24.352-49.545
		l-0.626,0.21C289.349,290.409,289.757,310.183,289.757,333.086z M208.56,351.192c9.575,0,20.188-2.085,26.436-4.573l4.79,24.777
		c-5.826,2.908-18.942,6.037-36.01,6.037c-48.508,0-73.487-30.194-73.487-70.163c0-47.886,34.145-74.521,76.609-74.521
		c16.449,0,28.938,3.317,34.555,6.247l-6.457,25.189c-6.448-2.719-15.398-5.207-26.646-5.207c-25.189,0-44.759,15.2-44.759,46.423
		C163.595,333.501,180.247,351.192,208.56,351.192z M77.405,375.349V235.041h31.848v140.309H77.405z M451.534,520.968H96.757
		V417.392h354.777V520.968z M438.63,377.433c-16.031,0-31.858-4.178-39.764-8.546l6.451-26.227
		c8.535,4.368,21.654,8.736,35.183,8.736c14.571,0,22.273-6.038,22.273-15.182c0-8.757-6.663-13.754-23.523-19.791
		c-23.312-8.104-38.515-21.02-38.515-41.429c0-23.937,19.983-42.247,53.081-42.247c15.817,0,27.476,3.317,35.807,7.062
		l-7.076,25.609c-5.617-2.698-15.611-6.653-29.354-6.653c-13.738,0-20.401,6.244-20.401,13.533c0,8.943,7.918,12.901,26.028,19.783
		c24.772,9.154,36.431,22.063,36.431,41.837C495.251,357.438,477.135,377.433,438.63,377.433z"/>
</g>
<g>
</g>
<g>
</g>
<g>
</g>
<g>
</g>
<g>
</g>
<g>
</g>
<g>
</g>
<g>
</g>
<g>
</g>
<g>
</g>
<g>
</g>
<g>
</g>
<g>
</g>
<g>
</g>
<g>
</g>
</svg>
