<?xml version="1.0" encoding="iso-8859-1"?>
<!-- Generator: Adobe Illustrator 16.0.0, SVG Export Plug-In . SVG Version: 6.00 Build 0)  -->
<!DOCTYPE svg PUBLIC "-//W3C//DTD SVG 1.1//EN" "http://www.w3.org/Graphics/SVG/1.1/DTD/svg11.dtd">
<svg version="1.1" id="Capa_1" xmlns="http://www.w3.org/2000/svg" xmlns:xlink="http://www.w3.org/1999/xlink" x="0px" y="0px"
	 width="548.291px" height="548.291px" viewBox="0 0 548.291 548.291" style="enable-background:new 0 0 548.291 548.291;"
	 xml:space="preserve">
<g>
	<path d="M383.133,251.762c-24.546,0-38.823,23.339-38.823,54.552c0,31.438,14.756,53.591,39.06,53.591
		c24.531,0,38.588-23.339,38.588-54.535C421.958,276.539,408.142,251.762,383.133,251.762z"/>
	<path d="M486.201,196.121h-13.166v-63.525c0-0.396-0.062-0.795-0.115-1.196c-0.021-2.523-0.825-5-2.552-6.964L364.657,3.677
		c-0.033-0.031-0.064-0.042-0.085-0.075c-0.63-0.704-1.364-1.29-2.143-1.796c-0.229-0.154-0.461-0.283-0.702-0.418
		c-0.672-0.366-1.387-0.671-2.121-0.892c-0.2-0.055-0.379-0.136-0.577-0.188C358.23,0.118,357.401,0,356.562,0H96.757
		C84.894,0,75.256,9.649,75.256,21.502v174.613H62.092c-16.971,0-30.732,13.756-30.732,30.733v159.812
		c0,16.968,13.761,30.731,30.732,30.731h13.164V526.79c0,11.854,9.638,21.501,21.501,21.501h354.776
		c11.853,0,21.501-9.647,21.501-21.501V417.392h13.166c16.966,0,30.729-13.764,30.729-30.731V226.854
		C516.93,209.877,503.167,196.121,486.201,196.121z M96.757,21.507h249.054v110.01c0,5.939,4.817,10.75,10.751,10.75h94.972v53.861
		H96.757V21.507z M224.714,318.697c-26.677-9.297-44.074-24.058-44.074-47.399c0-27.394,22.879-48.357,60.749-48.357
		c18.103,0,31.444,3.811,40.972,8.1l-8.103,29.302c-6.423-3.103-17.862-7.627-33.581-7.627c-15.727,0-23.344,7.149-23.344,15.485
		c0,10.238,9.048,14.765,29.77,22.628c28.344,10.477,41.698,25.25,41.698,47.875c0,26.919-20.734,49.785-64.799,49.785
		c-18.338,0-36.444-4.768-45.49-9.77l7.38-30.011c9.755,5.008,24.774,10.004,40.245,10.004c16.685,0,25.491-6.902,25.491-17.384
		C251.622,331.333,244.011,325.599,224.714,318.697z M153.243,225.565v160.54h-36.436v-160.54H153.243z M451.534,520.968H96.757
		V417.392h354.776V520.968z M381.464,388.73c-47.644,0-75.519-35.975-75.519-81.701c0-48.122,30.742-84.088,78.133-84.088
		c49.308,0,76.232,36.929,76.232,81.232C460.311,356.814,428.383,388.73,381.464,388.73z"/>
</g>
<g>
</g>
<g>
</g>
<g>
</g>
<g>
</g>
<g>
</g>
<g>
</g>
<g>
</g>
<g>
</g>
<g>
</g>
<g>
</g>
<g>
</g>
<g>
</g>
<g>
</g>
<g>
</g>
<g>
</g>
</svg>
