<?xml version="1.0" encoding="iso-8859-1"?>
<!-- Generator: Adobe Illustrator 16.0.0, SVG Export Plug-In . SVG Version: 6.00 Build 0)  -->
<!DOCTYPE svg PUBLIC "-//W3C//DTD SVG 1.1//EN" "http://www.w3.org/Graphics/SVG/1.1/DTD/svg11.dtd">
<svg version="1.1" id="Capa_1" xmlns="http://www.w3.org/2000/svg" xmlns:xlink="http://www.w3.org/1999/xlink" x="0px" y="0px"
	 width="548.29px" height="548.291px" viewBox="0 0 548.29 548.291" style="enable-background:new 0 0 548.29 548.291;"
	 xml:space="preserve">
<g>
	<path d="M486.2,196.121h-13.164v-63.525c0-0.399-0.064-0.795-0.116-1.2c-0.021-2.52-0.829-4.997-2.551-6.96L364.651,3.677
		c-0.026-0.031-0.06-0.044-0.08-0.075c-0.629-0.704-1.364-1.29-2.141-1.796c-0.231-0.154-0.462-0.286-0.704-0.419
		c-0.672-0.365-1.386-0.672-2.121-0.893c-0.199-0.052-0.377-0.134-0.576-0.186C358.229,0.118,357.4,0,356.562,0H96.757
		C84.893,0,75.256,9.649,75.256,21.502v174.613H62.09c-16.969,0-30.729,13.756-30.729,30.733v159.812
		c0,16.961,13.761,30.731,30.729,30.731h13.166V526.79c0,11.854,9.637,21.501,21.501,21.501h354.777
		c11.853,0,21.502-9.647,21.502-21.501V417.392H486.2c16.966,0,30.729-13.764,30.729-30.731V226.854
		C516.93,209.872,503.166,196.121,486.2,196.121z M96.757,21.507h249.053v110.006c0,5.94,4.818,10.751,10.751,10.751h94.973v53.861
		H96.757V21.507z M235.748,337.159v45.586h-31.441V231.374h39.977l31.441,55.477c8.983,15.946,17.963,34.802,24.709,51.885h0.673
		c-2.248-20.007-2.925-40.432-2.925-63.119v-44.242h31.438v151.371h-35.933l-32.336-58.384
		c-8.984-16.168-18.864-35.716-26.276-53.457l-0.672,0.231C235.303,291.112,235.748,312.457,235.748,337.159z M89.56,382.75V231.379
		h34.357v122.63h60.185v28.746H89.56V382.75z M451.534,520.968H96.757V417.392h354.777V520.968z M443.244,382.75l-37.055-65.354
		l-13.019,15.952v49.401h-33.916V231.379h33.916v66.929h0.672c3.358-5.854,6.96-11.239,10.331-16.625l34.357-50.304h42
		l-50.079,64.462l52.767,86.908H443.244z"/>
</g>
<g>
</g>
<g>
</g>
<g>
</g>
<g>
</g>
<g>
</g>
<g>
</g>
<g>
</g>
<g>
</g>
<g>
</g>
<g>
</g>
<g>
</g>
<g>
</g>
<g>
</g>
<g>
</g>
<g>
</g>
</svg>
