<?xml version="1.0" encoding="iso-8859-1"?>
<!-- Generator: Adobe Illustrator 19.0.0, SVG Export Plug-In . SVG Version: 6.00 Build 0)  -->
<svg version="1.1" id="Capa_1" xmlns="http://www.w3.org/2000/svg" xmlns:xlink="http://www.w3.org/1999/xlink" x="0px" y="0px"
	 viewBox="0 0 490 490" style="enable-background:new 0 0 490 490;" xml:space="preserve">
<g>
	<path d="M168.266,331.671c-0.994,2.542-2.176,5.996-3.536,10.378l-1.66,5.189l-1.6,5.189h-0.493l-1.712-5.189l-1.66-5.249
		c-1.51-4.531-2.722-8-3.641-10.438l-13.473-34.887h-23.305v75.366h14.303v-41.078c0-3.065-0.112-6.729-0.329-10.991l-0.277-5.518
		l-0.277-5.473h0.441l1.712,5.189l1.712,5.249c1.51,4.636,2.721,8.12,3.641,10.438l16.733,42.184h13.032l16.569-42.513
		c0.845-2.243,2.041-5.727,3.589-10.438l1.652-5.249l1.712-5.249h0.441l-0.277,5.578l-0.277,5.638
		c-0.179,4.157-0.277,7.88-0.277,11.155v41.078h14.303v-75.366h-23.799L168.266,331.671z"/>
	<path d="M252.686,296.665h-3.753h-30.371v75.366h14.303v-24.344h16.845l3.312-0.06c10.311,0,17.159-1.66,20.539-4.965
		c3.395-3.32,5.084-10.019,5.084-20.113c0-10.154-1.78-17.017-5.323-20.561C269.763,298.429,262.884,296.665,252.686,296.665z
		 M261.494,333.406c-1.75,1.495-5.862,2.243-12.337,2.243h-16.292v-26.946h17.728c6.109,0,9.899,0.763,11.35,2.288
		s2.183,5.473,2.183,11.843C264.126,328.396,263.243,331.91,261.494,333.406z"/>
	<path d="M339.058,296.665h-22.087l-32.913,43.111v16.075h40.689v16.18h14.311v-16.18h8.658v-11.036h-8.658V296.665z
		 M324.748,344.815h-28.98l28.547-37.339h0.434V344.815z"/>
	<path d="M77.788,0v265.111H42.189v139.615h0.001l35.59,35.591L77.788,490h370.023V102.422L345.388,0H77.788z M395.793,389.413
		H57.501v-108.99h338.292V389.413z M353.022,36.962l57.816,57.804h-57.816V36.962z"/>
</g>
<g>
</g>
<g>
</g>
<g>
</g>
<g>
</g>
<g>
</g>
<g>
</g>
<g>
</g>
<g>
</g>
<g>
</g>
<g>
</g>
<g>
</g>
<g>
</g>
<g>
</g>
<g>
</g>
<g>
</g>
</svg>
