<?xml version="1.0" encoding="iso-8859-1"?>
<!-- Generator: Adobe Illustrator 16.0.0, SVG Export Plug-In . SVG Version: 6.00 Build 0)  -->
<!DOCTYPE svg PUBLIC "-//W3C//DTD SVG 1.1//EN" "http://www.w3.org/Graphics/SVG/1.1/DTD/svg11.dtd">
<svg version="1.1" id="Capa_1" xmlns="http://www.w3.org/2000/svg" xmlns:xlink="http://www.w3.org/1999/xlink" x="0px" y="0px"
	 width="550.801px" height="550.801px" viewBox="0 0 550.801 550.801" style="enable-background:new 0 0 550.801 550.801;"
	 xml:space="preserve">
<g>
	<path d="M304.784,259.577c-6.519,0-10.927,0.633-13.247,1.263v41.829c2.731,0.633,6.106,0.844,10.727,0.844
		c17.017,0,27.537-8.622,27.537-23.129C329.801,267.353,320.752,259.577,304.784,259.577z"/>
	<path d="M422.276,260.427h-0.411c-2.109,8.405-4.209,19.129-6.519,27.329l-8.416,30.054h31.324l-8.828-30.054
		C426.896,279.345,424.375,268.827,422.276,260.427z"/>
	<path d="M488.426,197.014H475.2v-63.817c0-0.401-0.063-0.799-0.116-1.205c-0.021-2.534-0.827-5.023-2.562-6.993L366.325,3.694
		c-0.032-0.034-0.063-0.045-0.085-0.076c-0.633-0.707-1.371-1.298-2.151-1.804c-0.231-0.158-0.464-0.287-0.706-0.422
		c-0.676-0.366-1.393-0.675-2.131-0.896c-0.2-0.053-0.38-0.135-0.58-0.19C359.87,0.119,359.037,0,358.193,0H97.2
		c-11.918,0-21.6,9.693-21.6,21.601v175.413H62.377c-17.049,0-30.873,13.818-30.873,30.87v160.542
		c0,17.044,13.824,30.876,30.873,30.876h13.224V529.2c0,11.907,9.682,21.601,21.6,21.601h356.4c11.907,0,21.6-9.693,21.6-21.601
		V419.302h13.226c17.044,0,30.871-13.827,30.871-30.87v-160.54C519.297,210.832,505.47,197.014,488.426,197.014z M97.2,21.601
		h250.193v110.51c0,5.967,4.841,10.8,10.8,10.8h95.407v54.108H97.2V21.601z M361.537,279.556c0,13.869-4.62,25.64-13.025,33.629
		c-10.927,10.299-27.116,14.935-46.037,14.935c-4.203,0-7.984-0.211-10.933-0.628v50.657h-31.746V238.349
		c9.879-1.677,23.756-2.943,43.311-2.943c19.759,0,33.845,3.787,43.311,11.362C355.451,253.908,361.537,265.674,361.537,279.556z
		 M78.825,378.138l9.039-141.682h42.672l13.867,47.303c4.406,16.4,8.828,34.062,11.981,50.667h0.643
		c3.998-16.395,8.831-35.11,13.447-50.878l15.135-47.092h41.84l7.771,141.682h-31.324l-2.102-54.232
		c-0.62-17.018-1.253-37.62-1.253-58.227h-0.622c-4.417,18.08-10.312,38.251-15.778,54.862l-17.23,55.287h-25.018l-15.137-54.865
		c-4.627-16.601-9.46-36.787-12.814-55.284h-0.432c-0.831,19.13-1.464,40.998-2.521,58.648l-2.521,53.811H78.825z M453.601,523.347
		H97.2V419.302h356.4V523.347z M453.812,378.138l-10.927-36.36h-40.574l-10.093,36.36h-33.207l43.311-141.682h42.035L488.3,378.138
		H453.812z"/>
</g>
<g>
</g>
<g>
</g>
<g>
</g>
<g>
</g>
<g>
</g>
<g>
</g>
<g>
</g>
<g>
</g>
<g>
</g>
<g>
</g>
<g>
</g>
<g>
</g>
<g>
</g>
<g>
</g>
<g>
</g>
</svg>
