<?xml version="1.0" encoding="iso-8859-1"?>
<!-- Generator: Adobe Illustrator 16.0.0, SVG Export Plug-In . SVG Version: 6.00 Build 0)  -->
<!DOCTYPE svg PUBLIC "-//W3C//DTD SVG 1.1//EN" "http://www.w3.org/Graphics/SVG/1.1/DTD/svg11.dtd">
<svg version="1.1" id="Capa_1" xmlns="http://www.w3.org/2000/svg" xmlns:xlink="http://www.w3.org/1999/xlink" x="0px" y="0px"
	 width="550.801px" height="550.801px" viewBox="0 0 550.801 550.801" style="enable-background:new 0 0 550.801 550.801;"
	 xml:space="preserve">
<g>
	<path d="M488.427,197.014h-13.226v-63.817c0-0.401-0.063-0.799-0.116-1.205c-0.021-2.531-0.828-5.021-2.563-6.993L366.325,3.694
		c-0.031-0.031-0.063-0.045-0.084-0.076c-0.633-0.707-1.371-1.295-2.151-1.804c-0.232-0.155-0.465-0.285-0.707-0.422
		c-0.675-0.366-1.393-0.675-2.131-0.896c-0.2-0.053-0.379-0.135-0.58-0.188C359.871,0.119,359.037,0,358.193,0H97.201
		c-11.918,0-21.6,9.693-21.6,21.601v175.413H62.378c-17.044,0-30.874,13.818-30.874,30.873v160.545
		c0,17.038,13.83,30.87,30.874,30.87h13.223V529.2c0,11.907,9.682,21.601,21.6,21.601h356.4c11.907,0,21.601-9.693,21.601-21.601
		V419.302h13.226c17.054,0,30.87-13.832,30.87-30.87V227.887C519.297,210.832,505.48,197.014,488.427,197.014z M97.201,21.601
		h250.193v110.51c0,5.97,4.841,10.8,10.8,10.8h95.407v54.108h-356.4V21.601z M337.332,292.075v25.333h-50.667v32.675h56.584v25.544
		h-87.832V237.936h84.974v25.536h-53.726v28.604H337.332z M143.08,334.157v41.47h-28.603V237.936h36.363l28.603,50.459
		c8.166,14.512,16.324,31.661,22.465,47.197h0.599c-2.035-18.184-2.645-36.783-2.645-57.407v-40.249h28.604v137.691h-32.698
		l-29.402-53.113c-8.176-14.719-17.162-32.49-23.901-48.613l-0.609,0.187C142.668,292.275,143.08,311.682,143.08,334.157z
		 M453.601,523.347h-356.4V419.302h356.4V523.347z M398.188,377.674c-15.726,0-31.261-4.093-39.023-8.375l6.339-25.761
		c8.374,4.293,21.241,8.585,34.52,8.585c14.302,0,21.854-5.916,21.854-14.913c0-8.579-6.528-13.479-23.087-19.4
		c-22.871-7.974-37.779-20.636-37.779-40.653c0-23.501,19.606-41.473,52.091-41.473c15.515,0,26.958,3.267,35.132,6.95l-6.939,25.12
		c-5.511-2.658-15.325-6.539-28.804-6.539c-13.489,0-20.019,6.128-20.019,13.278c0,8.786,7.758,12.667,25.529,19.406
		c24.321,8.997,35.765,21.663,35.765,41.069C453.759,358.057,435.977,377.674,398.188,377.674z"/>
</g>
<g>
</g>
<g>
</g>
<g>
</g>
<g>
</g>
<g>
</g>
<g>
</g>
<g>
</g>
<g>
</g>
<g>
</g>
<g>
</g>
<g>
</g>
<g>
</g>
<g>
</g>
<g>
</g>
<g>
</g>
</svg>
