<?xml version="1.0" encoding="iso-8859-1"?>
<!-- Generator: Adobe Illustrator 16.0.0, SVG Export Plug-In . SVG Version: 6.00 Build 0)  -->
<!DOCTYPE svg PUBLIC "-//W3C//DTD SVG 1.1//EN" "http://www.w3.org/Graphics/SVG/1.1/DTD/svg11.dtd">
<svg version="1.1" id="Capa_1" xmlns="http://www.w3.org/2000/svg" xmlns:xlink="http://www.w3.org/1999/xlink" x="0px" y="0px"
	 width="548.291px" height="548.291px" viewBox="0 0 548.291 548.291" style="enable-background:new 0 0 548.291 548.291;"
	 xml:space="preserve">
<g>
	<path d="M308.298,252.662c-8.095,0-13.34,0.725-16.431,1.439v105.032c3.086,0.725,8.095,0.725,12.619,0.725
		c32.882,0.241,54.312-17.869,54.312-56.221C359.044,270.292,339.511,252.662,308.298,252.662z"/>
	<path d="M154.65,360.331c24.528,0,38.581-23.35,38.581-54.541c0-28.83-13.817-53.608-38.828-53.608
		c-24.528,0-38.833,23.36-38.833,54.564C115.576,338.184,130.354,360.331,154.65,360.331z"/>
	<path d="M486.201,196.124h-13.166V132.59c0-0.396-0.062-0.795-0.115-1.196c-0.021-2.523-0.825-5-2.552-6.963L364.657,3.677
		c-0.033-0.031-0.064-0.042-0.085-0.073c-0.63-0.707-1.364-1.292-2.143-1.795c-0.229-0.157-0.461-0.286-0.702-0.421
		c-0.672-0.366-1.387-0.671-2.121-0.892c-0.2-0.055-0.379-0.136-0.577-0.188C358.23,0.118,357.401,0,356.562,0H96.757
		C84.894,0,75.256,9.651,75.256,21.502v174.613H62.092c-16.971,0-30.732,13.756-30.732,30.733v159.812
		c0,16.968,13.761,30.731,30.732,30.731h13.164V526.79c0,11.854,9.638,21.501,21.501,21.501h354.776
		c11.853,0,21.501-9.647,21.501-21.501V417.392h13.166c16.966,0,30.729-13.764,30.729-30.731V226.854
		C516.93,209.872,503.167,196.124,486.201,196.124z M96.757,21.502h249.054v110.009c0,5.939,4.817,10.75,10.751,10.75h94.972v53.861
		H96.757V21.502z M397.391,302.451c0,30.729-11.192,51.928-26.678,65.029c-16.914,14.059-42.642,20.726-74.08,20.726
		c-18.821,0-32.158-1.192-41.205-2.395V228.126c13.335-2.139,30.717-3.325,49.058-3.325c30.489,0,50.269,5.483,65.748,17.142
		C386.902,254.332,397.391,274.104,397.391,302.451z M77.229,307.447c0-48.115,30.725-84.087,78.13-84.087
		c49.31,0,76.218,36.924,76.218,81.228c0,52.65-31.914,84.551-78.841,84.551C105.101,389.149,77.229,353.186,77.229,307.447z
		 M451.534,520.962H96.757v-103.57h354.776V520.962z M457.675,386.536h-36.447V225.982h36.447V386.536z"/>
</g>
<g>
</g>
<g>
</g>
<g>
</g>
<g>
</g>
<g>
</g>
<g>
</g>
<g>
</g>
<g>
</g>
<g>
</g>
<g>
</g>
<g>
</g>
<g>
</g>
<g>
</g>
<g>
</g>
<g>
</g>
</svg>
