<?xml version="1.0" encoding="iso-8859-1"?>
<!-- Generator: Adobe Illustrator 16.0.0, SVG Export Plug-In . SVG Version: 6.00 Build 0)  -->
<!DOCTYPE svg PUBLIC "-//W3C//DTD SVG 1.1//EN" "http://www.w3.org/Graphics/SVG/1.1/DTD/svg11.dtd">
<svg version="1.1" id="Capa_1" xmlns="http://www.w3.org/2000/svg" xmlns:xlink="http://www.w3.org/1999/xlink" x="0px" y="0px"
	 width="636px" height="636px" viewBox="0 0 636 636" style="enable-background:new 0 0 636 636;" xml:space="preserve">
<g>
	<path d="M309.521,293.606c-8.263,0-13.612,0.731-16.772,1.474v107.145c3.16,0.743,8.26,0.743,12.875,0.743
		c33.53,0.231,55.415-18.23,55.415-57.348C361.27,311.597,341.346,293.606,309.521,293.606z"/>
	<path d="M563.984,227.497h-15.271V153.8c0-0.46-0.08-0.923-0.128-1.389c-0.024-2.926-0.962-5.8-2.966-8.077L422.99,4.266
		c-0.037-0.037-0.073-0.049-0.098-0.089c-0.73-0.815-1.583-1.495-2.484-2.082c-0.269-0.18-0.536-0.329-0.816-0.484
		c-0.779-0.426-1.607-0.779-2.46-1.035c-0.231-0.063-0.438-0.158-0.67-0.219C415.537,0.137,414.574,0,413.6,0H112.235
		C98.474,0,87.294,11.191,87.294,24.941v202.549H72.022c-19.683,0-35.646,15.954-35.646,35.646v185.378
		c0,19.675,15.963,35.646,35.646,35.646h15.272v126.898c0,13.75,11.18,24.941,24.941,24.941h411.53
		c13.749,0,24.941-11.191,24.941-24.941V484.16h15.271c19.68,0,35.646-15.965,35.646-35.646V263.143
		C599.624,243.444,583.669,227.497,563.984,227.497z M112.235,24.941h288.894v127.604c0,6.893,5.59,12.47,12.471,12.47h110.165
		v62.481h-411.53V24.941z M400.386,344.408c0,31.329-11.411,52.958-27.206,66.323c-17.263,14.347-43.501,21.147-75.582,21.147
		c-19.193,0-32.805-1.193-42.039-2.43V268.599c13.612-2.195,31.347-3.41,50.059-3.41c31.106,0,51.268,5.587,67.075,17.5
		C389.7,295.33,400.386,315.482,400.386,344.408z M73.794,349.505c0-49.087,31.332-85.796,79.701-85.796
		c50.299,0,77.752,37.68,77.752,82.886c0,53.682-32.547,86.247-80.417,86.247C102.222,432.842,73.794,396.166,73.794,349.505z
		 M523.765,604.3h-411.53V484.16h411.53V604.3z M502.953,430.181l-14.81-29.654c-6.077-11.411-9.974-19.924-14.583-29.405h-0.481
		c-3.403,9.481-7.538,17.994-12.642,29.405l-13.608,29.654h-42.283l47.392-82.861l-45.681-80.916h42.526l14.322,29.898
		c4.859,9.953,8.524,17.978,12.409,27.203h0.476c3.896-10.448,7.045-17.731,11.186-27.203l13.853-29.898h42.277l-46.187,79.948
		l48.604,83.822h-42.77V430.181z"/>
	<path d="M192.128,347.807c0-29.417-14.09-54.672-39.613-54.672c-25.023,0-39.613,23.818-39.613,55.652
		c0,32.071,15.071,54.649,39.851,54.649C177.8,403.437,192.128,379.622,192.128,347.807z"/>
</g>
<g>
</g>
<g>
</g>
<g>
</g>
<g>
</g>
<g>
</g>
<g>
</g>
<g>
</g>
<g>
</g>
<g>
</g>
<g>
</g>
<g>
</g>
<g>
</g>
<g>
</g>
<g>
</g>
<g>
</g>
</svg>
