<?xml version="1.0" encoding="iso-8859-1"?>
<!-- Generator: Adobe Illustrator 16.0.0, SVG Export Plug-In . SVG Version: 6.00 Build 0)  -->
<!DOCTYPE svg PUBLIC "-//W3C//DTD SVG 1.1//EN" "http://www.w3.org/Graphics/SVG/1.1/DTD/svg11.dtd">
<svg version="1.1" id="Capa_1" xmlns="http://www.w3.org/2000/svg" xmlns:xlink="http://www.w3.org/1999/xlink" x="0px" y="0px"
	 width="548.29px" height="548.291px" viewBox="0 0 548.29 548.291" style="enable-background:new 0 0 548.29 548.291;"
	 xml:space="preserve">
<g>
	<g>
		<path d="M162.23,275.495c0-12.89-8.95-20.594-24.753-20.594c-6.447,0-10.816,0.636-13.1,1.253v41.383
			c2.698,0.642,6.031,0.834,10.594,0.834C151.824,298.376,162.23,289.852,162.23,275.495z"/>
		<path d="M259.959,255.321c-7.068,0-11.648,0.63-14.347,1.247v91.721c2.698,0.625,7.076,0.625,11.026,0.625
			c28.692,0.214,47.419-15.591,47.419-49.078C304.266,270.718,287.217,255.321,259.959,255.321z"/>
		<path d="M486.205,196.116h-13.166V132.59c0-0.399-0.062-0.795-0.109-1.2c-0.021-2.52-0.828-4.997-2.556-6.96L364.656,3.677
			c-0.031-0.031-0.064-0.044-0.085-0.075c-0.629-0.704-1.364-1.29-2.141-1.796c-0.231-0.154-0.462-0.283-0.704-0.419
			c-0.672-0.365-1.386-0.672-2.121-0.893c-0.199-0.052-0.377-0.134-0.576-0.186C358.229,0.118,357.4,0,356.562,0H96.757
			C84.893,0,75.256,9.649,75.256,21.502v174.613H62.093c-16.972,0-30.733,13.756-30.733,30.733v159.812
			c0,16.961,13.761,30.731,30.733,30.731h13.163V526.79c0,11.854,9.637,21.501,21.501,21.501h354.777
			c11.853,0,21.502-9.647,21.502-21.501V417.392H486.2c16.966,0,30.729-13.771,30.729-30.731V226.849
			C516.93,209.872,503.177,196.116,486.205,196.116z M96.757,21.502h249.053v110.006c0,5.943,4.818,10.751,10.751,10.751h94.973
			v53.861H96.757V21.502z M337.742,298.796c0,26.826-9.77,45.345-23.287,56.778c-14.771,12.263-37.229,18.089-64.68,18.089
			c-16.434,0-28.077-1.034-35.985-2.078v-137.68c11.648-1.876,26.83-2.903,42.854-2.903c26.615,0,43.884,4.779,57.402,14.969
			C328.598,256.778,337.742,274.049,337.742,298.796z M92.962,372.216V233.906c9.774-1.661,23.507-2.903,42.843-2.903
			c19.549,0,33.483,3.725,42.846,11.224c8.945,7.069,14.982,18.717,14.982,32.444c0,13.733-4.58,25.375-12.896,33.282
			c-10.816,10.183-26.83,14.767-45.552,14.767c-4.155,0-7.905-0.216-10.803-0.631v50.128H92.962z M451.534,520.962H96.757v-103.57
			h354.777V520.962z M447.974,360.982c-10.193,8.115-27.244,12.682-55.117,12.682c-15.592,0-27.244-1.034-34.315-2.078v-137.68
			c8.325-1.661,25.159-2.903,40.972-2.903c19.344,0,31.196,1.867,41.396,7.896c9.774,5.205,16.84,14.767,16.84,27.452
			c0,12.478-7.274,24.125-23.081,29.948v0.41c16.016,4.378,27.87,16.436,27.87,34.534
			C462.537,343.92,456.71,353.911,447.974,360.982z"/>
		<path d="M425.926,270.303c0-10.618-8.104-16.229-22.456-16.229c-6.866,0-10.818,0.419-13.517,0.821v32.662h10.398
			C416.987,287.562,425.926,280.696,425.926,270.303z"/>
		<path d="M400.762,310.236h-10.809v39.512c3.117,0.421,6.866,0.421,12.273,0.421c14.351,0,27.028-5.407,27.028-20.181
			C429.255,315.847,416.577,310.236,400.762,310.236z"/>
	</g>
</g>
<g>
</g>
<g>
</g>
<g>
</g>
<g>
</g>
<g>
</g>
<g>
</g>
<g>
</g>
<g>
</g>
<g>
</g>
<g>
</g>
<g>
</g>
<g>
</g>
<g>
</g>
<g>
</g>
<g>
</g>
</svg>
