<?xml version="1.0" encoding="iso-8859-1"?>
<!-- Generator: Adobe Illustrator 16.0.0, SVG Export Plug-In . SVG Version: 6.00 Build 0)  -->
<!DOCTYPE svg PUBLIC "-//W3C//DTD SVG 1.1//EN" "http://www.w3.org/Graphics/SVG/1.1/DTD/svg11.dtd">
<svg version="1.1" id="Capa_1" xmlns="http://www.w3.org/2000/svg" xmlns:xlink="http://www.w3.org/1999/xlink" x="0px" y="0px"
	 width="548.291px" height="548.291px" viewBox="0 0 548.291 548.291" style="enable-background:new 0 0 548.291 548.291;"
	 xml:space="preserve">
<g>
	<path d="M205.454,243.182c-8.407,0-13.166,0.683-15.654,1.134v42.166h13.607c17.228,0,27.425-8.609,27.425-21.996
		C230.827,250.439,221.307,243.403,205.454,243.182z"/>
	<path d="M356.866,274.022c-2.729-9.074-5.454-20.412-7.712-29.467h-0.45c-2.279,9.061-4.536,20.63-7.04,29.467l-9.071,32.417
		h33.786L356.866,274.022z"/>
	<path d="M486.201,196.116h-13.166V132.59c0-0.399-0.062-0.795-0.115-1.2c-0.021-2.522-0.825-5-2.552-6.96L364.657,3.677
		c-0.033-0.034-0.064-0.044-0.085-0.075c-0.63-0.704-1.364-1.292-2.143-1.796c-0.229-0.157-0.461-0.286-0.702-0.419
		c-0.672-0.365-1.387-0.672-2.121-0.893c-0.2-0.052-0.379-0.134-0.577-0.188C358.23,0.118,357.401,0,356.562,0H96.757
		C84.894,0,75.256,9.649,75.256,21.502v174.613H62.092c-16.971,0-30.732,13.756-30.732,30.73v159.81
		c0,16.966,13.761,30.736,30.732,30.736h13.164V526.79c0,11.854,9.638,21.501,21.501,21.501h354.776
		c11.853,0,21.501-9.647,21.501-21.501V417.392h13.166c16.966,0,30.729-13.764,30.729-30.731V226.854
		C516.93,209.872,503.167,196.116,486.201,196.116z M451.534,520.962H96.757v-103.57h354.776V520.962z M258.495,328.424
		c4.755,17.229,9.519,37.187,12.469,43.076h-35.36c-2.51-4.304-6.134-16.776-10.664-35.589
		c-4.084-19.046-10.644-24.266-24.717-24.494H189.8V371.5h-34.234v-150.76c11.105-1.816,27.662-3.171,46.017-3.171
		c22.69,0,38.564,3.402,49.428,12.008c9.074,7.257,14.055,17.911,14.055,31.967c0,19.499-13.825,32.874-26.985,37.641v0.67
		C248.749,304.172,254.638,314.368,258.495,328.424z M280.917,371.5l46.705-152.802h45.349L420.342,371.5h-37.177l-11.78-39.223
		h-43.759L316.739,371.5H280.917z M451.534,196.116H96.757V21.502h249.054v110.006c0,5.94,4.817,10.751,10.751,10.751h94.972
		V196.116z"/>
</g>
<g>
</g>
<g>
</g>
<g>
</g>
<g>
</g>
<g>
</g>
<g>
</g>
<g>
</g>
<g>
</g>
<g>
</g>
<g>
</g>
<g>
</g>
<g>
</g>
<g>
</g>
<g>
</g>
<g>
</g>
</svg>
