<?xml version="1.0" encoding="iso-8859-1"?>
<!-- Generator: Adobe Illustrator 16.0.0, SVG Export Plug-In . SVG Version: 6.00 Build 0)  -->
<!DOCTYPE svg PUBLIC "-//W3C//DTD SVG 1.1//EN" "http://www.w3.org/Graphics/SVG/1.1/DTD/svg11.dtd">
<svg version="1.1" id="Capa_1" xmlns="http://www.w3.org/2000/svg" xmlns:xlink="http://www.w3.org/1999/xlink" x="0px" y="0px"
	 width="550.801px" height="550.801px" viewBox="0 0 550.801 550.801" style="enable-background:new 0 0 550.801 550.801;"
	 xml:space="preserve">
<g>
	<path d="M488.426,197.014H475.2v-63.817c0-0.401-0.063-0.799-0.116-1.205c-0.021-2.531-0.833-5.023-2.562-6.993L366.319,3.694
		c-0.026-0.034-0.058-0.045-0.079-0.076c-0.633-0.707-1.371-1.298-2.151-1.804c-0.231-0.155-0.464-0.285-0.706-0.422
		c-0.676-0.366-1.393-0.675-2.131-0.896c-0.2-0.053-0.38-0.135-0.58-0.188C359.87,0.119,359.037,0,358.193,0H97.2
		c-11.918,0-21.6,9.693-21.6,21.601v175.413H62.375c-17.046,0-30.871,13.818-30.871,30.873v160.545
		c0,17.038,13.824,30.87,30.871,30.87h13.226V529.2c0,11.907,9.682,21.601,21.6,21.601h356.4c11.907,0,21.6-9.693,21.6-21.601
		V419.302h13.226c17.044,0,30.871-13.832,30.871-30.87V227.887C519.297,210.832,505.47,197.014,488.426,197.014z M97.2,21.601
		h250.193v110.51c0,5.967,4.841,10.8,10.8,10.8h95.407v54.108H97.2V21.601z M263.688,314.751
		c-26.483-9.218-43.73-23.862-43.73-47.039c0-27.18,22.691-47.991,60.283-47.991c17.956,0,31.188,3.786,40.653,8.029l-8.031,29.085
		c-6.392-3.071-17.729-7.564-33.339-7.564c-15.599,0-23.158,7.09-23.158,15.367c0,10.17,8.973,14.655,29.539,22.459
		c28.128,10.394,41.364,25.07,41.364,47.524c0,26.699-20.561,49.391-64.301,49.391c-18.191,0-36.163-4.725-45.143-9.692
		l7.327-29.784c9.688,4.968,24.582,9.925,39.949,9.925c16.543,0,25.286-6.861,25.286-17.244
		C290.388,327.28,282.836,321.606,263.688,314.751z M83.813,381.655V224.446c11.583-1.896,28.841-3.304,47.988-3.304
		c23.644,0,40.184,3.536,51.532,12.533c9.458,7.549,14.658,18.668,14.658,33.318c0,20.348-14.423,34.285-28.124,39.247v0.712
		c11.101,4.488,17.247,15.119,21.271,29.79c4.957,17.972,9.914,38.765,12.997,44.914h-36.875c-2.6-4.504-6.378-17.503-11.114-37.115
		c-4.256-19.87-11.114-25.296-25.763-25.528h-10.882v62.644H83.813z M453.601,523.347H97.2V419.302h356.4V523.347z M390.609,384.012
		c-18.209,0-36.165-4.725-45.146-9.692l7.325-29.784c9.688,4.968,24.585,9.925,39.936,9.925c16.559,0,25.308-6.861,25.308-17.244
		c0-9.936-7.573-15.609-26.716-22.465c-26.467-9.218-43.732-23.862-43.732-47.039c0-27.18,22.697-47.991,60.286-47.991
		c17.961,0,31.197,3.786,40.658,8.029l-8.047,29.085c-6.371-3.071-17.714-7.564-33.328-7.564c-15.594,0-23.161,7.09-23.161,15.367
		c0,10.17,8.985,14.655,29.547,22.459c28.129,10.394,41.359,25.07,41.359,47.524C454.897,361.32,434.342,384.012,390.609,384.012z"
		/>
	<path d="M162.291,270.082c0-14.657-9.93-21.99-26.475-22.222c-8.744,0-13.711,0.707-16.313,1.184v43.959h14.19
		C151.654,293.003,162.291,284.027,162.291,270.082z"/>
</g>
<g>
</g>
<g>
</g>
<g>
</g>
<g>
</g>
<g>
</g>
<g>
</g>
<g>
</g>
<g>
</g>
<g>
</g>
<g>
</g>
<g>
</g>
<g>
</g>
<g>
</g>
<g>
</g>
<g>
</g>
</svg>
