<?xml version="1.0" encoding="iso-8859-1"?>
<!-- Generator: Adobe Illustrator 16.0.0, SVG Export Plug-In . SVG Version: 6.00 Build 0)  -->
<!DOCTYPE svg PUBLIC "-//W3C//DTD SVG 1.1//EN" "http://www.w3.org/Graphics/SVG/1.1/DTD/svg11.dtd">
<svg version="1.1" id="Capa_1" xmlns="http://www.w3.org/2000/svg" xmlns:xlink="http://www.w3.org/1999/xlink" x="0px" y="0px"
	 width="550.801px" height="550.801px" viewBox="0 0 550.801 550.801" style="enable-background:new 0 0 550.801 550.801;"
	 xml:space="preserve">
<g>
	<path d="M278.225,288.078c-2.7-8.986-5.39-20.222-7.646-29.197h-0.443c-2.236,8.975-4.493,20.443-6.971,29.197l-8.973,32.104
		h33.476L278.225,288.078z"/>
	<path d="M488.427,197.014h-13.226v-63.817c0-0.401-0.063-0.799-0.116-1.205c-0.021-2.531-0.828-5.021-2.563-6.993L366.325,3.694
		c-0.031-0.031-0.063-0.045-0.084-0.076c-0.633-0.707-1.371-1.295-2.151-1.804c-0.232-0.155-0.465-0.285-0.707-0.422
		c-0.675-0.366-1.393-0.675-2.131-0.896c-0.2-0.053-0.379-0.135-0.58-0.188C359.871,0.119,359.037,0,358.193,0H97.201
		c-11.918,0-21.6,9.693-21.6,21.601v175.413H62.378c-17.044,0-30.874,13.818-30.874,30.873v160.545
		c0,17.038,13.83,30.87,30.874,30.87h13.223V529.2c0,11.907,9.682,21.601,21.6,21.601h356.4c11.907,0,21.601-9.693,21.601-21.601
		V419.302h13.226c17.054,0,30.87-13.832,30.87-30.87V227.887C519.297,210.832,505.48,197.014,488.427,197.014z M97.201,21.601
		h250.193v110.51c0,5.97,4.841,10.8,10.8,10.8h95.407v54.108h-356.4V21.601z M294.174,233.276l46.939,151.379h-36.835
		l-11.676-38.865h-43.348l-10.789,38.865h-35.49l46.279-151.379H294.174z M86.886,377.694l6.961-28.303
		c9.197,4.715,23.351,9.429,37.958,9.429c15.712,0,24.023-6.512,24.023-16.395c0-9.424-7.183-14.818-25.373-21.336
		c-25.154-8.749-41.565-22.676-41.565-44.688c0-25.837,21.568-45.604,57.291-45.604c17.062,0,29.623,3.606,38.63,7.641l-7.646,27.62
		c-6.064-2.916-16.843-7.183-31.672-7.183c-14.815,0-22.009,6.724-22.009,14.597c0,9.658,8.533,13.93,28.084,21.334
		c26.726,9.883,39.308,23.82,39.308,45.146c0,25.382-19.543,46.939-61.095,46.939C112.483,386.892,95.418,382.409,86.886,377.694z
		 M453.601,523.347h-356.4V419.302h356.4V523.347z M423.732,384.655H383.76l-48.5-151.379h37.505l18.409,64.009
		c5.168,17.961,9.883,35.264,13.469,54.127h0.675c3.828-18.193,8.543-36.166,13.711-53.452l19.312-64.684h36.396L423.732,384.655z"
		/>
</g>
<g>
</g>
<g>
</g>
<g>
</g>
<g>
</g>
<g>
</g>
<g>
</g>
<g>
</g>
<g>
</g>
<g>
</g>
<g>
</g>
<g>
</g>
<g>
</g>
<g>
</g>
<g>
</g>
<g>
</g>
</svg>
