<?xml version="1.0" encoding="iso-8859-1"?>
<!-- Generator: Adobe Illustrator 16.0.0, SVG Export Plug-In . SVG Version: 6.00 Build 0)  -->
<!DOCTYPE svg PUBLIC "-//W3C//DTD SVG 1.1//EN" "http://www.w3.org/Graphics/SVG/1.1/DTD/svg11.dtd">
<svg version="1.1" id="Capa_1" xmlns="http://www.w3.org/2000/svg" xmlns:xlink="http://www.w3.org/1999/xlink" x="0px" y="0px"
	 width="548.29px" height="548.291px" viewBox="0 0 548.29 548.291" style="enable-background:new 0 0 548.29 548.291;"
	 xml:space="preserve">
<g>
	<path d="M486.2,196.121h-13.164v-63.525c0-0.399-0.064-0.795-0.116-1.2c-0.021-2.52-0.829-4.997-2.551-6.96L364.656,3.677
		c-0.031-0.031-0.064-0.044-0.085-0.075c-0.629-0.704-1.364-1.29-2.141-1.796c-0.231-0.154-0.462-0.286-0.704-0.419
		c-0.672-0.365-1.386-0.672-2.121-0.893c-0.199-0.052-0.377-0.134-0.576-0.186C358.229,0.118,357.4,0,356.562,0H96.757
		C84.893,0,75.256,9.649,75.256,21.502v174.613H62.09c-16.963,0-30.729,13.756-30.729,30.733v159.812
		c0,16.961,13.766,30.731,30.729,30.731h13.166V526.79c0,11.854,9.637,21.501,21.501,21.501h354.777
		c11.853,0,21.502-9.647,21.502-21.501V417.392H486.2c16.977,0,30.729-13.764,30.729-30.731V226.854
		C516.93,209.872,503.177,196.121,486.2,196.121z M96.757,21.507h249.053v110.006c0,5.94,4.818,10.751,10.751,10.751h94.973v53.861
		H96.757V21.507z M293.169,358.461c17.932,0,27.802-12.567,27.802-39.25V232.24h34.067v84.735c0,46.63-23.538,68.836-62.981,68.836
		c-38.124,0-60.528-21.081-60.528-69.288V232.24h34.289v86.972C265.817,345.222,275.676,358.461,293.169,358.461z M78.625,316.523
		V232.24h34.29v86.972c0,26.011,9.858,39.25,27.35,39.25c17.945,0,27.804-12.567,27.804-39.25V232.24h34.068v84.735
		c0,46.63-23.539,68.836-62.984,68.836C101.041,385.811,78.625,364.73,78.625,316.523z M451.534,520.968H96.757V417.392h354.777
		V520.968z M481.035,383.344h-96.39V232.245h93.25v28.021h-58.95v31.381h55.592v27.801h-55.592v35.876h62.09V383.344
		L481.035,383.344z"/>
</g>
<g>
</g>
<g>
</g>
<g>
</g>
<g>
</g>
<g>
</g>
<g>
</g>
<g>
</g>
<g>
</g>
<g>
</g>
<g>
</g>
<g>
</g>
<g>
</g>
<g>
</g>
<g>
</g>
<g>
</g>
</svg>
