<?xml version="1.0" encoding="iso-8859-1"?>
<!-- Generator: Adobe Illustrator 16.0.0, SVG Export Plug-In . SVG Version: 6.00 Build 0)  -->
<!DOCTYPE svg PUBLIC "-//W3C//DTD SVG 1.1//EN" "http://www.w3.org/Graphics/SVG/1.1/DTD/svg11.dtd">
<svg version="1.1" id="Capa_1" xmlns="http://www.w3.org/2000/svg" xmlns:xlink="http://www.w3.org/1999/xlink" x="0px" y="0px"
	 width="548.29px" height="548.291px" viewBox="0 0 548.29 548.291" style="enable-background:new 0 0 548.29 548.291;"
	 xml:space="preserve">
<g>
	<path d="M486.205,196.116h-13.166V132.59c0-0.399-0.062-0.795-0.109-1.2c-0.021-2.52-0.828-4.997-2.556-6.96L364.656,3.677
		c-0.031-0.031-0.064-0.044-0.085-0.075c-0.629-0.704-1.364-1.29-2.141-1.796c-0.231-0.154-0.462-0.283-0.704-0.419
		c-0.672-0.365-1.386-0.672-2.121-0.893c-0.199-0.052-0.377-0.134-0.576-0.186C358.229,0.118,357.4,0,356.562,0H96.757
		C84.893,0,75.256,9.649,75.256,21.502v174.613H62.093c-16.972,0-30.733,13.756-30.733,30.733v159.812
		c0,16.961,13.761,30.731,30.733,30.731h13.163V526.79c0,11.854,9.637,21.501,21.501,21.501h354.777
		c11.853,0,21.502-9.647,21.502-21.501V417.392H486.2c16.966,0,30.729-13.771,30.729-30.731V226.849
		C516.93,209.872,503.177,196.116,486.205,196.116z M96.757,21.502h249.053v110.006c0,5.943,4.818,10.751,10.751,10.751h94.973
		v53.861H96.757V21.502z M306.953,317.836c-23.369-8.136-38.614-21.071-38.614-41.529c0-23.997,20.033-42.348,53.219-42.348
		c15.843,0,27.537,3.338,35.879,7.097l-7.092,25.657c-5.633-2.709-15.643-6.678-29.424-6.678c-13.769,0-20.445,6.257-20.445,13.562
		c0,8.969,7.931,12.937,26.084,19.824c24.825,9.177,36.51,22.11,36.51,41.942c0,23.58-18.147,43.603-56.756,43.603
		c-16.06,0-31.917-4.168-39.844-8.557l6.459-26.289c8.561,4.383,21.709,8.767,35.268,8.767c14.61,0,22.322-6.048,22.322-15.233
		C330.523,328.897,323.852,323.883,306.953,317.836z M77.649,236.25h34.014l10.638,58.017c3.134,16.688,6.053,34.83,8.344,49.029
		h0.426c2.288-15.245,5.632-32.144,9.173-49.449l11.903-57.597h33.806l11.266,59.261c3.134,16.473,5.425,31.506,7.514,47.149h0.41
		c2.092-15.644,5.225-32.137,8.149-48.819l11.46-57.597h32.343L220.79,376.875h-34.42l-11.895-60.503
		c-2.714-14.2-5.005-27.34-6.675-43.402h-0.419c-2.502,15.864-4.79,29.207-8.134,43.402l-13.357,60.503h-34.859L77.649,236.25z
		 M451.534,520.962H96.757v-103.57h354.777V520.962z M470.525,262.332h-54.047v32.139h50.499v25.87h-50.499v56.553h-31.917V236.25
		h85.964V262.332z"/>
</g>
<g>
</g>
<g>
</g>
<g>
</g>
<g>
</g>
<g>
</g>
<g>
</g>
<g>
</g>
<g>
</g>
<g>
</g>
<g>
</g>
<g>
</g>
<g>
</g>
<g>
</g>
<g>
</g>
<g>
</g>
</svg>
