<?xml version="1.0" encoding="iso-8859-1"?>
<!-- Generator: Adobe Illustrator 16.0.0, SVG Export Plug-In . SVG Version: 6.00 Build 0)  -->
<!DOCTYPE svg PUBLIC "-//W3C//DTD SVG 1.1//EN" "http://www.w3.org/Graphics/SVG/1.1/DTD/svg11.dtd">
<svg version="1.1" id="Capa_1" xmlns="http://www.w3.org/2000/svg" xmlns:xlink="http://www.w3.org/1999/xlink" x="0px" y="0px"
	 width="550.801px" height="550.801px" viewBox="0 0 550.801 550.801" style="enable-background:new 0 0 550.801 550.801;"
	 xml:space="preserve">
<g>
	<path d="M158.744,264.646c0-15.304-13.737-21.4-30.85-21.4h-11.707v42.796c3.375,0.443,7.43,0.443,13.289,0.443
		C145.012,286.485,158.744,280.621,158.744,264.646z"/>
	<path d="M488.426,197.021H475.2v-63.825c0-0.398-0.063-0.799-0.116-1.203c-0.021-2.533-0.827-5.022-2.562-6.995L366.319,3.694
		c-0.031-0.031-0.062-0.042-0.089-0.074c-0.628-0.709-1.371-1.297-2.146-1.803c-0.232-0.158-0.464-0.288-0.707-0.422
		c-0.675-0.369-1.392-0.675-2.136-0.896c-0.2-0.056-0.374-0.135-0.574-0.19C359.87,0.119,359.026,0,358.188,0H97.2
		c-11.918,0-21.6,9.695-21.6,21.601v175.415H62.375c-17.046,0-30.871,13.819-30.871,30.871v160.545
		c0,17.043,13.824,30.87,30.871,30.87h13.226V529.2c0,11.907,9.682,21.601,21.6,21.601h356.4c11.907,0,21.6-9.693,21.6-21.601
		V419.308h13.226c17.044,0,30.871-13.833,30.871-30.876v-160.54C519.297,210.835,505.47,197.021,488.426,197.021z M97.2,21.601
		h250.193v110.513c0,5.967,4.841,10.8,10.8,10.8h95.407v54.108H97.2V21.601z M344.777,375.828h-36.935l-11.707-38.961h-43.458
		l-10.811,38.961h-35.58l46.391-151.775h45.035L344.777,375.828z M82.185,375.152V226.078c9.007-1.804,27.248-3.154,44.36-3.154
		c20.941,0,33.776,2.025,44.808,8.553c10.584,5.643,18.241,16,18.241,29.732c0,13.51-7.884,26.13-24.996,32.426v0.454
		c17.339,4.735,30.175,17.792,30.175,37.389c0,13.731-6.302,24.553-15.763,32.199c-11.032,8.785-29.5,13.732-59.674,13.732
		C102.45,377.399,89.841,376.271,82.185,375.152z M453.601,523.347H97.2V419.308h356.4V523.347z M449.281,375.828L412.119,310.3
		l-13.057,15.979v49.55H365.06V224.053h34.003v67.115h0.675c3.375-5.854,6.982-11.27,10.357-16.669l34.456-50.446h42.108
		l-50.213,64.637l52.919,87.148h-40.084V375.828z"/>
	<path d="M281.724,278.997c-2.706-9.007-5.405-20.271-7.657-29.278h-0.448c-2.252,9.007-4.504,20.503-6.982,29.278l-9.007,32.199
		h33.555L281.724,278.997z"/>
	<path d="M158.744,330.117c0-15.313-13.737-21.399-30.85-21.399h-11.707v42.789c3.375,0.442,7.43,0.442,13.289,0.442
		C145.012,351.949,158.744,346.096,158.744,330.117z"/>
</g>
<g>
</g>
<g>
</g>
<g>
</g>
<g>
</g>
<g>
</g>
<g>
</g>
<g>
</g>
<g>
</g>
<g>
</g>
<g>
</g>
<g>
</g>
<g>
</g>
<g>
</g>
<g>
</g>
<g>
</g>
</svg>
