<?xml version="1.0" encoding="iso-8859-1"?>
<!-- Generator: Adobe Illustrator 16.0.0, SVG Export Plug-In . SVG Version: 6.00 Build 0)  -->
<!DOCTYPE svg PUBLIC "-//W3C//DTD SVG 1.1//EN" "http://www.w3.org/Graphics/SVG/1.1/DTD/svg11.dtd">
<svg version="1.1" id="Capa_1" xmlns="http://www.w3.org/2000/svg" xmlns:xlink="http://www.w3.org/1999/xlink" x="0px" y="0px"
	 width="550.801px" height="550.801px" viewBox="0 0 550.801 550.801" style="enable-background:new 0 0 550.801 550.801;"
	 xml:space="preserve">
<g>
	<path d="M488.427,197.019h-13.226v-63.816c0-0.401-0.063-0.799-0.116-1.205c-0.021-2.531-0.833-5.021-2.563-6.992L366.325,3.694
		c-0.031-0.031-0.063-0.045-0.084-0.076c-0.633-0.707-1.371-1.295-2.151-1.804c-0.232-0.155-0.465-0.287-0.707-0.422
		c-0.675-0.366-1.393-0.675-2.131-0.896c-0.2-0.053-0.379-0.135-0.58-0.188C359.871,0.119,359.037,0,358.193,0H97.201
		c-11.918,0-21.6,9.693-21.6,21.601v175.413H62.375c-17.041,0-30.871,13.818-30.871,30.873v160.545
		c0,17.038,13.83,30.87,30.871,30.87h13.226V529.2c0,11.907,9.682,21.601,21.6,21.601h356.4c11.907,0,21.601-9.693,21.601-21.601
		V419.302h13.226c17.054,0,30.87-13.827,30.87-30.87v-160.54C519.297,210.832,505.48,197.019,488.427,197.019z M97.201,21.605
		h250.193v110.51c0,5.967,4.841,10.8,10.8,10.8h95.407v54.108h-356.4V21.605z M252.946,355.029
		c18.204,0,28.216-12.751,28.216-39.846v-88.336h34.612v86.058c0,47.355-23.899,69.894-63.967,69.894
		c-38.707,0-61.467-21.404-61.467-70.348v-85.604h34.823v88.325C225.163,341.587,235.186,355.029,252.946,355.029z M81.286,380.294
		V226.848h34.826v124.311h61.024v29.136H81.286z M453.601,523.353h-356.4V419.302h356.4V523.353z M430.524,380.294l-11.828-39.393
		h-43.944l-10.921,39.393h-35.986l46.918-153.446h45.531l47.577,153.446H430.524z"/>
	<path d="M396.384,252.807h-0.453c-2.289,9.094-4.557,20.714-7.072,29.586l-9.106,32.569h33.918l-9.561-32.569
		C401.383,273.288,398.651,261.9,396.384,252.807z"/>
</g>
<g>
</g>
<g>
</g>
<g>
</g>
<g>
</g>
<g>
</g>
<g>
</g>
<g>
</g>
<g>
</g>
<g>
</g>
<g>
</g>
<g>
</g>
<g>
</g>
<g>
</g>
<g>
</g>
<g>
</g>
</svg>
