<?xml version="1.0" encoding="iso-8859-1"?>
<!-- Generator: Adobe Illustrator 16.0.0, SVG Export Plug-In . SVG Version: 6.00 Build 0)  -->
<!DOCTYPE svg PUBLIC "-//W3C//DTD SVG 1.1//EN" "http://www.w3.org/Graphics/SVG/1.1/DTD/svg11.dtd">
<svg version="1.1" id="Capa_1" xmlns="http://www.w3.org/2000/svg" xmlns:xlink="http://www.w3.org/1999/xlink" x="0px" y="0px"
	 width="548.291px" height="548.291px" viewBox="0 0 548.291 548.291" style="enable-background:new 0 0 548.291 548.291;"
	 xml:space="preserve">
<g>
	<path d="M165.548,238.534c-9.597,0-15.037,0.779-17.89,1.299v48.213h15.557c19.695,0,31.359-9.858,31.359-25.146
		C194.574,246.828,183.69,238.796,165.548,238.534z"/>
	<path d="M486.201,196.116h-13.166V132.59c0-0.399-0.062-0.795-0.115-1.2c-0.021-2.522-0.825-5-2.552-6.96L364.657,3.677
		c-0.033-0.034-0.064-0.044-0.085-0.075c-0.63-0.704-1.364-1.292-2.143-1.796c-0.229-0.157-0.461-0.286-0.702-0.419
		c-0.672-0.365-1.387-0.672-2.121-0.893c-0.2-0.052-0.379-0.134-0.577-0.188C358.23,0.118,357.401,0,356.562,0H96.757
		C84.894,0,75.256,9.649,75.256,21.502v174.613H62.092c-16.971,0-30.732,13.756-30.732,30.73v159.81
		c0,16.966,13.761,30.736,30.732,30.736h13.164V526.79c0,11.854,9.638,21.501,21.501,21.501h354.776
		c11.853,0,21.501-9.647,21.501-21.501V417.392h13.166c16.966,0,30.729-13.764,30.729-30.731V226.854
		C516.93,209.872,503.167,196.116,486.201,196.116z M451.534,520.962H96.757v-103.57h354.776V520.962z M226.197,335.995
		c5.442,19.706,10.885,42.509,14.257,49.25h-40.436c-2.853-4.925-6.998-19.183-12.184-40.693
		c-4.667-21.775-12.187-27.737-28.255-28.002h-11.927v68.695h-39.14V212.877c12.703-2.082,31.625-3.636,52.62-3.636
		c25.921,0,44.063,3.888,56.507,13.746c10.368,8.294,16.071,20.475,16.071,36.546c0,22.286-15.808,37.583-30.843,43.026v0.778
		C215.05,308.267,221.79,319.92,226.197,335.995z M258.315,385.245l11.15-174.711h52.617l17.104,58.333
		c5.448,20.207,10.892,41.987,14.782,62.456h0.776c4.924-20.212,10.888-43.277,16.589-62.721l18.656-58.068h51.58l9.596,174.711
		h-38.624l-2.595-66.878c-0.776-20.998-1.553-46.394-1.553-71.797h-0.776c-5.443,22.297-12.704,47.167-19.434,67.655l-21.261,68.169
		h-30.846l-18.656-67.655c-5.706-20.472-11.665-45.356-15.811-68.169h-0.526c-1.034,23.592-1.805,50.547-3.106,72.321l-3.108,66.359
		h-36.554V385.245z M451.534,196.116H96.757V21.502h249.054v110.006c0,5.94,4.817,10.751,10.751,10.751h94.972V196.116z"/>
</g>
<g>
</g>
<g>
</g>
<g>
</g>
<g>
</g>
<g>
</g>
<g>
</g>
<g>
</g>
<g>
</g>
<g>
</g>
<g>
</g>
<g>
</g>
<g>
</g>
<g>
</g>
<g>
</g>
<g>
</g>
</svg>
