<?xml version="1.0" encoding="iso-8859-1"?>
<!-- Generator: Adobe Illustrator 16.0.0, SVG Export Plug-In . SVG Version: 6.00 Build 0)  -->
<!DOCTYPE svg PUBLIC "-//W3C//DTD SVG 1.1//EN" "http://www.w3.org/Graphics/SVG/1.1/DTD/svg11.dtd">
<svg version="1.1" id="Capa_1" xmlns="http://www.w3.org/2000/svg" xmlns:xlink="http://www.w3.org/1999/xlink" x="0px" y="0px"
	 width="550.801px" height="550.801px" viewBox="0 0 550.801 550.801" style="enable-background:new 0 0 550.801 550.801;"
	 xml:space="preserve">
<g>
	<path d="M488.426,197.021H475.2v-63.825c0-0.398-0.063-0.799-0.116-1.203c-0.021-2.533-0.827-5.022-2.562-6.995L366.325,3.694
		c-0.032-0.031-0.063-0.042-0.085-0.074c-0.633-0.709-1.371-1.297-2.151-1.803c-0.231-0.158-0.464-0.288-0.706-0.422
		c-0.676-0.369-1.393-0.675-2.131-0.896c-0.2-0.056-0.38-0.135-0.58-0.19C359.87,0.119,359.037,0,358.193,0H97.2
		c-11.918,0-21.6,9.695-21.6,21.601v175.415H62.375c-17.041,0-30.871,13.819-30.871,30.871v160.545
		c0,17.043,13.83,30.87,30.871,30.87h13.226V529.2c0,11.907,9.682,21.601,21.6,21.601h356.4c11.907,0,21.6-9.693,21.6-21.601
		V419.308h13.226c17.055,0,30.871-13.833,30.871-30.876v-160.54C519.297,210.835,505.48,197.021,488.426,197.021z M97.2,21.601
		h250.193v110.513c0,5.967,4.841,10.8,10.8,10.8h95.407v54.108H97.2V21.601z M300.597,362.639c10.357,0,21.832-2.268,28.604-4.968
		l5.168,26.8c-6.297,3.153-20.493,6.528-38.95,6.528c-52.473,0-79.494-32.653-79.494-75.89c0-51.793,36.927-80.618,82.869-80.618
		c17.782,0,31.304,3.607,37.379,6.771l-6.972,27.232c-6.982-2.922-16.675-5.622-28.825-5.622c-27.253,0-48.42,16.44-48.42,50.211
		C251.955,343.496,269.969,362.639,300.597,362.639z M68.629,236.97h37.61l18.467,64.175c5.181,18.024,9.906,35.368,13.5,54.279
		h0.675c3.831-18.235,8.566-36.255,13.734-53.594l19.375-64.861h36.481l-51.11,151.788h-40.102L68.629,236.97z M453.601,523.347
		H97.2V419.308h356.4V523.347z M465.898,370.739c-15.989,13.289-40.311,19.585-70.031,19.585c-17.793,0-30.412-1.128-38.966-2.235
		V238.995c12.604-2.025,29.052-3.153,46.401-3.153c28.824,0,47.503,5.179,62.152,16.221c15.757,11.707,25.671,30.404,25.671,57.193
		C491.126,338.317,480.537,358.346,465.898,370.739z"/>
	<path d="M406.898,262.198c-7.656,0-12.613,0.675-15.535,1.35v99.312c2.922,0.675,7.646,0.675,11.939,0.675
		c31.07,0.232,51.331-16.896,51.331-53.15C454.866,278.859,436.398,262.198,406.898,262.198z"/>
</g>
<g>
</g>
<g>
</g>
<g>
</g>
<g>
</g>
<g>
</g>
<g>
</g>
<g>
</g>
<g>
</g>
<g>
</g>
<g>
</g>
<g>
</g>
<g>
</g>
<g>
</g>
<g>
</g>
<g>
</g>
</svg>
