<?xml version="1.0" encoding="iso-8859-1"?>
<!-- Generator: Adobe Illustrator 16.0.0, SVG Export Plug-In . SVG Version: 6.00 Build 0)  -->
<!DOCTYPE svg PUBLIC "-//W3C//DTD SVG 1.1//EN" "http://www.w3.org/Graphics/SVG/1.1/DTD/svg11.dtd">
<svg version="1.1" id="Capa_1" xmlns="http://www.w3.org/2000/svg" xmlns:xlink="http://www.w3.org/1999/xlink" x="0px" y="0px"
	 width="550.801px" height="550.801px" viewBox="0 0 550.801 550.801" style="enable-background:new 0 0 550.801 550.801;"
	 xml:space="preserve">
<g>
	<g>
		<path d="M145.104,283.194c-2.942-9.793-5.875-22.032-8.321-31.836h-0.496c-2.447,9.798-4.894,22.275-7.594,31.836l-9.791,34.989
			h36.472L145.104,283.194z"/>
		<path d="M488.427,197.014h-13.226v-63.817c0-0.401-0.063-0.799-0.116-1.205c-0.021-2.531-0.828-5.021-2.563-6.993L366.325,3.694
			c-0.031-0.031-0.063-0.045-0.084-0.076c-0.633-0.707-1.371-1.295-2.151-1.804c-0.232-0.155-0.465-0.285-0.707-0.422
			c-0.675-0.366-1.393-0.675-2.131-0.896c-0.2-0.053-0.379-0.135-0.58-0.188C359.871,0.119,359.037,0,358.193,0H97.201
			c-11.918,0-21.6,9.693-21.6,21.601v175.413H62.378c-17.044,0-30.874,13.818-30.874,30.873v160.545
			c0,17.038,13.83,30.87,30.874,30.87h13.223V529.2c0,11.907,9.682,21.601,21.6,21.601h356.4c11.907,0,21.601-9.693,21.601-21.601
			V419.302h13.226c17.054,0,30.87-13.832,30.87-30.87V227.887C519.297,210.832,505.48,197.014,488.427,197.014z M97.201,21.601
			h250.193v110.51c0,5.97,4.841,10.8,10.8,10.8h95.407v54.108h-356.4V21.601z M354.123,273.639c0,16.158-5.39,29.869-15.178,39.172
			c-12.719,11.991-31.582,17.381-53.599,17.381c-4.896,0-9.318-0.253-12.723-0.738v58.988h-36.967v-162.77
			c11.507-1.959,27.654-3.428,50.417-3.428c23.014,0,39.403,4.406,50.436,13.213C347.024,243.778,354.123,257.494,354.123,273.639z
			 M63.1,388.441l50.424-164.974h48.956l51.155,164.974h-40.155l-12.717-42.346h-47.24l-11.749,42.346H63.1z M453.601,523.347
			h-356.4V419.302h356.4V523.347z M481.149,312.811c-12.73,11.991-31.583,17.381-53.6,17.381c-4.894,0-9.318-0.253-12.729-0.738
			v58.988h-36.967v-162.77c11.506-1.959,27.664-3.428,50.424-3.428c23.003,0,39.403,4.406,50.425,13.213
			c10.516,8.321,17.624,22.032,17.624,38.177C496.326,289.797,490.937,303.508,481.149,312.811z"/>
		<path d="M288.036,250.394c-7.581,0-12.728,0.738-15.412,1.464v48.713c3.178,0.728,7.093,0.971,12.479,0.971
			c19.828,0,32.062-10.025,32.062-26.924C317.166,259.443,306.641,250.394,288.036,250.394z"/>
		<path d="M430.239,250.394c-7.583,0-12.729,0.738-15.419,1.464v48.713c3.19,0.728,7.093,0.971,12.481,0.971
			c19.834,0,32.068-10.025,32.068-26.924C459.37,259.443,448.844,250.394,430.239,250.394z"/>
	</g>
</g>
<g>
</g>
<g>
</g>
<g>
</g>
<g>
</g>
<g>
</g>
<g>
</g>
<g>
</g>
<g>
</g>
<g>
</g>
<g>
</g>
<g>
</g>
<g>
</g>
<g>
</g>
<g>
</g>
<g>
</g>
</svg>
