<?xml version="1.0" encoding="iso-8859-1"?>
<!-- Generator: Adobe Illustrator 16.0.0, SVG Export Plug-In . SVG Version: 6.00 Build 0)  -->
<!DOCTYPE svg PUBLIC "-//W3C//DTD SVG 1.1//EN" "http://www.w3.org/Graphics/SVG/1.1/DTD/svg11.dtd">
<svg version="1.1" id="Capa_1" xmlns="http://www.w3.org/2000/svg" xmlns:xlink="http://www.w3.org/1999/xlink" x="0px" y="0px"
	 width="550.801px" height="550.801px" viewBox="0 0 550.801 550.801" style="enable-background:new 0 0 550.801 550.801;"
	 xml:space="preserve">
<g>
	<path d="M488.426,197.014H475.2v-63.817c0-0.401-0.063-0.799-0.116-1.205c-0.021-2.534-0.827-5.023-2.562-6.993L366.325,3.694
		c-0.032-0.034-0.063-0.045-0.085-0.076c-0.633-0.707-1.371-1.298-2.151-1.804c-0.231-0.158-0.464-0.287-0.706-0.422
		c-0.676-0.366-1.393-0.675-2.131-0.896c-0.2-0.053-0.38-0.135-0.58-0.19C359.87,0.119,359.037,0,358.193,0H97.2
		c-11.918,0-21.6,9.693-21.6,21.601v175.413H62.377c-17.049,0-30.873,13.818-30.873,30.87v160.542
		c0,17.044,13.824,30.876,30.873,30.876h13.224V529.2c0,11.907,9.682,21.601,21.6,21.601h356.4c11.907,0,21.6-9.693,21.6-21.601
		V419.302h13.226c17.044,0,30.871-13.827,30.871-30.87v-160.54C519.297,210.832,505.47,197.014,488.426,197.014z M90.754,375.385
		l44.993-147.224h43.685l45.647,147.224h-35.817L177.9,337.596h-42.159l-10.481,37.789H90.754z M453.601,523.347H97.2V419.302h356.4
		V523.347z M281.423,313.569c-24.456-8.521-40.402-22.063-40.402-43.477c0-25.112,20.967-44.342,55.695-44.342
		c16.611,0,28.835,3.501,37.567,7.425l-7.436,26.876c-5.896-2.834-16.368-6.992-30.797-6.992c-14.406,0-21.399,6.552-21.399,14.196
		c0,9.399,8.301,13.545,27.306,20.759c25.998,9.608,38.232,23.15,38.232,43.896c0,24.69-19.016,45.658-59.421,45.658
		c-16.819,0-33.415-4.367-41.726-8.955l6.771-27.527c8.965,4.588,22.729,9.176,36.917,9.176c15.293,0,23.372-6.338,23.372-15.946
		C306.103,325.14,299.12,319.897,281.423,313.569z M448.938,289.111v27.074h-52.86v59.199h-33.413V228.161h89.986v27.309h-56.573
		v33.642H448.938z M453.601,197.014H97.2V21.601h250.193v110.51c0,5.967,4.841,10.8,10.8,10.8h95.407V197.014z"/>
	<path d="M163.931,281.465c-2.626-8.743-5.245-19.662-7.425-28.405h-0.443c-2.183,8.743-4.369,19.883-6.784,28.405l-8.72,31.229
		h32.534L163.931,281.465z"/>
</g>
<g>
</g>
<g>
</g>
<g>
</g>
<g>
</g>
<g>
</g>
<g>
</g>
<g>
</g>
<g>
</g>
<g>
</g>
<g>
</g>
<g>
</g>
<g>
</g>
<g>
</g>
<g>
</g>
<g>
</g>
</svg>
