<?xml version="1.0" encoding="iso-8859-1"?>
<!-- Generator: Adobe Illustrator 16.0.0, SVG Export Plug-In . SVG Version: 6.00 Build 0)  -->
<!DOCTYPE svg PUBLIC "-//W3C//DTD SVG 1.1//EN" "http://www.w3.org/Graphics/SVG/1.1/DTD/svg11.dtd">
<svg version="1.1" id="Capa_1" xmlns="http://www.w3.org/2000/svg" xmlns:xlink="http://www.w3.org/1999/xlink" x="0px" y="0px"
	 width="550.801px" height="550.801px" viewBox="0 0 550.801 550.801" style="enable-background:new 0 0 550.801 550.801;"
	 xml:space="preserve">
<g>
	<path d="M450.61,267.938c0-12.205-9.339-18.673-25.84-18.673c-7.889,0-12.45,0.48-15.552,0.962v37.56h11.955
		C440.327,287.787,450.61,279.894,450.61,267.938z"/>
	<path d="M421.659,313.875h-12.44v45.468c3.581,0.485,7.895,0.485,14.112,0.485c16.517,0,31.107-6.233,31.107-23.219
		C454.438,320.341,439.848,313.875,421.659,313.875z"/>
	<path d="M488.426,197.019H475.2v-63.816c0-0.398-0.063-0.799-0.116-1.202c-0.021-2.534-0.827-5.023-2.562-6.995L366.325,3.694
		c-0.032-0.031-0.063-0.042-0.085-0.076c-0.633-0.707-1.371-1.295-2.151-1.804c-0.231-0.155-0.464-0.285-0.706-0.419
		c-0.676-0.369-1.393-0.675-2.131-0.896c-0.2-0.056-0.38-0.138-0.58-0.19C359.87,0.119,359.037,0,358.193,0H97.2
		c-11.918,0-21.6,9.693-21.6,21.601v175.413H62.377c-17.049,0-30.873,13.818-30.873,30.873v160.545
		c0,17.043,13.824,30.87,30.873,30.87h13.224V529.2c0,11.907,9.682,21.601,21.6,21.601h356.4c11.907,0,21.6-9.693,21.6-21.601
		V419.302h13.226c17.044,0,30.871-13.827,30.871-30.87v-160.54C519.297,210.838,505.47,197.019,488.426,197.019z M97.2,21.605
		h250.193v110.513c0,5.967,4.841,10.8,10.8,10.8h95.407v54.108H97.2V21.605z M351.538,385.183h-39.261l-12.439-41.392h-46.183
		l-11.48,41.392H204.37l49.285-161.27h47.854L351.538,385.183z M63.883,306.946c0-55.042,39.253-85.675,88.074-85.675
		c18.89,0,33.252,3.828,39.717,7.182l-7.414,28.954c-7.425-3.114-17.706-5.982-30.628-5.982c-28.957,0-51.458,17.463-51.458,53.359
		c0,32.305,19.156,52.64,51.69,52.64c11.011,0,23.214-2.384,30.396-5.253l5.492,28.472c-6.697,3.349-21.774,6.935-41.392,6.935
		C92.604,387.566,63.883,352.878,63.883,306.946z M453.601,523.353H97.2V419.302h356.4V523.353z M475.98,372.263
		c-11.728,9.34-31.36,14.597-63.418,14.597c-17.94,0-31.346-1.196-39.482-2.389V226.052c9.561-1.912,28.951-3.349,47.145-3.349
		c22.249,0,35.886,2.154,47.604,9.104c11.254,5.972,19.385,16.983,19.385,31.577c0,14.357-8.374,27.762-26.557,34.459v0.48
		c18.426,5.025,32.062,18.905,32.062,39.714C492.729,352.646,486.032,364.121,475.98,372.263z"/>
	<path d="M284.534,282.287c-2.885-9.571-5.754-21.526-8.146-31.095h-0.479c-2.389,9.569-4.78,21.774-7.414,31.095l-9.563,34.225
		h35.653L284.534,282.287z"/>
</g>
<g>
</g>
<g>
</g>
<g>
</g>
<g>
</g>
<g>
</g>
<g>
</g>
<g>
</g>
<g>
</g>
<g>
</g>
<g>
</g>
<g>
</g>
<g>
</g>
<g>
</g>
<g>
</g>
<g>
</g>
</svg>
