<?xml version="1.0" encoding="iso-8859-1"?>
<!-- Generator: Adobe Illustrator 16.0.0, SVG Export Plug-In . SVG Version: 6.00 Build 0)  -->
<!DOCTYPE svg PUBLIC "-//W3C//DTD SVG 1.1//EN" "http://www.w3.org/Graphics/SVG/1.1/DTD/svg11.dtd">
<svg version="1.1" id="Capa_1" xmlns="http://www.w3.org/2000/svg" xmlns:xlink="http://www.w3.org/1999/xlink" x="0px" y="0px"
	 width="550.801px" height="550.801px" viewBox="0 0 550.801 550.801" style="enable-background:new 0 0 550.801 550.801;"
	 xml:space="preserve">
<g>
	<g>
		<path d="M488.427,197.019h-13.226v-63.816c0-0.401-0.063-0.799-0.116-1.205c-0.021-2.531-0.833-5.021-2.563-6.992L366.325,3.694
			c-0.031-0.031-0.063-0.045-0.084-0.076c-0.633-0.707-1.371-1.295-2.151-1.804c-0.232-0.155-0.465-0.287-0.707-0.422
			c-0.675-0.366-1.393-0.675-2.131-0.896c-0.2-0.053-0.379-0.135-0.58-0.188C359.871,0.119,359.037,0,358.193,0H97.201
			c-11.918,0-21.6,9.693-21.6,21.601v175.413H62.375c-17.041,0-30.871,13.818-30.871,30.873v160.545
			c0,17.038,13.83,30.87,30.871,30.87h13.226V529.2c0,11.907,9.682,21.601,21.6,21.601h356.4c11.907,0,21.601-9.693,21.601-21.601
			V419.302h13.226c17.054,0,30.87-13.827,30.87-30.87v-160.54C519.297,210.832,505.48,197.019,488.427,197.019z M97.201,21.605
			h250.193v110.51c0,5.967,4.841,10.8,10.8,10.8h95.407v54.108h-356.4V21.605z M318.231,287.498v30.659h-61.343v39.566h68.515
			v30.919H219.062V221.962h102.872v30.899h-65.045v34.637H318.231z M64.255,307.779c0-56.896,40.577-88.549,91.027-88.549
			c19.533,0,34.359,3.963,41.041,7.42l-7.657,29.932c-7.678-3.225-18.312-6.183-31.651-6.183c-29.932,0-53.177,18.051-53.177,55.144
			c0,33.392,19.775,54.401,53.422,54.401c11.378,0,23.992-2.479,31.406-5.442l5.685,29.437c-6.927,3.459-22.518,7.183-42.778,7.183
			C93.955,391.121,64.255,355.256,64.255,307.779z M453.601,523.353h-356.4V419.302h356.4V523.353z M438.402,388.643
			c-2.721-4.704-6.665-18.31-11.622-38.834c-4.445-20.777-11.617-26.462-26.953-26.705h-11.374v65.539h-37.336V224.172
			c12.112-1.978,30.174-3.468,50.192-3.468c24.732,0,42.04,3.715,53.91,13.11c9.903,7.923,15.335,19.538,15.335,34.878
			c0,21.263-15.082,35.849-29.42,41.038v0.76c11.617,4.693,18.056,15.841,22.264,31.155c5.189,18.794,10.379,40.563,13.596,46.997
			H438.402L438.402,388.643z"/>
		<path d="M405.507,248.653c-9.144,0-14.344,0.741-17.064,1.242v45.992h14.829c18.815,0,29.942-9.392,29.942-23.986
			C433.214,256.577,422.825,248.901,405.507,248.653z"/>
	</g>
</g>
<g>
</g>
<g>
</g>
<g>
</g>
<g>
</g>
<g>
</g>
<g>
</g>
<g>
</g>
<g>
</g>
<g>
</g>
<g>
</g>
<g>
</g>
<g>
</g>
<g>
</g>
<g>
</g>
<g>
</g>
</svg>
