<?xml version="1.0" encoding="iso-8859-1"?>
<!-- Generator: Adobe Illustrator 16.0.0, SVG Export Plug-In . SVG Version: 6.00 Build 0)  -->
<!DOCTYPE svg PUBLIC "-//W3C//DTD SVG 1.1//EN" "http://www.w3.org/Graphics/SVG/1.1/DTD/svg11.dtd">
<svg version="1.1" id="Capa_1" xmlns="http://www.w3.org/2000/svg" xmlns:xlink="http://www.w3.org/1999/xlink" x="0px" y="0px"
	 width="550.801px" height="550.801px" viewBox="0 0 550.801 550.801" style="enable-background:new 0 0 550.801 550.801;"
	 xml:space="preserve">
<g>
	<path d="M488.427,197.014h-13.226v-63.817c0-0.401-0.063-0.799-0.116-1.205c-0.021-2.531-0.828-5.021-2.563-6.993L366.325,3.694
		c-0.031-0.031-0.063-0.045-0.084-0.076c-0.633-0.707-1.371-1.295-2.151-1.804c-0.232-0.155-0.465-0.285-0.707-0.422
		c-0.675-0.366-1.393-0.675-2.131-0.896c-0.2-0.053-0.379-0.135-0.58-0.188C359.871,0.119,359.037,0,358.193,0H97.201
		c-11.918,0-21.6,9.693-21.6,21.601v175.413H62.378c-17.044,0-30.874,13.818-30.874,30.873v160.545
		c0,17.038,13.83,30.87,30.874,30.87h13.223V529.2c0,11.907,9.682,21.601,21.6,21.601h356.4c11.907,0,21.601-9.693,21.601-21.601
		V419.302h13.226c17.054,0,30.87-13.832,30.87-30.87V227.887C519.297,210.832,505.48,197.014,488.427,197.014z M84.046,305.301
		c0-56.302,40.155-87.637,90.073-87.637c19.343,0,34.035,3.926,40.635,7.338l-7.591,29.624c-7.583-3.186-18.112-6.128-31.337-6.128
		c-29.613,0-52.618,17.869-52.618,54.588c0,33.043,19.575,53.842,52.871,53.842c11.254,0,23.738-2.447,31.084-5.379l5.632,29.136
		c-6.858,3.417-22.275,7.093-42.337,7.093C113.422,387.788,84.046,352.287,84.046,305.301z M453.601,523.347h-356.4V419.302h356.4
		V523.347z M313.38,356.938c8.575,0,15.431-0.971,18.362-2.447v-34.509h-25.449v-29.12h61.425v86.885
		c-11.496,3.913-33.275,9.303-55.065,9.303c-30.101,0-51.891-7.594-67.07-22.275c-15.169-14.196-23.49-35.732-23.248-59.964
		c0.24-54.828,40.134-86.163,94.231-86.163c21.294,0,37.705,4.164,45.784,8.076l-7.848,29.858
		c-9.049-3.916-20.303-7.096-38.417-7.096c-31.081,0-54.577,17.624-54.577,53.357C261.503,336.867,282.794,356.938,313.38,356.938z
		 M396.827,385.33V220.369h37.462V385.33H396.827L396.827,385.33z M453.601,197.014h-356.4V21.601h250.193v110.51
		c0,5.97,4.841,10.8,10.8,10.8h95.407V197.014z"/>
</g>
<g>
</g>
<g>
</g>
<g>
</g>
<g>
</g>
<g>
</g>
<g>
</g>
<g>
</g>
<g>
</g>
<g>
</g>
<g>
</g>
<g>
</g>
<g>
</g>
<g>
</g>
<g>
</g>
<g>
</g>
</svg>
