<?xml version="1.0" encoding="iso-8859-1"?>
<!-- Generator: Adobe Illustrator 16.0.0, SVG Export Plug-In . SVG Version: 6.00 Build 0)  -->
<!DOCTYPE svg PUBLIC "-//W3C//DTD SVG 1.1//EN" "http://www.w3.org/Graphics/SVG/1.1/DTD/svg11.dtd">
<svg version="1.1" id="Capa_1" xmlns="http://www.w3.org/2000/svg" xmlns:xlink="http://www.w3.org/1999/xlink" x="0px" y="0px"
	 width="550.801px" height="550.801px" viewBox="0 0 550.801 550.801" style="enable-background:new 0 0 550.801 550.801;"
	 xml:space="preserve">
<g>
	<path d="M488.427,197.019h-13.226v-63.816c0-0.401-0.063-0.799-0.116-1.205c-0.021-2.531-0.833-5.021-2.563-6.992L366.32,3.694
		c-0.026-0.031-0.059-0.045-0.079-0.076c-0.633-0.707-1.371-1.295-2.151-1.804c-0.232-0.155-0.465-0.287-0.707-0.422
		c-0.675-0.366-1.393-0.675-2.131-0.896c-0.2-0.053-0.379-0.135-0.58-0.188C359.871,0.119,359.037,0,358.193,0H97.201
		c-11.918,0-21.6,9.693-21.6,21.601v175.413H62.375c-17.046,0-30.871,13.818-30.871,30.873v160.545
		c0,17.038,13.824,30.87,30.871,30.87h13.226V529.2c0,11.907,9.682,21.601,21.6,21.601h356.4c11.907,0,21.601-9.693,21.601-21.601
		V419.302h13.226c17.044,0,30.87-13.827,30.87-30.87v-160.54C519.297,210.832,505.471,197.019,488.427,197.019z M97.201,21.605
		h250.193v110.51c0,5.967,4.841,10.8,10.8,10.8h95.407v54.108h-356.4V21.605z M319.529,336.847
		c4.729,17.117,9.455,36.935,12.387,42.788h-35.132c-2.473-4.281-6.08-16.664-10.583-35.353
		c-4.051-18.921-10.579-24.089-24.543-24.321h-10.357v59.674h-34.006V229.894c11.032-1.814,27.477-3.164,45.713-3.164
		c22.517,0,38.285,3.375,49.09,11.938c9.007,7.217,13.959,17.795,13.959,31.76c0,19.363-13.737,32.643-26.8,37.378v0.675
		C309.847,312.758,315.706,322.893,319.529,336.847z M76.308,306.002c0-51.798,36.93-80.623,82.869-80.623
		c17.793,0,31.303,3.607,37.378,6.761l-6.977,27.256c-6.982-2.932-16.664-5.632-28.819-5.632c-27.248,0-48.418,16.432-48.418,50.213
		c0,30.407,18.017,49.539,48.645,49.539c10.357,0,21.838-2.246,28.598-4.946l5.178,26.794c-6.302,3.164-20.492,6.539-38.955,6.539
		C103.334,381.893,76.308,349.239,76.308,306.002z M453.601,523.353h-356.4V419.302h356.4V523.353z M432.592,379.635l-13.732-27.475
		c-5.632-10.578-9.229-18.457-13.511-27.242h-0.453c-3.144,8.785-6.982,16.664-11.707,27.242l-12.614,27.475h-39.182l43.917-76.781
		l-42.335-74.99h39.403l13.289,27.686c4.503,9.241,7.878,16.666,11.485,25.23h0.443c3.606-9.682,6.528-16.442,10.356-25.23
		l12.836-27.686h39.182l-42.778,74.084l45.035,77.688H432.592z"/>
	<path d="M266.837,252.179c-8.332,0-13.062,0.675-15.536,1.131v41.882h13.51c17.112,0,27.243-8.554,27.243-21.843
		C292.06,259.396,282.599,252.413,266.837,252.179z"/>
</g>
<g>
</g>
<g>
</g>
<g>
</g>
<g>
</g>
<g>
</g>
<g>
</g>
<g>
</g>
<g>
</g>
<g>
</g>
<g>
</g>
<g>
</g>
<g>
</g>
<g>
</g>
<g>
</g>
<g>
</g>
</svg>
