<?xml version="1.0" encoding="iso-8859-1"?>
<!-- Generator: Adobe Illustrator 16.0.0, SVG Export Plug-In . SVG Version: 6.00 Build 0)  -->
<!DOCTYPE svg PUBLIC "-//W3C//DTD SVG 1.1//EN" "http://www.w3.org/Graphics/SVG/1.1/DTD/svg11.dtd">
<svg version="1.1" id="Capa_1" xmlns="http://www.w3.org/2000/svg" xmlns:xlink="http://www.w3.org/1999/xlink" x="0px" y="0px"
	 width="550.801px" height="550.801px" viewBox="0 0 550.801 550.801" style="enable-background:new 0 0 550.801 550.801;"
	 xml:space="preserve">
<g>
	<path d="M488.426,197.021H475.2v-63.825c0-0.398-0.063-0.799-0.116-1.203c-0.021-2.533-0.827-5.022-2.562-6.995L366.325,3.694
		c-0.032-0.031-0.063-0.042-0.085-0.074c-0.633-0.709-1.371-1.297-2.151-1.803c-0.231-0.158-0.464-0.288-0.706-0.422
		c-0.676-0.369-1.393-0.675-2.131-0.896c-0.2-0.056-0.38-0.135-0.58-0.19C359.87,0.119,359.037,0,358.193,0H97.2
		c-11.918,0-21.6,9.695-21.6,21.601v175.415H62.375c-17.041,0-30.871,13.819-30.871,30.871v160.545
		c0,17.043,13.83,30.87,30.871,30.87h13.226V529.2c0,11.907,9.682,21.601,21.6,21.601h356.4c11.907,0,21.6-9.693,21.6-21.601
		V419.308h13.226c17.055,0,30.871-13.833,30.871-30.876v-160.54C519.297,210.835,505.48,197.021,488.426,197.021z M97.2,21.601
		h250.193v110.513c0,5.967,4.841,10.8,10.8,10.8h95.407v54.108H97.2V21.601z M280.146,356.675c18.014,0,27.918-12.625,27.918-39.425
		v-87.354h34.245v85.13c0,46.828-23.646,69.135-63.292,69.135c-38.274,0-60.802-21.179-60.802-69.6v-84.665h34.467v87.365
		C252.683,343.375,262.586,356.675,280.146,356.675z M77.457,308.021c0-51.795,36.949-80.609,82.88-80.609
		c17.792,0,31.292,3.607,37.378,6.761l-6.982,27.242c-6.981-2.921-16.653-5.621-28.824-5.621c-27.253,0-48.421,16.432-48.421,50.203
		c0,30.406,18.024,49.549,48.643,49.549c10.356,0,21.853-2.257,28.603-4.957l5.174,26.8c-6.308,3.153-20.482,6.528-38.95,6.528
		C104.48,383.917,77.457,351.264,77.457,308.021z M453.601,523.347H97.2V419.308h356.4V523.347z M468.883,381.671h-96.831V229.896
		h93.678v28.15h-59.231v31.525h55.856v27.934h-55.856v36.027h62.385V381.671z"/>
</g>
<g>
</g>
<g>
</g>
<g>
</g>
<g>
</g>
<g>
</g>
<g>
</g>
<g>
</g>
<g>
</g>
<g>
</g>
<g>
</g>
<g>
</g>
<g>
</g>
<g>
</g>
<g>
</g>
<g>
</g>
</svg>
