<?xml version="1.0" encoding="iso-8859-1"?>
<!-- Generator: Adobe Illustrator 16.0.0, SVG Export Plug-In . SVG Version: 6.00 Build 0)  -->
<!DOCTYPE svg PUBLIC "-//W3C//DTD SVG 1.1//EN" "http://www.w3.org/Graphics/SVG/1.1/DTD/svg11.dtd">
<svg version="1.1" id="Capa_1" xmlns="http://www.w3.org/2000/svg" xmlns:xlink="http://www.w3.org/1999/xlink" x="0px" y="0px"
	 width="550.801px" height="550.801px" viewBox="0 0 550.801 550.801" style="enable-background:new 0 0 550.801 550.801;"
	 xml:space="preserve">
<g>
	<path d="M488.427,197.019h-13.226v-63.816c0-0.401-0.063-0.799-0.116-1.205c-0.021-2.531-0.833-5.021-2.563-6.992L366.32,3.694
		c-0.026-0.031-0.059-0.045-0.079-0.076c-0.633-0.707-1.371-1.295-2.151-1.804c-0.232-0.155-0.465-0.287-0.707-0.422
		c-0.675-0.366-1.393-0.675-2.131-0.896c-0.2-0.053-0.379-0.135-0.58-0.188C359.871,0.119,359.037,0,358.193,0H97.201
		c-11.918,0-21.6,9.693-21.6,21.601v175.413H62.375c-17.046,0-30.871,13.818-30.871,30.873v160.545
		c0,17.038,13.824,30.87,30.871,30.87h13.226V529.2c0,11.907,9.682,21.601,21.6,21.601h356.4c11.907,0,21.601-9.693,21.601-21.601
		V419.302h13.226c17.044,0,30.87-13.827,30.87-30.87v-160.54C519.297,210.832,505.471,197.019,488.427,197.019z M97.201,21.605
		h250.193v110.51c0,5.967,4.841,10.8,10.8,10.8h95.407v54.108h-356.4V21.605z M362.781,373.181h-31.957l-2.151-55.34
		c-0.638-17.36-1.286-38.386-1.286-59.392h-0.644c-4.504,18.438-10.505,39.025-16.084,55.975l-17.582,56.395h-25.518l-15.438-55.973
		c-4.714-16.938-9.65-37.525-13.083-56.396h-0.433c-0.854,19.514-1.503,41.8-2.571,59.824l-2.576,54.907h-30.241l9.224-144.556
		h43.54l14.159,48.263c4.498,16.732,9.002,34.746,12.227,51.68h0.635c4.079-16.728,9.01-35.807,13.725-51.891l15.44-48.047h42.678
		L362.781,373.181z M74.781,373.181V228.625h32.381v63.925h0.649c3.219-5.579,6.642-10.727,9.867-15.873l32.803-48.047h40.107
		l-47.822,61.558l50.398,82.993h-38.172l-35.387-62.406l-12.443,15.22v47.187H74.781L74.781,373.181z M453.601,523.353h-356.4
		V419.302h356.4V523.353z M490.995,373.181H378.623v-17.593l68.84-99.077v-0.852h-62.406v-27.034h104.867v18.874l-67.336,97.796
		v0.864h68.407V373.181z"/>
</g>
<g>
</g>
<g>
</g>
<g>
</g>
<g>
</g>
<g>
</g>
<g>
</g>
<g>
</g>
<g>
</g>
<g>
</g>
<g>
</g>
<g>
</g>
<g>
</g>
<g>
</g>
<g>
</g>
<g>
</g>
</svg>
