<?xml version="1.0" encoding="iso-8859-1"?>
<!-- Generator: Adobe Illustrator 16.0.0, SVG Export Plug-In . SVG Version: 6.00 Build 0)  -->
<!DOCTYPE svg PUBLIC "-//W3C//DTD SVG 1.1//EN" "http://www.w3.org/Graphics/SVG/1.1/DTD/svg11.dtd">
<svg version="1.1" id="Capa_1" xmlns="http://www.w3.org/2000/svg" xmlns:xlink="http://www.w3.org/1999/xlink" x="0px" y="0px"
	 width="550.801px" height="550.801px" viewBox="0 0 550.801 550.801" style="enable-background:new 0 0 550.801 550.801;"
	 xml:space="preserve">
<g>
	<path d="M488.426,197.014H475.2v-63.817c0-0.401-0.063-0.799-0.116-1.205c-0.021-2.534-0.827-5.023-2.562-6.993L366.325,3.694
		c-0.032-0.034-0.063-0.045-0.085-0.076c-0.633-0.707-1.371-1.298-2.151-1.804c-0.231-0.158-0.464-0.287-0.706-0.422
		c-0.676-0.366-1.393-0.675-2.131-0.896c-0.2-0.053-0.38-0.135-0.58-0.19C359.87,0.119,359.037,0,358.193,0H97.2
		c-11.918,0-21.6,9.693-21.6,21.601v175.413H62.377c-17.049,0-30.873,13.818-30.873,30.87v160.542
		c0,17.044,13.824,30.876,30.873,30.876h13.224V529.2c0,11.907,9.682,21.601,21.6,21.601h356.4c11.907,0,21.6-9.693,21.6-21.601
		V419.302h13.226c17.044,0,30.871-13.827,30.871-30.87v-160.54C519.297,210.832,505.47,197.014,488.426,197.014z M97.2,21.601
		h250.193v110.51c0,5.967,4.841,10.8,10.8,10.8h95.407v54.108H97.2V21.601z M276.978,317.287h-13.034v-22.908h12.403
		c10.719-0.205,24.388-4.191,24.388-15.768c0-8.194-6.729-14.288-20.182-14.288c-11.141,0-22.911,4.833-28.587,8.198l-6.513-23.116
		c8.198-5.266,24.592-10.294,42.256-10.294c29.215,0,45.404,15.338,45.404,34.037c0,14.518-8.206,25.871-25.018,31.746v0.422
		c16.4,2.953,29.637,15.346,29.637,33.207c0,24.189-21.23,41.84-55.92,41.84c-17.655,0-32.579-4.614-40.565-9.672l6.518-23.963
		c5.675,2.943,18.71,8.406,31.741,8.406c16.604,0,25.015-7.984,25.015-18.288C304.521,323.394,291.067,317.287,276.978,317.287z
		 M95.803,378.048H66.161l9.041-141.684h42.67l13.872,47.305c4.419,16.39,8.83,34.056,11.984,50.657h0.633
		c3.995-16.4,8.828-35.111,13.455-50.868l15.132-47.094h41.834l7.775,141.684h-31.327l-2.099-54.232
		c-0.633-17.027-1.26-37.642-1.26-58.239h-0.63c-4.411,18.093-10.304,38.27-15.762,54.864l-17.239,55.298h-25.017l-15.138-54.876
		c-4.622-16.601-9.455-36.792-12.817-55.286h-0.427c-0.839,19.132-1.469,41.001-2.518,58.65L95.803,378.048z M453.601,523.347H97.2
		V419.302h356.4V523.347z M479.403,315.816c0,43.732-22.074,64.536-59.067,64.536c-35.744,0-56.764-19.765-56.764-64.958v-79.031
		h32.163v81.562c0,24.384,9.244,36.798,25.645,36.798c16.822,0,26.066-11.776,26.066-36.798v-81.562h31.952v79.453H479.403z"/>
</g>
<g>
</g>
<g>
</g>
<g>
</g>
<g>
</g>
<g>
</g>
<g>
</g>
<g>
</g>
<g>
</g>
<g>
</g>
<g>
</g>
<g>
</g>
<g>
</g>
<g>
</g>
<g>
</g>
<g>
</g>
</svg>
