<?xml version="1.0" encoding="iso-8859-1"?>
<!-- Generator: Adobe Illustrator 16.0.0, SVG Export Plug-In . SVG Version: 6.00 Build 0)  -->
<!DOCTYPE svg PUBLIC "-//W3C//DTD SVG 1.1//EN" "http://www.w3.org/Graphics/SVG/1.1/DTD/svg11.dtd">
<svg version="1.1" id="Capa_1" xmlns="http://www.w3.org/2000/svg" xmlns:xlink="http://www.w3.org/1999/xlink" x="0px" y="0px"
	 width="550.801px" height="550.801px" viewBox="0 0 550.801 550.801" style="enable-background:new 0 0 550.801 550.801;"
	 xml:space="preserve">
<g>
	<path d="M488.426,197.019H475.2v-63.816c0-0.398-0.063-0.799-0.116-1.202c-0.021-2.534-0.827-5.023-2.562-6.995L366.325,3.694
		c-0.032-0.031-0.063-0.042-0.085-0.076c-0.633-0.707-1.371-1.295-2.151-1.804c-0.231-0.155-0.464-0.285-0.706-0.419
		c-0.676-0.369-1.393-0.675-2.131-0.896c-0.2-0.056-0.38-0.138-0.58-0.19C359.87,0.119,359.037,0,358.193,0H97.2
		c-11.918,0-21.6,9.693-21.6,21.601v175.413H62.377c-17.049,0-30.873,13.818-30.873,30.873v160.545
		c0,17.043,13.824,30.87,30.873,30.87h13.224V529.2c0,11.907,9.682,21.601,21.6,21.601h356.4c11.907,0,21.6-9.693,21.6-21.601
		V419.302h13.226c17.044,0,30.871-13.827,30.871-30.87v-160.54C519.297,210.838,505.47,197.019,488.426,197.019z M97.2,21.605
		h250.193v110.513c0,5.967,4.841,10.8,10.8,10.8h95.407v54.108H97.2V21.605z M348.976,273.057c0,13.882-4.63,25.652-13.052,33.657
		c-10.932,10.294-27.121,14.924-46.053,14.924c-4.209,0-7.984-0.211-10.927-0.633v50.688h-31.76V231.834
		c9.877-1.68,23.757-2.938,43.313-2.938c19.775,0,33.861,3.781,43.327,11.356C342.858,247.396,348.976,259.174,348.976,273.057z
		 M95.748,371.693H66.092l9.049-141.745h42.675l13.879,47.319c4.417,16.4,8.833,34.066,12.005,50.678h0.62
		c3.997-16.4,8.83-35.121,13.463-50.889l15.14-47.103h41.845l7.786,141.744h-31.334l-2.107-54.264
		c-0.635-17.038-1.258-37.646-1.258-58.261h-0.622c-4.427,18.083-10.307,38.274-15.773,54.892l-17.257,55.312h-25.02l-15.14-54.891
		c-4.622-16.617-9.466-36.798-12.831-55.313h-0.427c-0.841,19.138-1.463,41.012-2.521,58.667L95.748,371.693z M453.601,523.353H97.2
		V419.302h356.4V523.353z M487.783,365.17c-9.894,3.364-28.604,7.989-47.324,7.989c-25.861,0-44.571-6.518-57.628-19.132
		c-13.036-12.192-20.187-30.713-19.966-51.521c0.211-47.105,34.488-74.031,80.958-74.031c18.294,0,32.39,3.581,39.329,6.94
		l-6.729,25.655c-7.778-3.365-17.45-6.101-33.017-6.101c-26.71,0-46.897,15.145-46.897,45.844c0,29.242,18.299,46.486,44.582,46.486
		c7.361,0,13.247-0.85,15.778-2.109v-29.658h-21.874v-25.018h52.781v74.656H487.783z"/>
	<path d="M292.181,253.083c-6.519,0-10.932,0.625-13.242,1.263v41.853c2.727,0.622,6.091,0.844,10.722,0.844
		c17.033,0,27.559-8.633,27.559-23.143C317.219,260.864,308.159,253.083,292.181,253.083z"/>
</g>
<g>
</g>
<g>
</g>
<g>
</g>
<g>
</g>
<g>
</g>
<g>
</g>
<g>
</g>
<g>
</g>
<g>
</g>
<g>
</g>
<g>
</g>
<g>
</g>
<g>
</g>
<g>
</g>
<g>
</g>
</svg>
