<?xml version="1.0" encoding="iso-8859-1"?>
<!-- Generator: Adobe Illustrator 16.0.0, SVG Export Plug-In . SVG Version: 6.00 Build 0)  -->
<!DOCTYPE svg PUBLIC "-//W3C//DTD SVG 1.1//EN" "http://www.w3.org/Graphics/SVG/1.1/DTD/svg11.dtd">
<svg version="1.1" id="Capa_1" xmlns="http://www.w3.org/2000/svg" xmlns:xlink="http://www.w3.org/1999/xlink" x="0px" y="0px"
	 width="550.801px" height="550.801px" viewBox="0 0 550.801 550.801" style="enable-background:new 0 0 550.801 550.801;"
	 xml:space="preserve">
<g>
	<path d="M163.799,273.71c0-13.964-9.682-22.296-26.794-22.296c-6.982,0-11.707,0.675-14.186,1.35v44.827
		c2.927,0.675,6.528,0.896,11.48,0.896C152.54,298.487,163.799,289.248,163.799,273.71z"/>
	<path d="M488.426,197.021H475.2v-63.819c0-0.398-0.063-0.799-0.116-1.202c-0.021-2.534-0.827-5.023-2.562-6.993L366.319,3.694
		c-0.031-0.031-0.062-0.042-0.089-0.076c-0.628-0.707-1.371-1.295-2.146-1.804c-0.232-0.155-0.464-0.285-0.707-0.419
		c-0.675-0.367-1.392-0.675-2.136-0.896c-0.2-0.056-0.374-0.135-0.574-0.19C359.87,0.119,359.026,0,358.188,0H97.2
		c-11.918,0-21.6,9.693-21.6,21.601v175.415H62.375c-17.046,0-30.871,13.816-30.871,30.871v160.545
		c0,17.038,13.824,30.87,30.871,30.87h13.226V529.2c0,11.907,9.682,21.601,21.6,21.601h356.4c11.907,0,21.6-9.693,21.6-21.601
		V419.308h13.226c17.044,0,30.871-13.833,30.871-30.876v-160.54C519.297,210.838,505.47,197.021,488.426,197.021z M97.2,21.605
		h250.193v110.513c0,5.967,4.841,10.8,10.8,10.8h95.407v54.108H97.2V21.605z M343.971,378.422h-40.083l-37.159-65.527l-13.062,16
		v49.527h-34.003V226.65h34.003v67.102h0.675c3.375-5.854,6.977-11.254,10.357-16.653l34.454-50.448h42.103l-50.214,64.623
		L343.971,378.422z M88.808,378.422V228.681c10.586-1.804,25.447-3.154,46.393-3.154c21.163,0,36.25,4.05,46.385,12.15
		c9.682,7.668,16.21,20.271,16.21,35.143c0,14.862-4.952,27.477-13.958,36.03c-11.707,11.032-29.046,15.979-49.312,15.979
		c-4.503,0-8.559-0.222-11.712-0.675v54.269H88.808z M453.601,523.353H97.2V419.308h356.4V523.353z M477.31,371.451
		c-10.589,3.596-30.633,8.553-50.672,8.553c-27.702,0-47.741-6.981-61.705-20.492c-13.959-13.067-21.615-32.875-21.395-55.171
		c0.228-50.448,36.936-79.272,86.701-79.272c19.591,0,34.678,3.828,42.113,7.436l-7.203,27.464
		c-8.332-3.597-18.7-6.528-35.358-6.528c-28.598,0-50.219,16.221-50.219,49.098c0,31.304,19.591,49.761,47.74,49.761
		c7.878,0,14.186-0.896,16.886-2.247v-31.756h-23.42v-26.789h56.521v79.945H477.31z"/>
</g>
<g>
</g>
<g>
</g>
<g>
</g>
<g>
</g>
<g>
</g>
<g>
</g>
<g>
</g>
<g>
</g>
<g>
</g>
<g>
</g>
<g>
</g>
<g>
</g>
<g>
</g>
<g>
</g>
<g>
</g>
</svg>
