<?xml version="1.0" encoding="iso-8859-1"?>
<!-- Generator: Adobe Illustrator 16.0.0, SVG Export Plug-In . SVG Version: 6.00 Build 0)  -->
<!DOCTYPE svg PUBLIC "-//W3C//DTD SVG 1.1//EN" "http://www.w3.org/Graphics/SVG/1.1/DTD/svg11.dtd">
<svg version="1.1" id="Capa_1" xmlns="http://www.w3.org/2000/svg" xmlns:xlink="http://www.w3.org/1999/xlink" x="0px" y="0px"
	 width="548.291px" height="548.291px" viewBox="0 0 548.291 548.291" style="enable-background:new 0 0 548.291 548.291;"
	 xml:space="preserve">
<g>
	<path d="M486.201,196.124h-13.166V132.59c0-0.396-0.062-0.795-0.115-1.196c-0.021-2.523-0.825-5-2.552-6.963L364.651,3.677
		c-0.032-0.031-0.063-0.042-0.09-0.073c-0.624-0.707-1.364-1.292-2.138-1.795c-0.23-0.157-0.46-0.286-0.701-0.421
		c-0.673-0.366-1.387-0.671-2.127-0.892c-0.199-0.055-0.373-0.134-0.571-0.188C358.23,0.118,357.39,0,356.556,0H96.757
		C84.894,0,75.256,9.651,75.256,21.502v174.616H62.09c-16.968,0-30.729,13.756-30.729,30.73v159.812
		c0,16.968,13.761,30.731,30.729,30.731h13.166V526.79c0,11.854,9.638,21.501,21.501,21.501h354.776
		c11.853,0,21.501-9.647,21.501-21.501V417.397h13.166c16.966,0,30.729-13.769,30.729-30.736V226.854
		C516.93,209.874,503.167,196.124,486.201,196.124z M96.757,21.502h249.054v110.009c0,5.939,4.817,10.75,10.751,10.75h94.972v53.861
		H96.757V21.502z M236.691,259.768v-28.693h116.116v28.693h-41.244v122.4h-34.3v-122.4H236.691z M218.525,231.079v151.088H184.23
		V231.079H218.525z M57.334,375.218l6.95-28.241c9.187,4.703,23.312,9.406,37.88,9.406c15.69,0,23.985-6.5,23.985-16.358
		c0-9.416-7.171-14.803-25.329-21.302c-25.108-8.734-41.47-22.641-41.47-44.614c0-25.764,21.517-45.502,57.161-45.502
		c17.037,0,29.593,3.59,38.554,7.622l-7.617,27.57c-6.052-2.909-16.809-7.171-31.609-7.171c-14.797,0-21.969,6.73-21.969,14.573
		c0,9.628,8.515,13.9,28.022,21.293c26.674,9.857,39.231,23.772,39.231,45.054c0,25.334-19.501,46.856-60.974,46.856
		C82.888,384.404,65.849,379.921,57.334,375.218z M451.534,520.962H96.757V417.397h354.776V520.962z M454.588,382.167l-13.67-27.35
		c-5.605-10.529-9.196-18.371-13.448-27.128h-0.451c-3.14,8.757-6.951,16.599-11.654,27.128l-12.557,27.35h-39.003l43.706-76.432
		l-42.143-74.662h39.234l13.218,27.57c4.495,9.187,7.854,16.588,11.435,25.113h0.451c3.59-9.648,6.498-16.368,10.311-25.113
		l12.776-27.57h39.009l-42.59,73.745l44.831,77.349H454.588z"/>
</g>
<g>
</g>
<g>
</g>
<g>
</g>
<g>
</g>
<g>
</g>
<g>
</g>
<g>
</g>
<g>
</g>
<g>
</g>
<g>
</g>
<g>
</g>
<g>
</g>
<g>
</g>
<g>
</g>
<g>
</g>
</svg>
