<?xml version="1.0" encoding="iso-8859-1"?>
<!-- Generator: Adobe Illustrator 16.0.0, SVG Export Plug-In . SVG Version: 6.00 Build 0)  -->
<!DOCTYPE svg PUBLIC "-//W3C//DTD SVG 1.1//EN" "http://www.w3.org/Graphics/SVG/1.1/DTD/svg11.dtd">
<svg version="1.1" id="Capa_1" xmlns="http://www.w3.org/2000/svg" xmlns:xlink="http://www.w3.org/1999/xlink" x="0px" y="0px"
	 width="548.291px" height="548.291px" viewBox="0 0 548.291 548.291" style="enable-background:new 0 0 548.291 548.291;"
	 xml:space="preserve">
<g>
	<path d="M486.206,196.121H473.04v-63.525c0-0.396-0.062-0.795-0.109-1.2c-0.021-2.52-0.829-4.997-2.556-6.96L364.657,3.677
		c-0.033-0.031-0.064-0.042-0.085-0.075c-0.63-0.704-1.364-1.29-2.143-1.796c-0.229-0.154-0.461-0.283-0.702-0.419
		c-0.672-0.365-1.387-0.672-2.121-0.893c-0.2-0.052-0.379-0.134-0.577-0.186C358.23,0.118,357.401,0,356.562,0H96.757
		C84.894,0,75.256,9.649,75.256,21.502v174.613H62.092c-16.971,0-30.732,13.756-30.732,30.733v159.812
		c0,16.961,13.761,30.731,30.732,30.731h13.164V526.79c0,11.854,9.638,21.501,21.501,21.501h354.776
		c11.853,0,21.501-9.647,21.501-21.501V417.392h13.166c16.966,0,30.729-13.764,30.729-30.731V226.854
		C516.93,209.872,503.176,196.121,486.206,196.121z M96.757,21.502h249.054v110.006c0,5.94,4.817,10.751,10.751,10.751h94.972
		v53.861H96.757V21.502z M277.618,353.119c8.056,0,14.502-0.925,17.263-2.301v-32.462h-23.938v-27.396h57.78v81.723
		c-10.818,3.68-31.308,8.746-51.799,8.746c-28.312,0-48.803-7.14-63.073-20.939c-14.269-13.355-22.101-33.617-21.87-56.4
		c0.226-51.573,37.754-81.03,88.625-81.03c20.027,0,35.449,3.918,43.05,7.591l-7.37,28.084c-8.513-3.678-19.101-6.665-36.136-6.665
		c-29.231,0-51.336,16.568-51.336,50.171C228.814,334.242,248.838,353.119,277.618,353.119z M67.915,254.132v-29.468h119.24v29.468
		h-42.357v125.693h-35.219V254.132H67.915z M451.534,520.968H96.757V417.392h354.776V520.968z M448.646,379.826l-11.969-39.832
		h-44.431l-11.05,39.832h-36.373l47.423-155.161h46.038l48.105,155.161H448.646L448.646,379.826z"/>
	<path d="M414.121,250.909h-0.462c-2.304,9.208-4.603,20.94-7.14,29.929l-9.206,32.914h34.3l-9.671-32.914
		C419.187,271.636,416.426,260.117,414.121,250.909z"/>
</g>
<g>
</g>
<g>
</g>
<g>
</g>
<g>
</g>
<g>
</g>
<g>
</g>
<g>
</g>
<g>
</g>
<g>
</g>
<g>
</g>
<g>
</g>
<g>
</g>
<g>
</g>
<g>
</g>
<g>
</g>
</svg>
