<?xml version="1.0" encoding="iso-8859-1"?>
<!-- Generator: Adobe Illustrator 16.0.0, SVG Export Plug-In . SVG Version: 6.00 Build 0)  -->
<!DOCTYPE svg PUBLIC "-//W3C//DTD SVG 1.1//EN" "http://www.w3.org/Graphics/SVG/1.1/DTD/svg11.dtd">
<svg version="1.1" id="Capa_1" xmlns="http://www.w3.org/2000/svg" xmlns:xlink="http://www.w3.org/1999/xlink" x="0px" y="0px"
	 width="550.801px" height="550.801px" viewBox="0 0 550.801 550.801" style="enable-background:new 0 0 550.801 550.801;"
	 xml:space="preserve">
<g>
	<path d="M432.781,258.602h-0.375c-1.883,7.533-3.765,17.137-5.832,24.487l-7.536,26.932h28.065l-7.905-26.932
		C436.926,275.559,434.68,266.135,432.781,258.602z"/>
	<path d="M488.426,197.019H475.2v-63.816c0-0.398-0.063-0.799-0.116-1.202c-0.021-2.534-0.827-5.023-2.562-6.995L366.325,3.694
		c-0.032-0.031-0.063-0.042-0.085-0.076c-0.633-0.707-1.371-1.295-2.151-1.804c-0.231-0.155-0.464-0.285-0.706-0.419
		c-0.676-0.369-1.393-0.675-2.131-0.896c-0.2-0.056-0.38-0.138-0.58-0.19C359.87,0.119,359.037,0,358.193,0H97.2
		c-11.918,0-21.6,9.693-21.6,21.601v175.413H62.377c-17.049,0-30.873,13.818-30.873,30.873v160.545
		c0,17.043,13.824,30.87,30.873,30.87h13.224V529.2c0,11.907,9.682,21.601,21.6,21.601h356.4c11.907,0,21.6-9.693,21.6-21.601
		V419.302h13.226c17.044,0,30.871-13.827,30.871-30.87v-160.54C519.297,210.838,505.47,197.019,488.426,197.019z M97.2,21.605
		h250.193v110.513c0,5.967,4.841,10.8,10.8,10.8h95.407v54.108H97.2V21.605z M363.836,364.068h-28.055l-1.883-48.59
		c-0.574-15.251-1.134-33.719-1.134-52.167h-0.569c-3.939,16.192-9.218,34.269-14.106,49.151l-15.451,49.528H280.23l-13.555-49.148
		c-4.148-14.871-8.48-32.959-11.494-49.531h-0.377c-0.756,17.141-1.323,36.727-2.257,52.542l-2.262,48.21h-26.557l8.09-126.937
		h38.237l12.433,42.377c3.955,14.682,7.899,30.507,10.736,45.384h0.559c3.576-14.682,7.905-31.451,12.056-45.562l13.553-42.193
		h37.473L363.836,364.068z M79.83,364.068L49.692,237.131h30.7l9.6,52.36c2.819,15.061,5.46,31.45,7.539,44.255h0.372
		c2.081-13.754,5.078-29.004,8.285-44.635l10.734-51.98h30.512l10.167,53.488c2.813,14.882,4.894,28.435,6.776,42.562h0.375
		c1.882-14.128,4.714-29.01,7.349-44.07l10.362-51.98h29.188l-32.774,126.938h-31.071l-10.734-54.623
		c-2.452-12.804-4.522-24.658-6.022-39.157h-0.377c-2.257,14.31-4.337,26.354-7.346,39.157l-12.047,54.623H79.83L79.83,364.068z
		 M453.601,523.353H97.2V419.302h356.4V523.353z M461.036,364.068l-9.788-32.58h-36.354l-9.039,32.58h-29.763l38.802-126.938h37.663
		l39.371,126.938H461.036z"/>
</g>
<g>
</g>
<g>
</g>
<g>
</g>
<g>
</g>
<g>
</g>
<g>
</g>
<g>
</g>
<g>
</g>
<g>
</g>
<g>
</g>
<g>
</g>
<g>
</g>
<g>
</g>
<g>
</g>
<g>
</g>
</svg>
