<?xml version="1.0" encoding="iso-8859-1"?>
<!-- Generator: Adobe Illustrator 16.0.0, SVG Export Plug-In . SVG Version: 6.00 Build 0)  -->
<!DOCTYPE svg PUBLIC "-//W3C//DTD SVG 1.1//EN" "http://www.w3.org/Graphics/SVG/1.1/DTD/svg11.dtd">
<svg version="1.1" id="Capa_1" xmlns="http://www.w3.org/2000/svg" xmlns:xlink="http://www.w3.org/1999/xlink" x="0px" y="0px"
	 width="550.801px" height="550.801px" viewBox="0 0 550.801 550.801" style="enable-background:new 0 0 550.801 550.801;"
	 xml:space="preserve">
<g>
	<path d="M488.426,197.021H475.2v-63.825c0-0.398-0.063-0.799-0.116-1.203c-0.021-2.533-0.827-5.022-2.562-6.995L366.325,3.694
		c-0.032-0.031-0.063-0.042-0.085-0.074c-0.633-0.709-1.371-1.297-2.151-1.803c-0.231-0.158-0.464-0.288-0.706-0.422
		c-0.676-0.369-1.393-0.675-2.131-0.896c-0.2-0.056-0.38-0.138-0.58-0.19C359.87,0.119,359.037,0,358.193,0H97.2
		c-11.918,0-21.6,9.695-21.6,21.601v175.413H62.377c-17.049,0-30.873,13.818-30.873,30.873v160.545
		c0,17.043,13.824,30.87,30.873,30.87h13.224V529.2c0,11.907,9.682,21.601,21.6,21.601h356.4c11.907,0,21.6-9.693,21.6-21.601
		V419.302h13.226c17.044,0,30.871-13.827,30.871-30.87v-160.54C519.297,210.832,505.47,197.021,488.426,197.021z M97.2,21.601
		h250.193v110.513c0,5.967,4.841,10.8,10.8,10.8h95.407v54.108H97.2V21.601z M371.662,280.843c0,14.344-4.778,26.504-13.464,34.757
		c-11.295,10.642-28.018,15.414-47.561,15.414c-4.335,0-8.259-0.211-11.296-0.643v52.333h-32.785V238.286
		c10.204-1.738,24.543-3.046,44.725-3.046c20.429,0,34.973,3.916,44.75,11.741C365.365,254.352,371.662,266.522,371.662,280.843z
		 M62.588,236.337h35.396l11.077,60.373c3.262,17.371,6.296,36.271,8.683,51.031h0.443c2.386-15.852,5.854-33.438,9.547-51.464
		l12.388-59.94h35.184l11.726,61.665c3.262,17.165,5.648,32.801,7.812,49.086h0.433c2.186-16.285,5.447-33.439,8.482-50.811
		l11.947-59.94h33.652l-37.784,146.367h-35.846l-12.372-62.976c-2.829-14.766-5.221-28.455-6.961-45.18h-0.424
		c-2.61,16.514-5.002,30.414-8.464,45.18l-13.903,62.976H97.335L62.588,236.337z M453.601,523.347H97.2V419.302h356.4V523.347z
		 M428.583,384.877c-16.717,0-33.228-4.346-41.47-8.896l6.718-27.363c8.912,4.556,22.603,9.117,36.714,9.117
		c15.198,0,23.24-6.297,23.24-15.857c0-9.117-6.961-14.328-24.537-20.624c-24.332-8.464-40.189-21.942-40.189-43.222
		c0-24.975,20.856-44.085,55.397-44.085c16.501,0,28.656,3.483,37.336,7.38l-7.372,26.715c-5.864-2.824-16.3-6.95-30.628-6.95
		c-14.333,0-21.278,6.518-21.278,14.122c0,9.337,8.253,13.455,27.143,20.627c25.84,9.556,38.011,23.014,38.011,43.654
		C487.667,364.025,468.767,384.877,428.583,384.877z"/>
	<path d="M313.031,260.216c-6.729,0-11.301,0.653-13.689,1.308v43.219c2.832,0.653,6.297,0.864,11.074,0.864
		c17.598,0,28.466-8.896,28.466-23.889C338.877,268.252,329.527,260.216,313.031,260.216z"/>
</g>
<g>
</g>
<g>
</g>
<g>
</g>
<g>
</g>
<g>
</g>
<g>
</g>
<g>
</g>
<g>
</g>
<g>
</g>
<g>
</g>
<g>
</g>
<g>
</g>
<g>
</g>
<g>
</g>
<g>
</g>
</svg>
