<?xml version="1.0" encoding="iso-8859-1"?>
<!-- Generator: Adobe Illustrator 16.0.0, SVG Export Plug-In . SVG Version: 6.00 Build 0)  -->
<!DOCTYPE svg PUBLIC "-//W3C//DTD SVG 1.1//EN" "http://www.w3.org/Graphics/SVG/1.1/DTD/svg11.dtd">
<svg version="1.1" id="Capa_1" xmlns="http://www.w3.org/2000/svg" xmlns:xlink="http://www.w3.org/1999/xlink" x="0px" y="0px"
	 width="548.291px" height="548.291px" viewBox="0 0 548.291 548.291" style="enable-background:new 0 0 548.291 548.291;"
	 xml:space="preserve">
<g>
	<path d="M423.617,254.649c-6.949,0-11.654,0.683-14.121,1.355v44.609c2.919,0.671,6.5,0.892,11.434,0.892
		c18.143,0,29.355-9.186,29.355-24.661C450.285,262.954,440.656,254.649,423.617,254.649z"/>
	<path d="M486.201,196.116h-13.166V132.59c0-0.399-0.062-0.795-0.115-1.2c-0.021-2.522-0.825-5-2.552-6.96L364.657,3.677
		c-0.033-0.034-0.064-0.044-0.085-0.075c-0.63-0.704-1.364-1.292-2.143-1.796c-0.229-0.157-0.461-0.286-0.702-0.419
		c-0.672-0.365-1.387-0.672-2.121-0.893c-0.2-0.052-0.379-0.134-0.577-0.188C358.23,0.118,357.401,0,356.562,0H96.757
		C84.894,0,75.256,9.649,75.256,21.502v174.613H62.092c-16.971,0-30.732,13.756-30.732,30.73v159.81
		c0,16.966,13.761,30.736,30.732,30.736h13.164V526.79c0,11.854,9.638,21.501,21.501,21.501h354.776
		c11.853,0,21.501-9.647,21.501-21.501V417.392h13.166c16.966,0,30.729-13.764,30.729-30.731V226.854
		C516.93,209.872,503.167,196.116,486.201,196.116z M96.757,21.502h249.054v110.006c0,5.94,4.817,10.751,10.751,10.751h94.972
		v53.861H96.757V21.502z M299.227,355.072c7.854,0,14.131-0.894,16.818-2.238v-31.6h-23.308v-26.679h56.254v79.57
		c-10.53,3.581-30.479,8.525-50.416,8.525c-27.591,0-47.528-6.96-61.428-20.409c-13.901-12.998-21.513-32.726-21.292-54.909
		c0.231-50.206,36.767-78.898,86.301-78.898c19.495,0,34.498,3.811,41.911,7.391l-7.172,27.349
		c-8.303-3.58-18.603-6.499-35.201-6.499c-28.452,0-49.976,16.136-49.976,48.862C251.719,336.698,271.226,355.072,299.227,355.072z
		 M92.146,373.224l6.94-25.544c6.047,3.138,19.958,8.965,33.848,8.965c17.714,0,26.669-8.515,26.669-19.497
		c0-14.351-14.331-20.859-29.368-20.859h-13.879v-24.421h13.218c11.436-0.231,25.997-4.482,25.997-16.809
		c0-8.745-7.17-15.245-21.525-15.245c-11.875,0-24.42,5.155-30.478,8.735l-6.951-24.651c8.745-5.607,26.226-10.982,45.063-10.982
		c31.16,0,48.41,16.357,48.41,36.305c0,15.465-8.735,27.57-26.678,33.849v0.45c17.491,3.139,31.612,16.368,31.612,35.413
		c0,25.785-22.635,44.61-59.612,44.61C116.577,383.544,100.65,378.61,92.146,373.224z M451.534,520.962H96.757v-103.57h354.776
		V520.962z M470.243,311.815c-11.665,10.982-28.914,15.916-49.093,15.916c-4.482,0-8.515-0.23-11.654-0.672v54.018h-33.838V232.019
		c10.53-1.785,25.314-3.129,46.165-3.129c21.069,0,36.084,4.032,46.184,12.105c9.627,7.611,16.127,20.168,16.127,34.961
		C484.133,290.749,479.208,303.3,470.243,311.815z"/>
</g>
<g>
</g>
<g>
</g>
<g>
</g>
<g>
</g>
<g>
</g>
<g>
</g>
<g>
</g>
<g>
</g>
<g>
</g>
<g>
</g>
<g>
</g>
<g>
</g>
<g>
</g>
<g>
</g>
<g>
</g>
</svg>
