<?xml version="1.0" encoding="iso-8859-1"?>
<!-- Generator: Adobe Illustrator 19.0.0, SVG Export Plug-In . SVG Version: 6.00 Build 0)  -->
<svg version="1.1" id="Capa_1" xmlns="http://www.w3.org/2000/svg" xmlns:xlink="http://www.w3.org/1999/xlink" x="0px" y="0px"
	 viewBox="0 0 360 360" style="enable-background:new 0 0 360 360;" xml:space="preserve">
<g id="XMLID_481_">
	<path id="XMLID_482_" d="M344.515,123.612h-49.029V77.834L212.462,0H15.485v360h280v-53.66h49.029V123.612z M314.515,276.34h-210
		V153.612h210V276.34z"/>
	<path id="XMLID_486_" d="M142.219,228.031h23.808l6.336,16.992h13.632l-25.92-68.16h-11.712l-26.016,68.16h13.632L142.219,228.031z
		 M154.219,191.936l9.408,26.784h-19.2L154.219,191.936z"/>
	<path id="XMLID_489_" d="M216.236,233.888c-2.625,0-5.184-0.319-7.68-0.96c-2.496-0.639-4.769-1.424-6.816-2.353
		c-2.049-0.927-3.825-1.855-5.328-2.783c-1.504-0.928-2.544-1.681-3.12-2.256l-5.856,11.424c3.968,2.816,8.448,4.992,13.44,6.527
		c4.992,1.536,10.047,2.305,15.168,2.305c3.327,0,6.511-0.369,9.552-1.105c3.039-0.734,5.727-1.903,8.064-3.504
		c2.335-1.599,4.191-3.696,5.568-6.288c1.376-2.592,2.064-5.712,2.064-9.359c0-3.136-0.513-5.775-1.536-7.921
		c-1.025-2.143-2.481-3.983-4.368-5.52c-1.889-1.536-4.192-2.815-6.912-3.84c-2.721-1.023-5.745-1.983-9.072-2.88
		c-2.561-0.64-4.816-1.248-6.768-1.824c-1.953-0.576-3.568-1.215-4.848-1.92c-1.281-0.704-2.256-1.52-2.928-2.448
		c-0.672-0.927-1.008-2.096-1.008-3.504c0-2.432,0.896-4.32,2.688-5.664c1.791-1.344,4.512-2.016,8.16-2.016
		c2.047,0,4.064,0.256,6.048,0.768c1.983,0.513,3.824,1.137,5.52,1.872c1.695,0.736,3.135,1.488,4.32,2.256
		c1.183,0.769,1.999,1.377,2.448,1.824l5.856-10.752c-3.009-2.048-6.528-3.823-10.56-5.328c-4.032-1.503-8.448-2.256-13.248-2.256
		c-3.456,0-6.688,0.465-9.696,1.392c-3.009,0.929-5.649,2.289-7.92,4.08c-2.273,1.793-4.048,4.032-5.328,6.72
		c-1.281,2.689-1.92,5.761-1.92,9.217c0,2.625,0.399,4.881,1.2,6.768c0.799,1.889,1.999,3.552,3.6,4.992
		c1.599,1.439,3.6,2.688,6,3.744c2.4,1.056,5.233,2.032,8.496,2.928c2.688,0.768,5.12,1.473,7.296,2.112
		c2.175,0.641,4.032,1.344,5.568,2.111c1.536,0.769,2.719,1.665,3.552,2.688c0.831,1.025,1.248,2.273,1.248,3.744
		C227.18,231.552,223.532,233.888,216.236,233.888z"/>
	<polygon id="XMLID_490_" points="264.523,216.8 291.595,216.8 291.595,206.048 264.523,206.048 264.523,188.48 297.067,188.48 
		297.067,176.863 251.275,176.863 251.275,245.023 264.523,245.023 	"/>
</g>
<g>
</g>
<g>
</g>
<g>
</g>
<g>
</g>
<g>
</g>
<g>
</g>
<g>
</g>
<g>
</g>
<g>
</g>
<g>
</g>
<g>
</g>
<g>
</g>
<g>
</g>
<g>
</g>
<g>
</g>
</svg>
