<?xml version="1.0" encoding="iso-8859-1"?>
<!-- Generator: Adobe Illustrator 16.0.0, SVG Export Plug-In . SVG Version: 6.00 Build 0)  -->
<!DOCTYPE svg PUBLIC "-//W3C//DTD SVG 1.1//EN" "http://www.w3.org/Graphics/SVG/1.1/DTD/svg11.dtd">
<svg version="1.1" id="Capa_1" xmlns="http://www.w3.org/2000/svg" xmlns:xlink="http://www.w3.org/1999/xlink" x="0px" y="0px"
	 width="550.801px" height="550.801px" viewBox="0 0 550.801 550.801" style="enable-background:new 0 0 550.801 550.801;"
	 xml:space="preserve">
<g>
	<path d="M488.432,197.021h-13.226v-63.819c0-0.398-0.069-0.799-0.111-1.202c-0.021-2.534-0.833-5.023-2.568-6.995L366.325,3.694
		c-0.032-0.031-0.063-0.042-0.085-0.076c-0.633-0.707-1.371-1.295-2.151-1.804c-0.231-0.155-0.464-0.285-0.706-0.419
		c-0.676-0.369-1.393-0.675-2.131-0.896c-0.2-0.056-0.38-0.138-0.58-0.19C359.87,0.119,359.037,0,358.193,0H97.2
		c-11.918,0-21.6,9.693-21.6,21.601v175.415H62.375c-17.046,0-30.871,13.816-30.871,30.871v160.545
		c0,17.038,13.824,30.87,30.871,30.87h13.226V529.2c0,11.907,9.682,21.601,21.6,21.601h356.4c11.907,0,21.6-9.693,21.6-21.601
		V419.302h13.226c17.044,0,30.871-13.827,30.871-30.87v-160.54C519.297,210.838,505.48,197.021,488.432,197.021z M97.2,21.605
		h250.193v110.513c0,5.967,4.841,10.8,10.8,10.8h95.407v54.108H97.2V21.605z M261.339,312.668
		c-25.629-8.934-42.335-23.119-42.335-45.558c0-26.312,21.966-46.459,58.361-46.459c17.389,0,30.208,3.66,39.357,7.781
		l-7.778,28.149c-6.186-2.977-17.165-7.327-32.271-7.327c-15.103,0-22.431,6.874-22.431,14.892c0,9.841,8.693,14.186,28.608,21.737
		c27.232,10.072,40.052,24.258,40.052,45.995c0,25.871-19.912,47.83-62.25,47.83c-17.621,0-35.013-4.577-43.714-9.387l7.095-28.835
		c9.387,4.81,23.799,9.618,38.681,9.618c16.019,0,24.487-6.639,24.487-16.722C287.202,324.781,279.883,319.302,261.339,312.668z
		 M61.57,377.42l47.142-154.253h45.771l47.833,154.253h-37.534l-11.897-39.582h-44.173L97.73,377.42H61.57z M453.601,523.353H97.2
		V419.302h356.4V523.353z M427.702,377.42l-13.958-27.917c-5.728-10.758-9.387-18.773-13.732-27.696h-0.459
		c-3.201,8.923-7.093,16.938-11.896,27.696l-12.814,27.917h-39.825l44.629-78.031l-43.025-76.222h40.052l13.5,28.16
		c4.577,9.387,8.016,16.941,11.675,25.629h0.454c3.659-9.838,6.634-16.706,10.53-25.629l13.047-28.16h39.819l-43.484,75.289
		l45.769,78.964H427.702z"/>
	<path d="M138.241,279.013c-2.75-9.142-5.493-20.59-7.781-29.753h-0.459c-2.291,9.163-4.58,20.838-7.095,29.753l-9.155,32.743
		h34.101L138.241,279.013z"/>
</g>
<g>
</g>
<g>
</g>
<g>
</g>
<g>
</g>
<g>
</g>
<g>
</g>
<g>
</g>
<g>
</g>
<g>
</g>
<g>
</g>
<g>
</g>
<g>
</g>
<g>
</g>
<g>
</g>
<g>
</g>
</svg>
