<?xml version="1.0" encoding="iso-8859-1"?>
<!-- Generator: Adobe Illustrator 19.0.0, SVG Export Plug-In . SVG Version: 6.00 Build 0)  -->
<svg version="1.1" id="Capa_1" xmlns="http://www.w3.org/2000/svg" xmlns:xlink="http://www.w3.org/1999/xlink" x="0px" y="0px"
	 viewBox="0 0 490 490" style="enable-background:new 0 0 490 490;" xml:space="preserve">
<g>
	<path d="M167.495,296.675l-25.077,75.366h15.133l4.695-14.46h32.524l4.8,14.46h14.864l-25.466-75.366H167.495z M165.611,347.024
		l12.815-39.253l13.025,39.253H165.611z"/>
	<path d="M255.243,339.412c-1.256,3.828-2.766,8.942-4.531,15.342l-1.436,5.144h-0.389c-2.617-9.615-4.591-16.464-5.907-20.546
		l-14.146-42.678h-14.849l24.075,75.366h21.982l24.3-75.366H269.21L255.243,339.412z"/>
	<rect x="290.579" y="296.675" width="14.296" height="75.366"/>
	<path d="M77.788,0v265.111H42.189v139.615h0.001l35.59,35.591L77.788,490h370.023V102.422L345.388,0H77.788z M395.793,389.413
		H57.501v-108.99h338.292V389.413z M353.022,36.962l57.816,57.804h-57.816V36.962z"/>
</g>
<g>
</g>
<g>
</g>
<g>
</g>
<g>
</g>
<g>
</g>
<g>
</g>
<g>
</g>
<g>
</g>
<g>
</g>
<g>
</g>
<g>
</g>
<g>
</g>
<g>
</g>
<g>
</g>
<g>
</g>
</svg>
