<?xml version="1.0" encoding="iso-8859-1"?>
<!-- Generator: Adobe Illustrator 16.0.0, SVG Export Plug-In . SVG Version: 6.00 Build 0)  -->
<!DOCTYPE svg PUBLIC "-//W3C//DTD SVG 1.1//EN" "http://www.w3.org/Graphics/SVG/1.1/DTD/svg11.dtd">
<svg version="1.1" id="Capa_1" xmlns="http://www.w3.org/2000/svg" xmlns:xlink="http://www.w3.org/1999/xlink" x="0px" y="0px"
	 width="550.801px" height="550.801px" viewBox="0 0 550.801 550.801" style="enable-background:new 0 0 550.801 550.801;"
	 xml:space="preserve">
<g>
	<g>
		<path d="M209.272,303.223c0,27.644,12.973,47.124,34.328,47.124c21.579,0,33.929-20.524,33.929-47.957
			c0-25.344-12.139-47.115-34.148-47.115C221.823,255.274,209.272,275.791,209.272,303.223z"/>
		<path d="M488.427,197.014h-13.226v-63.817c0-0.401-0.063-0.799-0.116-1.205c-0.021-2.531-0.828-5.021-2.563-6.993L366.325,3.694
			c-0.031-0.031-0.063-0.045-0.084-0.076c-0.633-0.707-1.371-1.295-2.151-1.804c-0.232-0.155-0.465-0.285-0.707-0.422
			c-0.675-0.366-1.393-0.675-2.131-0.896c-0.2-0.053-0.379-0.135-0.58-0.188C359.871,0.119,359.037,0,358.193,0H97.201
			c-11.918,0-21.6,9.693-21.6,21.601v175.413H62.378c-17.044,0-30.874,13.818-30.874,30.873v160.545
			c0,17.038,13.83,30.87,30.874,30.87h13.223V529.2c0,11.907,9.682,21.601,21.6,21.601h356.4c11.907,0,21.601-9.693,21.601-21.601
			V419.302h13.226c17.054,0,30.87-13.832,30.87-30.87V227.887C519.297,210.832,505.48,197.014,488.427,197.014z M97.201,21.601
			h250.193v110.51c0,5.97,4.841,10.8,10.8,10.8h95.407v54.108h-356.4V21.601z M311.239,301.346c0,46.279-28.062,74.34-69.312,74.34
			c-41.874,0-66.372-31.614-66.372-71.819c0-42.301,27-73.918,68.681-73.918C287.582,229.943,311.239,262.396,311.239,301.346z
			 M57.241,304.9c0-48.168,34.349-74.957,77.063-74.957c16.54,0,29.112,3.354,34.771,6.275l-6.508,25.342
			c-6.483-2.732-15.493-5.234-26.799-5.234c-25.341,0-45.025,15.272-45.025,46.691c0,28.26,16.762,46.053,45.236,46.053
			c9.626,0,20.313-2.088,26.588-4.599l4.823,24.912c-5.864,2.942-19.066,6.085-36.218,6.085
			C82.382,375.479,57.241,345.115,57.241,304.9z M453.601,523.347h-356.4V419.302h356.4V523.347z M453.611,373.381l-2.088-54.021
			c-0.633-16.97-1.256-37.479-1.256-58.005h-0.622c-4.403,18.001-10.268,38.108-15.715,54.641l-17.159,55.076h-24.934
			l-15.061-54.644c-4.609-16.543-9.424-36.65-12.767-55.073h-0.433c-0.828,19.056-1.461,40.829-2.511,58.417l-2.505,53.609h-29.531
			l8.997-141.139h42.515l13.821,47.113c4.393,16.337,8.796,33.93,11.939,50.472h0.606c3.986-16.331,8.807-34.979,13.415-50.667
			l15.071-46.918h41.682l7.747,141.139H453.611L453.611,373.381z"/>
	</g>
</g>
<g>
</g>
<g>
</g>
<g>
</g>
<g>
</g>
<g>
</g>
<g>
</g>
<g>
</g>
<g>
</g>
<g>
</g>
<g>
</g>
<g>
</g>
<g>
</g>
<g>
</g>
<g>
</g>
<g>
</g>
</svg>
