<?xml version="1.0" encoding="iso-8859-1"?>
<!-- Generator: Adobe Illustrator 16.0.0, SVG Export Plug-In . SVG Version: 6.00 Build 0)  -->
<!DOCTYPE svg PUBLIC "-//W3C//DTD SVG 1.1//EN" "http://www.w3.org/Graphics/SVG/1.1/DTD/svg11.dtd">
<svg version="1.1" id="Capa_1" xmlns="http://www.w3.org/2000/svg" xmlns:xlink="http://www.w3.org/1999/xlink" x="0px" y="0px"
	 width="548.291px" height="548.291px" viewBox="0 0 548.291 548.291" style="enable-background:new 0 0 548.291 548.291;"
	 xml:space="preserve">
<g>
	<path d="M403.029,255.368c-6.866,0-11.522,0.683-13.964,1.344v44.053c2.894,0.656,6.42,0.893,11.297,0.893
		c17.953,0,29.019-9.076,29.019-24.367C429.38,263.555,419.859,255.368,403.029,255.368z"/>
	<path d="M274.297,255.368c-6.861,0-11.519,0.683-13.96,1.344v44.053c2.892,0.656,6.436,0.893,11.31,0.893
		c17.953,0,29.009-9.076,29.009-24.367C300.645,263.555,291.138,255.368,274.297,255.368z"/>
	<path d="M486.201,196.116h-13.166V132.59c0-0.399-0.062-0.795-0.115-1.2c-0.021-2.522-0.825-5-2.552-6.96L364.657,3.677
		c-0.033-0.034-0.064-0.044-0.085-0.075c-0.63-0.704-1.364-1.292-2.143-1.796c-0.229-0.157-0.461-0.286-0.702-0.419
		c-0.672-0.365-1.387-0.672-2.121-0.893c-0.2-0.052-0.379-0.134-0.577-0.188C358.23,0.118,357.401,0,356.562,0H96.757
		C84.894,0,75.256,9.649,75.256,21.502v174.613H62.092c-16.971,0-30.732,13.756-30.732,30.73v159.81
		c0,16.966,13.761,30.736,30.732,30.736h13.164V526.79c0,11.854,9.638,21.501,21.501,21.501h354.776
		c11.853,0,21.501-9.647,21.501-21.501V417.392h13.166c16.966,0,30.729-13.764,30.729-30.731V226.854
		C516.93,209.872,503.167,196.116,486.201,196.116z M96.757,21.502h249.054v110.006c0,5.94,4.817,10.751,10.751,10.751h94.972
		v53.861H96.757V21.502z M334.115,276.409c0,14.629-4.888,27.028-13.743,35.442c-11.518,10.862-28.562,15.734-48.504,15.734
		c-4.431,0-8.413-0.21-11.53-0.662v53.375h-33.441V233.011c10.417-1.772,25.034-3.104,45.628-3.104
		c20.819,0,35.668,3.976,45.633,11.971C327.69,249.386,334.115,261.794,334.115,276.409z M88.19,307.878
		c0-50.956,36.336-79.3,81.519-79.3c17.501,0,30.791,3.546,36.761,6.633l-6.864,26.803c-6.847-2.887-16.373-5.521-28.339-5.521
		c-26.809,0-47.628,16.147-47.628,49.38c0,29.901,17.736,48.721,47.859,48.721c10.176,0,21.48-2.204,28.108-4.866l5.105,26.356
		c-6.202,3.108-20.163,6.42-38.337,6.42C114.792,382.503,88.19,350.41,88.19,307.878z M451.534,520.962H96.757v-103.57h354.776
		V520.962z M449.109,311.851c-11.518,10.862-28.574,15.734-48.506,15.734c-4.436,0-8.414-0.21-11.527-0.662v53.375h-33.443V233.011
		c10.419-1.772,25.023-3.104,45.639-3.104c20.804,0,35.658,3.976,45.611,11.971c9.533,7.514,15.959,19.927,15.959,34.541
		C462.841,291.038,457.969,303.437,449.109,311.851z"/>
</g>
<g>
</g>
<g>
</g>
<g>
</g>
<g>
</g>
<g>
</g>
<g>
</g>
<g>
</g>
<g>
</g>
<g>
</g>
<g>
</g>
<g>
</g>
<g>
</g>
<g>
</g>
<g>
</g>
<g>
</g>
</svg>
