<?xml version="1.0" encoding="iso-8859-1"?>
<!-- Generator: Adobe Illustrator 16.0.0, SVG Export Plug-In . SVG Version: 6.00 Build 0)  -->
<!DOCTYPE svg PUBLIC "-//W3C//DTD SVG 1.1//EN" "http://www.w3.org/Graphics/SVG/1.1/DTD/svg11.dtd">
<svg version="1.1" id="Capa_1" xmlns="http://www.w3.org/2000/svg" xmlns:xlink="http://www.w3.org/1999/xlink" x="0px" y="0px"
	 width="548.29px" height="548.291px" viewBox="0 0 548.29 548.291" style="enable-background:new 0 0 548.29 548.291;"
	 xml:space="preserve">
<g>
	<path d="M486.2,196.121h-13.164v-63.525c0-0.399-0.064-0.795-0.116-1.2c-0.021-2.52-0.829-4.997-2.551-6.96L364.656,3.677
		c-0.031-0.031-0.064-0.044-0.085-0.075c-0.629-0.704-1.364-1.29-2.141-1.796c-0.231-0.154-0.462-0.286-0.704-0.419
		c-0.672-0.365-1.386-0.672-2.121-0.893c-0.199-0.052-0.377-0.134-0.576-0.186C358.229,0.118,357.4,0,356.562,0H96.757
		C84.893,0,75.256,9.649,75.256,21.502v174.613H62.09c-16.963,0-30.729,13.756-30.729,30.733v159.812
		c0,16.961,13.766,30.731,30.729,30.731h13.166V526.79c0,11.854,9.637,21.501,21.501,21.501h354.777
		c11.853,0,21.502-9.647,21.502-21.501V417.392H486.2c16.977,0,30.729-13.764,30.729-30.731V226.854
		C516.93,209.872,503.177,196.121,486.2,196.121z M96.757,21.507h249.053v110.006c0,5.94,4.818,10.751,10.751,10.751h94.973v53.861
		H96.757V21.507z M268.57,357.684c17.942,0,27.801-12.556,27.801-39.234v-86.974h34.068v84.739c0,46.625-23.538,68.82-62.981,68.82
		c-38.111,0-60.526-21.071-60.526-69.272v-84.287h34.3v86.974C241.231,344.456,251.101,357.684,268.57,357.684z M66.814,309.264
		c0-51.562,36.759-80.256,82.492-80.256c17.722,0,31.161,3.591,37.208,6.73l-6.94,27.118c-6.95-2.908-16.598-5.595-28.693-5.595
		c-27.129,0-48.2,16.357-48.2,49.988c0,30.267,17.933,49.312,48.421,49.312c10.31,0,21.743-2.238,28.473-4.935l5.155,26.677
		c-6.278,3.149-20.409,6.51-38.782,6.51C93.715,384.809,66.814,352.298,66.814,309.264z M451.534,520.968H96.757V417.392h354.777
		V520.968z M439.188,382.562c-2.469-4.264-6.048-16.589-10.53-35.192c-4.032-18.836-10.53-23.99-24.441-24.211h-10.311v59.403
		h-33.838v-149.07c10.972-1.796,27.339-3.14,45.491-3.14c22.427,0,38.122,3.371,48.873,11.885
		c8.965,7.182,13.899,17.711,13.899,31.612c0,19.278-13.668,32.496-26.666,37.21v0.673c10.529,4.262,16.356,14.351,20.168,28.241
		c4.703,17.041,9.406,36.768,12.336,42.595h-34.981V382.562z"/>
	<path d="M409.37,255.686c-8.294,0-12.997,0.672-15.465,1.124v41.694h13.449c17.039,0,27.128-8.516,27.128-21.744
		C434.482,262.856,425.066,255.917,409.37,255.686z"/>
</g>
<g>
</g>
<g>
</g>
<g>
</g>
<g>
</g>
<g>
</g>
<g>
</g>
<g>
</g>
<g>
</g>
<g>
</g>
<g>
</g>
<g>
</g>
<g>
</g>
<g>
</g>
<g>
</g>
<g>
</g>
</svg>
