<?xml version="1.0" encoding="iso-8859-1"?>
<!-- Generator: Adobe Illustrator 16.0.0, SVG Export Plug-In . SVG Version: 6.00 Build 0)  -->
<!DOCTYPE svg PUBLIC "-//W3C//DTD SVG 1.1//EN" "http://www.w3.org/Graphics/SVG/1.1/DTD/svg11.dtd">
<svg version="1.1" id="Capa_1" xmlns="http://www.w3.org/2000/svg" xmlns:xlink="http://www.w3.org/1999/xlink" x="0px" y="0px"
	 width="548.29px" height="548.291px" viewBox="0 0 548.29 548.291" style="enable-background:new 0 0 548.29 548.291;"
	 xml:space="preserve">
<g>
	<g>
		<path d="M314.713,263.702c0-11.365-8.692-17.373-24.074-17.373c-7.354,0-11.591,0.441-14.488,0.882v35.003H287.3
			C305.138,282.208,314.713,274.849,314.713,263.702z"/>
		<path d="M184.102,295.358c0.226-31.209-18.055-47.7-47.266-47.7c-7.562,0-12.47,0.661-15.367,1.338v98.296
			c2.897,0.672,7.577,0.672,11.808,0.672C164.037,348.184,184.102,331.248,184.102,295.358z"/>
		<path d="M287.746,306.503h-11.59v42.352c3.344,0.441,7.359,0.441,13.148,0.441c15.382,0,28.983-5.779,28.983-21.612
			C318.288,312.519,304.687,306.503,287.746,306.503z"/>
		<path d="M486.205,196.116h-13.166V132.59c0-0.399-0.062-0.795-0.109-1.2c-0.021-2.52-0.828-4.997-2.556-6.96L364.656,3.677
			c-0.031-0.031-0.064-0.044-0.085-0.075c-0.629-0.704-1.364-1.29-2.141-1.796c-0.231-0.154-0.462-0.283-0.704-0.419
			c-0.672-0.365-1.386-0.672-2.121-0.893c-0.199-0.052-0.377-0.134-0.576-0.186C358.229,0.118,357.4,0,356.562,0H96.757
			C84.893,0,75.256,9.649,75.256,21.502v174.613H62.093c-16.972,0-30.733,13.756-30.733,30.733v159.812
			c0,16.961,13.761,30.731,30.733,30.731h13.163V526.79c0,11.854,9.637,21.501,21.501,21.501h354.777
			c11.853,0,21.502-9.647,21.502-21.501V417.392H486.2c16.966,0,30.729-13.771,30.729-30.731V226.849
			C516.93,209.872,503.177,196.116,486.205,196.116z M96.757,21.502h249.053v110.006c0,5.943,4.818,10.751,10.751,10.751h94.973
			v53.861H96.757V21.502z M353.947,329.006c0,13.607-6.236,24.3-15.603,31.891c-10.918,8.684-29.197,13.592-59.071,13.592
			c-16.716,0-29.205-1.114-36.785-2.226V224.691c8.929-1.776,26.974-3.105,43.919-3.105c20.725,0,33.434,1.992,44.361,8.455
			c10.474,5.584,18.054,15.832,18.054,29.436c0,13.362-7.812,25.86-24.751,32.087v0.45
			C341.243,296.698,353.947,309.621,353.947,329.006z M87.355,372.263V224.691c12.489-2.002,28.76-3.105,45.928-3.105
			c28.533,0,47.034,5.115,61.522,16.035c15.604,11.588,25.411,30.092,25.411,56.626c0,28.75-10.479,48.588-24.959,60.856
			c-15.837,13.138-39.908,19.381-69.326,19.381C108.309,374.489,95.839,373.375,87.355,372.263z M451.534,520.962H96.757v-103.57
			h354.777V520.962z M468.967,250.542h-57.744v34.339h53.943v27.639h-53.943v60.404h-34.099V222.688h91.838v27.853H468.967z"/>
	</g>
</g>
<g>
</g>
<g>
</g>
<g>
</g>
<g>
</g>
<g>
</g>
<g>
</g>
<g>
</g>
<g>
</g>
<g>
</g>
<g>
</g>
<g>
</g>
<g>
</g>
<g>
</g>
<g>
</g>
<g>
</g>
</svg>
