<?xml version="1.0" encoding="iso-8859-1"?>
<!-- Generator: Adobe Illustrator 19.0.0, SVG Export Plug-In . SVG Version: 6.00 Build 0)  -->
<svg version="1.1" id="Capa_1" xmlns="http://www.w3.org/2000/svg" xmlns:xlink="http://www.w3.org/1999/xlink" x="0px" y="0px"
	 viewBox="0 0 490 490" style="enable-background:new 0 0 490 490;" xml:space="preserve">
<g>
	<path d="M144.467,364.001c3.38-5.353,5.069-17.451,5.069-36.263c0-11.514-2.108-19.574-6.31-24.18
		c-4.217-4.606-11.589-6.894-22.116-6.894H84.054v75.366h37.489C133.431,372.031,141.072,369.354,144.467,364.001z M98.35,359.993
		v-51.291h21.264c6.654,0,10.901,1.495,12.696,4.516c1.809,3.021,2.707,10.094,2.707,21.204c0,10.752-1.002,17.705-3.006,20.845
		c-2.004,3.155-6.43,4.725-13.279,4.725H98.35z"/>
	<path d="M188.969,372.689c15.208,0,24.778-2.243,28.741-6.729c3.963-4.501,5.936-15.372,5.936-32.644
		c0-15.791-1.974-25.959-5.907-30.505c-3.948-4.546-12.755-6.819-26.453-6.819c-15.387,0-25.047,2.303-28.995,6.909
		c-3.933,4.606-5.907,15.881-5.907,33.84c0,15.103,2.004,24.868,6.026,29.294C166.419,370.476,175.271,372.689,188.969,372.689z
		 M173.342,311.947c1.615-2.467,7.238-3.693,16.838-3.693c9.286,0,14.759,1.151,16.434,3.454c1.675,2.303,2.512,9.765,2.512,22.385
		c0,12.591-0.882,20.128-2.647,22.61c-1.78,2.482-7.088,3.738-15.971,3.738c-9.271,0-14.864-1.107-16.748-3.32
		c-1.899-2.213-2.841-8.718-2.841-19.544C170.92,322.953,171.727,314.415,173.342,311.947z"/>
	<path d="M263.064,372.689c13.129,0,21.593-1.525,25.421-4.606c3.828-3.081,5.742-9.854,5.742-20.352v-2.587h-14.355l0.09,3.365
		c0,5.009-1.047,8.24-3.17,9.72c-2.123,1.465-6.729,2.213-13.817,2.213c-8.763,0-13.952-1.331-15.552-3.978
		c-1.6-2.662-2.393-11.2-2.393-25.63c0-10.707,0.882-17.152,2.662-19.32c1.794-2.168,7.118-3.26,16-3.26
		c6.61,0,10.856,0.688,12.711,2.064c1.884,1.391,2.811,4.546,2.811,9.481v1.929h14.355l-0.06-1.705
		c0-9.585-1.824-15.971-5.413-19.201c-3.619-3.215-10.797-4.83-21.533-4.83c-14.774,0-24.464,1.959-29.115,5.877
		c-4.636,3.933-6.953,12.112-6.953,24.554c0,21.13,1.72,34.124,5.129,38.984C239.048,370.266,248.2,372.689,263.064,372.689z"/>
	<path d="M313.487,372.031l10.871-18.109c2.438-4.007,4.606-7.821,6.52-11.439l1.6-2.976h0.224l1.6,2.931l1.54,2.976
		c1.51,2.871,3.095,5.712,4.755,8.509l10.827,18.109h16.778l-24.12-38.879l22.64-36.487h-16.898l-10.049,16.838
		c-1.78,2.946-3.245,5.563-4.426,7.836l-1.376,2.602c-0.299,0.583-0.763,1.466-1.376,2.647h-0.224l-1.376-2.647l-1.391-2.662
		c-1.391-2.572-2.886-5.189-4.471-7.836l-10.049-16.778h-17.062l22.969,36.487l-24.733,38.879H313.487z"/>
	<path d="M77.788,0v265.111H42.189v139.615h0.001l35.59,35.591L77.788,490h370.023V102.422L345.388,0H77.788z M395.793,389.413
		H57.501v-108.99h338.292V389.413z M353.022,36.962l57.816,57.804h-57.816V36.962z"/>
</g>
<g>
</g>
<g>
</g>
<g>
</g>
<g>
</g>
<g>
</g>
<g>
</g>
<g>
</g>
<g>
</g>
<g>
</g>
<g>
</g>
<g>
</g>
<g>
</g>
<g>
</g>
<g>
</g>
<g>
</g>
</svg>
