<?xml version="1.0" encoding="iso-8859-1"?>
<!-- Generator: Adobe Illustrator 16.0.0, SVG Export Plug-In . SVG Version: 6.00 Build 0)  -->
<!DOCTYPE svg PUBLIC "-//W3C//DTD SVG 1.1//EN" "http://www.w3.org/Graphics/SVG/1.1/DTD/svg11.dtd">
<svg version="1.1" id="Capa_1" xmlns="http://www.w3.org/2000/svg" xmlns:xlink="http://www.w3.org/1999/xlink" x="0px" y="0px"
	 width="550.801px" height="550.801px" viewBox="0 0 550.801 550.801" style="enable-background:new 0 0 550.801 550.801;"
	 xml:space="preserve">
<g>
	<path d="M488.427,197.014h-13.226v-63.817c0-0.401-0.063-0.799-0.116-1.205c-0.021-2.531-0.828-5.021-2.563-6.993L366.325,3.694
		c-0.031-0.031-0.063-0.045-0.084-0.076c-0.633-0.707-1.371-1.295-2.151-1.804c-0.232-0.155-0.465-0.285-0.707-0.422
		c-0.675-0.366-1.393-0.675-2.131-0.896c-0.2-0.053-0.379-0.135-0.58-0.188C359.871,0.119,359.037,0,358.193,0H97.201
		c-11.918,0-21.6,9.693-21.6,21.601v175.413H62.378c-17.044,0-30.874,13.818-30.874,30.873v160.545
		c0,17.038,13.83,30.87,30.874,30.87h13.223V529.2c0,11.907,9.682,21.601,21.6,21.601h356.4c11.907,0,21.601-9.693,21.601-21.601
		V419.302h13.226c17.054,0,30.87-13.832,30.87-30.87V227.887C519.297,210.832,505.48,197.014,488.427,197.014z M97.201,21.601
		h250.193v110.51c0,5.97,4.841,10.8,10.8,10.8h95.407v54.108h-356.4V21.601z M347.521,277.657c0,16.158-5.379,29.869-15.183,39.171
		c-12.714,11.992-31.577,17.382-53.609,17.382c-4.894,0-9.295-0.253-12.717-0.738v58.988h-36.97V229.69
		c11.507-1.962,27.665-3.431,50.425-3.431c23.019,0,39.419,4.406,50.43,13.215C340.422,247.802,347.521,261.513,347.521,277.657z
		 M196.513,292.35v30.354h-60.697v39.16h67.793v30.597H98.351V227.486h101.83v30.596h-64.37v34.268H196.513z M453.601,523.347
		h-356.4V419.302h356.4V523.347z M411.635,394.907c-18.848,0-37.446-4.894-46.754-10.041l7.604-30.828
		c10.025,5.126,25.439,10.272,41.365,10.272c17.128,0,26.188-7.098,26.188-17.866c0-10.283-7.847-16.158-27.653-23.256
		c-27.422-9.551-45.288-24.722-45.288-48.711c0-28.149,23.498-49.687,62.405-49.687c18.615,0,32.326,3.916,42.114,8.321
		l-8.322,30.101c-6.612-3.174-18.361-7.826-34.52-7.826c-16.163,0-23.994,7.341-23.994,15.904c0,10.521,9.303,15.177,30.607,23.256
		c29.119,10.769,42.83,25.951,42.83,49.201C478.217,371.408,456.912,394.907,411.635,394.907z"/>
	<path d="M281.434,254.412c-7.594,0-12.728,0.738-15.417,1.461v48.716c3.175,0.728,7.096,0.97,12.479,0.97
		c19.828,0,32.068-10.024,32.068-26.92C310.564,263.461,300.027,254.412,281.434,254.412z"/>
</g>
<g>
</g>
<g>
</g>
<g>
</g>
<g>
</g>
<g>
</g>
<g>
</g>
<g>
</g>
<g>
</g>
<g>
</g>
<g>
</g>
<g>
</g>
<g>
</g>
<g>
</g>
<g>
</g>
<g>
</g>
</svg>
