<?xml version="1.0" encoding="iso-8859-1"?>
<!-- Generator: Adobe Illustrator 19.0.0, SVG Export Plug-In . SVG Version: 6.00 Build 0)  -->
<svg version="1.1" id="Capa_1" xmlns="http://www.w3.org/2000/svg" xmlns:xlink="http://www.w3.org/1999/xlink" x="0px" y="0px"
	 viewBox="0 0 360 360" style="enable-background:new 0 0 360 360;" xml:space="preserve">
<g id="XMLID_890_">
	<path id="XMLID_891_" d="M345,126.96h-50V77.834L211.977,0H15v360h280v-50.313h50V126.96z M315,279.688H105V156.96h210V279.688z"/>
	<polygon id="XMLID_894_" points="149.041,220.109 175.549,220.109 175.549,209.581 149.041,209.581 149.041,192.379 
		180.907,192.379 180.907,181.005 136.069,181.005 136.069,247.745 149.041,247.745 	"/>
	<polygon id="XMLID_895_" points="237.024,236.371 202.996,236.371 202.996,181.005 190.024,181.005 190.024,247.745 
		237.024,247.745 	"/>
	<polygon id="XMLID_896_" points="264.849,247.745 290.887,181.005 277.257,181.005 259.397,231.482 241.349,181.005 
		227.719,181.005 253.945,247.745 	"/>
</g>
<g>
</g>
<g>
</g>
<g>
</g>
<g>
</g>
<g>
</g>
<g>
</g>
<g>
</g>
<g>
</g>
<g>
</g>
<g>
</g>
<g>
</g>
<g>
</g>
<g>
</g>
<g>
</g>
<g>
</g>
</svg>
