<?xml version="1.0" encoding="iso-8859-1"?>
<!-- Generator: Adobe Illustrator 16.0.0, SVG Export Plug-In . SVG Version: 6.00 Build 0)  -->
<!DOCTYPE svg PUBLIC "-//W3C//DTD SVG 1.1//EN" "http://www.w3.org/Graphics/SVG/1.1/DTD/svg11.dtd">
<svg version="1.1" id="Capa_1" xmlns="http://www.w3.org/2000/svg" xmlns:xlink="http://www.w3.org/1999/xlink" x="0px" y="0px"
	 width="548.291px" height="548.291px" viewBox="0 0 548.291 548.291" style="enable-background:new 0 0 548.291 548.291;"
	 xml:space="preserve">
<g>
	<path d="M486.201,196.116h-13.166V132.59c0-0.399-0.062-0.795-0.115-1.2c-0.021-2.522-0.825-5-2.552-6.96L364.657,3.677
		c-0.033-0.034-0.064-0.044-0.085-0.075c-0.63-0.704-1.364-1.292-2.143-1.796c-0.229-0.157-0.461-0.286-0.702-0.419
		c-0.672-0.365-1.387-0.672-2.121-0.893c-0.2-0.052-0.379-0.134-0.577-0.188C358.23,0.118,357.401,0,356.562,0H96.757
		C84.894,0,75.256,9.649,75.256,21.502v174.613H62.092c-16.971,0-30.732,13.756-30.732,30.73v159.81
		c0,16.966,13.761,30.736,30.732,30.736h13.164V526.79c0,11.854,9.638,21.501,21.501,21.501h354.776
		c11.853,0,21.501-9.647,21.501-21.501V417.392h13.166c16.966,0,30.729-13.764,30.729-30.731V226.854
		C516.93,209.872,503.167,196.116,486.201,196.116z M96.757,21.502h249.054v110.006c0,5.94,4.817,10.751,10.751,10.751h94.972
		v53.861H96.757V21.502z M322.145,288.331v26.803h-53.617v34.594h59.886v27.023h-92.959V231.04h89.937v27.021h-56.863v30.27H322.145
		z M81.282,305.621c0.221-48.42,35.457-76.093,83.231-76.093c18.804,0,33.292,3.678,40.429,7.129l-6.916,26.383
		c-8-3.468-17.945-6.268-33.94-6.268c-27.46,0-48.213,15.561-48.213,47.116c0,30.062,18.809,47.785,45.83,47.785
		c7.57,0,13.623-0.861,16.213-2.157V319.04H155.43v-25.743h54.266v76.757c-10.166,3.454-29.405,8.209-48.641,8.209
		c-26.589,0-45.833-6.697-59.237-19.675C88.421,346.052,81.067,327.028,81.282,305.621z M451.534,520.962H96.757v-103.57h354.776
		V520.962z M455.549,359.46c-15.344,12.743-38.694,18.802-67.229,18.802c-17.082,0-29.187-1.081-37.401-2.163V232.99
		c12.104-1.95,27.89-3.032,44.53-3.032c27.675,0,45.617,4.979,59.67,15.567c15.124,11.247,24.642,29.187,24.642,54.909
		C479.765,328.33,469.606,347.564,455.549,359.46z"/>
	<path d="M398.913,255.245c-7.349,0-12.104,0.652-14.919,1.303v95.343c2.814,0.64,7.359,0.64,11.46,0.64
		c29.839,0.221,49.292-16.21,49.292-51.015C444.961,271.248,427.229,255.245,398.913,255.245z"/>
</g>
<g>
</g>
<g>
</g>
<g>
</g>
<g>
</g>
<g>
</g>
<g>
</g>
<g>
</g>
<g>
</g>
<g>
</g>
<g>
</g>
<g>
</g>
<g>
</g>
<g>
</g>
<g>
</g>
<g>
</g>
</svg>
