<?xml version="1.0" encoding="iso-8859-1"?>
<!-- Generator: Adobe Illustrator 16.0.0, SVG Export Plug-In . SVG Version: 6.00 Build 0)  -->
<!DOCTYPE svg PUBLIC "-//W3C//DTD SVG 1.1//EN" "http://www.w3.org/Graphics/SVG/1.1/DTD/svg11.dtd">
<svg version="1.1" id="Capa_1" xmlns="http://www.w3.org/2000/svg" xmlns:xlink="http://www.w3.org/1999/xlink" x="0px" y="0px"
	 width="550.801px" height="550.801px" viewBox="0 0 550.801 550.801" style="enable-background:new 0 0 550.801 550.801;"
	 xml:space="preserve">
<g>
	<g>
		<path d="M488.426,197.014H475.2v-63.817c0-0.401-0.063-0.799-0.116-1.205c-0.021-2.531-0.833-5.023-2.562-6.993L366.319,3.694
			c-0.026-0.034-0.058-0.045-0.079-0.076c-0.633-0.707-1.371-1.298-2.151-1.804c-0.231-0.155-0.464-0.285-0.706-0.422
			c-0.676-0.366-1.393-0.675-2.131-0.896c-0.2-0.053-0.38-0.135-0.58-0.188C359.87,0.119,359.037,0,358.193,0H97.2
			c-11.918,0-21.6,9.693-21.6,21.601v175.413H62.375c-17.046,0-30.871,13.818-30.871,30.873v160.545
			c0,17.038,13.824,30.87,30.871,30.87h13.226V529.2c0,11.907,9.682,21.601,21.6,21.601h356.4c11.907,0,21.6-9.693,21.6-21.601
			V419.302h13.226c17.044,0,30.871-13.832,30.871-30.87V227.887C519.297,210.832,505.47,197.014,488.426,197.014z M97.2,21.601
			h250.193v110.51c0,5.967,4.841,10.8,10.8,10.8h95.407v54.108H97.2V21.601z M337.174,273.212c0,13.669-4.557,25.265-12.836,33.122
			c-10.769,10.157-26.705,14.708-45.341,14.708c-4.143,0-7.868-0.206-10.763-0.622v49.902h-31.266V232.638
			c9.732-1.658,23.393-2.9,42.648-2.9c19.462,0,33.331,3.721,42.644,11.186C331.167,247.957,337.174,259.546,337.174,273.212z
			 M89.369,302.205c0.216-46.38,33.956-72.879,79.711-72.879c18.009,0,31.88,3.512,38.712,6.821l-6.621,25.273
			c-7.662-3.322-17.183-6.012-32.508-6.012c-26.293,0-46.169,14.911-46.169,45.14c0,28.777,18.015,45.753,43.891,45.753
			c7.251,0,13.042-0.817,15.53-2.067v-29.199h-21.537v-24.637h51.97v73.49c-9.725,3.317-28.155,7.873-46.58,7.873
			c-25.466,0-43.886-6.412-56.727-18.842C96.206,340.912,89.169,322.692,89.369,302.205z M453.601,523.347H97.2V419.302h356.4
			V523.347z M424.934,370.317l-12.624-25.266c-5.179-9.729-8.49-16.98-12.425-25.054h-0.411c-2.9,8.073-6.418,15.324-10.769,25.054
			l-11.591,25.266h-36.028l40.374-70.612l-38.918-68.931h36.229l12.213,25.468c4.14,8.487,7.246,15.319,10.558,23.188h0.422
			c3.312-8.904,6.001-15.127,9.523-23.188l11.797-25.468h36.023l-39.34,68.115l41.406,71.434h-36.439V370.317z"/>
		<path d="M281.275,253.542c-6.421,0-10.769,0.62-13.042,1.247v41.188c2.689,0.633,5.999,0.838,10.557,0.838
			c16.765,0,27.121-8.495,27.121-22.775C305.912,261.209,297.006,253.542,281.275,253.542z"/>
	</g>
</g>
<g>
</g>
<g>
</g>
<g>
</g>
<g>
</g>
<g>
</g>
<g>
</g>
<g>
</g>
<g>
</g>
<g>
</g>
<g>
</g>
<g>
</g>
<g>
</g>
<g>
</g>
<g>
</g>
<g>
</g>
</svg>
