<?xml version="1.0" encoding="iso-8859-1"?>
<!-- Generator: Adobe Illustrator 16.0.0, SVG Export Plug-In . SVG Version: 6.00 Build 0)  -->
<!DOCTYPE svg PUBLIC "-//W3C//DTD SVG 1.1//EN" "http://www.w3.org/Graphics/SVG/1.1/DTD/svg11.dtd">
<svg version="1.1" id="Capa_1" xmlns="http://www.w3.org/2000/svg" xmlns:xlink="http://www.w3.org/1999/xlink" x="0px" y="0px"
	 width="550.801px" height="550.801px" viewBox="0 0 550.801 550.801" style="enable-background:new 0 0 550.801 550.801;"
	 xml:space="preserve">
<g>
	<path d="M488.427,197.019h-13.226v-63.816c0-0.401-0.063-0.799-0.116-1.205c-0.021-2.531-0.833-5.021-2.563-6.992L366.325,3.694
		c-0.031-0.031-0.063-0.045-0.084-0.076c-0.633-0.707-1.371-1.295-2.151-1.804c-0.232-0.155-0.465-0.287-0.707-0.422
		c-0.675-0.366-1.393-0.675-2.131-0.896c-0.2-0.053-0.379-0.135-0.58-0.188C359.871,0.119,359.037,0,358.193,0H97.201
		c-11.918,0-21.6,9.693-21.6,21.601v175.413H62.375c-17.041,0-30.871,13.818-30.871,30.873v160.545
		c0,17.038,13.83,30.87,30.871,30.87h13.226V529.2c0,11.907,9.682,21.601,21.6,21.601h356.4c11.907,0,21.601-9.693,21.601-21.601
		V419.302h13.226c17.054,0,30.87-13.827,30.87-30.87v-160.54C519.297,210.832,505.48,197.019,488.427,197.019z M97.201,21.605
		h250.193v110.51c0,5.967,4.841,10.8,10.8,10.8h95.407v54.108h-356.4V21.605z M363.847,381.249l-9.914,26.567
		c-21.621-6.297-39.635-12.825-59.906-21.399c-3.375-1.351-6.981-2.025-10.581-2.247c-34.225-2.246-66.203-27.475-66.203-77.019
		c0-45.488,28.814-79.713,74.083-79.713c46.396,0,71.835,35.121,71.835,76.57c0,34.451-15.989,58.762-36.028,67.779v0.907
		C338.851,376.07,351.897,378.771,363.847,381.249z M69.038,381.691v-151.77h34.459v58.324h56.521v-58.324h34.225v151.77h-34.225
		v-63.508h-56.521v63.508H69.038z M453.601,523.353h-356.4V419.302h356.4V523.353z M494.017,381.691H376.018v-18.467l72.289-104.04
		v-0.896h-65.539v-28.371h110.12v19.817l-70.706,102.689v0.896h71.835V381.691L494.017,381.691z"/>
	<path d="M290.43,254.687c-23.427,0-36.938,22.971-36.938,51.353c-0.222,28.824,13.732,50.878,36.706,50.878
		c23.203,0,36.703-21.832,36.703-51.553C326.901,277.657,313.844,254.687,290.43,254.687z"/>
</g>
<g>
</g>
<g>
</g>
<g>
</g>
<g>
</g>
<g>
</g>
<g>
</g>
<g>
</g>
<g>
</g>
<g>
</g>
<g>
</g>
<g>
</g>
<g>
</g>
<g>
</g>
<g>
</g>
<g>
</g>
</svg>
