<?xml version="1.0" encoding="iso-8859-1"?>
<!-- Generator: Adobe Illustrator 19.0.0, SVG Export Plug-In . SVG Version: 6.00 Build 0)  -->
<svg version="1.1" id="Capa_1" xmlns="http://www.w3.org/2000/svg" xmlns:xlink="http://www.w3.org/1999/xlink" x="0px" y="0px"
	 viewBox="0 0 490 490" style="enable-background:new 0 0 490 490;" xml:space="preserve">
<g>
	<path d="M166.075,346.909c0,5.742-0.598,9.436-1.794,11.066c-1.196,1.645-3.888,2.467-8.09,2.467
		c-7.028,0-10.662-2.288-10.871-6.849c-0.12-1.884-0.165-3.484-0.165-4.815c0-1.391-0.12-3.484-0.344-6.296h-13.638l-0.164,5.578
		c0,10.318,1.555,17.002,4.665,20.053c3.11,3.051,9.899,4.576,20.352,4.576c9.824,0,16.344-1.585,19.544-4.74
		c3.2-3.17,4.8-9.6,4.8-19.275v-52.009h-14.296V346.909z"/>
	<path d="M227.758,296.665h-3.753h-30.371v75.366h14.296v-24.344h16.853l3.305-0.06c10.303,0,17.152-1.66,20.546-4.965
		c3.38-3.32,5.069-10.019,5.069-20.113c0-10.154-1.764-17.017-5.324-20.561C244.835,298.429,237.957,296.665,227.758,296.665z
		 M236.566,333.406c-1.75,1.495-5.862,2.243-12.337,2.243H207.93v-26.946h17.735c6.101,0,9.884,0.763,11.335,2.288
		c1.465,1.525,2.183,5.473,2.183,11.843C239.183,328.396,238.316,331.91,236.566,333.406z"/>
	<path d="M292.478,331.94v10.542h18.946l-0.06,3.095c0,6.445-1.062,10.527-3.17,12.262c-2.123,1.735-7.073,2.602-14.894,2.602
		c-8.015,0-13.144-1.032-15.342-3.065c-2.213-2.049-3.32-6.804-3.32-14.281l-0.105-9.66l0.045-7.567
		c0-7.626,1.122-12.456,3.35-14.52c2.228-2.064,7.477-3.095,15.761-3.095c7.626,0,12.382,0.598,14.281,1.794
		c1.899,1.196,2.976,4.262,3.23,9.197h14.46c0-9.795-1.944-16.12-5.847-18.976c-3.903-2.841-12.561-4.277-25.959-4.277
		c-10.228,0-17.481,0.927-21.758,2.766c-4.262,1.839-7.447,5.413-9.555,10.707c-1.69,4.352-2.527,14.759-2.527,31.253
		c0,12.92,2.108,21.488,6.34,25.675c4.232,4.202,12.875,6.296,25.9,6.296c14.221,0,23.372-1.57,27.47-4.71
		c4.112-3.155,6.161-10.168,6.161-21.07l-0.224-14.969H292.478z"/>
	<path d="M77.788,0v265.111H42.189v139.615h0.001l35.59,35.591L77.788,490h370.023V102.422L345.388,0H77.788z M395.793,389.413
		H57.501v-108.99h338.292V389.413z M353.022,36.962l57.816,57.804h-57.816V36.962z"/>
</g>
<g>
</g>
<g>
</g>
<g>
</g>
<g>
</g>
<g>
</g>
<g>
</g>
<g>
</g>
<g>
</g>
<g>
</g>
<g>
</g>
<g>
</g>
<g>
</g>
<g>
</g>
<g>
</g>
<g>
</g>
</svg>
