<?xml version="1.0" encoding="iso-8859-1"?>
<!-- Generator: Adobe Illustrator 16.0.0, SVG Export Plug-In . SVG Version: 6.00 Build 0)  -->
<!DOCTYPE svg PUBLIC "-//W3C//DTD SVG 1.1//EN" "http://www.w3.org/Graphics/SVG/1.1/DTD/svg11.dtd">
<svg version="1.1" id="Capa_1" xmlns="http://www.w3.org/2000/svg" xmlns:xlink="http://www.w3.org/1999/xlink" x="0px" y="0px"
	 width="550.801px" height="550.801px" viewBox="0 0 550.801 550.801" style="enable-background:new 0 0 550.801 550.801;"
	 xml:space="preserve">
<g>
	<g>
		<path d="M416.476,272.452c0-14.57-10.114-23.284-27.991-23.284c-7.293,0-12.229,0.701-14.808,1.408v46.784
			c3.059,0.717,6.823,0.954,11.991,0.954C404.705,298.313,416.476,288.668,416.476,272.452z"/>
		<path d="M488.427,197.019h-13.226v-63.816c0-0.401-0.063-0.799-0.116-1.205c-0.021-2.531-0.833-5.021-2.563-6.992L366.325,3.694
			c-0.031-0.031-0.063-0.045-0.084-0.076c-0.633-0.707-1.371-1.295-2.151-1.804c-0.232-0.155-0.465-0.287-0.707-0.422
			c-0.675-0.366-1.393-0.675-2.131-0.896c-0.2-0.053-0.379-0.135-0.58-0.188C359.871,0.119,359.037,0,358.193,0H97.201
			c-11.918,0-21.6,9.693-21.6,21.601v175.413H62.375c-17.041,0-30.871,13.818-30.871,30.873v160.545
			c0,17.038,13.83,30.87,30.871,30.87h13.226V529.2c0,11.907,9.682,21.601,21.6,21.601h356.4c11.907,0,21.601-9.693,21.601-21.601
			V419.302h13.226c17.054,0,30.87-13.827,30.87-30.87v-160.54C519.297,210.832,505.48,197.019,488.427,197.019z M453.601,523.353
			h-356.4V419.302h356.4V523.353z M98.825,380.605l4.008-28.914c4.946,1.64,11.274,2.811,18.333,2.811
			c15.061,0,24.456-6.813,24.456-31.504v-99.691h35.743v100.166c0,45.141-21.642,60.888-56.436,60.888
			C116.699,384.36,105.884,382.957,98.825,380.605z M250.721,315.241c-26.346-9.171-43.496-23.746-43.496-46.786
			c0-27.047,22.56-47.746,59.962-47.746c17.869,0,31.016,3.763,40.434,8.002l-7.994,28.917c-6.35-3.056-17.635-7.528-33.159-7.528
			c-15.515,0-23.035,7.048-23.035,15.277c0,10.106,8.931,14.579,29.381,22.331c27.973,10.356,41.156,24.943,41.156,47.281
			c0,26.562-20.45,49.138-63.982,49.138c-18.102,0-35.965-4.704-44.891-9.64l7.291-29.626c9.637,4.936,24.445,9.882,39.728,9.882
			c16.463,0,25.151-6.823,25.151-17.181C277.278,327.702,269.758,322.06,250.721,315.241z M338.176,381.787V225.424
			c11.032-1.885,26.578-3.288,48.432-3.288c22.105,0,37.863,4.222,48.441,12.693c10.114,7.986,16.938,21.152,16.938,36.682
			c0,15.522-5.163,28.679-14.581,37.624c-12.24,11.517-30.333,16.706-51.49,16.706c-4.714,0-8.949-0.243-12.239-0.723v56.674
			h-35.501V381.787z M453.601,197.019h-356.4V21.605h250.193v110.51c0,5.967,4.841,10.8,10.8,10.8h95.407V197.019z"/>
	</g>
</g>
<g>
</g>
<g>
</g>
<g>
</g>
<g>
</g>
<g>
</g>
<g>
</g>
<g>
</g>
<g>
</g>
<g>
</g>
<g>
</g>
<g>
</g>
<g>
</g>
<g>
</g>
<g>
</g>
<g>
</g>
</svg>
