<?xml version="1.0" encoding="iso-8859-1"?>
<!-- Generator: Adobe Illustrator 16.0.0, SVG Export Plug-In . SVG Version: 6.00 Build 0)  -->
<!DOCTYPE svg PUBLIC "-//W3C//DTD SVG 1.1//EN" "http://www.w3.org/Graphics/SVG/1.1/DTD/svg11.dtd">
<svg version="1.1" id="Capa_1" xmlns="http://www.w3.org/2000/svg" xmlns:xlink="http://www.w3.org/1999/xlink" x="0px" y="0px"
	 width="548.291px" height="548.291px" viewBox="0 0 548.291 548.291" style="enable-background:new 0 0 548.291 548.291;"
	 xml:space="preserve">
<g>
	<path d="M486.201,196.116h-13.166V132.59c0-0.399-0.062-0.795-0.115-1.2c-0.021-2.522-0.825-5-2.552-6.96L364.657,3.677
		c-0.033-0.034-0.064-0.044-0.085-0.075c-0.63-0.704-1.364-1.292-2.143-1.796c-0.229-0.157-0.461-0.286-0.702-0.419
		c-0.672-0.365-1.387-0.672-2.121-0.893c-0.2-0.052-0.379-0.134-0.577-0.188C358.23,0.118,357.401,0,356.562,0H96.757
		C84.894,0,75.256,9.649,75.256,21.502v174.613H62.092c-16.971,0-30.732,13.756-30.732,30.73v159.81
		c0,16.966,13.761,30.736,30.732,30.736h13.164V526.79c0,11.854,9.638,21.501,21.501,21.501h354.776
		c11.853,0,21.501-9.647,21.501-21.501V417.392h13.166c16.966,0,30.729-13.764,30.729-30.731V226.854
		C516.93,209.872,503.167,196.116,486.201,196.116z M96.757,21.502h249.054v110.006c0,5.94,4.817,10.751,10.751,10.751h94.972
		v53.861H96.757V21.502z M314.324,289.211v26.803h-53.622v34.594h59.891v27.025h-92.965V231.932h89.937v27.012h-56.857v30.268
		H314.324z M94.859,377.633V231.932h32.647v64.418h0.646c3.247-5.627,6.703-10.813,9.95-16l33.08-48.423h40.422l-48.213,62.039
		l50.803,83.66h-38.478l-35.675-62.908l-12.536,15.345v47.563H94.859V377.633z M451.534,520.962H96.757v-103.57h354.776V520.962z
		 M409.685,316.886v60.747h-32.861v-59.666l-46.043-86.04h37.613l14.908,35.017c4.551,10.594,7.578,18.383,11.248,27.885h0.437
		c3.243-9.082,6.697-17.501,11.028-27.885l14.693-35.017h36.967L409.685,316.886z"/>
</g>
<g>
</g>
<g>
</g>
<g>
</g>
<g>
</g>
<g>
</g>
<g>
</g>
<g>
</g>
<g>
</g>
<g>
</g>
<g>
</g>
<g>
</g>
<g>
</g>
<g>
</g>
<g>
</g>
<g>
</g>
</svg>
