<?xml version="1.0" encoding="iso-8859-1"?>
<!-- Generator: Adobe Illustrator 16.0.0, SVG Export Plug-In . SVG Version: 6.00 Build 0)  -->
<!DOCTYPE svg PUBLIC "-//W3C//DTD SVG 1.1//EN" "http://www.w3.org/Graphics/SVG/1.1/DTD/svg11.dtd">
<svg version="1.1" id="Capa_1" xmlns="http://www.w3.org/2000/svg" xmlns:xlink="http://www.w3.org/1999/xlink" x="0px" y="0px"
	 width="550.801px" height="550.801px" viewBox="0 0 550.801 550.801" style="enable-background:new 0 0 550.801 550.801;"
	 xml:space="preserve">
<g>
	<path d="M190.124,304.151c-1.439-4.799-2.876-10.79-4.082-15.599h-0.243c-1.2,4.809-2.397,10.926-3.715,15.599l-4.807,17.175
		h17.891L190.124,304.151z"/>
	<path d="M488.426,197.019H475.2v-63.816c0-0.401-0.063-0.799-0.116-1.205c-0.021-2.534-0.827-5.023-2.562-6.992L366.325,3.691
		c-0.032-0.031-0.063-0.042-0.085-0.073c-0.633-0.707-1.371-1.298-2.151-1.804c-0.231-0.158-0.464-0.287-0.706-0.422
		c-0.676-0.366-1.393-0.675-2.131-0.896c-0.2-0.053-0.38-0.135-0.58-0.19C359.87,0.119,359.037,0,358.193,0H97.2
		c-11.918,0-21.6,9.693-21.6,21.601v175.413H62.377c-17.049,0-30.873,13.818-30.873,30.87v160.542
		c0,17.044,13.824,30.876,30.873,30.876h13.224V529.2c0,11.907,9.682,21.601,21.6,21.601h356.4c11.907,0,21.6-9.693,21.6-21.601
		V419.302h13.226c17.044,0,30.871-13.827,30.871-30.87V227.89C519.297,210.838,505.47,197.019,488.426,197.019z M97.2,21.605
		h250.193v110.51c0,5.967,4.841,10.8,10.8,10.8h95.407v54.108H97.2V21.605z M412.842,318.21v12.118h-31.445V318.21H412.842z
		 M321.363,321.923v33.86h-18.361v-80.907h18.361v31.095h30.133v-31.095h18.246v80.902h-18.246v-33.855H321.363L321.363,321.923z
		 M272.972,341.856c5.514,0,11.642-1.192,15.238-2.647l2.769,14.285c-3.365,1.693-10.927,3.486-20.778,3.486
		c-27.965,0-42.372-17.408-42.372-40.447c0-27.602,19.688-42.971,44.181-42.971c9.486,0,16.69,1.912,19.928,3.6l-3.728,14.518
		c-3.718-1.556-8.884-3.006-15.367-3.006c-14.515,0-25.803,8.764-25.803,26.778C247.04,331.652,256.643,341.856,272.972,341.856z
		 M223.729,355.778h-19.683l-6.241-20.767h-23.167l-5.764,20.767h-18.968l24.738-80.902h24.007L223.729,355.778z M88.784,354.46
		l-8.641-31.335c-2.642-9.481-5.4-21.01-7.322-31.566h-0.237c-0.482,10.921-0.844,23.403-1.447,33.486l-1.438,30.728H52.774
		l5.163-80.902h24.366l7.926,27.003c2.518,9.36,5.039,19.448,6.842,28.936h0.356c2.286-9.36,5.039-20.039,7.686-29.057l8.641-26.887
		h23.883l4.438,80.902h-17.879l-1.197-30.977c-0.358-9.703-0.72-21.483-0.72-33.243h-0.361c-2.521,10.314-5.88,21.858-9.002,31.34
		l-9.848,31.566H88.784V354.46z M453.601,523.353H97.2V419.302h356.4V523.353z M460.15,357.102
		c-24.005,0-38.048-18.114-38.048-41.175c0-24.247,15.482-42.369,39.366-42.369c24.858,0,38.422,18.591,38.422,40.93
		C499.891,341.013,483.807,357.102,460.15,357.102z"/>
	<path d="M460.988,288.078c-12.36,0-19.564,11.76-19.564,27.484c0,15.847,7.446,27.011,19.686,27.011
		c12.372,0,19.449-11.76,19.449-27.475C480.553,300.555,473.598,288.078,460.988,288.078z"/>
</g>
<g>
</g>
<g>
</g>
<g>
</g>
<g>
</g>
<g>
</g>
<g>
</g>
<g>
</g>
<g>
</g>
<g>
</g>
<g>
</g>
<g>
</g>
<g>
</g>
<g>
</g>
<g>
</g>
<g>
</g>
</svg>
