<?xml version="1.0" encoding="iso-8859-1"?>
<!-- Generator: Adobe Illustrator 16.0.0, SVG Export Plug-In . SVG Version: 6.00 Build 0)  -->
<!DOCTYPE svg PUBLIC "-//W3C//DTD SVG 1.1//EN" "http://www.w3.org/Graphics/SVG/1.1/DTD/svg11.dtd">
<svg version="1.1" id="Capa_1" xmlns="http://www.w3.org/2000/svg" xmlns:xlink="http://www.w3.org/1999/xlink" x="0px" y="0px"
	 width="548.29px" height="548.291px" viewBox="0 0 548.29 548.291" style="enable-background:new 0 0 548.29 548.291;"
	 xml:space="preserve">
<g>
	<g>
		<path d="M283.101,253.248c-6.535,0-10.761,0.575-13.26,1.155v84.748c2.499,0.587,6.531,0.587,10.186,0.587
			c26.524,0.189,43.82-14.421,43.82-45.36C324.035,267.463,308.277,253.248,283.101,253.248z"/>
		<path d="M486.205,196.116h-13.166V132.59c0-0.399-0.062-0.795-0.109-1.2c-0.021-2.52-0.828-4.997-2.556-6.96L364.656,3.677
			c-0.031-0.031-0.064-0.044-0.085-0.075c-0.629-0.704-1.364-1.29-2.141-1.796c-0.231-0.154-0.462-0.283-0.704-0.419
			c-0.672-0.365-1.386-0.672-2.121-0.893c-0.199-0.052-0.377-0.134-0.576-0.186C358.229,0.118,357.4,0,356.562,0H96.757
			C84.893,0,75.256,9.649,75.256,21.502v174.613H62.093c-16.972,0-30.733,13.756-30.733,30.733v159.812
			c0,16.961,13.761,30.731,30.733,30.731h13.163V526.79c0,11.854,9.637,21.501,21.501,21.501h354.777
			c11.853,0,21.502-9.647,21.502-21.501V417.392H486.2c16.966,0,30.729-13.771,30.729-30.731V226.849
			C516.93,209.872,503.177,196.116,486.205,196.116z M96.757,21.502h249.053v110.006c0,5.943,4.818,10.751,10.751,10.751h94.973
			v53.861H96.757V21.502z M354.98,293.416c0,24.788-9.034,41.901-21.528,52.479c-13.642,11.323-34.394,16.709-59.769,16.709
			c-15.181,0-25.948-0.972-33.257-1.916V233.449c10.766-1.732,24.795-2.687,39.596-2.687c24.596,0,40.56,4.417,53.043,13.834
			C346.535,254.592,354.98,270.54,354.98,293.416z M74.961,361.26l8.26-129.549h39.021l12.68,43.243
			c4.032,14.991,8.074,31.139,10.956,46.32h0.574c3.662-14.992,8.074-32.095,12.305-46.505l13.839-43.059h38.252l7.105,129.549
			h-28.638l-1.919-49.591c-0.578-15.565-1.152-34.401-1.152-53.235h-0.575c-4.037,16.521-9.418,34.981-14.417,50.163l-15.759,50.536
			h-22.869l-13.84-50.152c-4.226-15.176-8.644-33.64-11.725-50.547h-0.385c-0.769,17.491-1.344,37.48-2.308,53.633l-2.305,49.193
			H74.961z M451.534,520.962H96.757v-103.57h354.777V520.962z M456.84,350.88c-9.422,7.492-25.181,11.723-50.934,11.723
			c-14.416,0-25.183-0.972-31.719-1.916V233.449c7.697-1.533,23.256-2.687,37.871-2.687c17.869,0,28.828,1.719,38.247,7.304
			c9.029,4.8,15.563,13.638,15.563,25.365c0,11.533-6.729,22.299-21.334,27.675v0.382c14.795,4.043,25.754,15.182,25.754,31.913
			C470.294,335.117,464.908,344.351,456.84,350.88z"/>
		<path d="M436.467,267.078c0-9.793-7.495-14.982-20.755-14.982c-6.347,0-9.995,0.376-12.494,0.77v30.174h9.606
			C428.2,283.028,436.467,276.697,436.467,267.078z"/>
		<path d="M413.208,303.994h-9.99v36.515c2.883,0.374,6.342,0.374,11.339,0.374c13.265,0,24.977-4.988,24.977-18.636
			C439.533,309.179,427.821,303.994,413.208,303.994z"/>
	</g>
</g>
<g>
</g>
<g>
</g>
<g>
</g>
<g>
</g>
<g>
</g>
<g>
</g>
<g>
</g>
<g>
</g>
<g>
</g>
<g>
</g>
<g>
</g>
<g>
</g>
<g>
</g>
<g>
</g>
<g>
</g>
</svg>
