<?xml version="1.0" encoding="iso-8859-1"?>
<!-- Generator: Adobe Illustrator 16.0.0, SVG Export Plug-In . SVG Version: 6.00 Build 0)  -->
<!DOCTYPE svg PUBLIC "-//W3C//DTD SVG 1.1//EN" "http://www.w3.org/Graphics/SVG/1.1/DTD/svg11.dtd">
<svg version="1.1" id="Capa_1" xmlns="http://www.w3.org/2000/svg" xmlns:xlink="http://www.w3.org/1999/xlink" x="0px" y="0px"
	 width="550.801px" height="550.801px" viewBox="0 0 550.801 550.801" style="enable-background:new 0 0 550.801 550.801;"
	 xml:space="preserve">
<g>
	<path d="M488.427,197.019h-13.226v-63.816c0-0.401-0.063-0.799-0.116-1.205c-0.021-2.531-0.833-5.021-2.563-6.992L366.325,3.694
		c-0.031-0.031-0.063-0.045-0.084-0.076c-0.633-0.707-1.371-1.295-2.151-1.804c-0.232-0.155-0.465-0.287-0.707-0.422
		c-0.675-0.366-1.393-0.675-2.131-0.896c-0.2-0.053-0.379-0.135-0.58-0.188C359.871,0.119,359.037,0,358.193,0H97.201
		c-11.918,0-21.6,9.693-21.6,21.601v175.413H62.375c-17.041,0-30.871,13.818-30.871,30.873v160.545
		c0,17.038,13.83,30.87,30.871,30.87h13.226V529.2c0,11.907,9.682,21.601,21.6,21.601h356.4c11.907,0,21.601-9.693,21.601-21.601
		V419.302h13.226c17.054,0,30.87-13.827,30.87-30.87v-160.54C519.297,210.832,505.48,197.019,488.427,197.019z M97.201,21.605
		h250.193v110.51c0,5.967,4.841,10.8,10.8,10.8h95.407v54.108h-356.4V21.605z M290.029,229.036v151.77h-34.47v-151.77H290.029z
		 M96.114,323.151l-2.71,57.654H61.647l9.692-151.77h45.71l14.861,50.667c4.735,17.561,9.46,36.482,12.835,54.264h0.675
		c4.282-17.561,9.45-37.609,14.42-54.484l16.21-50.446h44.813l8.332,151.77h-33.549l-2.257-58.092
		c-0.675-18.252-1.35-40.315-1.35-62.391h-0.675c-4.726,19.375-11.043,40.985-16.896,58.778L156,378.327H129.21L113,319.561
		c-4.957-17.799-10.136-39.409-13.732-59.237h-0.454C97.918,280.826,97.222,304.23,96.114,323.151z M453.601,523.353h-356.4V419.302
		h356.4V523.353z M450.363,380.806l-2.247-58.092c-0.675-18.252-1.35-40.315-1.35-62.391h-0.675
		c-4.736,19.375-11.032,40.985-16.896,58.778l-18.457,59.226h-26.8l-16.221-58.767c-4.957-17.799-10.125-39.409-13.732-59.237
		h-0.453c-0.896,20.503-1.571,43.907-2.7,62.828l-2.7,57.654h-31.746l9.672-151.77h45.71l14.871,50.667
		c4.725,17.561,9.45,36.482,12.836,54.264h0.675c4.271-17.561,9.46-37.609,14.417-54.484l16.2-50.446h44.824l8.321,151.77H450.363z"
		/>
</g>
<g>
</g>
<g>
</g>
<g>
</g>
<g>
</g>
<g>
</g>
<g>
</g>
<g>
</g>
<g>
</g>
<g>
</g>
<g>
</g>
<g>
</g>
<g>
</g>
<g>
</g>
<g>
</g>
<g>
</g>
</svg>
