<?xml version="1.0" encoding="iso-8859-1"?>
<!-- Generator: Adobe Illustrator 19.0.0, SVG Export Plug-In . SVG Version: 6.00 Build 0)  -->
<svg version="1.1" id="Capa_1" xmlns="http://www.w3.org/2000/svg" xmlns:xlink="http://www.w3.org/1999/xlink" x="0px" y="0px"
	 viewBox="0 0 490 490" style="enable-background:new 0 0 490 490;" xml:space="preserve">
<g>
	<path d="M127.225,330.953c0-3.065-0.12-6.729-0.329-10.991l-0.284-5.518l-0.269-5.473h0.434l1.72,5.189l1.705,5.249
		c1.51,4.636,2.722,8.12,3.649,10.438l16.733,42.184h13.025l16.569-42.513c0.852-2.243,2.049-5.727,3.589-10.438l1.66-5.249
		l1.705-5.249h0.449l-0.284,5.578l-0.269,5.638c-0.179,4.157-0.284,7.88-0.284,11.155v41.078h14.311v-75.366h-23.806l-13.249,35.006
		c-0.987,2.542-2.168,5.996-3.529,10.378l-1.66,5.189l-1.6,5.189h-0.493l-1.72-5.189l-1.66-5.249c-1.51-4.531-2.722-8-3.634-10.438
		l-13.473-34.887h-23.313v75.366h14.311V330.953z"/>
	<path d="M243.295,372.689c15.193,0,24.778-2.243,28.741-6.729c3.948-4.501,5.922-15.372,5.922-32.644
		c0-15.791-1.974-25.959-5.907-30.505s-12.755-6.819-26.438-6.819c-15.387,0-25.062,2.303-28.995,6.909
		c-3.933,4.606-5.907,15.881-5.907,33.84c0,15.103,2.004,24.868,6.011,29.294C220.745,370.476,229.598,372.689,243.295,372.689z
		 M227.654,311.947c1.63-2.467,7.238-3.693,16.853-3.693c9.271,0,14.744,1.151,16.419,3.454c1.675,2.303,2.512,9.765,2.512,22.385
		c0,12.591-0.882,20.128-2.647,22.61c-1.765,2.482-7.088,3.738-15.956,3.738c-9.271,0-14.864-1.107-16.763-3.32
		c-1.899-2.213-2.841-8.718-2.841-19.544C225.231,322.953,226.039,314.415,227.654,311.947z"/>
	<path d="M326.721,372.031l24.285-75.366h-15.133l-13.967,42.737c-1.241,3.828-2.751,8.942-4.531,15.342l-1.436,5.144h-0.374
		c-2.617-9.615-4.591-16.464-5.922-20.546l-14.131-42.678h-14.849l24.075,75.366H326.721z"/>
	<path d="M77.788,0v265.111H42.189v139.615h0.001l35.59,35.591L77.788,490h370.023V102.422L345.388,0H77.788z M395.793,389.413
		H57.501v-108.99h338.292V389.413z M353.022,36.962l57.816,57.804h-57.816V36.962z"/>
</g>
<g>
</g>
<g>
</g>
<g>
</g>
<g>
</g>
<g>
</g>
<g>
</g>
<g>
</g>
<g>
</g>
<g>
</g>
<g>
</g>
<g>
</g>
<g>
</g>
<g>
</g>
<g>
</g>
<g>
</g>
</svg>
