<?xml version="1.0" encoding="iso-8859-1"?>
<!-- Generator: Adobe Illustrator 16.0.0, SVG Export Plug-In . SVG Version: 6.00 Build 0)  -->
<!DOCTYPE svg PUBLIC "-//W3C//DTD SVG 1.1//EN" "http://www.w3.org/Graphics/SVG/1.1/DTD/svg11.dtd">
<svg version="1.1" id="Capa_1" xmlns="http://www.w3.org/2000/svg" xmlns:xlink="http://www.w3.org/1999/xlink" x="0px" y="0px"
	 width="550.801px" height="550.801px" viewBox="0 0 550.801 550.801" style="enable-background:new 0 0 550.801 550.801;"
	 xml:space="preserve">
<g>
	<path d="M488.426,197.014H475.2v-63.817c0-0.401-0.063-0.799-0.116-1.205c-0.021-2.534-0.827-5.023-2.562-6.993L366.325,3.694
		c-0.032-0.034-0.063-0.045-0.085-0.076c-0.633-0.707-1.371-1.298-2.151-1.804c-0.231-0.158-0.464-0.287-0.706-0.422
		c-0.676-0.366-1.393-0.675-2.131-0.896c-0.2-0.053-0.38-0.135-0.58-0.19C359.87,0.119,359.037,0,358.193,0H97.2
		c-11.918,0-21.6,9.693-21.6,21.601v175.413H62.377c-17.049,0-30.873,13.818-30.873,30.87v160.542
		c0,17.044,13.824,30.876,30.873,30.876h13.224V529.2c0,11.907,9.682,21.601,21.6,21.601h356.4c11.907,0,21.6-9.693,21.6-21.601
		V419.302h13.226c17.044,0,30.871-13.827,30.871-30.87v-160.54C519.297,210.832,505.47,197.014,488.426,197.014z M97.2,21.601
		h250.193v110.51c0,5.967,4.841,10.8,10.8,10.8h95.407v54.108H97.2V21.601z M386.037,339.963c0,14.935-6.855,26.679-17.128,35
		c-11.992,9.55-32.062,14.939-64.863,14.939c-18.362,0-32.073-1.229-40.395-2.446V225.413c9.806-1.951,29.615-3.419,48.22-3.419
		c22.761,0,36.725,2.205,48.717,9.294c11.506,6.128,19.828,17.381,19.828,32.313c0,14.678-8.564,28.389-27.18,35.245v0.485
		C372.094,304.483,386.037,318.68,386.037,339.963z M80.592,306.93c0-49.443,31.566-86.41,80.28-86.41
		c50.67,0,78.323,37.935,78.323,83.468c0,54.101-32.801,86.896-81.013,86.896C109.221,390.884,80.592,353.927,80.592,306.93z
		 M453.601,523.347H97.2V419.302h356.4V523.347z M481.001,327.491c0,46.992-22.528,63.393-58.746,63.393
		c-8.563,0-19.828-1.461-27.169-3.929l4.156-30.096c5.146,1.714,11.754,2.932,19.1,2.932c15.662,0,25.45-7.093,25.45-32.79V223.22
		h37.215v104.271H481.001z"/>
	<path d="M160.134,361.263c25.217,0,39.646-23.979,39.646-56.046c0-29.621-14.186-55.084-39.899-55.084
		c-25.196,0-39.88,23.991-39.88,56.059C120,338.502,135.159,361.263,160.134,361.263z"/>
	<path d="M342.953,268.255c0-12.479-9.534-19.087-26.431-19.087c-8.079,0-12.72,0.485-15.904,0.97v38.436h12.245
		C332.438,288.573,342.953,280.494,342.953,268.255z"/>
	<path d="M313.338,315.252h-12.72v46.496c3.67,0.49,8.079,0.49,14.438,0.49c16.886,0,31.825-6.365,31.825-23.736
		C346.877,321.859,331.942,315.252,313.338,315.252z"/>
</g>
<g>
</g>
<g>
</g>
<g>
</g>
<g>
</g>
<g>
</g>
<g>
</g>
<g>
</g>
<g>
</g>
<g>
</g>
<g>
</g>
<g>
</g>
<g>
</g>
<g>
</g>
<g>
</g>
<g>
</g>
</svg>
