<?xml version="1.0" encoding="iso-8859-1"?>
<!-- Generator: Adobe Illustrator 16.0.0, SVG Export Plug-In . SVG Version: 6.00 Build 0)  -->
<!DOCTYPE svg PUBLIC "-//W3C//DTD SVG 1.1//EN" "http://www.w3.org/Graphics/SVG/1.1/DTD/svg11.dtd">
<svg version="1.1" id="Capa_1" xmlns="http://www.w3.org/2000/svg" xmlns:xlink="http://www.w3.org/1999/xlink" x="0px" y="0px"
	 width="550.801px" height="550.801px" viewBox="0 0 550.801 550.801" style="enable-background:new 0 0 550.801 550.801;"
	 xml:space="preserve">
<g>
	<path d="M165.17,301.952c0-25.872-12.398-48.112-34.845-48.112c-22.021,0-34.852,20.967-34.852,48.977
		c0,28.229,13.257,48.089,35.068,48.089C152.561,350.916,165.17,329.97,165.17,301.952z"/>
	<path d="M268.455,254.272c-7.272,0-11.971,0.641-14.747,1.294v94.279c2.782,0.643,7.275,0.643,11.341,0.643
		c29.499,0.211,48.731-16.047,48.731-50.472C314.002,270.093,296.473,254.272,268.455,254.272z"/>
	<path d="M488.426,197.021H475.2v-63.825c0-0.398-0.063-0.799-0.116-1.203c-0.021-2.533-0.827-5.022-2.562-6.995L366.325,3.694
		c-0.032-0.031-0.063-0.042-0.085-0.074c-0.633-0.709-1.371-1.297-2.151-1.803c-0.231-0.158-0.464-0.288-0.706-0.422
		c-0.676-0.369-1.393-0.675-2.131-0.896c-0.2-0.056-0.38-0.138-0.58-0.19C359.87,0.119,359.037,0,358.193,0H97.2
		c-11.918,0-21.6,9.695-21.6,21.601v175.413H62.377c-17.049,0-30.873,13.818-30.873,30.873v160.545
		c0,17.043,13.824,30.87,30.873,30.87h13.224V529.2c0,11.907,9.682,21.601,21.6,21.601h356.4c11.907,0,21.6-9.693,21.6-21.601
		V419.302h13.226c17.044,0,30.871-13.827,30.871-30.87v-160.54C519.297,210.832,505.47,197.021,488.426,197.021z M97.2,21.601
		h250.193v110.513c0,5.967,4.841,10.8,10.8,10.8h95.407v54.108H97.2V21.601z M348.427,298.962c0,27.591-10.051,46.617-23.962,58.366
		c-15.178,12.614-38.265,18.615-66.49,18.615c-16.891,0-28.862-1.075-36.988-2.151V232.25c11.971-1.917,27.588-2.988,44.052-2.988
		c27.354,0,45.104,4.915,59.005,15.401C339.009,255.772,348.427,273.523,348.427,298.962z M61.054,303.455
		c0-43.2,27.577-75.476,70.124-75.476c44.26,0,68.412,33.149,68.412,72.903c0,47.261-28.64,75.905-70.772,75.905
		C86.055,376.787,61.054,344.514,61.054,303.455z M453.601,523.347H97.2V419.302h356.4V523.347z M443.581,349.635
		c9.824,0,20.735-2.136,27.147-4.715l4.92,25.466c-5.985,2.984-19.464,6.186-36.993,6.186c-49.802,0-75.479-30.997-75.479-72.062
		c0-49.164,35.068-76.536,78.685-76.536c16.892,0,29.716,3.417,35.49,6.415l-6.634,25.861c-6.623-2.766-15.814-5.337-27.358-5.337
		c-25.871,0-45.974,15.612-45.974,47.683C397.406,331.457,414.503,349.635,443.581,349.635z"/>
</g>
<g>
</g>
<g>
</g>
<g>
</g>
<g>
</g>
<g>
</g>
<g>
</g>
<g>
</g>
<g>
</g>
<g>
</g>
<g>
</g>
<g>
</g>
<g>
</g>
<g>
</g>
<g>
</g>
<g>
</g>
</svg>
