<svg xmlns="http://www.w3.org/2000/svg" id="Layer_1" viewBox="0 0 159.7 73.3">
    <style>
        .st0{fill:#555}
    </style>
    <path d="M50.4 23.9h-7.1v8.9h7.1c3.9 0 5.9-1.5 5.9-4.4-.1-3-2-4.5-5.9-4.5zM80.9 24.2h-5.2v22.1h5.2c7.3 0 10.9-3.7 10.9-11.1.1-7.3-3.6-11-10.9-11z" class="st0"/>
    <path d="M148.5 0H11.2C5 0 0 5 0 11.2v50.9c0 6.2 5 11.2 11.2 11.2h137.3c6.2 0 11.2-5 11.2-11.2V11.2c0-6.2-5-11.2-11.2-11.2zM60.1 35.8c-2.1 1.8-5 2.8-8.8 2.8h-8v13.8h-7.5V18.2h15.5c3.8 0 6.7.9 8.8 2.7 2.1 1.8 3.1 4.3 3.1 7.4.1 3.2-1 5.6-3.1 7.5zm37.2 8.6c-1.4 2.6-3.5 4.5-6.1 5.9-2.7 1.4-5.9 2-9.7 2H68.2V18.2h13.2c3.7 0 7 .7 9.6 2 2.7 1.3 4.7 3.3 6.2 5.9 1.4 2.6 2.1 5.6 2.1 9.2.1 3.5-.6 6.6-2 9.1zm31-20.3h-15.6V32h14.7v6h-14.7v14.4h-7.4V18.2h23v5.9z" class="st0"/>
</svg>
