<?xml version="1.0" encoding="iso-8859-1"?>
<!-- Generator: Adobe Illustrator 16.0.0, SVG Export Plug-In . SVG Version: 6.00 Build 0)  -->
<!DOCTYPE svg PUBLIC "-//W3C//DTD SVG 1.1//EN" "http://www.w3.org/Graphics/SVG/1.1/DTD/svg11.dtd">
<svg version="1.1" id="Capa_1" xmlns="http://www.w3.org/2000/svg" xmlns:xlink="http://www.w3.org/1999/xlink" x="0px" y="0px"
	 width="550.801px" height="550.801px" viewBox="0 0 550.801 550.801" style="enable-background:new 0 0 550.801 550.801;"
	 xml:space="preserve">
<g>
	<path d="M488.432,197.019h-13.226v-63.816c0-0.398-0.063-0.799-0.111-1.205c-0.021-2.531-0.833-5.021-2.568-6.992L366.325,3.694
		c-0.032-0.031-0.063-0.042-0.085-0.076c-0.633-0.707-1.371-1.295-2.151-1.804c-0.231-0.155-0.464-0.285-0.706-0.422
		c-0.676-0.366-1.393-0.675-2.131-0.896c-0.2-0.053-0.38-0.135-0.58-0.188C359.87,0.119,359.037,0,358.193,0H97.2
		c-11.918,0-21.6,9.693-21.6,21.601v175.413H62.377c-17.049,0-30.873,13.818-30.873,30.873v160.545
		c0,17.038,13.824,30.87,30.873,30.87h13.224V529.2c0,11.907,9.682,21.601,21.6,21.601h356.4c11.907,0,21.6-9.693,21.6-21.601
		V419.302h13.226c17.044,0,30.871-13.827,30.871-30.87v-160.54C519.297,210.832,505.48,197.019,488.432,197.019z M453.601,523.353
		H97.2V419.302h356.4V523.353z M119.099,384.466V221.693c11.501-1.962,27.669-3.431,50.43-3.431
		c23.011,0,39.403,4.406,50.414,13.213c10.531,8.321,17.632,22.032,17.632,38.18c0,16.155-5.39,29.866-15.18,39.168
		c-12.722,11.997-31.58,17.387-53.612,17.387c-4.892,0-9.292-0.259-12.723-0.743v58.988h-36.961V384.466z M261.297,384.466V219.489
		h37.46v164.977H261.297z M427.734,287.777v30.343h-59.227v66.335h-37.462V219.489h100.849v30.596h-63.387v37.692H427.734z
		 M453.601,197.019H97.2V21.601h250.193v110.51c0,5.967,4.841,10.8,10.8,10.8h95.407V197.019z"/>
	<path d="M200.61,270.644c0-15.18-10.528-24.226-29.123-24.226c-7.597,0-12.738,0.741-15.422,1.463v48.713
		c3.182,0.733,7.103,0.977,12.479,0.977C188.362,297.57,200.61,287.54,200.61,270.644z"/>
</g>
<g>
</g>
<g>
</g>
<g>
</g>
<g>
</g>
<g>
</g>
<g>
</g>
<g>
</g>
<g>
</g>
<g>
</g>
<g>
</g>
<g>
</g>
<g>
</g>
<g>
</g>
<g>
</g>
<g>
</g>
</svg>
