<?xml version="1.0" encoding="iso-8859-1"?>
<!-- Generator: Adobe Illustrator 19.0.0, SVG Export Plug-In . SVG Version: 6.00 Build 0)  -->
<svg version="1.1" id="Capa_1" xmlns="http://www.w3.org/2000/svg" xmlns:xlink="http://www.w3.org/1999/xlink" x="0px" y="0px"
	 viewBox="0 0 490 490" style="enable-background:new 0 0 490 490;" xml:space="preserve">
<g>
	<path d="M147.772,347.686h16.838l3.32-0.06c10.303,0,17.152-1.66,20.531-4.965c3.395-3.32,5.084-10.019,5.084-20.113
		c0-10.154-1.779-17.017-5.324-20.561c-3.559-3.559-10.438-5.323-20.636-5.323h-3.753h-30.371v75.366h14.311V347.686z
		 M147.772,308.702h17.72c6.116,0,9.899,0.763,11.35,2.288s2.183,5.473,2.183,11.843c0,5.563-0.882,9.077-2.632,10.572
		c-1.75,1.495-5.862,2.243-12.337,2.243h-16.285V308.702z"/>
	<path d="M216.962,347.686H233.8l3.32-0.06c10.303,0,17.152-1.66,20.531-4.965c3.394-3.32,5.084-10.019,5.084-20.113
		c0-10.154-1.779-17.017-5.323-20.561c-3.559-3.559-10.438-5.323-20.636-5.323h-3.753h-30.371v75.366h14.311V347.686z
		 M216.962,308.702h17.72c6.116,0,9.899,0.763,11.35,2.288s2.183,5.473,2.183,11.843c0,5.563-0.882,9.077-2.632,10.572
		c-1.75,1.495-5.862,2.243-12.337,2.243h-16.285V308.702z"/>
	<polygon points="287.588,372.031 301.884,372.031 301.884,309.465 324.419,309.465 324.419,296.665 265.83,296.665 265.83,309.465 
		287.588,309.465 	"/>
	<path d="M77.788,0v265.111H42.189v139.615h0.001l35.59,35.591L77.788,490h370.023V102.422L345.388,0H77.788z M395.793,389.413
		H57.501v-108.99h338.292V389.413z M353.022,36.962l57.816,57.804h-57.816V36.962z"/>
</g>
<g>
</g>
<g>
</g>
<g>
</g>
<g>
</g>
<g>
</g>
<g>
</g>
<g>
</g>
<g>
</g>
<g>
</g>
<g>
</g>
<g>
</g>
<g>
</g>
<g>
</g>
<g>
</g>
<g>
</g>
</svg>
