<?xml version="1.0" encoding="iso-8859-1"?>
<!-- Generator: Adobe Illustrator 16.0.0, SVG Export Plug-In . SVG Version: 6.00 Build 0)  -->
<!DOCTYPE svg PUBLIC "-//W3C//DTD SVG 1.1//EN" "http://www.w3.org/Graphics/SVG/1.1/DTD/svg11.dtd">
<svg version="1.1" id="Capa_1" xmlns="http://www.w3.org/2000/svg" xmlns:xlink="http://www.w3.org/1999/xlink" x="0px" y="0px"
	 width="548.29px" height="548.291px" viewBox="0 0 548.29 548.291" style="enable-background:new 0 0 548.29 548.291;"
	 xml:space="preserve">
<g>
	<path d="M130.826,275.258c0-12.612-8.546-18.911-22.77-19.11c-7.515,0-11.798,0.608-14.034,1.01v37.828h12.202
		C121.684,294.987,130.826,287.258,130.826,275.258z"/>
	<path d="M209.506,303.123c0,26.845,12.612,45.753,33.355,45.753c20.938,0,32.935-19.937,32.935-46.565
		c0-24.601-11.788-45.758-33.145-45.758C221.704,256.552,209.506,276.487,209.506,303.123z"/>
	<path d="M486.2,196.116h-13.164V132.59c0-0.399-0.064-0.795-0.116-1.2c-0.021-2.52-0.824-4.997-2.551-6.96L364.656,3.677
		c-0.031-0.031-0.064-0.044-0.085-0.075c-0.629-0.704-1.364-1.29-2.141-1.796c-0.231-0.154-0.462-0.283-0.704-0.419
		c-0.672-0.365-1.386-0.672-2.121-0.893c-0.199-0.052-0.377-0.134-0.576-0.186C358.229,0.118,357.4,0,356.562,0H96.757
		C84.893,0,75.256,9.649,75.256,21.502v174.613H62.093c-16.967,0-30.733,13.756-30.733,30.733v159.812
		c0,16.961,13.766,30.731,30.733,30.731h13.163V526.79c0,11.854,9.637,21.501,21.501,21.501h354.777
		c11.853,0,21.502-9.647,21.502-21.501V417.392H486.2c16.977,0,30.729-13.771,30.729-30.731V226.849
		C516.93,209.872,503.177,196.116,486.2,196.116z M96.757,21.502h249.053v110.006c0,5.943,4.818,10.751,10.751,10.751h94.973v53.861
		H96.757V21.502z M308.529,301.295c0,44.936-27.244,72.181-67.303,72.181c-40.67,0-64.474-30.698-64.474-69.745
		c0-41.084,26.239-71.783,66.709-71.783C285.567,231.948,308.529,263.471,308.529,301.295z M94.017,317.359v53.881H63.305V236.014
		c9.966-1.63,24.82-2.845,41.284-2.845c20.336,0,34.575,3.042,44.336,10.782c8.14,6.512,12.612,16.063,12.612,28.662
		c0,17.502-12.412,29.492-24.213,33.754v0.62c9.564,3.862,14.858,13.019,18.31,25.616c4.273,15.454,8.536,33.354,11.191,38.637
		h-31.737c-2.237-3.854-5.489-15.046-9.541-31.918c-3.677-17.08-9.562-21.753-22.174-21.963H94.017z M451.534,520.962H96.757
		v-103.57h354.777V520.962z M446.798,371.24l-2.036-52.452c-0.608-16.485-1.219-36.411-1.219-56.338h-0.607
		c-4.274,17.491-9.97,37.009-15.255,53.071l-16.688,53.491h-24.2l-14.642-53.081c-4.472-16.064-9.149-35.591-12.398-53.481h-0.409
		c-0.813,18.498-1.429,39.655-2.446,56.735l-2.421,52.055h-28.688l8.746-137.051h41.286l13.418,45.757
		c4.282,15.849,8.546,32.946,11.585,48.993h0.609c3.862-15.847,8.545-33.947,13.019-49.202l14.65-45.548h40.446l7.539,137.051
		H446.798L446.798,371.24z"/>
</g>
<g>
</g>
<g>
</g>
<g>
</g>
<g>
</g>
<g>
</g>
<g>
</g>
<g>
</g>
<g>
</g>
<g>
</g>
<g>
</g>
<g>
</g>
<g>
</g>
<g>
</g>
<g>
</g>
<g>
</g>
</svg>
