<?xml version="1.0" encoding="iso-8859-1"?>
<!-- Generator: Adobe Illustrator 16.0.0, SVG Export Plug-In . SVG Version: 6.00 Build 0)  -->
<!DOCTYPE svg PUBLIC "-//W3C//DTD SVG 1.1//EN" "http://www.w3.org/Graphics/SVG/1.1/DTD/svg11.dtd">
<svg version="1.1" id="Capa_1" xmlns="http://www.w3.org/2000/svg" xmlns:xlink="http://www.w3.org/1999/xlink" x="0px" y="0px"
	 width="550.801px" height="550.801px" viewBox="0 0 550.801 550.801" style="enable-background:new 0 0 550.801 550.801;"
	 xml:space="preserve">
<g>
	<path d="M262.307,253.405c-7.776,0-12.814,0.686-15.808,1.371V355.72c2.993,0.686,7.778,0.686,12.14,0.686
		c31.596,0.232,52.199-17.175,52.199-54.021C311.06,270.335,292.297,253.405,262.307,253.405z"/>
	<path d="M488.426,197.014H475.2v-63.817c0-0.401-0.063-0.799-0.116-1.205c-0.021-2.534-0.827-5.023-2.562-6.993L366.325,3.694
		c-0.032-0.034-0.063-0.045-0.085-0.076c-0.633-0.707-1.371-1.298-2.151-1.804c-0.231-0.158-0.464-0.287-0.706-0.422
		c-0.676-0.366-1.393-0.675-2.131-0.896c-0.2-0.053-0.38-0.135-0.58-0.19C359.87,0.119,359.037,0,358.193,0H97.2
		c-11.918,0-21.6,9.693-21.6,21.601v175.413H62.377c-17.049,0-30.873,13.818-30.873,30.87v160.542
		c0,17.044,13.824,30.876,30.873,30.876h13.224V529.2c0,11.907,9.682,21.601,21.6,21.601h356.4c11.907,0,21.6-9.693,21.6-21.601
		V419.302h13.226c17.044,0,30.871-13.827,30.871-30.87v-160.54C519.297,210.832,505.47,197.014,488.426,197.014z M97.2,21.601
		h250.193v110.51c0,5.967,4.841,10.8,10.8,10.8h95.407v54.108H97.2V21.601z M347.91,301.229c0,29.536-10.747,49.908-25.629,62.501
		c-16.253,13.489-40.975,19.907-71.197,19.907c-18.072,0-30.902-1.139-39.587-2.278V229.835c12.804-2.069,29.528-3.219,47.142-3.219
		c29.297,0,48.297,5.276,63.179,16.488C337.838,255.008,347.91,274,347.91,301.229z M81.907,374.952l7.098-28.851
		c9.389,4.814,23.812,9.618,38.678,9.618c16.023,0,24.49-6.639,24.49-16.711c0-9.614-7.322-15.114-25.866-21.743
		c-25.629-8.933-42.34-23.118-42.34-45.564c0-26.325,21.977-46.451,58.364-46.451c17.413,0,30.217,3.66,39.369,7.771l-7.765,28.16
		c-6.188-2.975-17.175-7.328-32.287-7.328c-15.098,0-22.42,6.864-22.42,14.881c0,9.841,8.693,14.186,28.616,21.748
		c27.227,10.072,40.057,24.258,40.057,46.006c0,25.85-19.915,47.84-62.258,47.84C108.006,384.334,90.604,379.751,81.907,374.952z
		 M453.601,523.347H97.2V419.302h356.4V523.347z M465.139,256.382h-59.284v35.245h55.403v28.381h-55.403v62.026h-35.016V227.766
		h94.3V256.382z"/>
</g>
<g>
</g>
<g>
</g>
<g>
</g>
<g>
</g>
<g>
</g>
<g>
</g>
<g>
</g>
<g>
</g>
<g>
</g>
<g>
</g>
<g>
</g>
<g>
</g>
<g>
</g>
<g>
</g>
<g>
</g>
</svg>
