<?xml version="1.0" encoding="iso-8859-1"?>
<!-- Generator: Adobe Illustrator 19.0.0, SVG Export Plug-In . SVG Version: 6.00 Build 0)  -->
<svg version="1.1" id="Capa_1" xmlns="http://www.w3.org/2000/svg" xmlns:xlink="http://www.w3.org/1999/xlink" x="0px" y="0px"
	 viewBox="0 0 490 490" style="enable-background:new 0 0 490 490;" xml:space="preserve">
<g>
	<path d="M158.105,361.215c-8.21,0-13.234-0.583-15.073-1.764c-1.839-1.181-2.766-4.396-2.766-9.66l-0.045-1.6h-13.922l0.06,2.751
		c0,8.763,1.944,14.58,5.817,17.451c3.888,2.871,11.753,4.307,23.612,4.307c13.174,0,21.698-1.466,25.571-4.381
		c3.858-2.931,5.787-9.406,5.787-19.41c0-8.135-1.645-13.488-4.935-16.075c-3.29-2.572-10.557-4.172-21.787-4.8
		c-9.496-0.508-15.088-1.256-16.778-2.213c-1.705-0.957-2.542-3.813-2.542-8.553c0-4.008,1.032-6.639,3.11-7.896
		c2.079-1.256,6.505-1.884,13.279-1.884c5.742,0,9.391,0.553,10.946,1.63c1.54,1.092,2.482,3.753,2.811,7.985
		c0,0.329,0.03,0.837,0.105,1.54h13.982v-2.871c0-7.806-1.974-13.04-5.922-15.731c-3.933-2.692-11.574-4.038-22.909-4.038
		c-11.963,0-19.948,1.465-23.941,4.396c-3.993,2.916-5.981,8.793-5.981,17.585c0,8.613,1.645,14.221,4.965,16.838
		c3.305,2.617,10.931,4.277,22.864,4.965l7.895,0.508c4.456,0.254,7.342,0.987,8.688,2.183c1.346,1.196,2.019,3.604,2.019,7.253
		c0,4.935-0.882,8.09-2.647,9.451C168.602,360.542,164.505,361.215,158.105,361.215z"/>
	<path d="M236.177,372.041l24.3-75.366h-15.133l-13.967,42.737c-1.256,3.828-2.767,8.942-4.531,15.342l-1.436,5.144h-0.389
		c-2.602-9.615-4.576-16.464-5.907-20.546l-14.131-42.678h-14.849l24.075,75.366H236.177z"/>
	<path d="M296.141,372.699c14.236,0,23.387-1.57,27.485-4.71c4.097-3.155,6.161-10.168,6.161-21.07l-0.239-14.969h-33.167v10.542
		h18.931l-0.06,3.095c0,6.445-1.047,10.527-3.17,12.262c-2.123,1.735-7.088,2.602-14.894,2.602c-8.015,0-13.129-1.032-15.342-3.065
		c-2.213-2.049-3.305-6.804-3.305-14.281l-0.12-9.66l0.06-7.566c0-7.626,1.107-12.456,3.335-14.52
		c2.228-2.064,7.492-3.095,15.761-3.095c7.626,0,12.382,0.598,14.296,1.794c1.884,1.196,2.961,4.262,3.23,9.197h14.445
		c0-9.795-1.944-16.12-5.832-18.976c-3.918-2.841-12.561-4.277-25.96-4.277c-10.243,0-17.496,0.927-21.757,2.766
		c-4.277,1.839-7.462,5.413-9.555,10.707c-1.69,4.352-2.542,14.759-2.542,31.253c0,12.92,2.123,21.488,6.355,25.675
		C274.488,370.605,283.117,372.699,296.141,372.699z"/>
	<path d="M77.788,0v265.111H42.189v139.615h0.001l35.59,35.591L77.788,490h370.023V102.422L345.388,0H77.788z M395.793,389.413
		H57.501v-108.99h338.292V389.413z M353.022,36.962l57.816,57.804h-57.816V36.962z"/>
</g>
<g>
</g>
<g>
</g>
<g>
</g>
<g>
</g>
<g>
</g>
<g>
</g>
<g>
</g>
<g>
</g>
<g>
</g>
<g>
</g>
<g>
</g>
<g>
</g>
<g>
</g>
<g>
</g>
<g>
</g>
</svg>
