<?xml version="1.0" encoding="iso-8859-1"?>
<!-- Generator: Adobe Illustrator 16.0.0, SVG Export Plug-In . SVG Version: 6.00 Build 0)  -->
<!DOCTYPE svg PUBLIC "-//W3C//DTD SVG 1.1//EN" "http://www.w3.org/Graphics/SVG/1.1/DTD/svg11.dtd">
<svg version="1.1" id="Capa_1" xmlns="http://www.w3.org/2000/svg" xmlns:xlink="http://www.w3.org/1999/xlink" x="0px" y="0px"
	 width="550.801px" height="550.801px" viewBox="0 0 550.801 550.801" style="enable-background:new 0 0 550.801 550.801;"
	 xml:space="preserve">
<g>
	<path d="M488.426,197.021H475.2v-63.825c0-0.398-0.063-0.799-0.116-1.203c-0.021-2.533-0.827-5.022-2.562-6.995L366.325,3.694
		c-0.032-0.031-0.063-0.042-0.085-0.074c-0.633-0.709-1.371-1.297-2.151-1.803c-0.231-0.158-0.464-0.288-0.706-0.422
		c-0.676-0.369-1.393-0.675-2.131-0.896c-0.2-0.056-0.38-0.138-0.58-0.19C359.87,0.119,359.037,0,358.193,0H97.2
		c-11.918,0-21.6,9.695-21.6,21.601v175.413H62.377c-17.049,0-30.873,13.818-30.873,30.873v160.545
		c0,17.043,13.824,30.87,30.873,30.87h13.224V529.2c0,11.907,9.682,21.601,21.6,21.601h356.4c11.907,0,21.6-9.693,21.6-21.601
		V419.302h13.226c17.044,0,30.871-13.827,30.871-30.87v-160.54C519.297,210.832,505.47,197.021,488.426,197.021z M87.41,259.045
		v-27.799h112.493v27.799h-39.959v118.576h-33.22V259.045H87.41z M453.601,523.347H97.2V419.302h356.4V523.347z M304.61,288.795
		v26.926h-53.86v34.758h60.156v27.143H217.53V231.246h90.333v27.145H250.75v30.404H304.61z M324.18,231.246h38l12.814,26.712
		c4.351,8.899,7.604,16.076,11.08,24.319h0.438c3.47-9.332,6.297-15.85,9.988-24.319l12.371-26.712h37.8l-41.265,71.449
		l43.433,74.926h-38.228l-13.241-26.494c-5.427-10.22-8.907-17.813-13.036-26.277h-0.428c-3.037,8.464-6.739,16.068-11.301,26.277
		l-12.166,26.494h-37.778l42.356-74.061L324.18,231.246z M453.601,197.021H97.2V21.601h250.193v110.513
		c0,5.967,4.841,10.8,10.8,10.8h95.407V197.021z"/>
</g>
<g>
</g>
<g>
</g>
<g>
</g>
<g>
</g>
<g>
</g>
<g>
</g>
<g>
</g>
<g>
</g>
<g>
</g>
<g>
</g>
<g>
</g>
<g>
</g>
<g>
</g>
<g>
</g>
<g>
</g>
</svg>
