<?xml version="1.0" encoding="iso-8859-1"?>
<!-- Generator: Adobe Illustrator 16.0.0, SVG Export Plug-In . SVG Version: 6.00 Build 0)  -->
<!DOCTYPE svg PUBLIC "-//W3C//DTD SVG 1.1//EN" "http://www.w3.org/Graphics/SVG/1.1/DTD/svg11.dtd">
<svg version="1.1" id="Capa_1" xmlns="http://www.w3.org/2000/svg" xmlns:xlink="http://www.w3.org/1999/xlink" x="0px" y="0px"
	 width="550.801px" height="550.801px" viewBox="0 0 550.801 550.801" style="enable-background:new 0 0 550.801 550.801;"
	 xml:space="preserve">
<g>
	<path d="M425.883,261.703c-6.581,0-11.031,0.63-13.373,1.273v42.219c2.764,0.633,6.159,0.844,10.821,0.844
		c17.191,0,27.796-8.69,27.796-23.33C451.133,269.56,442.01,261.703,425.883,261.703z"/>
	<path d="M488.426,197.021H475.2v-63.825c0-0.398-0.063-0.799-0.116-1.203c-0.021-2.533-0.827-5.022-2.562-6.995L366.319,3.694
		c-0.031-0.031-0.062-0.042-0.089-0.074c-0.628-0.709-1.371-1.297-2.146-1.803c-0.232-0.158-0.464-0.288-0.707-0.422
		c-0.675-0.369-1.392-0.675-2.136-0.896c-0.2-0.056-0.374-0.135-0.574-0.19C359.87,0.119,359.026,0,358.188,0H97.2
		c-11.918,0-21.6,9.695-21.6,21.601v175.415H62.375c-17.046,0-30.871,13.819-30.871,30.871v160.545
		c0,17.043,13.824,30.87,30.871,30.87h13.226V529.2c0,11.907,9.682,21.601,21.6,21.601h356.4c11.907,0,21.6-9.693,21.6-21.601
		V419.308h13.226c17.044,0,30.871-13.833,30.871-30.876v-160.54C519.297,210.835,505.47,197.021,488.426,197.021z M97.2,21.601
		h250.193v110.513c0,5.967,4.841,10.8,10.8,10.8h95.407v54.108H97.2V21.601z M355.631,381.354h-31.609l-2.12-54.738
		c-0.633-17.171-1.271-37.958-1.271-58.77h-0.633c-4.456,18.249-10.395,38.625-15.91,55.384l-17.397,55.793h-25.244l-15.277-55.36
		c-4.67-16.77-9.548-37.136-12.938-55.817h-0.427c-0.846,19.314-1.484,41.378-2.542,59.203l-2.55,54.306h-29.917l9.121-142.987
		h43.071l14.003,47.727c4.454,16.559,8.91,34.383,12.084,51.132h0.644c4.029-16.538,8.901-35.417,13.574-51.343l15.276-47.516
		h42.214L355.631,381.354z M74.735,265.531v-27.158h109.896v27.158h-39.037v115.823h-32.453V265.531H74.735z M453.601,523.347H97.2
		V419.308h356.4V523.347z M470.012,315.811c-11.032,10.399-27.359,15.056-46.459,15.056c-4.251,0-8.068-0.206-11.043-0.628v51.121
		h-32.031v-141.08c9.967-1.706,23.974-2.975,43.707-2.975c19.938,0,34.15,3.829,43.706,11.465
		c9.112,7.203,15.271,19.077,15.271,33.096C483.163,295.861,478.491,307.742,470.012,315.811z"/>
</g>
<g>
</g>
<g>
</g>
<g>
</g>
<g>
</g>
<g>
</g>
<g>
</g>
<g>
</g>
<g>
</g>
<g>
</g>
<g>
</g>
<g>
</g>
<g>
</g>
<g>
</g>
<g>
</g>
<g>
</g>
</svg>
