<?xml version="1.0" encoding="iso-8859-1"?>
<!-- Generator: Adobe Illustrator 16.0.0, SVG Export Plug-In . SVG Version: 6.00 Build 0)  -->
<!DOCTYPE svg PUBLIC "-//W3C//DTD SVG 1.1//EN" "http://www.w3.org/Graphics/SVG/1.1/DTD/svg11.dtd">
<svg version="1.1" id="Capa_1" xmlns="http://www.w3.org/2000/svg" xmlns:xlink="http://www.w3.org/1999/xlink" x="0px" y="0px"
	 width="550.801px" height="550.801px" viewBox="0 0 550.801 550.801" style="enable-background:new 0 0 550.801 550.801;"
	 xml:space="preserve">
<g>
	<path d="M415.115,312.715h-11.391v41.565c3.285,0.443,7.234,0.443,12.925,0.443c15.093,0,28.45-5.69,28.45-21.226
		C445.1,318.611,431.736,312.715,415.115,312.715z"/>
	<path d="M488.426,197.014H475.2v-63.817c0-0.401-0.063-0.799-0.116-1.205c-0.021-2.534-0.827-5.023-2.562-6.993L366.325,3.694
		c-0.032-0.034-0.063-0.045-0.085-0.076c-0.633-0.707-1.371-1.298-2.151-1.804c-0.231-0.158-0.464-0.287-0.706-0.422
		c-0.676-0.366-1.393-0.675-2.131-0.896c-0.2-0.053-0.38-0.135-0.58-0.19C359.87,0.119,359.037,0,358.193,0H97.2
		c-11.918,0-21.6,9.693-21.6,21.601v175.413H62.377c-17.049,0-30.873,13.818-30.873,30.87v160.542
		c0,17.044,13.824,30.876,30.873,30.876h13.224V529.2c0,11.907,9.682,21.601,21.6,21.601h356.4c11.907,0,21.6-9.693,21.6-21.601
		V419.302h13.226c17.044,0,30.871-13.827,30.871-30.87v-160.54C519.297,210.832,505.47,197.014,488.426,197.014z M97.2,21.601
		h250.193v110.51c0,5.967,4.841,10.8,10.8,10.8h95.407v54.108H97.2V21.601z M348.817,302.633c0,48.378-29.32,77.698-72.434,77.698
		c-43.767,0-69.369-33.043-69.369-75.062c0-44.202,28.236-77.254,71.771-77.254C324.096,228.016,348.817,261.932,348.817,302.633z
		 M63.904,230.418h36.547l17.951,62.374c5.033,17.508,9.621,34.362,13.133,52.745h0.646c3.726-17.725,8.321-35.232,13.355-52.086
		l18.818-63.028h35.451l-49.679,147.504h-38.955L63.904,230.418z M453.601,523.347H97.2V419.302h356.4V523.347z M464.791,366.104
		c-10.727,8.532-28.678,13.353-58.003,13.353c-16.411,0-28.672-1.097-36.107-2.184V232.396c8.754-1.74,26.483-3.059,43.116-3.059
		c20.345,0,32.821,1.972,43.548,8.321c10.283,5.477,17.719,15.536,17.719,28.88c0,13.145-7.657,25.39-24.29,31.517v0.433
		c16.854,4.609,29.331,17.286,29.331,36.334C480.11,348.152,473.977,358.668,464.791,366.104z"/>
	<path d="M441.588,270.686c0-11.145-8.533-17.064-23.631-17.064c-7.229,0-11.38,0.443-14.232,0.875v34.352h10.942
		C432.18,288.848,441.588,281.634,441.588,270.686z"/>
	<path d="M242.246,304.604c0,28.898,13.569,49.243,35.889,49.243c22.536,0,35.45-21.447,35.45-50.107
		c0-26.473-12.692-49.244-35.672-49.244C255.372,254.496,242.246,275.938,242.246,304.604z"/>
</g>
<g>
</g>
<g>
</g>
<g>
</g>
<g>
</g>
<g>
</g>
<g>
</g>
<g>
</g>
<g>
</g>
<g>
</g>
<g>
</g>
<g>
</g>
<g>
</g>
<g>
</g>
<g>
</g>
<g>
</g>
</svg>
