<?xml version="1.0" encoding="iso-8859-1"?>
<!-- Generator: Adobe Illustrator 16.0.0, SVG Export Plug-In . SVG Version: 6.00 Build 0)  -->
<!DOCTYPE svg PUBLIC "-//W3C//DTD SVG 1.1//EN" "http://www.w3.org/Graphics/SVG/1.1/DTD/svg11.dtd">
<svg version="1.1" id="Capa_1" xmlns="http://www.w3.org/2000/svg" xmlns:xlink="http://www.w3.org/1999/xlink" x="0px" y="0px"
	 width="550.801px" height="550.801px" viewBox="0 0 550.801 550.801" style="enable-background:new 0 0 550.801 550.801;"
	 xml:space="preserve">
<g>
	<path d="M304.573,282.667c-2.458-8.168-4.91-18.37-6.95-26.541h-0.412c-2.04,8.166-4.081,18.578-6.328,26.541l-8.184,29.215h30.443
		L304.573,282.667z"/>
	<path d="M488.426,197.019H475.2v-63.816c0-0.401-0.063-0.799-0.116-1.205c-0.021-2.534-0.827-5.023-2.562-6.992L366.325,3.691
		c-0.032-0.031-0.063-0.042-0.085-0.073c-0.633-0.707-1.371-1.298-2.151-1.804c-0.231-0.158-0.464-0.287-0.706-0.422
		c-0.676-0.366-1.393-0.675-2.131-0.896c-0.2-0.053-0.38-0.135-0.58-0.19C359.87,0.119,359.037,0,358.193,0H97.2
		c-11.918,0-21.6,9.693-21.6,21.601v175.413H62.377c-17.049,0-30.873,13.818-30.873,30.87v160.542
		c0,17.044,13.824,30.876,30.873,30.876h13.224V529.2c0,11.907,9.682,21.601,21.6,21.601h356.4c11.907,0,21.6-9.693,21.6-21.601
		V419.302h13.226c17.044,0,30.871-13.827,30.871-30.87V227.89C519.297,210.838,505.47,197.019,488.426,197.019z M97.2,21.605
		h250.193v110.51c0,5.967,4.841,10.8,10.8,10.8h95.407v54.108H97.2V21.605z M319.054,232.831l42.694,137.661h-33.503l-10.62-35.332
		h-39.422l-9.801,35.332h-32.266l42.066-137.661H319.054z M65.38,232.831h33.289l10.413,56.782
		c3.061,16.332,5.924,34.104,8.171,48.004h0.414c2.247-14.908,5.508-31.461,8.986-48.415l11.633-56.371h33.096l11.021,58.01
		c3.062,16.132,5.308,30.839,7.349,46.164h0.417c2.036-15.325,5.097-31.456,7.96-47.804l11.24-56.371h31.656l-35.538,137.661H171.78
		l-11.642-59.227c-2.652-13.896-4.899-26.763-6.528-42.496h-0.406c-2.457,15.522-4.704,28.59-7.976,42.496l-13.058,59.227H98.06
		L65.38,232.831z M453.601,523.353H97.2V419.302h356.4V523.353z M436.926,370.491H400.57l-44.117-137.655h34.119l16.738,58.205
		c4.703,16.338,8.985,32.073,12.261,49.228h0.606c3.48-16.542,7.762-32.89,12.466-48.615l17.566-58.817h33.085L436.926,370.491z"/>
</g>
<g>
</g>
<g>
</g>
<g>
</g>
<g>
</g>
<g>
</g>
<g>
</g>
<g>
</g>
<g>
</g>
<g>
</g>
<g>
</g>
<g>
</g>
<g>
</g>
<g>
</g>
<g>
</g>
<g>
</g>
</svg>
