<?xml version="1.0" encoding="iso-8859-1"?>
<!-- Generator: Adobe Illustrator 19.0.0, SVG Export Plug-In . SVG Version: 6.00 Build 0)  -->
<svg version="1.1" id="Capa_1" xmlns="http://www.w3.org/2000/svg" xmlns:xlink="http://www.w3.org/1999/xlink" x="0px" y="0px"
	 viewBox="0 0 360 360" style="enable-background:new 0 0 360 360;" xml:space="preserve">
<g id="XMLID_1000_">
	<path id="XMLID_1001_" d="M345.205,122.2h-50.41V77.834L211.773,0H14.795v360h280v-55.072h50.41V122.2z M315.205,274.928h-210
		V152.2h210V274.928z"/>
	<polygon id="XMLID_1004_" points="144.124,236.725 153.226,214.673 162.328,236.725 170.912,236.725 192.299,184.185 
		181.198,184.185 166.324,225.033 159.664,208.235 168.618,184.333 159.146,184.333 153.226,201.723 147.306,184.333 
		137.908,184.333 146.714,208.235 140.202,225.033 125.254,184.185 114.302,184.185 135.54,236.725 	"/>
	<polygon id="XMLID_1005_" points="207.912,201.945 221.453,227.845 227.004,227.845 240.545,201.945 240.545,236.725 
		250.758,236.725 250.758,184.185 239.879,184.185 224.191,214.081 208.652,184.185 197.699,184.185 197.699,236.725 
		207.912,236.725 	"/>
	<polygon id="XMLID_1006_" points="285.611,236.725 306.109,184.185 295.379,184.185 281.318,223.923 267.111,184.185 
		256.381,184.185 277.027,236.725 	"/>
</g>
<g>
</g>
<g>
</g>
<g>
</g>
<g>
</g>
<g>
</g>
<g>
</g>
<g>
</g>
<g>
</g>
<g>
</g>
<g>
</g>
<g>
</g>
<g>
</g>
<g>
</g>
<g>
</g>
<g>
</g>
</svg>
