<?xml version="1.0" encoding="iso-8859-1"?>
<!-- Generator: Adobe Illustrator 19.0.0, SVG Export Plug-In . SVG Version: 6.00 Build 0)  -->
<svg version="1.1" id="Capa_1" xmlns="http://www.w3.org/2000/svg" xmlns:xlink="http://www.w3.org/1999/xlink" x="0px" y="0px"
	 viewBox="0 0 490 490" style="enable-background:new 0 0 490 490;" xml:space="preserve">
<g>
	<path d="M148.968,372.036l10.886-18.109c2.423-4.008,4.591-7.821,6.505-11.439l1.6-2.976h0.224l1.6,2.931l1.555,2.976
		c1.495,2.871,3.08,5.712,4.74,8.509l10.826,18.109h16.793l-24.135-38.879l22.64-36.487h-16.898l-10.049,16.838
		c-1.764,2.946-3.245,5.563-4.426,7.836l-1.376,2.602c-0.299,0.583-0.748,1.466-1.376,2.647h-0.224l-1.391-2.647l-1.376-2.662
		c-1.406-2.572-2.886-5.189-4.471-7.836l-10.049-16.778h-17.062l22.969,36.487l-24.733,38.879H148.968z"/>
	<polygon points="259.565,359.221 224.229,359.221 224.229,296.67 209.919,296.67 209.919,372.036 259.565,372.036 	"/>
	<path d="M295.513,361.21c-8.195,0-13.219-0.583-15.073-1.764c-1.839-1.181-2.751-4.396-2.751-9.66l-0.06-1.6h-13.907l0.045,2.751
		c0,8.763,1.944,14.58,5.817,17.451c3.888,2.871,11.754,4.307,23.612,4.307c13.174,0,21.698-1.466,25.571-4.381
		c3.858-2.931,5.802-9.406,5.802-19.41c0-8.135-1.66-13.488-4.95-16.075c-3.29-2.572-10.557-4.172-21.772-4.8
		c-9.51-0.508-15.103-1.256-16.793-2.213c-1.69-0.957-2.542-3.813-2.542-8.553c0-4.008,1.032-6.639,3.125-7.896
		c2.064-1.256,6.49-1.884,13.279-1.884c5.742,0,9.391,0.553,10.931,1.63c1.54,1.092,2.482,3.753,2.811,7.985
		c0,0.329,0.045,0.837,0.12,1.54h13.967v-2.871c0-7.806-1.974-13.04-5.907-15.731c-3.948-2.692-11.574-4.038-22.924-4.038
		c-11.963,0-19.933,1.466-23.941,4.396c-3.978,2.916-5.981,8.793-5.981,17.585c0,8.613,1.645,14.221,4.965,16.838
		c3.32,2.617,10.946,4.277,22.864,4.965l7.896,0.508c4.456,0.254,7.357,0.987,8.703,2.183c1.331,1.196,2.004,3.604,2.004,7.253
		c0,4.935-0.882,8.09-2.647,9.451C306.011,360.537,301.914,361.21,295.513,361.21z"/>
	<path d="M77.788,0v265.111H42.189v139.615h0.001l35.59,35.591L77.788,490h370.023V102.422L345.388,0H77.788z M395.793,389.413
		H57.501v-108.99h338.292V389.413z M353.022,36.962l57.816,57.804h-57.816V36.962z"/>
</g>
<g>
</g>
<g>
</g>
<g>
</g>
<g>
</g>
<g>
</g>
<g>
</g>
<g>
</g>
<g>
</g>
<g>
</g>
<g>
</g>
<g>
</g>
<g>
</g>
<g>
</g>
<g>
</g>
<g>
</g>
</svg>
