<?xml version="1.0" encoding="iso-8859-1"?>
<!-- Generator: Adobe Illustrator 16.0.0, SVG Export Plug-In . SVG Version: 6.00 Build 0)  -->
<!DOCTYPE svg PUBLIC "-//W3C//DTD SVG 1.1//EN" "http://www.w3.org/Graphics/SVG/1.1/DTD/svg11.dtd">
<svg version="1.1" id="Capa_1" xmlns="http://www.w3.org/2000/svg" xmlns:xlink="http://www.w3.org/1999/xlink" x="0px" y="0px"
	 width="548.29px" height="548.291px" viewBox="0 0 548.29 548.291" style="enable-background:new 0 0 548.29 548.291;"
	 xml:space="preserve">
<g>
	<path d="M486.205,196.116h-13.166V132.59c0-0.399-0.062-0.795-0.109-1.2c-0.021-2.52-0.828-4.997-2.556-6.96L364.656,3.677
		c-0.031-0.031-0.064-0.044-0.085-0.075c-0.629-0.704-1.364-1.29-2.141-1.796c-0.231-0.154-0.462-0.283-0.704-0.419
		c-0.672-0.365-1.386-0.672-2.121-0.893c-0.199-0.052-0.377-0.134-0.576-0.186C358.229,0.118,357.4,0,356.562,0H96.757
		C84.893,0,75.256,9.649,75.256,21.502v174.613H62.093c-16.972,0-30.733,13.756-30.733,30.733v159.812
		c0,16.961,13.761,30.731,30.733,30.731h13.163V526.79c0,11.854,9.637,21.501,21.501,21.501h354.777
		c11.853,0,21.502-9.647,21.502-21.501V417.392H486.2c16.966,0,30.729-13.771,30.729-30.731V226.849
		C516.93,209.872,503.177,196.116,486.205,196.116z M96.757,21.502h249.053v110.006c0,5.943,4.818,10.751,10.751,10.751h94.973
		v53.861H96.757V21.502z M270.744,355.113c17.365,0,26.919-12.147,26.919-37.979v-84.232h32.997v82.059
		c0,45.155-22.793,66.647-60.998,66.647c-36.906,0-58.612-20.416-58.612-67.083v-81.623h33.208v84.232
		C244.258,342.315,253.812,355.113,270.744,355.113z M67.988,232.901h37.78l14.974,35.161c4.559,10.64,7.601,18.462,11.289,28.011
		h0.436c3.257-9.124,6.73-17.581,11.073-28.011l14.767-35.161h37.115l-48.188,85.303v61.009h-33v-59.921L67.988,232.901z
		 M451.534,520.962H96.757v-103.57h354.777V520.962z M432.457,379.212h-38.635l-46.895-146.312h36.258l17.797,61.859
		c4.996,17.369,9.554,34.096,13.028,52.32h0.651c3.696-17.58,8.251-34.951,13.25-51.66l18.667-62.52h35.165L432.457,379.212z"/>
</g>
<g>
</g>
<g>
</g>
<g>
</g>
<g>
</g>
<g>
</g>
<g>
</g>
<g>
</g>
<g>
</g>
<g>
</g>
<g>
</g>
<g>
</g>
<g>
</g>
<g>
</g>
<g>
</g>
<g>
</g>
</svg>
