<svg width="47.00000000000001" height="49" xmlns="http://www.w3.org/2000/svg">

 <g>
  <title>background</title>
  <rect fill="none" id="canvas_background" height="402" width="582" y="-1" x="-1"/>
 </g>
 <g>
  <title>Layer 1</title>
  <g id="svg_1">
   <path id="svg_2" d="m13.268291,48.822947c3.567,0 7.173,-1.387 9.931,-4.145l23.78,-23.777l-2.403,-2.404l-23.781,23.777c-4.082,4.082 -10.596,4.213 -14.52,0.292c-3.922,-3.924 -3.791,-10.438 0.293,-14.521l22.588,-22.59a6.505,6.505 0 0 1 9.188,0a6.508,6.508 0 0 1 0,9.189l-22.986,22.985c-1.052,1.053 -2.884,1.053 -3.937,0a2.768,2.768 0 0 1 -0.814,-1.969c0,-0.743 0.289,-1.442 0.814,-1.969l20.608,-20.607l-2.403,-2.404l-20.608,20.607a6.146,6.146 0 0 0 -1.812,4.373a6.14,6.14 0 0 0 1.811,4.371c1.168,1.17 2.721,1.813 4.372,1.813s3.204,-0.643 4.372,-1.811l23.383,-23.383l-0.041,-0.039c3.461,-3.883 3.365,-9.838 -0.356,-13.56s-9.677,-3.816 -13.558,-0.356l-0.041,-0.04l-0.396,0.396l-22.588,22.59c-5.408,5.408 -5.54,14.079 -0.292,19.328c2.572,2.572 5.966,3.854 9.396,3.854z"/>
  </g>
 </g>
</svg>