<?xml version="1.0" encoding="utf-8"?>
<!-- Generator: Adobe Illustrator 17.1.0, SVG Export Plug-In . SVG Version: 6.00 Build 0)  -->
<!DOCTYPE svg PUBLIC "-//W3C//DTD SVG 1.1//EN" "http://www.w3.org/Graphics/SVG/1.1/DTD/svg11.dtd">
<svg version="1.1" id="Layer_1" xmlns="http://www.w3.org/2000/svg" xmlns:xlink="http://www.w3.org/1999/xlink" x="0px" y="0px"
	 viewBox="22 22.2 47 48.6" enable-background="new 22 22.2 47 48.6" xml:space="preserve">
<g>
	<path fill="#333333" d="M35.2,70.8c3.6,0,7.2-1.4,9.9-4.1l23.8-23.8l-2.4-2.4L42.8,64.3c-4.1,4.1-10.6,4.2-14.5,0.3
		c-3.9-3.9-3.8-10.4,0.3-14.5l22.6-22.6c2.5-2.5,6.7-2.5,9.2,0c2.5,2.5,2.5,6.7,0,9.2l-23,23c-1.1,1.1-2.9,1.1-3.9,0
		c-0.5-0.5-0.8-1.2-0.8-2c0-0.7,0.3-1.4,0.8-2L54,35.1l-2.4-2.4L31,53.3c-1.2,1.2-1.8,2.7-1.8,4.4c0,1.7,0.6,3.2,1.8,4.4
		c1.2,1.2,2.7,1.8,4.4,1.8s3.2-0.6,4.4-1.8l23.4-23.4l0,0c3.5-3.9,3.4-9.8-0.4-13.6s-9.7-3.8-13.6-0.4l0,0L48.7,25L26.1,47.6
		C20.7,53,20.6,61.7,25.8,67C28.4,69.5,31.8,70.8,35.2,70.8z"/>
</g>
</svg>
