<svg width="18" height="18" viewBox="0 0 18 18" xmlns="http://www.w3.org/2000/svg">
 <g>
   <path fill="#fff" d="m9,2.212454c3.742872,0 6.787546,3.044674 6.787546,6.787546s-3.044674,6.787546 -6.787546,6.787546s-6.787546,-3.044674 -6.787546,-6.787546s3.044674,-6.787546 6.787546,-6.787546m0,-1.131258c-4.37369,0 -7.918804,3.545114 -7.918804,7.918804s3.545114,7.918804 7.918804,7.918804s7.918804,-3.545114 7.918804,-7.918804s-3.545114,-7.918804 -7.918804,-7.918804l0,0zm-2.262515,3.959402c-0.625303,0 -1.131258,0.760064 -1.131258,1.696887c0,0.937919 0.50599,1.696887 1.131258,1.696887s1.131258,-0.758968 1.131258,-1.696887c0,-0.936823 -0.505955,-1.696887 -1.131258,-1.696887zm4.525031,0c-0.625303,0 -1.131258,0.760064 -1.131258,1.696887c0,0.937919 0.50599,1.696887 1.131258,1.696887s1.131258,-0.758968 1.131258,-1.696887c0,-0.936823 -0.505955,-1.696887 -1.131258,-1.696887zm2.806049,5.248647c0.087284,-0.299394 -0.085056,-0.613142 -0.385547,-0.701521c-0.299394,-0.089475 -0.613142,0.086188 -0.701521,0.384451c-0.512601,1.758752 -2.149814,2.987227 -3.981497,2.987227s-3.468896,-1.228475 -3.982062,-2.987227c-0.087284,-0.298299 -0.397708,-0.473926 -0.701521,-0.384451c-0.299925,0.08838 -0.471734,0.402127 -0.384451,0.701521c0.652912,2.238193 2.737043,3.801415 5.068035,3.801415s4.414556,-1.563221 5.068565,-3.801415z"/>
 </g>
</svg>