<?xml version="1.0" encoding="iso-8859-1"?>
<!-- Generator: Adobe Illustrator 19.1.0, SVG Export Plug-In . SVG Version: 6.00 Build 0)  -->
<svg version="1.1" id="Capa_1" xmlns="http://www.w3.org/2000/svg" xmlns:xlink="http://www.w3.org/1999/xlink" x="0px" y="0px"
	 viewBox="0 0 488.6 488.6" style="enable-background:new 0 0 488.6 488.6;" xml:space="preserve">
<g>
	<g>
		<path d="M480.9,333.2c-27.2-22.3-56.5-37.1-62.4-40c-0.7-0.3-1.1-1-1.1-1.8v-42.3c5.3-3.5,8.8-9.6,8.8-16.5v-43.9
			c0-21.8-17.7-39.5-39.5-39.5H382h-4.7c-21.8,0-39.5,17.7-39.5,39.5v43.9c0,6.9,3.5,12.9,8.8,16.5v42.3c0,0.3-0.1,0.5-0.1,0.7
			c8.3,5.7,17,12.1,25.5,19.1c9.9,8.2,15.6,20.2,15.6,33.2v35.3h101v-30.1C488.6,343.3,485.8,337.2,480.9,333.2z"/>
		<path d="M360.5,325.1c-31.9-26.2-66.3-43.6-73.4-47.1c-0.8-0.4-1.3-1.2-1.3-2.1v-49.7c6.3-4.2,10.4-11.3,10.4-19.3v-51.6
			c0-25.6-20.8-46.4-46.4-46.4h-5.5h-5.5c-25.6,0-46.4,20.8-46.4,46.4v51.5c0,8.1,4.1,15.2,10.4,19.3v49.7c0,0.9-0.5,1.7-1.3,2.1
			c-7,3.4-41.4,20.8-73.4,47.1c-5.8,4.7-9.1,11.8-9.1,19.3v35.3h125.3h125.3v-35.3C369.6,336.9,366.3,329.8,360.5,325.1z"/>
		<path d="M142,291.4v-42.3c5.3-3.5,8.8-9.6,8.8-16.5v-43.9c0-21.8-17.7-39.5-39.5-39.5h-4.7h-4.7c-21.8,0-39.5,17.7-39.5,39.5v43.9
			c0,6.9,3.5,12.9,8.8,16.5v42.3c0,0.7-0.4,1.4-1.1,1.8c-6,2.9-35.3,17.7-62.4,40c-4.9,4-7.7,10.1-7.7,16.4v30.1h101v-35.3
			c0-12.9,5.7-25,15.6-33.2c8.5-7,17.2-13.4,25.5-19.1C142.1,291.9,142,291.7,142,291.4z"/>
	</g>
</g>
<g>
</g>
<g>
</g>
<g>
</g>
<g>
</g>
<g>
</g>
<g>
</g>
<g>
</g>
<g>
</g>
<g>
</g>
<g>
</g>
<g>
</g>
<g>
</g>
<g>
</g>
<g>
</g>
<g>
</g>
</svg>
