<svg id="angry" xmlns="http://www.w3.org/2000/svg" viewBox="0 0 16 16"><title>Compent-Uintra_icons_angry</title><circle cx="8" cy="8" r="8" fill="#ffc838"/><ellipse cx="6" cy="9.5" rx="1" ry="1.25" fill="#333"/><ellipse cx="10" cy="9.5" rx="1" ry="1.25" fill="#333"/><path d="M8,19.89936A2.34774,2.34774,0,0,1,9.89952,20.9478a2.07723,2.07723,0,0,1,.28681.63721,0.74382,0.74382,0,0,1,.03323.253,0.20817,0.20817,0,0,1-.04125.11748,0.14082,0.14082,0,0,1-.19786.00522,5.0717,5.0717,0,0,0-.6455-0.44294A2.70212,2.70212,0,0,0,8,21.09936a2.74754,2.74754,0,0,0-1.33495.41841,5.0717,5.0717,0,0,0-.6455.44294,0.14082,0.14082,0,0,1-.19786-0.00522A0.20817,0.20817,0,0,1,5.78045,21.838a0.74382,0.74382,0,0,1,.03323-0.253,2.07723,2.07723,0,0,1,.28681-0.63721A2.34774,2.34774,0,0,1,8,19.89936Z" transform="translate(0 -8)" fill="#333"/><path d="M6.81265,16.85755a3.446,3.446,0,0,0-.40707-0.4294,5.11548,5.11548,0,0,0-1.04838-.751,4.03,4.03,0,0,0-1.18713-.43955,2.47744,2.47744,0,0,0-.57036-0.03646,0.22474,0.22474,0,0,1-.24149-0.2042A0.25926,0.25926,0,0,1,3.5613,14.753a1.88176,1.88176,0,0,1,.67394-0.04187,3.7318,3.7318,0,0,1,1.40549.44431,5.09557,5.09557,0,0,1,1.149.89443,3.55721,3.55721,0,0,1,.403.53652,0.23937,0.23937,0,0,1-.06755.32344A0.23438,0.23438,0,0,1,6.81265,16.85755Z" transform="translate(0 -8)" fill="#333"/><path d="M9.18421,16.85755a3.446,3.446,0,0,1,.40707-0.4294,5.11548,5.11548,0,0,1,1.04838-.751,4.03,4.03,0,0,1,1.18713-.43955,2.47744,2.47744,0,0,1,.57036-0.03646,0.22474,0.22474,0,0,0,.24149-0.2042,0.25926,0.25926,0,0,0-.20307-0.24388,1.88176,1.88176,0,0,0-.67394-0.04187,3.7318,3.7318,0,0,0-1.40549.44431,5.09557,5.09557,0,0,0-1.149.89443,3.55721,3.55721,0,0,0-.403.53652,0.23937,0.23937,0,0,0,.06755.32344A0.23438,0.23438,0,0,0,9.18421,16.85755Z" transform="translate(0 -8)" fill="#333"/></svg>