<?xml version="1.0" encoding="utf-8"?>
<!-- Generator: Adobe Illustrator 19.2.1, SVG Export Plug-In . SVG Version: 6.00 Build 0)  -->
<svg version="1.1" id="Layer_21" xmlns="http://www.w3.org/2000/svg" xmlns:xlink="http://www.w3.org/1999/xlink" x="0px" y="0px"
	 viewBox="0 0 16 16" style="enable-background:new 0 0 16 16;" xml:space="preserve">
<style type="text/css">
	.st0{fill:#FFC838;}
	.st1{fill:#333333;}
	.st2{fill:#E15263;}
</style>
<title>Compent-Uintra_icons_inlove</title>
<circle class="st0" cx="8" cy="8" r="8"/>
<path class="st1" d="M11.7148,10.0684c-0.2705-0.5664-0.8848-0.4082-1.1377-0.3457C8.7686,10.168,7.2925,10.1807,5.3862,9.71
	c-0.2021-0.0498-0.8179-0.208-1.0894,0.3594c-0.2778,0.584,0.2686,1.457,0.2915,1.4932c0.7363,1.1621,1.9502,1.8027,3.418,1.8027
	c1.4683,0,2.6821-0.6406,3.4175-1.8027C11.4473,11.5264,11.9941,10.6533,11.7148,10.0684z"/>
<g>
	<path class="st2" d="M4.0059,3.0018c0.1878-0.8119,1.512-2.0191,2.881-1.0851C7.8176,2.5516,7.97,3.904,7.344,5.1289
		C6.5238,6.734,5.1574,7.9702,5.0028,8.001C4.8481,8.0318,3.1121,7.4143,1.739,6.2465C0.6911,5.3554,0.3131,4.048,0.9291,3.1046
		C1.8352,1.717,3.5211,2.324,4.0059,3.0018z"/>
</g>
<g>
	<path class="st2" d="M12.0161,3.0018c-0.1878-0.8119-1.512-2.0191-2.881-1.0851C8.2044,2.5516,8.052,3.904,8.678,5.1289
		c0.8203,1.6051,2.1867,2.8413,2.3413,2.8721c0.1546,0.0308,1.8906-0.5867,3.2638-1.7545c1.0479-0.8911,1.4259-2.1985,0.8099-3.1419
		C14.1868,1.717,12.5009,2.324,12.0161,3.0018z"/>
</g>
</svg>
