<svg xmlns="http://www.w3.org/2000/svg" viewBox="0 0 16 16"><defs><style>.cls-1{fill:#ffc838;}.cls-2{fill:#3c5ccd;}.cls-3{fill:#333;}.cls-4{fill:#7f47dd;}.cls-5{fill:#e15263;}.cls-6{fill:#fff;}</style></defs><title>Compent-Uintra_icons_party</title><g id="Layer_2" data-name="Layer 2"><g id="party"><circle class="cls-1" cx="8" cy="8" r="8"/><path class="cls-2" d="M14.99992,5.99151V0L9.52611,2.62341C9.66121,4.18362,13.12394,5.99151,14.99992,5.99151Z"/><path class="cls-3" d="M8.73676,7.33552a1.79965,1.79965,0,0,1,.31271-.59339,2.02536,2.02536,0,0,1,.55341-.49876,1.64438,1.64438,0,0,1,.41565-.17749,1.93913,1.93913,0,0,1,.49414-.06692,2.17078,2.17078,0,0,1,.44858.06692,1.64438,1.64438,0,0,1,.41565.17749,2.02534,2.02534,0,0,1,.55341.49876,1.83,1.83,0,0,1,.31448.59583l.00409.01688a.24576.24576,0,0,1-.385.25542s-.19838-.14673-.46362-.31385a1.94941,1.94941,0,0,0-.44055-.21529,1.47728,1.47728,0,0,0-.23279-.0622,1.33542,1.33542,0,0,0-.474,0,1.47731,1.47731,0,0,0-.23279.0622,1.94941,1.94941,0,0,0-.44055.21529c-.12637.08746-.25427.16-.32912.22065l-.13627.09564a.24668.24668,0,0,1-.382-.2578Z"/><path class="cls-3" d="M3.75239,7.33552a1.79964,1.79964,0,0,1,.31271-.59339,2.02534,2.02534,0,0,1,.55341-.49876,1.64438,1.64438,0,0,1,.41565-.17749A1.93912,1.93912,0,0,1,5.5283,5.999a2.17077,2.17077,0,0,1,.44858.06692,1.64438,1.64438,0,0,1,.41565.17749,2.02534,2.02534,0,0,1,.55341.49876,1.83,1.83,0,0,1,.31448.59583l.00409.01688a.24576.24576,0,0,1-.385.25542s-.19838-.14673-.46362-.31385a1.9494,1.9494,0,0,0-.44055-.21529,1.4773,1.4773,0,0,0-.23279-.0622,1.33542,1.33542,0,0,0-.474,0,1.4773,1.4773,0,0,0-.23279.0622,1.94939,1.94939,0,0,0-.44055.21529c-.12637.08746-.25427.16-.32912.22065l-.13627.09564a.24668.24668,0,0,1-.382-.2578Z"/><circle class="cls-3" cx="7.99609" cy="12" r="1.25"/><path class="cls-4" d="M8.65538,11.64974A.7569.7569,0,0,0,7.654,11.27456L.4448,14.55478A.756.756,0,1,0,1.07,15.93138L8.2802,12.65115a.75714.75714,0,0,0,.37518-1.00141Z"/><path class="cls-5" d="M2.91357,3.98535a.35.35,0,0,1-.12793-.67578c.12354-.04834.335-.16064.36719-.3667A.81831.81831,0,0,0,2.77,2.27148L2.77051,2.27A1.46352,1.46352,0,0,1,2.13965.94873,1.2002,1.2002,0,0,1,2.94287.03906a.34991.34991,0,0,1,.25586.65137c-.12354.04834-.335.16064-.36719.3667a.81831.81831,0,0,0,.38281.67139L3.21387,1.73a1.46352,1.46352,0,0,1,.63086,1.32129,1.2002,1.2002,0,0,1-.80322.90967A.34778.34778,0,0,1,2.91357,3.98535Z"/><path class="cls-6" d="M11.74957,1.5578l3.062,4.42316c.06287.0036.12854.01056.18835.01056V5.37213L12.20746,1.33832Z"/><polygon class="cls-6" points="13.777 0.586 13.341 0.795 15 3.192 15 2.353 13.777 0.586"/><path class="cls-6" d="M10.16418,2.31763,12.1427,5.17572a9.52635,9.52635,0,0,0,.89209.38782L10.63245,2.0932Z"/></g></g></svg>