<?xml version="1.0" encoding="utf-8"?>
<!-- Generator: Adobe Illustrator 19.2.1, SVG Export Plug-In . SVG Version: 6.00 Build 0)  -->
<svg version="1.1" id="relaxed" xmlns="http://www.w3.org/2000/svg" xmlns:xlink="http://www.w3.org/1999/xlink" x="0px" y="0px"
	 viewBox="0 0 16 16" style="enable-background:new 0 0 16 16;" xml:space="preserve">
<style type="text/css">
	.st0{fill:#FFC838;}
	.st1{fill:#333333;}
</style>
<title>Compent-Uintra_icons_relaxed-2</title>
<circle class="st0" cx="8" cy="8" r="8"/>
<path class="st1" d="M8,10.8741c0.7575,0,1.3387-0.2233,1.7427-0.4766c0.3098-0.1943,0.6038-0.4521,0.6699-0.5118
	c0.0924-0.0834,0.2019-0.1366,0.3265-0.1089c0.1802,0.04,0.2909,0.1911,0.2538,0.3985c-0.0171,0.0956-0.0683,0.2031-0.1617,0.3533
	c-0.178,0.2863-0.6961,0.8902-1.5209,1.2134C8.9142,11.8973,8.4553,12,8,12s-0.9142-0.1027-1.3102-0.2579
	c-0.8248-0.3232-1.3429-0.9271-1.5209-1.2134c-0.0934-0.1502-0.1446-0.2577-0.1617-0.3533C4.9701,9.968,5.0807,9.8169,5.2609,9.7769
	C5.3856,9.7492,5.495,9.8023,5.5875,9.8858c0.0661,0.0597,0.3601,0.3175,0.6699,0.5118C6.6613,10.6509,7.2425,10.8741,8,10.8741z"/>
<path class="st1" d="M5.5,6c0.729,0,1.2016,0.4446,1.4404,0.7432C7.1932,7.0592,7.243,7.2714,7.2577,7.3559
	c0.0116,0.0667,0.0036,0.1378-0.0384,0.1976c-0.0783,0.1115-0.228,0.1323-0.3436,0.0602c-0.128-0.0799-0.3361-0.2424-0.4655-0.3252
	C6.1741,7.1374,5.8563,6.999,5.5,6.999S4.8259,7.1374,4.5898,7.2885C4.4604,7.3714,4.2523,7.5339,4.1243,7.6137
	C4.0087,7.6859,3.8589,7.6651,3.7806,7.5535C3.7387,7.4938,3.7307,7.4226,3.7423,7.3559C3.757,7.2714,3.8068,7.0592,4.0596,6.7432
	C4.2984,6.4446,4.771,6,5.5,6z"/>
<path class="st1" d="M10.5,6c0.729,0,1.2016,0.4446,1.4404,0.7432c0.2528,0.3161,0.3026,0.5282,0.3173,0.6128
	c0.0116,0.0667,0.0036,0.1378-0.0384,0.1976c-0.0783,0.1115-0.228,0.1323-0.3436,0.0602c-0.128-0.0799-0.3361-0.2424-0.4655-0.3252
	C11.1741,7.1374,10.8563,6.999,10.5,6.999S9.8259,7.1374,9.5898,7.2885C9.4604,7.3714,9.2523,7.5339,9.1243,7.6137
	C9.0087,7.6859,8.8589,7.6651,8.7806,7.5535C8.7387,7.4938,8.7307,7.4226,8.7423,7.3559C8.757,7.2714,8.8068,7.0592,9.0596,6.7432
	C9.2984,6.4446,9.771,6,10.5,6z"/>
</svg>
