<svg xmlns="http://www.w3.org/2000/svg" viewBox="0 0 16.00049 16"><defs><style>.cls-1{fill:#ffc838;}.cls-2{fill:#333;}.cls-3{fill:#fff;}.cls-4{fill:#f33;}</style></defs><title>Compent-Uintra_icons_sick</title><g id="Layer_2" data-name="Layer 2"><g id="sick"><circle class="cls-1" cx="8" cy="8" r="8"/><path class="cls-2" d="M6.87741,2.48672l-.082.15252a2.91744,2.91744,0,0,1-.27483.4,4.85278,4.85278,0,0,1-1.08316.94325,4.34067,4.34067,0,0,1-1.32878.55146,2.368,2.368,0,0,1-.66363.0585l-.00768-.00074A.14931.14931,0,0,1,3.445,4.29392,2.985,2.985,0,0,0,4.02634,4.19a4.413,4.413,0,0,0,1.201-.543,4.47835,4.47835,0,0,0,1.0198-.84109,2.86709,2.86709,0,0,0,.36188-.47753.1557.1557,0,0,1,.27275.1502Z"/><path class="cls-2" d="M9.39095,2.32836a2.8671,2.8671,0,0,0,.36188.47753,4.47836,4.47836,0,0,0,1.0198.84109,4.413,4.413,0,0,0,1.201.543,2.985,2.985,0,0,0,.58135.1039.14932.14932,0,0,1,.00771.29778l-.00771.00073a2.368,2.368,0,0,1-.66363-.0585,4.34067,4.34067,0,0,1-1.32878-.55146,4.85278,4.85278,0,0,1-1.08316-.94325,2.91749,2.91749,0,0,1-.27483-.4l-.082-.15252-.00431-.008a.15569.15569,0,0,1,.27266-.15036Z"/><path class="cls-2" d="M11.28475,12.72821l-.0709-.04529c-.05322-.034-.08257-.03857-.1693-.08314a5.20755,5.20755,0,0,0-.71077-.259,8.25623,8.25623,0,0,0-2.33257-.308c-.21776-.00293-.4475.001-.642.01415-.211.01554-.4186.03653-.617.06936a7.85967,7.85967,0,0,0-1.07358.22445,5.20756,5.20756,0,0,0-.71077.259,2.57981,2.57981,0,0,0-.22957.11877l-.01655.01026a.33306.33306,0,0,1-.43762-.48853,1.82059,1.82059,0,0,1,.27666-.26611,3.90641,3.90641,0,0,1,.79152-.48371,5.85992,5.85992,0,0,1,1.21162-.40429c.22827-.048.46629-.083.709-.11144.2597-.02778.49289-.04133.73832-.04876a8.11277,8.11277,0,0,1,1.44727.16019,5.86,5.86,0,0,1,1.21162.40429,3.90642,3.90642,0,0,1,.79152.48371,1.66115,1.66115,0,0,1,.211.19289l.055.06356a.3331.3331,0,0,1-.43291.49759Z"/><path class="cls-2" d="M7.226,6.839a.77793.77793,0,0,1-.07369.14984,2.08675,2.08675,0,0,1-.27449.37925,1.94549,1.94549,0,0,1-.55723.42836,2.05381,2.05381,0,0,1-.84913.20312A2.32281,2.32281,0,0,1,5.05816,7.939a1.97756,1.97756,0,0,1-.39439-.1425,1.94549,1.94549,0,0,1-.55723-.42836,1.848,1.848,0,0,1-.35065-.53219l-.00667-.01835a.31043.31043,0,0,1,.18565-.39782.31364.31364,0,0,1,.29362.04437s.175.13265.41581.278a1.97136,1.97136,0,0,0,.40232.18836,1.01533,1.01533,0,0,0,.21815.05769,1.30042,1.30042,0,0,0,.24812.0123,1.10652,1.10652,0,0,0,.2067-.0123,1.01533,1.01533,0,0,0,.21815-.05769,1.97136,1.97136,0,0,0,.40232-.18836c.11574-.07565.22887-.14093.29627-.19418l.122-.08691a.31084.31084,0,0,1,.4791.33894Z"/><path class="cls-3" d="M15.52069,6.47034a.82687.82687,0,0,0-1.16931,0L9.30615,11.51563a.82136.82136,0,0,0-.239.56848,9.78011,9.78011,0,0,1,.99646.16315,5.46937,5.46937,0,0,1,.63739.18427l.02032.00751,4.79938-4.79938A.82687.82687,0,0,0,15.52069,6.47034Z"/><path class="cls-2" d="M12.226,6.839a.77792.77792,0,0,1-.0737.14984,2.08672,2.08672,0,0,1-.27449.37925,1.94549,1.94549,0,0,1-.55723.42836,2.05381,2.05381,0,0,1-.84913.20312,2.32281,2.32281,0,0,1-.41332-.06062,1.97755,1.97755,0,0,1-.39439-.1425,1.94549,1.94549,0,0,1-.55723-.42836,1.848,1.848,0,0,1-.35065-.53219l-.00667-.01835a.31043.31043,0,0,1,.18565-.39782.31364.31364,0,0,1,.29362.04437s.175.13265.41581.278a1.97135,1.97135,0,0,0,.40232.18836,1.01531,1.01531,0,0,0,.21815.05769,1.30043,1.30043,0,0,0,.24812.0123,1.10652,1.10652,0,0,0,.2067-.0123,1.01531,1.01531,0,0,0,.21815-.05769,1.97135,1.97135,0,0,0,.40232-.18836c.11574-.07565.22887-.14093.29627-.19418l.122-.08691a.31084.31084,0,0,1,.4791.33894Z"/><path class="cls-4" d="M12.61365,8.20807,8.76349,12.05829a9.69416,9.69416,0,0,1,1.30011.189,5.46937,5.46937,0,0,1,.63739.18427l.02032.00745L13.783,9.37738Z"/><path class="cls-2" d="M14.248,6.291,8.65776,11.8813l.48689.079,5.3866-5.3866a.62832.62832,0,0,1,.88574,0v.00049a.62713.62713,0,0,1,0,.88574l-.20923.20923-.363-.363a.20025.20025,0,1,0-.2832.2832l.363.363-.42975.42981-.194-.19373a.20026.20026,0,0,0-.2832.2832l.194.19373-.4303.43036L13.418,8.73242a.20025.20025,0,1,0-.2832.2832l.36334.36334-.42969.42969-.1944-.1944a.20025.20025,0,0,0-.2832.2832l.1944.1944-.42969.42969-.36334-.36334a.20025.20025,0,0,0-.2832.2832l.36334.36334-.42987.42993-.19421-.19366a.20025.20025,0,0,0-.2832.2832l.19421.19366-.4303.43036-.36255-.36328a.20025.20025,0,0,0-.2832.2832l.36255.36328-.13708.13715c.07.021.14227.04193.19232.06293.079.03363.10358.0329.15106.0575l.06567.03467.00183.00037,4.42926-4.4295.00079-.00031.00031-.00079.35028-.35028a1.02734,1.02734,0,0,0,0-1.45166A1.05239,1.05239,0,0,0,14.248,6.291Z"/><path class="cls-2" d="M8.14963,12.03119a8.34155,8.34155,0,0,1,2.18414.30963,5.206,5.206,0,0,1,.71077.259l.22822-.44488a5.439,5.439,0,0,0-.80323-.2953,8.8445,8.8445,0,0,0-2.3199-.32841Z"/></g></g></svg>