<svg id="surprised-1" xmlns="http://www.w3.org/2000/svg" viewBox="0 0 16 16"><title>Compent-Uintra_icons_surprised-1</title><circle cx="8" cy="8" r="8" fill="#ffc838"/><ellipse cx="5.5" cy="7" rx="1" ry="1.25" fill="#333"/><ellipse cx="10.5" cy="7" rx="1" ry="1.25" fill="#333"/><path d="M13.47723,12.81886a3.81222,3.81222,0,0,0-.35989-0.48687,5.36088,5.36088,0,0,0-.96233-0.90522,4.78479,4.78479,0,0,0-1.14755-.63476,3.13364,3.13364,0,0,0-.5689-0.156,0.14931,0.14931,0,0,1,.02266-0.297,2.126,2.126,0,0,1,.65729.11722,4.36919,4.36919,0,0,1,1.27161.65207A5.31433,5.31433,0,0,1,13.4,12.11a2.89752,2.89752,0,0,1,.35025.56155,0.16144,0.16144,0,0,1-.07413.2068A0.14647,0.14647,0,0,1,13.47723,12.81886Z" transform="translate(0 -8)" fill="#333"/><ellipse cx="7.99219" cy="11.50049" rx="1.25" ry="1.5" fill="#333"/><path d="M2.52059,12.81886A3.81222,3.81222,0,0,1,2.88049,12.332a5.36088,5.36088,0,0,1,.96233-0.90522A4.78479,4.78479,0,0,1,4.99036,10.792a3.13364,3.13364,0,0,1,.5689-0.156,0.14931,0.14931,0,0,0-.02266-0.297,2.126,2.126,0,0,0-.65729.11722,4.36919,4.36919,0,0,0-1.27161.65207A5.31433,5.31433,0,0,0,2.59781,12.11a2.89751,2.89751,0,0,0-.35025.56155,0.16144,0.16144,0,0,0,.07413.2068A0.14647,0.14647,0,0,0,2.52059,12.81886Z" transform="translate(0 -8)" fill="#333"/></svg>