<svg id="sick" xmlns="http://www.w3.org/2000/svg" xmlns:xlink="http://www.w3.org/1999/xlink" viewBox="0 0 16 16"><defs><style>.cls-1{fill:#ffc600;}.cls-2{opacity:0.3;}.cls-3{fill:#fff;}.cls-4{opacity:0.8;}.cls-5{fill:url(#linear-gradient);}.cls-6{fill:url(#linear-gradient-2);}.cls-14,.cls-7{opacity:0.55;}.cls-7{fill:url(#linear-gradient-3);}.cls-8{fill:url(#linear-gradient-4);}.cls-9{opacity:0.75;}.cls-10{fill:url(#linear-gradient-5);}.cls-11{fill:url(#linear-gradient-6);}.cls-12{fill:#333;}.cls-13{fill:#f33;}.cls-15{fill:url(#linear-gradient-7);}.cls-16{fill:url(#linear-gradient-8);}</style><linearGradient id="linear-gradient" x1="4.72431" y1="6.39412" x2="4.72431" gradientUnits="userSpaceOnUse"><stop offset="0" stop-color="#fff" stop-opacity="0"/><stop offset="0.11016" stop-color="#fff" stop-opacity="0.14218"/><stop offset="0.35948" stop-color="#fff" stop-opacity="0.44309"/><stop offset="0.58203" stop-color="#fff" stop-opacity="0.68218"/><stop offset="0.76954" stop-color="#fff" stop-opacity="0.85464"/><stop offset="0.91475" stop-color="#fff" stop-opacity="0.96065"/><stop offset="1" stop-color="#fff"/></linearGradient><linearGradient id="linear-gradient-2" x1="8" x2="8" y2="16" gradientUnits="userSpaceOnUse"><stop offset="0" stop-color="#ffec00"/><stop offset="0.4268" stop-color="#fdd713"/><stop offset="1" stop-color="#fbb533"/></linearGradient><linearGradient id="linear-gradient-3" x1="4.20493" y1="12.01201" x2="11.80324" y2="12.01201" gradientUnits="userSpaceOnUse"><stop offset="0" stop-color="#ff0" stop-opacity="0.6"/><stop offset="0.04837" stop-color="#ff0" stop-opacity="0.64814"/><stop offset="0.25672" stop-color="#ff0" stop-opacity="0.83801"/><stop offset="0.41568" stop-color="#ff0" stop-opacity="0.95584"/><stop offset="0.50538" stop-color="#ff0"/><stop offset="0.66083" stop-color="#ff0" stop-opacity="0.88806"/><stop offset="0.99603" stop-color="#ff0" stop-opacity="0.60353"/><stop offset="1" stop-color="#ff0" stop-opacity="0.6"/></linearGradient><linearGradient id="linear-gradient-4" x1="7.99964" y1="9.22507" x2="7.99964" y2="2.24881" gradientUnits="userSpaceOnUse"><stop offset="0" stop-color="#fdcd1a" stop-opacity="0.2"/><stop offset="0.03907" stop-color="#fdce1a" stop-opacity="0.23667"/><stop offset="0.10383" stop-color="#fdcf18" stop-opacity="0.336"/><stop offset="0.18628" stop-color="#fdd216" stop-opacity="0.49783"/><stop offset="0.28317" stop-color="#fed613" stop-opacity="0.72229"/><stop offset="0.38916" stop-color="#fedb10"/></linearGradient><linearGradient id="linear-gradient-5" x1="10.52153" y1="9.23361" x2="10.52153" y2="4.63361" gradientUnits="userSpaceOnUse"><stop offset="0" stop-color="#fdcd1a" stop-opacity="0.2"/><stop offset="0.23944" stop-color="#fdc81e" stop-opacity="0.37476"/><stop offset="0.7778" stop-color="#fcbc28" stop-opacity="0.81228"/><stop offset="1" stop-color="#fcb72c"/></linearGradient><linearGradient id="linear-gradient-6" x1="5.49572" y1="9.23361" x2="5.49572" y2="4.63361" xlink:href="#linear-gradient-5"/><linearGradient id="linear-gradient-7" x1="3.73689" y1="6.3487" x2="7.23363" y2="6.3487" xlink:href="#linear-gradient-3"/><linearGradient id="linear-gradient-8" x1="8.74917" y1="6.3487" x2="12.24334" y2="6.3487" xlink:href="#linear-gradient-3"/><symbol id="New_Symbol_3" data-name="New Symbol 3" viewBox="0 0 9.449 6.394"><g class="cls-4"><ellipse class="cls-5" cx="4.72431" cy="3.19706" rx="4.72431" ry="3.19706"/></g></symbol><symbol id="New_Symbol" data-name="New Symbol" viewBox="0 0 15.992 15.992"><path class="cls-1" d="M7.99609.25A7.74609,7.74609,0,1,1,.25,7.99609,7.75486,7.75486,0,0,1,7.99609.25m0-.25a7.99609,7.99609,0,1,0,7.99609,7.99609A7.99609,7.99609,0,0,0,7.99609,0Z"/></symbol><symbol id="New_Symbol_1" data-name="New Symbol 1" viewBox="0 0 15.5 15.5"><g class="cls-2"><path class="cls-3" d="M7.75.25a7.5,7.5,0,1,1-7.5,7.5A7.5085,7.5085,0,0,1,7.75.25m0-.25A7.75,7.75,0,1,0,15.5,7.75,7.75,7.75,0,0,0,7.75,0Z"/></g></symbol></defs><title>sick</title><circle class="cls-6" cx="8" cy="8" r="8"/><use width="9.44863" height="6.39412" transform="translate(3.27595 0.25296)" xlink:href="#New_Symbol_3"/><use width="15.99218" height="15.99218" transform="translate(0.00417)" xlink:href="#New_Symbol"/><use id="New_Symbol_1-3" data-name="New Symbol 1" width="15.5" height="15.5" transform="translate(0.25026 0.24609)" xlink:href="#New_Symbol_1"/><path class="cls-7" d="M8.002,12.52405a12.5776,12.5776,0,0,0-3.34687.45242.43618.43618,0,0,1-.43836-.55281.67167.67167,0,0,1,.15363-.25076,2.34981,2.34981,0,0,1,.58464-.45457,4.86548,4.86548,0,0,1,1.22-.46589,6.70923,6.70923,0,0,1,.84978-.15443,9.51924,9.51924,0,0,1,1.95763,0,6.70923,6.70923,0,0,1,.84978.15443,4.86548,4.86548,0,0,1,1.22.46589,2.34981,2.34981,0,0,1,.58464.45457.67167.67167,0,0,1,.15363.25076c.03863.13807.009.55281-.36669.55281A13.88576,13.88576,0,0,0,8.002,12.52405Z"/><path class="cls-8" d="M12.585,4.50185a.19132.19132,0,0,0-.17-.19989,5.35841,5.35841,0,0,1-1.94-.43137,4.67581,4.67581,0,0,1-1.14922-.93214A3.54612,3.54612,0,0,1,8.93,2.31076a.19816.19816,0,0,0-.114-.0528c-.10875-.01221-1.4931-.01221-1.60185,0a.198.198,0,0,0-.11393.0528,3.54645,3.54645,0,0,1-.39581.62769,4.67581,4.67581,0,0,1-1.14922.93214A5.43649,5.43649,0,0,1,3.59856,4.302a.19132.19132,0,0,0-.16991.19989c0,2.077-2.969,4.72322-2.28154,4.72322h13.75C15.39139,9.22507,12.585,6.76705,12.585,4.50185Z"/><g class="cls-9"><circle class="cls-10" cx="10.52153" cy="6.93361" r="2.3"/><circle class="cls-11" cx="5.49572" cy="6.93361" r="2.3"/></g><g id="Layer_2" data-name="Layer 2"><g id="sick-2" data-name="sick"><path class="cls-12" d="M7.18685,2.48672l-.0862.15252a2.9169,2.9169,0,0,1-.2889.4,5.03566,5.03566,0,0,1-1.13863.94325,4.69422,4.69422,0,0,1-1.39683.55146,2.61267,2.61267,0,0,1-.69762.0585L3.5706,4.59171a.15152.15152,0,0,1-.14123-.1629.15378.15378,0,0,1,.14929-.13489A3.28326,3.28326,0,0,0,4.18978,4.19a4.75725,4.75725,0,0,0,1.2625-.543,4.66527,4.66527,0,0,0,1.072-.84109,2.88585,2.88585,0,0,0,.38041-.47753.16825.16825,0,0,1,.22317-.05844.15177.15177,0,0,1,.06355.20864Z"/><path class="cls-12" d="M9.10867,2.32836a2.88586,2.88586,0,0,0,.38041.47753,4.66527,4.66527,0,0,0,1.072.84109,4.75725,4.75725,0,0,0,1.26251.543,3.28329,3.28329,0,0,0,.61112.1039.149.149,0,0,1,.00811.29778l-.00811.00073a2.61267,2.61267,0,0,1-.69762-.0585,4.69421,4.69421,0,0,1-1.39683-.55146,5.03566,5.03566,0,0,1-1.13863-.94325,2.917,2.917,0,0,1-.2889-.4l-.0862-.15252-.00453-.008a.15189.15189,0,0,1,.066-.211.16815.16815,0,0,1,.22063.06068Z"/><path class="cls-12" d="M11.28475,12.72821l-.0709-.04529c-.05322-.034-.08257-.03857-.1693-.08314a5.20753,5.20753,0,0,0-.71077-.259,8.25623,8.25623,0,0,0-2.33257-.308c-.21776-.00293-.4475.001-.642.01415-.211.01554-.4186.03653-.617.06936a7.85966,7.85966,0,0,0-1.07358.22445,5.20754,5.20754,0,0,0-.71077.259,2.5799,2.5799,0,0,0-.22957.11877l-.01655.01026a.33306.33306,0,0,1-.43762-.48853,1.8206,1.8206,0,0,1,.27666-.26611,3.90642,3.90642,0,0,1,.79152-.48371,5.8599,5.8599,0,0,1,1.21162-.40429c.22827-.048.46629-.083.709-.11144.2597-.02778.49289-.04133.73832-.04876a8.11283,8.11283,0,0,1,1.44727.16019,5.86,5.86,0,0,1,1.21162.40429,3.90644,3.90644,0,0,1,.79152.48371,1.66116,1.66116,0,0,1,.211.19289l.055.06356a.3331.3331,0,0,1-.43291.49759Z"/><path class="cls-3" d="M15.52069,6.47034a.82687.82687,0,0,0-1.16931,0L9.30615,11.51563a.82136.82136,0,0,0-.239.56848,9.7802,9.7802,0,0,1,.99646.16315,5.46933,5.46933,0,0,1,.63739.18427l.02032.00751L15.5207,7.63966A.82682.82682,0,0,0,15.52069,6.47034Z"/><path class="cls-13" d="M12.61365,8.20807,8.76349,12.05829a9.69418,9.69418,0,0,1,1.30011.189,5.46933,5.46933,0,0,1,.63739.18427l.02032.00745L13.783,9.37738Z"/><path class="cls-12" d="M14.248,6.291,8.65776,11.8813l.48689.079,5.3866-5.3866a.62832.62832,0,0,1,.88574,0v.00049a.62713.62713,0,0,1,0,.88574l-.20923.20923-.363-.363a.20025.20025,0,1,0-.2832.2832l.363.363-.42975.42981-.194-.19373a.20026.20026,0,0,0-.2832.2832l.194.19373-.4303.43036L13.418,8.73242a.20025.20025,0,1,0-.2832.2832h0l.36334.36334-.42969.42969-.1944-.1944a.20025.20025,0,0,0-.2832.2832l.1944.1944-.42969.42969-.36334-.36334a.20025.20025,0,1,0-.2832.2832l.36334.36334-.42987.42993-.19421-.19366a.20025.20025,0,0,0-.2832.2832h0l.19421.19366-.4303.43036-.36255-.36328a.20025.20025,0,0,0-.2832.2832h0l.36255.36328-.13708.13715c.07.021.14227.04193.19232.06293.079.03363.10358.0329.15106.0575l.06567.03467.00183.00037,4.42926-4.4295.00079-.00031.00031-.00079.35028-.35028a1.02734,1.02734,0,0,0,0-1.45166A1.05239,1.05239,0,0,0,14.248,6.291Z"/><path class="cls-12" d="M8.14963,12.03119a8.34158,8.34158,0,0,1,2.18414.30963,5.206,5.206,0,0,1,.71077.259l.22822-.44488a5.439,5.439,0,0,0-.80323-.2953,8.84452,8.84452,0,0,0-2.3199-.32841Z"/></g></g><g class="cls-14"><path class="cls-15" d="M7.22574,6.59527a1.6744,1.6744,0,0,0-1.71731-1.3835,1.76388,1.76388,0,0,0-1.76593,1.417.34487.34487,0,0,0,.05187.25582,7.62711,7.62711,0,0,0,1.67707.60109A8.19992,8.19992,0,0,0,7.212,6.839.58653.58653,0,0,0,7.22574,6.59527Z"/></g><g class="cls-14"><path class="cls-16" d="M12.23884,6.59527a1.6744,1.6744,0,0,0-1.71731-1.3835,1.76388,1.76388,0,0,0-1.76593,1.417.43211.43211,0,0,0,.03532.25582,5.77692,5.77692,0,0,0,1.69363.60109,7.76307,7.76307,0,0,0,1.7-.64664A.399.399,0,0,0,12.23884,6.59527Z"/></g><path class="cls-12" d="M12.226,6.839a.7779.7779,0,0,1-.0737.14984,2.08671,2.08671,0,0,1-.27449.37925,1.94549,1.94549,0,0,1-.55723.42836,2.05381,2.05381,0,0,1-.84913.20312,2.32279,2.32279,0,0,1-.41332-.06062,1.97754,1.97754,0,0,1-.39439-.1425,1.94549,1.94549,0,0,1-.55723-.42836,1.848,1.848,0,0,1-.35065-.53219l-.00667-.01835a.25178.25178,0,0,1,.15989-.35284.38744.38744,0,0,1,.31938.08718s.175.13265.41581.278a1.97137,1.97137,0,0,0,.40232.18836,1.01529,1.01529,0,0,0,.21815.05769,1.3004,1.3004,0,0,0,.24812.0123,1.10652,1.10652,0,0,0,.2067-.0123,1.01529,1.01529,0,0,0,.21815-.05769A1.97137,1.97137,0,0,0,11.34,6.82988c.11574-.07565.22887-.14093.29627-.19418l.122-.08691c.13983-.09959.33392-.15475.43351-.01492A.31084.31084,0,0,1,12.2374,6.8Z"/><path class="cls-12" d="M7.226,6.839a.77794.77794,0,0,1-.07369.14984,2.08677,2.08677,0,0,1-.27449.37925,1.94548,1.94548,0,0,1-.55723.42836,2.05381,2.05381,0,0,1-.84913.20312,2.32281,2.32281,0,0,1-.4133-.06057,1.97755,1.97755,0,0,1-.39439-.1425,1.94548,1.94548,0,0,1-.55723-.42836A1.848,1.848,0,0,1,3.75589,6.836L3.74922,6.8176c-.02618-.1734.01718-.30283.1481-.34995a.411.411,0,0,1,.33118.08424s.175.13265.41581.278a1.97137,1.97137,0,0,0,.40232.18836,1.01535,1.01535,0,0,0,.21815.05769,1.3004,1.3004,0,0,0,.24812.0123,1.10652,1.10652,0,0,0,.2067-.0123,1.01532,1.01532,0,0,0,.21815-.05769,1.97137,1.97137,0,0,0,.40232-.18836c.11574-.07565.22887-.14093.29627-.19418l.122-.08691c.13983-.09959.33392-.1547.43351-.01486A.31084.31084,0,0,1,7.23743,6.8Z"/></svg>