<svg id="great" xmlns="http://www.w3.org/2000/svg" xmlns:xlink="http://www.w3.org/1999/xlink" viewBox="0 0 16 16"><defs><style>.cls-1{fill:url(#linear-gradient);}.cls-2{opacity:0.8;}.cls-3{fill:url(#linear-gradient-2);}.cls-4{fill:#ffc600;}.cls-5{opacity:0.3;}.cls-6{fill:#fff;}.cls-7{fill:#333;}.cls-8{fill:#a9eaf8;opacity:0.6;}.cls-9{fill:url(#linear-gradient-3);}.cls-10{fill:#5e5e5e;}.cls-11{fill:url(#linear-gradient-4);}</style><linearGradient id="linear-gradient" x1="9" y1="2.00556" x2="9" y2="16.00194" gradientUnits="userSpaceOnUse"><stop offset="0" stop-color="#ffec00"/><stop offset="0.24465" stop-color="#fee308"/><stop offset="0.64545" stop-color="#fdca1c"/><stop offset="1" stop-color="#fbaf33"/></linearGradient><linearGradient id="linear-gradient-2" x1="-8181.68906" y1="-8178.95173" x2="-8181.68906" y2="-8184.54658" gradientTransform="translate(-8173.08021 8188.916) rotate(90)" gradientUnits="userSpaceOnUse"><stop offset="0" stop-color="#fff" stop-opacity="0"/><stop offset="0.11016" stop-color="#fff" stop-opacity="0.14218"/><stop offset="0.35948" stop-color="#fff" stop-opacity="0.44309"/><stop offset="0.58203" stop-color="#fff" stop-opacity="0.68218"/><stop offset="0.76954" stop-color="#fff" stop-opacity="0.85464"/><stop offset="0.91475" stop-color="#fff" stop-opacity="0.96065"/><stop offset="1" stop-color="#fff"/></linearGradient><linearGradient id="linear-gradient-3" x1="-14.80586" y1="61.26046" x2="-9.21673" y2="57.81218" gradientTransform="matrix(0.97665, 0.21485, -0.21485, 0.97665, 28.6635, -49.49585)" gradientUnits="userSpaceOnUse"><stop offset="0" stop-color="#aceaf8"/><stop offset="0.22867" stop-color="#b3ebf8"/><stop offset="0.55306" stop-color="#c5edf9"/><stop offset="0.60591" stop-color="#c9edf9"/><stop offset="0.65856" stop-color="#d1f0fa"/><stop offset="1" stop-color="#fff"/></linearGradient><linearGradient id="linear-gradient-4" x1="-14.20629" y1="79.50779" x2="-6.1955" y2="80.20864" gradientTransform="matrix(0.96193, 0.27329, -0.27329, 0.96193, 36.07297, -62.92378)" gradientUnits="userSpaceOnUse"><stop offset="0" stop-color="#a9eaf8"/><stop offset="0.13247" stop-color="#b4ebf8"/><stop offset="0.27586" stop-color="#c6ecf9"/><stop offset="0.33087" stop-color="#d3f0fa"/><stop offset="0.44036" stop-color="#e7f7fc"/><stop offset="0.56653" stop-color="#f4fbfe"/><stop offset="0.7228" stop-color="#fdfeff"/><stop offset="1" stop-color="#fff"/></linearGradient></defs><title>great</title><circle class="cls-1" cx="9" cy="9.00375" r="6.99819"/><g class="cls-2"><ellipse class="cls-3" cx="10.55464" cy="5.34125" rx="2.79807" ry="4.13473" transform="translate(1.51391 12.96979) rotate(-66.99956)"/></g><path class="cls-4" d="M9.00355,2.25374h0a6.74994,6.74994,0,0,1-.00669,13.49988,6.74994,6.74994,0,0,1,.0067-13.49988m-.00039-.25006a7.002,7.002,0,1,0,2.73131.55815,7.00061,7.00061,0,0,0-2.73131-.55815Z"/><g id="_Group_" data-name="&lt;Group&gt;"><g class="cls-5"><path class="cls-6" d="M9.00336,2.50163h0a6.5,6.5,0,1,1-5.985,3.96085,6.45595,6.45595,0,0,1,5.985-3.96085M9.003,2.25157a6.752,6.752,0,1,0,2.63376.53822A6.75056,6.75056,0,0,0,9.003,2.25157Z"/></g></g><ellipse class="cls-7" cx="9.27993" cy="6.47307" rx="1.24418" ry="0.82945" transform="translate(0.72012 13.87222) rotate(-75.73738)"/><ellipse class="cls-7" cx="12.60451" cy="7.29945" rx="1.24418" ry="0.82945" transform="translate(2.42473 17.7171) rotate(-75.73738)"/><path class="cls-7" d="M8.71854,13.46721a4.44527,4.44527,0,0,0,4.37871-.7725c.2283-.19412.86183-.8835.7864-1.48509-.08228-.65686-.7329-.69965-.97881-.71532a12.10788,12.10788,0,0,1-3.05751-.56307A12.10791,12.10791,0,0,1,7.02911,8.61859a.899.899,0,0,0-1.21223.01588,2.11869,2.11869,0,0,0-.21954,1.66605A4.44527,4.44527,0,0,0,8.71854,13.46721Z"/><path class="cls-6" d="M9.35758,10.81362a10.55179,10.55179,0,0,0,3.34085.50589c.14624.00293.1094.11931.07909.21326a3.436,3.436,0,0,1-4.024,1.16545,3.42647,3.42647,0,0,1-2.59861-3.2796c.02973-.09413.06376-.19972.18688-.12439a10.51749,10.51749,0,0,0,3.01133,1.518"/><path class="cls-8" d="M12.69842,11.3195a10.55216,10.55216,0,0,1-3.34086-.50591l-.00451-.00144a10.51678,10.51678,0,0,1-3.0113-1.51792c-.12313-.07538-.15718.03024-.1869.12436a1.33468,1.33468,0,0,0,.02206.63136,10.40935,10.40935,0,0,0,2.94286,1.47283l.00451.00144a10.46028,10.46028,0,0,0,3.27467.50361,1.32679,1.32679,0,0,0,.37855-.49509C12.80781,11.43879,12.84467,11.32245,12.69842,11.3195Z"/><path class="cls-9" d="M3.86475,10.17188a1.64227,1.64227,0,0,1-.356-.03906,2.7154,2.7154,0,0,1-1.8916-1.34473,1.45033,1.45033,0,0,1,.127-1.36133A11.7902,11.7902,0,0,0,3.52637,3.17969c.23145-.93506.709-1.40918,1.42041-1.40918a1.93784,1.93784,0,0,1,.4126.04785c.8335.26074,1.25.894,1.3623,2.05664a10.3093,10.3093,0,0,1-.57373,3.94727c-.34814,1.13623-1.13086,2.34961-2.2832,2.34961Z"/><path class="cls-10" d="M4.94651,1.92046a1.776,1.776,0,0,1,.38065.04445c.75358.23629,1.13854.823,1.245,1.92464a10.00228,10.00228,0,0,1-.56767,3.88866C5.62918,9.00376,4.85364,10.022,3.86514,10.022a1.50562,1.50562,0,0,1-.32409-.0359h0c-1.14213-.25126-2.41011-1.23663-1.668-2.48246a11.92647,11.92647,0,0,0,1.79865-4.288C3.893,2.3213,4.327,1.92046,4.94651,1.92046m0-.30007c-.78905,0-1.316.51246-1.56608,1.52313A11.6444,11.6444,0,0,1,1.61525,7.35005,1.596,1.596,0,0,0,1.4795,8.84828a2.8656,2.8656,0,0,0,1.99707,1.43085,1.81268,1.81268,0,0,0,.38857.04291c1.03267,0,1.96235-.94107,2.42625-2.456a10.43629,10.43629,0,0,0,.57943-4.00538c-.11736-1.21451-.57934-1.90788-1.45389-2.1821a2.099,2.099,0,0,0-.47043-.0582Z"/><path class="cls-11" d="M4.13184,15.88281a3.87853,3.87853,0,0,1-1.21387-.2002l-.5957-.22949a3.22225,3.22225,0,0,1-2.0874-3.85449l.6958-2.4502c.458-1.89795,1.66992-3.0332,3.23975-3.0332a3.89407,3.89407,0,0,1,1.30811.24219l.64746.23877A4.12517,4.12517,0,0,1,8.604,8.748a3.77133,3.77133,0,0,1-.1167,3.00684l-.47314,1.209A4.37637,4.37637,0,0,1,4.13184,15.88281Z"/><path class="cls-10" d="M4.1705,6.2302a3.764,3.764,0,0,1,1.26938.23575l.64657.23834c2.25479.846,3.26541,2.73289,2.29466,5.00539l-.47377,1.2126a4.25749,4.25749,0,0,1-3.77546,2.84519A3.75347,3.75347,0,0,1,2.954,15.573l-.59045-.22693a3.1293,3.1293,0,0,1-2.018-3.717L1.0414,9.17991c.433-1.79257,1.57409-2.94965,3.1291-2.94971m.00008-.23005h0C2.54389,6.00021,1.29051,7.16871.81778,9.1259L.12427,11.56623a3.36964,3.36964,0,0,0,2.14645,3.99036l.60074.23117a4.00472,4.00472,0,0,0,1.26042.20975,4.48746,4.48746,0,0,0,3.987-2.98487l.47648-1.21924A3.87554,3.87554,0,0,0,8.70995,8.703,4.2358,4.2358,0,0,0,6.16726,6.4889l-.64781-.2388a4.007,4.007,0,0,0-1.34887-.24995Z"/><path class="cls-10" d="M6.22194,9.43876l.45381.10849a8.56524,8.56524,0,0,1,.96541.35871,5.7639,5.7639,0,0,1,.90576.50446c.23891.16473.32547.23571.32547.23571l-.24191.5717a4.8621,4.8621,0,0,0-.3938-.39906,9.14622,9.14622,0,0,0-.77065-.6039A13.45418,13.45418,0,0,0,6.22194,9.43876Z"/><path class="cls-10" d="M6.5321,12.3466c.76115.26525,1.44315.50206,1.44315.50206l-.21454.61257s-.71332-.43907-1.35311-.82015c-.656-.39073-1.30606-.843-1.30606-.843S5.81954,12.09828,6.5321,12.3466Z"/><path class="cls-10" d="M3.90967,14.05126s.698.2288,1.40271.38108a11.44976,11.44976,0,0,0,1.401.25746s-.14112.43615-.26883.41029c-.07073-.01432-.15687-.0334-.25375-.0581a9.83348,9.83348,0,0,1-.97157-.3162c-.34243-.142-.67252-.30714-.91571-.43684C4.06128,14.15637,3.90967,14.05126,3.90967,14.05126Z"/></svg>