<svg id="party" xmlns="http://www.w3.org/2000/svg" xmlns:xlink="http://www.w3.org/1999/xlink" viewBox="0 0 16 16"><defs><style>.cls-1{fill:#ffc600;}.cls-2{opacity:0.3;}.cls-3{fill:#fff;}.cls-4{opacity:0.8;}.cls-5{fill:url(#linear-gradient);}.cls-6{fill:url(#linear-gradient-2);}.cls-13,.cls-7,.cls-8{opacity:0.55;}.cls-7{fill:url(#linear-gradient-3);}.cls-8{fill:url(#linear-gradient-4);}.cls-9{fill:#3c5ccd;}.cls-10{fill:#333;}.cls-11{fill:#e15263;}.cls-12{fill:#00b7a5;}.cls-13{fill:url(#linear-gradient-5);}.cls-14{fill:#7f47dd;}</style><linearGradient id="linear-gradient" x1="4.72431" y1="6.39412" x2="4.72431" gradientUnits="userSpaceOnUse"><stop offset="0" stop-color="#fff" stop-opacity="0"/><stop offset="0.11016" stop-color="#fff" stop-opacity="0.14218"/><stop offset="0.35948" stop-color="#fff" stop-opacity="0.44309"/><stop offset="0.58203" stop-color="#fff" stop-opacity="0.68218"/><stop offset="0.76954" stop-color="#fff" stop-opacity="0.85464"/><stop offset="0.91475" stop-color="#fff" stop-opacity="0.96065"/><stop offset="1" stop-color="#fff"/></linearGradient><linearGradient id="linear-gradient-2" x1="8.00585" x2="8.00585" y2="16" gradientUnits="userSpaceOnUse"><stop offset="0" stop-color="#ffec00"/><stop offset="0.4268" stop-color="#fdd713"/><stop offset="1" stop-color="#fbb533"/></linearGradient><linearGradient id="linear-gradient-3" x1="8.7316" y1="7.17704" x2="12.26167" y2="7.17704" gradientUnits="userSpaceOnUse"><stop offset="0" stop-color="#ff0" stop-opacity="0.6"/><stop offset="0.14519" stop-color="#ff0" stop-opacity="0.69979"/><stop offset="0.45316" stop-color="#ff0" stop-opacity="0.95427"/><stop offset="0.50538" stop-color="#ff0"/><stop offset="1" stop-color="#ff0" stop-opacity="0.6"/></linearGradient><linearGradient id="linear-gradient-4" x1="3.74726" y1="7.17704" x2="7.27734" y2="7.17704" xlink:href="#linear-gradient-3"/><linearGradient id="linear-gradient-5" x1="6.75194" y1="12.88431" x2="9.25194" y2="12.88431" xlink:href="#linear-gradient-3"/><symbol id="New_Symbol_2" data-name="New Symbol 2" viewBox="0 0 9.449 6.394"><g class="cls-4"><ellipse class="cls-5" cx="4.72431" cy="3.19706" rx="4.72431" ry="3.19706"/></g></symbol><symbol id="New_Symbol" data-name="New Symbol" viewBox="0 0 15.992 15.992"><path class="cls-1" d="M7.99609.25A7.74609,7.74609,0,1,1,.25,7.99609,7.75486,7.75486,0,0,1,7.99609.25m0-.25a7.99609,7.99609,0,1,0,7.99609,7.99609A7.99609,7.99609,0,0,0,7.99609,0Z"/></symbol><symbol id="New_Symbol_1" data-name="New Symbol 1" viewBox="0 0 15.5 15.5"><g class="cls-2"><path class="cls-3" d="M7.75.25a7.5,7.5,0,1,1-7.5,7.5A7.5085,7.5085,0,0,1,7.75.25m0-.25A7.75,7.75,0,1,0,15.5,7.75,7.75,7.75,0,0,0,7.75,0Z"/></g></symbol></defs><title>Compent-Uintra_icons-ver2.0_party</title><circle class="cls-6" cx="8.00585" cy="8" r="8"/><path class="cls-7" d="M12.257,7.38221a.4768.4768,0,0,1-.03846.26948.42466.42466,0,0,1-.51725.1,3.08355,3.08355,0,0,0-1.22828-.249,2.40073,2.40073,0,0,0-1.1874.24891.42226.42226,0,0,1-.51135-.1.50068.50068,0,0,1-.03836-.26948,2.89653,2.89653,0,0,1,1.76055-.82438A2.89544,2.89544,0,0,1,12.257,7.38221Z"/><path class="cls-8" d="M7.27269,7.38221a.4768.4768,0,0,1-.03846.26948.42466.42466,0,0,1-.51726.1,3.08357,3.08357,0,0,0-1.22829-.249,2.40074,2.40074,0,0,0-1.1874.24891.42226.42226,0,0,1-.51135-.1.50068.50068,0,0,1-.03836-.26948,2.89654,2.89654,0,0,1,1.76056-.82438A2.89545,2.89545,0,0,1,7.27269,7.38221Z"/><use width="9.44863" height="6.39412" transform="translate(3.27569 0.25296)" xlink:href="#New_Symbol_2"/><use width="15.99218" height="15.99218" transform="translate(0.00392)" xlink:href="#New_Symbol"/><use id="New_Symbol_1-3" data-name="New Symbol 1" width="15.5" height="15.5" transform="translate(0.25001 0.24609)" xlink:href="#New_Symbol_1"/><path class="cls-9" d="M15.00577,5.99151V0L9.532,2.62341C9.66706,4.18362,13.12979,5.99151,15.00577,5.99151Z"/><path class="cls-10" d="M12.25061,7.338a1.829,1.829,0,0,0-.31445-.59583,2.02532,2.02532,0,0,0-.55341-.49878,1.64384,1.64384,0,0,0-.41565-.17749,2.17179,2.17179,0,0,0-.44861-.06689,1.93923,1.93923,0,0,0-.49414.06689,1.64478,1.64478,0,0,0-.41565.17749,2.0262,2.0262,0,0,0-.55341.49878,1.79908,1.79908,0,0,0-.31268.59338L8.738,7.35486a.24669.24669,0,0,0,.382.25781L9.25629,7.517c.07489-.06061.20276-.13318.32916-.22064a1.94823,1.94823,0,0,1,.44055-.21527,1.47446,1.47446,0,0,1,.23279-.06219,1.33568,1.33568,0,0,1,.474,0,1.47622,1.47622,0,0,1,.23279.06219,1.94823,1.94823,0,0,1,.44055.21527c.2652.16711.46362.31384.46362.31384a.24573.24573,0,0,0,.38495-.25543Z"/><path class="cls-10" d="M6.95178,6.74213a2.0251,2.0251,0,0,0-.55341-.49872,1.64384,1.64384,0,0,0-.41565-.17749,2.17188,2.17188,0,0,0-.44861-.067A1.94194,1.94194,0,0,0,5.04,6.06586a1.64478,1.64478,0,0,0-.41565.17749,2.0262,2.0262,0,0,0-.55341.49878,1.79908,1.79908,0,0,0-.31268.59338l-.00458.01941a.24671.24671,0,0,0,.382.25781l.13623-.09564c.07489-.06067.20276-.13318.32916-.22064a1.951,1.951,0,0,1,.44055-.21533,1.48776,1.48776,0,0,1,.23279-.06219,1.33568,1.33568,0,0,1,.474,0,1.48956,1.48956,0,0,1,.23279.06219,1.951,1.951,0,0,1,.44055.21533c.2652.16711.46362.31384.46362.31384a.24577.24577,0,0,0,.385-.25543L7.2663,7.338A1.83119,1.83119,0,0,0,6.95178,6.74213Z"/><path class="cls-11" d="M3.02937,3.97357a.35.35,0,0,1-.16512-.66767.54058.54058,0,0,0,.34634-.38645.81831.81831,0,0,0-.41939-.64918l.00043-.00151a1.46352,1.46352,0,0,1-.703-1.28434A1.2002,1.2002,0,0,1,2.8403.03171.34991.34991,0,0,1,3.1318.66792a.54058.54058,0,0,0-.34634.38645.81831.81831,0,0,0,.41937.64918l-.0004.0015a1.46352,1.46352,0,0,1,.703,1.28436,1.2002,1.2002,0,0,1-.75166.95272A.34778.34778,0,0,1,3.02937,3.97357Z"/><path class="cls-12" d="M15.04994,14.19429a1.14216,1.14216,0,0,1-1.08317-.40053,1.39275,1.39275,0,0,1-.06662-1.39177l-.00107-.001a.77874.77874,0,0,0,.01832-.73525.51444.51444,0,0,0-.473-.1419.333.333,0,0,1-.07906-.66127,1.14216,1.14216,0,0,1,1.08317.40053,1.39275,1.39275,0,0,1,.06662,1.39175l.00109.001a.77874.77874,0,0,0-.01834.73526.51444.51444,0,0,0,.473.1419.333.333,0,1,1,.07906.66129Z"/><path class="cls-3" d="M11.75542,1.5578l3.062,4.42316c.06287.0036.12854.01056.18835.01056V5.37213L12.21331,1.33832Z"/><polygon class="cls-3" points="13.783 0.586 13.347 0.795 15.006 3.192 15.006 2.353 13.783 0.586"/><path class="cls-3" d="M10.17,2.31763l1.97852,2.85809a9.52622,9.52622,0,0,0,.89209.38782L10.6383,2.0932Z"/><path class="cls-13" d="M9.25194,12c0,1.00965-.45586,1.76863-1.25,1.76863-.80586,0-1.25-.759-1.25-1.76863Z"/><circle class="cls-10" cx="8.00194" cy="12" r="1.25"/><path class="cls-14" d="M8.66123,11.64974a.7569.7569,0,0,0-1.00138-.37518L.45065,14.55478a.756.756,0,0,0,.61108,1.383l.01412-.00641L8.286,12.65115A.75714.75714,0,0,0,8.66123,11.64974Z"/></svg>