<svg id="sad-2" xmlns="http://www.w3.org/2000/svg" xmlns:xlink="http://www.w3.org/1999/xlink" viewBox="0 0 16 16"><defs><style>.cls-1{fill:url(#linear-gradient);}.cls-2{opacity:0.8;}.cls-3{fill:url(#linear-gradient-2);}.cls-4{fill:#ffc600;}.cls-5{opacity:0.3;}.cls-6{fill:#fff;}.cls-7{fill:#333;}.cls-8{opacity:0.65;fill:url(#linear-gradient-3);}</style><linearGradient id="linear-gradient" x1="8.00193" x2="8.00193" y2="16" gradientUnits="userSpaceOnUse"><stop offset="0" stop-color="#ffec00"/><stop offset="0.4268" stop-color="#fdd713"/><stop offset="1" stop-color="#fbb533"/></linearGradient><linearGradient id="linear-gradient-2" x1="7.99609" y1="6.64708" x2="7.99609" y2="0.25296" gradientUnits="userSpaceOnUse"><stop offset="0" stop-color="#fff" stop-opacity="0"/><stop offset="0.11016" stop-color="#fff" stop-opacity="0.14218"/><stop offset="0.35948" stop-color="#fff" stop-opacity="0.44309"/><stop offset="0.58203" stop-color="#fff" stop-opacity="0.68218"/><stop offset="0.76954" stop-color="#fff" stop-opacity="0.85464"/><stop offset="0.91475" stop-color="#fff" stop-opacity="0.96065"/><stop offset="1" stop-color="#fff"/></linearGradient><linearGradient id="linear-gradient-3" x1="4.00504" y1="11.23284" x2="11.99358" y2="11.23284" gradientUnits="userSpaceOnUse"><stop offset="0" stop-color="#ff0" stop-opacity="0.6"/><stop offset="0.04837" stop-color="#ff0" stop-opacity="0.64814"/><stop offset="0.25672" stop-color="#ff0" stop-opacity="0.83801"/><stop offset="0.41568" stop-color="#ff0" stop-opacity="0.95584"/><stop offset="0.50538" stop-color="#ff0"/><stop offset="0.66083" stop-color="#ff0" stop-opacity="0.88806"/><stop offset="0.99603" stop-color="#ff0" stop-opacity="0.60353"/><stop offset="1" stop-color="#ff0" stop-opacity="0.6"/></linearGradient></defs><title>sad</title><circle class="cls-1" cx="8.00193" cy="8" r="8"/><g class="cls-2"><ellipse class="cls-3" cx="7.99609" cy="3.45002" rx="4.72431" ry="3.19706"/></g><path class="cls-4" d="M7.99609.25A7.74609,7.74609,0,1,1,.25,7.99609,7.75486,7.75486,0,0,1,7.99609.25m0-.25a7.99609,7.99609,0,1,0,7.99609,7.99609A7.99609,7.99609,0,0,0,7.99609,0Z"/><g id="_Group_" data-name="&lt;Group&gt;"><g class="cls-5"><path class="cls-6" d="M7.99609.49609a7.5,7.5,0,1,1-7.5,7.5,7.5085,7.5085,0,0,1,7.5-7.5m0-.25a7.75,7.75,0,1,0,7.75,7.75,7.75,7.75,0,0,0-7.75-7.75Z"/></g></g><ellipse class="cls-7" cx="6.00193" cy="6.5" rx="1" ry="1.25"/><ellipse class="cls-7" cx="10.00193" cy="6.5" rx="1" ry="1.25"/><path class="cls-7" d="M8.817,1.08573a3.59455,3.59455,0,0,0,.3685.6277,5.36187,5.36187,0,0,0,1.07,1.13579,4.99453,4.99453,0,0,0,1.328.78634,3.27186,3.27186,0,0,0,.657.18171.182.182,0,0,1,.15825.19994.17706.17706,0,0,1-.18647.16968h0a2.56681,2.56681,0,0,1-.75272-.14049,4.88222,4.88222,0,0,1-1.45538-.78512,5.86288,5.86288,0,0,1-1.14689-1.341,3.68987,3.68987,0,0,1-.27261-.52005l-.07781-.19288h0a.18792.18792,0,0,1,.20391-.17446A.17934.17934,0,0,1,8.817,1.08573Z"/><path class="cls-7" d="M7.30512,1.03289a.18792.18792,0,0,1,.20391.17446h0l-.07781.19288a3.68987,3.68987,0,0,1-.27261.52005,5.86288,5.86288,0,0,1-1.14689,1.341,4.88222,4.88222,0,0,1-1.45538.78512,2.56681,2.56681,0,0,1-.75272.14049h0a.17706.17706,0,0,1-.18647-.16968.182.182,0,0,1,.15825-.19994,3.27186,3.27186,0,0,0,.657-.18171,4.99453,4.99453,0,0,0,1.328-.78634,5.36187,5.36187,0,0,0,1.07-1.13579,3.59455,3.59455,0,0,0,.3685-.6277A.17934.17934,0,0,1,7.30512,1.03289Z"/><path class="cls-8" d="M7.9978,11.60588a14.80544,14.80544,0,0,0-3.73972.6098.25042.25042,0,0,1-.24382-.328.8226.8226,0,0,1,.16168-.29842,2.54334,2.54334,0,0,1,.61527-.541,4.77789,4.77789,0,0,1,1.28389-.55444A6.32951,6.32951,0,0,1,6.9694,10.31a8.86556,8.86556,0,0,1,2.06019,0,6.32953,6.32953,0,0,1,.8943.18378,4.77792,4.77792,0,0,1,1.28389.55444,2.54336,2.54336,0,0,1,.61527.541.82261.82261,0,0,1,.16168.29842.254.254,0,0,1-.24985.328A15.04015,15.04015,0,0,0,7.9978,11.60588Z"/><path class="cls-7" d="M7.99779,11.048a8.73665,8.73665,0,0,0-1.23155.0951,7.13312,7.13312,0,0,0-1.146.30686,5.833,5.833,0,0,0-.70951.30978A3.88266,3.88266,0,0,1,4.199,12.069c-.18779.01765-.22536-.13274-.18471-.3098a.90911.90911,0,0,1,.16168-.32157,2.61487,2.61487,0,0,1,.61527-.58293,4.6076,4.6076,0,0,1,1.28389-.59746,5.93274,5.93274,0,0,1,.8943-.198,8.23173,8.23173,0,0,1,2.06019,0,5.93275,5.93275,0,0,1,.8943.198,4.60763,4.60763,0,0,1,1.28389.59746,2.61488,2.61488,0,0,1,.61527.58294.90911.90911,0,0,1,.16168.32157c.04066.17706.00308.32745-.18471.3098a3.85259,3.85259,0,0,1-.709-.30922,5.83306,5.83306,0,0,0-.70951-.30978,7.1679,7.1679,0,0,0-1.14876-.30686,8.73666,8.73666,0,0,0-1.23156-.0951"/></svg>