<svg id="angry" xmlns="http://www.w3.org/2000/svg" xmlns:xlink="http://www.w3.org/1999/xlink" viewBox="0 0 16 16"><defs><style>.cls-1{fill:url(#linear-gradient);}.cls-2{opacity:0.8;}.cls-3{fill:url(#linear-gradient-2);}.cls-4{fill:#ffc600;}.cls-5{opacity:0.3;}.cls-6{fill:#fff;}.cls-7{opacity:0.55;fill:url(#linear-gradient-3);}.cls-8{fill:#333;}</style><linearGradient id="linear-gradient" x1="8" x2="8" y2="16" gradientUnits="userSpaceOnUse"><stop offset="0" stop-color="#ffec00"/><stop offset="0.4268" stop-color="#fdd713"/><stop offset="1" stop-color="#fbb533"/></linearGradient><linearGradient id="linear-gradient-2" x1="8.00001" y1="6.65489" x2="8.00001" y2="0.26077" gradientUnits="userSpaceOnUse"><stop offset="0" stop-color="#fff" stop-opacity="0"/><stop offset="0.11016" stop-color="#fff" stop-opacity="0.14218"/><stop offset="0.35948" stop-color="#fff" stop-opacity="0.44309"/><stop offset="0.58203" stop-color="#fff" stop-opacity="0.68218"/><stop offset="0.76954" stop-color="#fff" stop-opacity="0.85464"/><stop offset="0.91475" stop-color="#fff" stop-opacity="0.96065"/><stop offset="1" stop-color="#fff"/></linearGradient><linearGradient id="linear-gradient-3" x1="5.82285" y1="13.13278" x2="10.18012" y2="13.13278" gradientUnits="userSpaceOnUse"><stop offset="0" stop-color="#ff0" stop-opacity="0.6"/><stop offset="0.14519" stop-color="#ff0" stop-opacity="0.69979"/><stop offset="0.45316" stop-color="#ff0" stop-opacity="0.95427"/><stop offset="0.50538" stop-color="#ff0"/><stop offset="1" stop-color="#ff0" stop-opacity="0.6"/></linearGradient></defs><title>angry</title><circle class="cls-1" cx="8" cy="8" r="8"/><g class="cls-2"><ellipse class="cls-3" cx="8.00001" cy="3.45783" rx="4.72431" ry="3.19706"/></g><path class="cls-4" d="M8,.25782A7.74609,7.74609,0,1,1,.25392,8.00391,7.75486,7.75486,0,0,1,8,.25782m0-.25A7.99609,7.99609,0,1,0,15.9961,8.00391,7.99609,7.99609,0,0,0,8,.00782Z"/><g id="_Group_" data-name="&lt;Group&gt;"><g class="cls-5"><path class="cls-6" d="M8,.50391a7.5,7.5,0,1,1-7.5,7.5,7.5085,7.5085,0,0,1,7.5-7.5m0-.25a7.75,7.75,0,1,0,7.75,7.75A7.75,7.75,0,0,0,8,.25391Z"/></g></g><path class="cls-7" d="M8.00157,12.2437a2.57046,2.57046,0,0,1,2.17831,1.70294.13751.13751,0,0,1-.19786.05213,4.52871,4.52871,0,0,0-1.98045-.41389,4.18765,4.18765,0,0,0-1.98045.41389.148.148,0,0,1-.19786-.05213A2.32455,2.32455,0,0,1,8.00157,12.2437Z"/><ellipse class="cls-8" cx="6.00157" cy="9.5" rx="1" ry="1.25"/><ellipse class="cls-8" cx="10.00157" cy="9.5" rx="1" ry="1.25"/><path class="cls-8" d="M8.00157,11.89936A2.34774,2.34774,0,0,1,9.90109,12.9478a2.07721,2.07721,0,0,1,.28681.63721.74382.74382,0,0,1,.03323.253.20817.20817,0,0,1-.04125.11748.14082.14082,0,0,1-.19786.00522,5.07172,5.07172,0,0,0-.6455-.44294,2.70212,2.70212,0,0,0-1.33495-.41841,2.74753,2.74753,0,0,0-1.33495.41841,5.07169,5.07169,0,0,0-.6455.44294.14082.14082,0,0,1-.19786-.00522A.20817.20817,0,0,1,5.782,13.838a.74382.74382,0,0,1,.03323-.253,2.07722,2.07722,0,0,1,.28681-.63721A2.34774,2.34774,0,0,1,8.00157,11.89936Z"/><path class="cls-8" d="M6.81422,8.85755a3.446,3.446,0,0,0-.40707-.4294,5.11549,5.11549,0,0,0-1.04838-.751A4.03,4.03,0,0,0,4.17164,7.2376a2.47742,2.47742,0,0,0-.57036-.03646.22474.22474,0,0,1-.24149-.2042A.25926.25926,0,0,1,3.56287,6.753a1.88176,1.88176,0,0,1,.67394-.04187,3.73179,3.73179,0,0,1,1.40549.44431,5.09557,5.09557,0,0,1,1.149.89443,3.55725,3.55725,0,0,1,.403.53652.23937.23937,0,0,1-.06755.32344A.23438.23438,0,0,1,6.81422,8.85755Z"/><path class="cls-8" d="M9.18578,8.85755a3.44592,3.44592,0,0,1,.40707-.4294,5.11548,5.11548,0,0,1,1.04838-.751,4.03,4.03,0,0,1,1.18713-.43955,2.47742,2.47742,0,0,1,.57036-.03646.22474.22474,0,0,0,.24149-.2042.25926.25926,0,0,0-.20307-.24388,1.88176,1.88176,0,0,0-.67394-.04187,3.73179,3.73179,0,0,0-1.40549.44431,5.09556,5.09556,0,0,0-1.149.89443,3.55718,3.55718,0,0,0-.403.53652.23937.23937,0,0,0,.06755.32344A.23438.23438,0,0,0,9.18578,8.85755Z"/></svg>