<svg id="hungry-2" xmlns="http://www.w3.org/2000/svg" xmlns:xlink="http://www.w3.org/1999/xlink" viewBox="0 0 16 16"><defs><style>.cls-1{fill:url(#linear-gradient);}.cls-2{opacity:0.8;}.cls-3{fill:url(#linear-gradient-2);}.cls-4{fill:#ffc600;}.cls-5{opacity:0.3;}.cls-6{fill:#fff;}.cls-7{fill:#333;}.cls-8{fill:url(#linear-gradient-3);}.cls-9{opacity:0.4;fill:url(#linear-gradient-4);}</style><linearGradient id="linear-gradient" x1="7.99609" y1="0.00007" x2="7.99609" y2="15.99226" gradientUnits="userSpaceOnUse"><stop offset="0" stop-color="#ffec00"/><stop offset="0.24465" stop-color="#fee308"/><stop offset="0.64545" stop-color="#fdca1c"/><stop offset="1" stop-color="#fbaf33"/></linearGradient><linearGradient id="linear-gradient-2" x1="7.99609" y1="6.64707" x2="7.99609" y2="0.25295" gradientUnits="userSpaceOnUse"><stop offset="0" stop-color="#fff" stop-opacity="0"/><stop offset="0.11016" stop-color="#fff" stop-opacity="0.14218"/><stop offset="0.35948" stop-color="#fff" stop-opacity="0.44309"/><stop offset="0.58203" stop-color="#fff" stop-opacity="0.68218"/><stop offset="0.76954" stop-color="#fff" stop-opacity="0.85464"/><stop offset="0.91475" stop-color="#fff" stop-opacity="0.96065"/><stop offset="1" stop-color="#fff"/></linearGradient><linearGradient id="linear-gradient-3" x1="8" y1="10.89763" x2="8" y2="15.99763" gradientUnits="userSpaceOnUse"><stop offset="0" stop-color="#a42549"/><stop offset="0.22454" stop-color="#bc3753"/><stop offset="0.48816" stop-color="#d0465c"/><stop offset="0.7486" stop-color="#dd4f61"/><stop offset="1" stop-color="#e15263"/></linearGradient><linearGradient id="linear-gradient-4" x1="8" y1="11.61136" x2="8" y2="15.39847" gradientUnits="userSpaceOnUse"><stop offset="0.42365" stop-color="#fff" stop-opacity="0"/><stop offset="0.47572" stop-color="#fff" stop-opacity="0.02537"/><stop offset="0.54857" stop-color="#fff" stop-opacity="0.09664"/><stop offset="0.63368" stop-color="#fff" stop-opacity="0.2138"/><stop offset="0.72808" stop-color="#fff" stop-opacity="0.37701"/><stop offset="0.83012" stop-color="#fff" stop-opacity="0.58644"/><stop offset="0.93691" stop-color="#fff" stop-opacity="0.83763"/><stop offset="1" stop-color="#fff"/></linearGradient></defs><title>hungry</title><circle class="cls-1" cx="7.99609" cy="7.99617" r="7.99609"/><g class="cls-2"><ellipse class="cls-3" cx="7.99609" cy="3.45001" rx="4.72431" ry="3.19706"/></g><path class="cls-4" d="M7.99609,0.25A7.74609,7.74609,0,1,1,.25,7.99609,7.75486,7.75486,0,0,1,7.99609.25m0-.25a7.99609,7.99609,0,1,0,7.99609,7.99609A7.99609,7.99609,0,0,0,7.99609,0h0Z"/><g id="_Group_" data-name="&lt;Group&gt;"><g class="cls-5"><path class="cls-6" d="M7.99609,0.49609a7.5,7.5,0,1,1-7.5,7.5,7.5085,7.5085,0,0,1,7.5-7.5m0-.25a7.75,7.75,0,1,0,7.75,7.75,7.75,7.75,0,0,0-7.75-7.75h0Z"/></g></g><ellipse class="cls-7" cx="6" cy="6.49223" rx="1" ry="1.25"/><ellipse class="cls-7" cx="10" cy="6.49223" rx="1" ry="1.25"/><path class="cls-7" d="M8.00005,10.49523a9.91278,9.91278,0,0,0,2.6323-.3432,10.302,10.302,0,0,0,1.3605-.4956,0.31174,0.31174,0,0,1,.4789.1939,1.57486,1.57486,0,0,1-.0929.7015,3.64262,3.64262,0,0,1-.6998,1.1747,5.32255,5.32255,0,0,1-1.5219,1.1585,4.8358,4.8358,0,0,1-1.0333.3561,4.899,4.899,0,0,1-2.2477.0001,4.83579,4.83579,0,0,1-1.0333-.3561,5.32257,5.32257,0,0,1-1.5219-1.1585,3.64014,3.64014,0,0,1-.6998-1.1747,1.575,1.575,0,0,1-.0929-0.7015,0.31178,0.31178,0,0,1,.4789-0.1939,10.307,10.307,0,0,0,1.3605.4956A9.917,9.917,0,0,0,8.00005,10.49523Z"/><path class="cls-8" d="M8.0039,15.99763a2.00038,2.00038,0,0,0,2-2.00059V10.89773A8.78861,8.78861,0,0,1,8,11.09479a8.7809,8.7809,0,0,1-2.0039-.19716V13.997a2.00038,2.00038,0,0,0,2,2.00059"/><path class="cls-9" d="M8.00391,15.39847A1.40308,1.40308,0,0,0,9.4043,13.9971V11.61234A10.68579,10.68579,0,0,1,8,11.69437a10.50385,10.50385,0,0,1-1.4043-.083V13.9971a1.40308,1.40308,0,0,0,1.40039,1.40137H8.00391Z"/></svg>