<?xml version="1.0" encoding="iso-8859-1"?>
<!-- Generator: Adobe Illustrator 16.0.0, SVG Export Plug-In . SVG Version: 6.00 Build 0)  -->
<!DOCTYPE svg PUBLIC "-//W3C//DTD SVG 1.1//EN" "http://www.w3.org/Graphics/SVG/1.1/DTD/svg11.dtd">
<svg version="1.1" id="Capa_1" xmlns="http://www.w3.org/2000/svg" xmlns:xlink="http://www.w3.org/1999/xlink" x="0px" y="0px"
	 width="550.801px" height="550.801px" viewBox="0 0 550.801 550.801" style="enable-background:new 0 0 550.801 550.801;"
	 xml:space="preserve">
<g>
	<path d="M292.033,278.338c-2.605-8.678-5.21-19.544-7.38-28.237h-0.438c-2.172,8.688-4.348,19.765-6.733,28.237l-8.683,31.061
		h32.358L292.033,278.338z"/>
	<path d="M176.463,296.146c0.222-30.407-17.587-46.478-46.04-46.478c-7.388,0-12.161,0.653-14.987,1.308v95.778
		c2.826,0.644,7.388,0.644,11.509,0.644C156.92,347.62,176.463,331.109,176.463,296.146z"/>
	<path d="M488.427,197.019h-13.226v-63.816c0-0.401-0.063-0.799-0.116-1.205c-0.021-2.531-0.828-5.023-2.563-6.992L366.325,3.694
		c-0.031-0.034-0.063-0.045-0.084-0.076c-0.633-0.709-1.371-1.298-2.151-1.804c-0.232-0.158-0.465-0.287-0.707-0.422
		c-0.675-0.366-1.393-0.675-2.131-0.896c-0.2-0.053-0.379-0.135-0.58-0.19C359.871,0.119,359.037,0,358.193,0H97.201
		c-11.918,0-21.6,9.693-21.6,21.601v175.413H62.378c-17.049,0-30.874,13.818-30.874,30.87v160.542
		c0,17.044,13.824,30.876,30.874,30.876h13.223V529.2c0,11.907,9.682,21.601,21.6,21.601h356.4c11.907,0,21.601-9.693,21.601-21.601
		V419.302h13.226c17.044,0,30.87-13.827,30.87-30.87V227.89C519.297,210.838,505.471,197.019,488.427,197.019z M97.201,21.605
		h250.193v110.51c0,5.967,4.841,10.8,10.8,10.8h95.407v54.108h-356.4V21.605z M307.453,225.348l45.394,146.377h-35.622
		l-11.291-37.578h-41.916l-10.42,37.578h-34.317l44.737-146.377H307.453z M82.211,371.071V227.296
		c12.161-1.948,28.015-3.04,44.734-3.04c27.799,0,45.829,4.999,59.946,15.639c15.2,11.298,24.759,29.312,24.759,55.16
		c0,28.018-10.212,47.35-24.329,59.289c-15.417,12.814-38.873,18.9-67.537,18.9C102.625,373.244,90.461,372.163,82.211,371.071z
		 M453.601,523.353h-356.4V419.302h356.4V523.353z M455.811,253.151h-39.957V371.73H382.62V253.151h-39.303v-27.799h112.498v27.799
		H455.811z"/>
</g>
<g>
</g>
<g>
</g>
<g>
</g>
<g>
</g>
<g>
</g>
<g>
</g>
<g>
</g>
<g>
</g>
<g>
</g>
<g>
</g>
<g>
</g>
<g>
</g>
<g>
</g>
<g>
</g>
<g>
</g>
</svg>
