<?xml version="1.0" encoding="iso-8859-1"?>
<!-- Generator: Adobe Illustrator 16.0.0, SVG Export Plug-In . SVG Version: 6.00 Build 0)  -->
<!DOCTYPE svg PUBLIC "-//W3C//DTD SVG 1.1//EN" "http://www.w3.org/Graphics/SVG/1.1/DTD/svg11.dtd">
<svg version="1.1" id="Capa_1" xmlns="http://www.w3.org/2000/svg" xmlns:xlink="http://www.w3.org/1999/xlink" x="0px" y="0px"
	 width="550.801px" height="550.801px" viewBox="0 0 550.801 550.801" style="enable-background:new 0 0 550.801 550.801;"
	 xml:space="preserve">
<g>
	<path d="M169.017,310.548c0-25.782-12.361-47.957-34.733-47.957c-21.94,0-34.733,20.883-34.733,48.801
		c0,28.128,13.205,47.946,34.939,47.946C156.445,359.343,169.017,338.455,169.017,310.548z"/>
	<path d="M488.426,197.019H475.2v-63.816c0-0.401-0.063-0.799-0.116-1.205c-0.021-2.534-0.827-5.023-2.562-6.992L366.325,3.691
		c-0.032-0.031-0.063-0.042-0.085-0.073c-0.633-0.707-1.371-1.298-2.151-1.804c-0.231-0.158-0.464-0.287-0.706-0.422
		c-0.676-0.366-1.393-0.675-2.131-0.896c-0.2-0.053-0.38-0.135-0.58-0.19C359.87,0.119,359.037,0,358.193,0H97.2
		c-11.918,0-21.6,9.693-21.6,21.601v175.413H62.377c-17.049,0-30.873,13.818-30.873,30.87v160.542
		c0,17.044,13.824,30.876,30.873,30.876h13.224V529.2c0,11.907,9.682,21.601,21.6,21.601h356.4c11.907,0,21.6-9.693,21.6-21.601
		V419.302h13.226c17.044,0,30.871-13.827,30.871-30.87V227.89C519.297,210.838,505.47,197.019,488.426,197.019z M97.2,21.605
		h250.193v110.51c0,5.967,4.841,10.8,10.8,10.8h95.407v54.108H97.2V21.605z M297.338,358.062c7.451,0,13.416-0.839,15.979-2.131
		v-30.048h-22.164v-25.37h53.493v75.663c-10.024,3.417-28.993,8.1-47.967,8.1c-26.212,0-45.167-6.602-58.393-19.396
		c-13.202-12.36-20.458-31.118-20.237-52.207c0.203-47.737,34.953-75.015,82.042-75.015c18.541,0,32.821,3.618,39.846,7.038
		l-6.813,25.996c-7.889-3.417-17.687-6.184-33.46-6.184c-27.058,0-47.524,15.344-47.524,46.462
		C252.15,340.591,270.694,358.062,297.338,358.062z M65.233,312.051c0-43.065,27.493-75.244,69.905-75.244
		c44.107,0,68.196,33.041,68.196,72.671c0,47.092-28.556,75.652-70.54,75.652C90.166,385.13,65.233,352.951,65.233,312.051z
		 M453.601,523.353H97.2V419.302h356.4V523.353z M489.992,376.176c-10.014,3.417-28.982,8.1-47.951,8.1
		c-26.209,0-45.172-6.602-58.388-19.396c-13.226-12.36-20.45-31.118-20.25-52.207c0.211-47.737,34.952-75.015,82.05-75.015
		c18.536,0,32.821,3.618,39.856,7.038l-6.829,25.996c-7.879-3.417-17.682-6.184-33.46-6.184c-27.058,0-47.519,15.344-47.519,46.462
		c0,29.61,18.541,47.092,45.183,47.092c7.451,0,13.426-0.839,15.979-2.131v-30.048h-22.159v-25.37h53.483v75.663H489.992z"/>
</g>
<g>
</g>
<g>
</g>
<g>
</g>
<g>
</g>
<g>
</g>
<g>
</g>
<g>
</g>
<g>
</g>
<g>
</g>
<g>
</g>
<g>
</g>
<g>
</g>
<g>
</g>
<g>
</g>
<g>
</g>
</svg>
