<?xml version="1.0" encoding="iso-8859-1"?>
<!-- Generator: Adobe Illustrator 16.0.0, SVG Export Plug-In . SVG Version: 6.00 Build 0)  -->
<!DOCTYPE svg PUBLIC "-//W3C//DTD SVG 1.1//EN" "http://www.w3.org/Graphics/SVG/1.1/DTD/svg11.dtd">
<svg version="1.1" id="Capa_1" xmlns="http://www.w3.org/2000/svg" xmlns:xlink="http://www.w3.org/1999/xlink" x="0px" y="0px"
	 width="350.8px" height="350.8px" viewBox="0 0 350.8 350.8" style="enable-background:new 0 0 350.8 350.8;" xml:space="preserve"
	>
<g>
	<path d="M311.147,134.618l-0.162-0.634c-0.145-1.096-0.391-2.158-0.769-3.239l-0.366-1.084l-0.259-0.559
		c-0.588-1.255-1.255-2.369-2.029-3.377l-0.192-0.378L187.022,4.999c-1.399-1.402-3.026-2.522-5.092-3.474l-1.43-0.528
		c-1.062-0.363-2.152-0.622-3.287-0.775L176.382,0H96.2C64.996,0,39.604,25.376,39.604,56.583v237.64
		c0,31.195,25.392,56.577,56.595,56.577h158.424c31.195,0,56.571-25.382,56.571-56.577V136.216L311.147,134.618z"/>
</g>
<g>
</g>
<g>
</g>
<g>
</g>
<g>
</g>
<g>
</g>
<g>
</g>
<g>
</g>
<g>
</g>
<g>
</g>
<g>
</g>
<g>
</g>
<g>
</g>
<g>
</g>
<g>
</g>
<g>
</g>
</svg>
