<?xml version="1.0" encoding="utf-8"?>
<!-- Generator: Adobe Illustrator 19.2.1, SVG Export Plug-In . SVG Version: 6.00 Build 0)  -->
<svg version="1.1" id="hungry-1" xmlns="http://www.w3.org/2000/svg" xmlns:xlink="http://www.w3.org/1999/xlink" x="0px" y="0px"
	 viewBox="0 0 16 16" style="enable-background:new 0 0 16 16;" xml:space="preserve">
<style type="text/css">
	.st0{fill:#FFC838;}
	.st1{fill:#333333;}
	.st2{fill:#E15263;}
</style>
<title>Compent-Uintra_icons_hungry-1</title>
<circle class="st0" cx="8" cy="8" r="8"/>
<g>
	<ellipse class="st1" cx="5.4922" cy="6.4961" rx="1" ry="1.5"/>
	<ellipse class="st1" cx="10.4922" cy="6.4961" rx="1" ry="1.5"/>
</g>
<path class="st1" d="M7.9961,10.4991"/>
<path class="st1" d="M8,10.4991c0.8891,0,1.775-0.1073,2.6323-0.3432c0.4646-0.1331,0.9192-0.2987,1.3605-0.4956
	c0.1973-0.0956,0.4384-0.0416,0.4789,0.1939c0.0327,0.1901-0.0127,0.4742-0.0929,0.7015c-0.1495,0.4237-0.3962,0.8296-0.6998,1.1747
	c-0.4332,0.4749-0.9488,0.8674-1.5219,1.1585c-0.3299,0.1574-0.6765,0.2768-1.0333,0.3561C8.7553,13.3307,8.3783,13.3744,8,13.3757
	c-0.3783-0.0012-0.7553-0.045-1.1239-0.1306c-0.3568-0.0793-0.7034-0.1987-1.0333-0.3561
	c-0.5731-0.2911-1.0887-0.6836-1.5219-1.1585c-0.3037-0.3451-0.5504-0.7511-0.6998-1.1747
	c-0.0802-0.2274-0.1256-0.5114-0.0929-0.7015c0.0405-0.2354,0.2816-0.2895,0.4789-0.1939c0.4413,0.1969,0.896,0.3625,1.3605,0.4956
	C6.2249,10.3918,7.1108,10.4991,8,10.4991z"/>
<path class="st2" d="M8.0039,16c1.1045,0,2-0.8955,2-2v-3.0984C9.6118,10.9843,9.0392,11.0986,8,11.0986
	s-1.6118-0.1143-2.0039-0.1971V14c0,1.1045,0.8955,2,2,2"/>
</svg>
