<svg id="relaxed" xmlns="http://www.w3.org/2000/svg" xmlns:xlink="http://www.w3.org/1999/xlink" viewBox="0 0 16 16"><defs><style>.cls-1{fill:#ffc600;}.cls-2{opacity:0.3;}.cls-3{fill:#fff;}.cls-4{opacity:0.8;}.cls-5{fill:url(#linear-gradient);}.cls-6{fill:url(#linear-gradient-2);}.cls-10,.cls-7,.cls-8{opacity:0.55;}.cls-7{fill:url(#linear-gradient-3);}.cls-8{fill:url(#linear-gradient-4);}.cls-9{fill:#333;}.cls-10{fill:url(#linear-gradient-5);}</style><linearGradient id="linear-gradient" x1="4.72431" y1="6.39412" x2="4.72431" gradientUnits="userSpaceOnUse"><stop offset="0" stop-color="#fff" stop-opacity="0"/><stop offset="0.11016" stop-color="#fff" stop-opacity="0.14218"/><stop offset="0.35948" stop-color="#fff" stop-opacity="0.44309"/><stop offset="0.58203" stop-color="#fff" stop-opacity="0.68218"/><stop offset="0.76954" stop-color="#fff" stop-opacity="0.85464"/><stop offset="0.91475" stop-color="#fff" stop-opacity="0.96065"/><stop offset="1" stop-color="#fff"/></linearGradient><linearGradient id="linear-gradient-2" x1="8" x2="8" y2="16" gradientUnits="userSpaceOnUse"><stop offset="0" stop-color="#ffec00"/><stop offset="0.4268" stop-color="#fdd713"/><stop offset="1" stop-color="#fbb533"/></linearGradient><linearGradient id="linear-gradient-3" x1="8.73246" y1="7.17014" x2="12.26253" y2="7.17014" gradientUnits="userSpaceOnUse"><stop offset="0" stop-color="#ff0" stop-opacity="0.6"/><stop offset="0.14519" stop-color="#ff0" stop-opacity="0.69979"/><stop offset="0.45316" stop-color="#ff0" stop-opacity="0.95427"/><stop offset="0.50538" stop-color="#ff0"/><stop offset="1" stop-color="#ff0" stop-opacity="0.6"/></linearGradient><linearGradient id="linear-gradient-4" x1="3.73747" y1="7.17014" x2="7.26755" y2="7.17014" xlink:href="#linear-gradient-3"/><linearGradient id="linear-gradient-5" x1="5.00005" y1="11.17802" x2="11.00005" y2="11.17802" xlink:href="#linear-gradient-3"/><symbol id="New_Symbol_3" data-name="New Symbol 3" viewBox="0 0 9.449 6.394"><g class="cls-4"><ellipse class="cls-5" cx="4.72431" cy="3.19706" rx="4.72431" ry="3.19706"/></g></symbol><symbol id="New_Symbol" data-name="New Symbol" viewBox="0 0 15.992 15.992"><path class="cls-1" d="M7.99609.25A7.74609,7.74609,0,1,1,.25,7.99609,7.75486,7.75486,0,0,1,7.99609.25m0-.25a7.99609,7.99609,0,1,0,7.99609,7.99609A7.99609,7.99609,0,0,0,7.99609,0Z"/></symbol><symbol id="New_Symbol_1" data-name="New Symbol 1" viewBox="0 0 15.5 15.5"><g class="cls-2"><path class="cls-3" d="M7.75.25a7.5,7.5,0,1,1-7.5,7.5A7.5085,7.5085,0,0,1,7.75.25m0-.25A7.75,7.75,0,1,0,15.5,7.75,7.75,7.75,0,0,0,7.75,0Z"/></g></symbol></defs><title>relaxed</title><circle class="cls-6" cx="8" cy="8" r="8"/><use width="9.44863" height="6.39412" transform="translate(3.27569 0.25296)" xlink:href="#New_Symbol_3"/><use width="15.99218" height="15.99218" transform="translate(0.00392)" xlink:href="#New_Symbol"/><use id="New_Symbol_1-3" data-name="New Symbol 1" width="15.5" height="15.5" transform="translate(0.25001 0.24609)" xlink:href="#New_Symbol_1"/><path class="cls-7" d="M12.25788,7.37532a.4768.4768,0,0,1-.03846.26948.42466.42466,0,0,1-.51725.1,3.08355,3.08355,0,0,0-1.22828-.249,2.40073,2.40073,0,0,0-1.1874.24891.42226.42226,0,0,1-.51135-.1.50068.50068,0,0,1-.03836-.26948,2.89653,2.89653,0,0,1,1.76055-.82438A2.89544,2.89544,0,0,1,12.25788,7.37532Z"/><path class="cls-8" d="M7.2629,7.37532a.4768.4768,0,0,1-.03846.26948.42466.42466,0,0,1-.51726.1,3.08357,3.08357,0,0,0-1.22829-.249,2.40074,2.40074,0,0,0-1.1874.24891.42226.42226,0,0,1-.51135-.1.50068.50068,0,0,1-.03836-.26948,2.89654,2.89654,0,0,1,1.76056-.82438A2.89545,2.89545,0,0,1,7.2629,7.37532Z"/><path class="cls-9" d="M5.5,6a1.84783,1.84783,0,0,1,1.4404.7432,1.35929,1.35929,0,0,1,.3173.6127.26051.26051,0,0,1-.0384.1976.25168.25168,0,0,1-.3436.0602c-.128-.0799-.3361-.2424-.4655-.3252A1.71454,1.71454,0,0,0,5.5,6.999a1.71454,1.71454,0,0,0-.9102.2895c-.1294.0829-.3375.2454-.4655.3252a.25161.25161,0,0,1-.3437-.0602.26082.26082,0,0,1-.0383-.1976,1.35929,1.35929,0,0,1,.3173-.6127A1.84783,1.84783,0,0,1,5.5,6Z"/><path class="cls-9" d="M10.5,6a1.84783,1.84783,0,0,1,1.4404.7432,1.35943,1.35943,0,0,1,.3173.6128.26052.26052,0,0,1-.0384.1976.25168.25168,0,0,1-.3436.0602c-.128-.0799-.3361-.2424-.4655-.3252a1.57538,1.57538,0,0,0-1.8204-.0001c-.1294.0829-.3375.2454-.4655.3252a.25161.25161,0,0,1-.3437-.0602.26082.26082,0,0,1-.0383-.1976,1.35929,1.35929,0,0,1,.3173-.6127A1.84783,1.84783,0,0,1,10.5,6Z"/><path class="cls-10" d="M8,11.13262a2.80664,2.80664,0,0,0,1.7427-.58875,7.37893,7.37893,0,0,0,.6699-.57751.32422.32422,0,0,1,.3265-.13453.34491.34491,0,0,1,.2538.43755,1.47877,1.47877,0,0,1-.1617.43644A3.45565,3.45565,0,0,1,9.351,12.22157,3.07388,3.07388,0,0,1,8,12.53333a3.03111,3.03111,0,0,1-1.34314-.31164,3.48267,3.48267,0,0,1-1.488-1.51575,1.47875,1.47875,0,0,1-.1617-.43644A.34486.34486,0,0,1,5.2609,9.832a.32414.32414,0,0,1,.3266.13453,7.37893,7.37893,0,0,0,.6699.57751A2.80608,2.80608,0,0,0,8,11.13262Z"/><path class="cls-9" d="M8,10.8741a3.24627,3.24627,0,0,0,1.7427-.4766,5.4411,5.4411,0,0,0,.6699-.5118.36329.36329,0,0,1,.3265-.1089.32329.32329,0,0,1,.2538.3985,1.06115,1.06115,0,0,1-.1617.3533A3.30534,3.30534,0,0,1,9.3103,11.742a3.45667,3.45667,0,0,1-2.6205.0001,3.30533,3.30533,0,0,1-1.5209-1.2134,1.06114,1.06114,0,0,1-.1617-.3533.32322.32322,0,0,1,.2537-.3985.36321.36321,0,0,1,.3266.1089,5.4411,5.4411,0,0,0,.6699.5118A3.24566,3.24566,0,0,0,8,10.8741Z"/></svg>