<svg id="inlove" xmlns="http://www.w3.org/2000/svg" xmlns:xlink="http://www.w3.org/1999/xlink" viewBox="0 0 16 16"><defs><style>.cls-1{fill:url(#linear-gradient);}.cls-2{opacity:0.8;}.cls-3{fill:url(#linear-gradient-2);}.cls-4{fill:#ffc600;}.cls-5{opacity:0.3;}.cls-6{fill:#fff;}.cls-7{fill:url(#linear-gradient-3);}.cls-10,.cls-8{opacity:0.65;}.cls-8{fill:url(#linear-gradient-4);}.cls-9{fill:url(#linear-gradient-5);}.cls-10{fill:url(#linear-gradient-6);}.cls-11{opacity:0.55;fill:url(#linear-gradient-7);}.cls-12{fill:#333;}</style><linearGradient id="linear-gradient" x1="8" x2="8" y2="16" gradientUnits="userSpaceOnUse"><stop offset="0" stop-color="#ffec00"/><stop offset="0.4268" stop-color="#fdd713"/><stop offset="1" stop-color="#fbb533"/></linearGradient><linearGradient id="linear-gradient-2" x1="7.9961" y1="6.65489" x2="7.9961" y2="0.26077" gradientUnits="userSpaceOnUse"><stop offset="0" stop-color="#fff" stop-opacity="0"/><stop offset="0.11016" stop-color="#fff" stop-opacity="0.14218"/><stop offset="0.35948" stop-color="#fff" stop-opacity="0.44309"/><stop offset="0.58203" stop-color="#fff" stop-opacity="0.68218"/><stop offset="0.76954" stop-color="#fff" stop-opacity="0.85464"/><stop offset="0.91475" stop-color="#fff" stop-opacity="0.96065"/><stop offset="1" stop-color="#fff"/></linearGradient><linearGradient id="linear-gradient-3" x1="4.76314" y1="8.03475" x2="3.89222" y2="1.83784" gradientUnits="userSpaceOnUse"><stop offset="0" stop-color="#a42549"/><stop offset="0.22454" stop-color="#bc3753"/><stop offset="0.48816" stop-color="#d0465c"/><stop offset="0.7486" stop-color="#dd4f61"/><stop offset="1" stop-color="#e15263"/></linearGradient><linearGradient id="linear-gradient-4" x1="4.67216" y1="7.38572" x2="3.97596" y2="2.43196" gradientUnits="userSpaceOnUse"><stop offset="0.44828" stop-color="#fff" stop-opacity="0"/><stop offset="0.52398" stop-color="#fff" stop-opacity="0.0144"/><stop offset="0.59412" stop-color="#fff" stop-opacity="0.0584"/><stop offset="0.66209" stop-color="#fff" stop-opacity="0.13217"/><stop offset="0.72871" stop-color="#fff" stop-opacity="0.23584"/><stop offset="0.79437" stop-color="#fff" stop-opacity="0.36953"/><stop offset="0.85932" stop-color="#fff" stop-opacity="0.53346"/><stop offset="0.9237" stop-color="#fff" stop-opacity="0.72778"/><stop offset="0.98611" stop-color="#fff" stop-opacity="0.94701"/><stop offset="1" stop-color="#fff"/></linearGradient><linearGradient id="linear-gradient-5" x1="11.25891" y1="8.03475" x2="12.12982" y2="1.83785" xlink:href="#linear-gradient-3"/><linearGradient id="linear-gradient-6" x1="11.35005" y1="7.3857" x2="12.04626" y2="2.43194" xlink:href="#linear-gradient-4"/><linearGradient id="linear-gradient-7" x1="4.30615" y1="12.05648" x2="11.70615" y2="12.05648" gradientUnits="userSpaceOnUse"><stop offset="0" stop-color="#ff0" stop-opacity="0.6"/><stop offset="0.14519" stop-color="#ff0" stop-opacity="0.69979"/><stop offset="0.45316" stop-color="#ff0" stop-opacity="0.95427"/><stop offset="0.50538" stop-color="#ff0"/><stop offset="1" stop-color="#ff0" stop-opacity="0.6"/></linearGradient></defs><title>inlove</title><circle class="cls-1" cx="8" cy="8" r="8"/><g class="cls-2"><ellipse class="cls-3" cx="7.9961" cy="3.45783" rx="4.72431" ry="3.19706"/></g><path class="cls-4" d="M7.9961.25782A7.74609,7.74609,0,1,1,.25,8.00391,7.75486,7.75486,0,0,1,7.9961.25782m0-.25a7.99609,7.99609,0,1,0,7.99609,7.99609A7.99609,7.99609,0,0,0,7.9961.00782Z"/><g id="_Group_" data-name="&lt;Group&gt;"><g class="cls-5"><path class="cls-6" d="M7.9961.50391a7.5,7.5,0,1,1-7.5,7.5,7.5085,7.5085,0,0,1,7.5-7.5m0-.25a7.75,7.75,0,1,0,7.75,7.75,7.75,7.75,0,0,0-7.75-7.75Z"/></g></g><path class="cls-7" d="M4.0059,3.0018a1.91223,1.91223,0,0,1,2.881-1.0851A2.45337,2.45337,0,0,1,7.344,5.1289,8.6166,8.6166,0,0,1,5.0028,8.001,8.61615,8.61615,0,0,1,1.739,6.2465,2.45345,2.45345,0,0,1,.9291,3.1046,1.91218,1.91218,0,0,1,4.0059,3.0018Z"/><path class="cls-8" d="M4.87447,7.35729A9.242,9.242,0,0,1,2.1274,5.78991a1.88921,1.88921,0,0,1-.69629-2.35742,1.13391,1.13391,0,0,1,.98535-.56543A1.4873,1.4873,0,0,1,3.518,3.35143l.75068.83716.32256-1.052a1.46986,1.46986,0,0,1,1.2666-.959,1.22788,1.22788,0,0,1,.69141.23438A1.88846,1.88846,0,0,1,6.81,4.85534,9.22352,9.22352,0,0,1,4.87447,7.35729Z"/><path class="cls-9" d="M12.0161,3.0018a1.91223,1.91223,0,0,0-2.881-1.0851A2.45337,2.45337,0,0,0,8.678,5.1289,8.61761,8.61761,0,0,0,11.0193,8.001a8.61758,8.61758,0,0,0,3.2638-1.7545,2.45345,2.45345,0,0,0,.8099-3.1419A1.91228,1.91228,0,0,0,12.0161,3.0018Z"/><path class="cls-10" d="M11.1479,7.35729a9.21689,9.21689,0,0,1-1.93555-2.502A1.8869,1.8869,0,0,1,9.4731,2.413a1.222,1.222,0,0,1,.69141-.23535,1.46986,1.46986,0,0,1,1.2666.959l.32779,1.05985.74545-.846a1.49,1.49,0,0,1,1.10059-.4834,1.13431,1.13431,0,0,1,.98633.56543A1.88973,1.88973,0,0,1,13.894,5.78991,9.20709,9.20709,0,0,1,11.1479,7.35729Z"/><path class="cls-11" d="M11.62873,10.07832c-.13211-.34428-1.87727,1.01361-3.62255,1.01376S4.51548,9.73465,4.38289,10.07954a2.76542,2.76542,0,0,0,.28474,1.81523A3.549,3.549,0,0,0,8.0063,14.09055a3.52968,3.52968,0,0,0,3.33819-2.19579A2.75543,2.75543,0,0,0,11.62873,10.07832Z"/><path class="cls-12" d="M11.62873,10.0684c-.26422-.5664-.86427-.4082-1.1113-.3457A9.528,9.528,0,0,1,5.447,9.71a.83537.83537,0,0,0-1.06412.3594c-.27135.584.26237,1.457.28474,1.4932A3.778,3.778,0,0,0,8.0063,13.3653a3.77556,3.77556,0,0,0,3.33819-1.8027C11.36744,11.5264,11.90155,10.6533,11.62873,10.0684Z"/></svg>