<?xml version="1.0" encoding="utf-8"?>
<!-- Generator: Adobe Illustrator 19.2.1, SVG Export Plug-In . SVG Version: 6.00 Build 0)  -->
<svg version="1.1" id="sleeping" xmlns="http://www.w3.org/2000/svg" xmlns:xlink="http://www.w3.org/1999/xlink" x="0px" y="0px"
	 viewBox="0 0 16 16" style="enable-background:new 0 0 16 16;" xml:space="preserve">
<style type="text/css">
	.st0{fill:#FFC838;}
	.st1{fill:#333333;}
	.st2{fill:#00408B;}
</style>
<title>Compent-Uintra_icons_sleeping</title>
<circle class="st0" cx="8" cy="8" r="8"/>
<path class="st1" d="M8.0039,13.941c-0.9113,0-1.704,0.2757-1.9528-0.3405c-0.2859-0.7081,0.7721-1.6029,1.9528-1.6029
	s2.2387,0.8948,1.9528,1.6029C9.7079,14.2167,8.9152,13.941,8.0039,13.941z"/>
<g>
	<path class="st2" d="M7,4.8083H4.6674V4.4758l1.3044-1.6754H4.7967v-0.592h2.1935V2.605L5.7538,4.2173H7V4.8083z"/>
</g>
<g>
	<path class="st2" d="M10.9978,3.8397H7.7032V3.3701l1.843-2.3662H7.8863V0.1681h3.0972v0.5596L9.2382,3.0039h1.7596V3.8397z"/>
</g>
<g>
	<path class="st2" d="M16.0078,6.1876h-4.6562V5.5244l2.6039-3.3436H11.611V1h4.3766v0.7907l-2.4668,3.2161h2.487V6.1876z"/>
</g>
<path class="st1" d="M11,9.0004c0.3564,0,0.6107-0.0878,0.8734-0.2301c0.2435-0.1318,0.3383-0.2056,0.4086-0.2501
	c0.077-0.0488,0.1758-0.0656,0.2678-0.0313c0.1533,0.057,0.2286,0.2265,0.1743,0.3808c-0.0437,0.1244-0.1507,0.333-0.3607,0.5354
	C12.098,9.6608,11.61,9.9996,11,9.9996S9.902,9.6608,9.6366,9.4051c-0.2101-0.2024-0.317-0.411-0.3607-0.5354
	c-0.0542-0.1543,0.021-0.3238,0.1743-0.3808C9.5422,8.4546,9.641,8.4714,9.718,8.5202c0.0702,0.0445,0.165,0.1183,0.4086,0.2501
	C10.3893,8.9126,10.6436,9.0004,11,9.0004z"/>
<path class="st1" d="M5,9.0004c0.3564,0,0.6107-0.0878,0.8734-0.2301C6.1169,8.6385,6.2118,8.5647,6.282,8.5202
	c0.077-0.0488,0.1758-0.0656,0.2678-0.0313c0.1533,0.057,0.2286,0.2265,0.1743,0.3808c-0.0437,0.1244-0.1507,0.333-0.3607,0.5354
	C6.098,9.6608,5.61,9.9996,5,9.9996S3.902,9.6608,3.6366,9.4051c-0.2101-0.2024-0.317-0.411-0.3607-0.5354
	c-0.0542-0.1543,0.021-0.3238,0.1743-0.3808C3.5422,8.4546,3.641,8.4714,3.718,8.5202c0.0702,0.0445,0.165,0.1183,0.4086,0.2501
	C4.3893,8.9126,4.6436,9.0004,5,9.0004z"/>
</svg>
