<svg id="sleeping" xmlns="http://www.w3.org/2000/svg" xmlns:xlink="http://www.w3.org/1999/xlink" viewBox="0 0 16 16"><defs><style>.cls-1{fill:#ffc600;}.cls-2{opacity:0.3;}.cls-3{fill:#fff;}.cls-4{opacity:0.8;}.cls-5{fill:url(#linear-gradient);}.cls-6{fill:url(#linear-gradient-2);}.cls-7{fill:#00408b;}.cls-8{opacity:0.4;}.cls-9{fill:url(#linear-gradient-3);}.cls-10{fill:url(#linear-gradient-4);}.cls-11,.cls-15{opacity:0.55;}.cls-12{fill:url(#linear-gradient-5);}.cls-13{fill:url(#linear-gradient-6);}.cls-14{fill:#333;}.cls-15{fill:url(#linear-gradient-7);}</style><linearGradient id="linear-gradient" x1="4.72431" y1="6.39412" x2="4.72431" gradientUnits="userSpaceOnUse"><stop offset="0" stop-color="#fff" stop-opacity="0"/><stop offset="0.11016" stop-color="#fff" stop-opacity="0.14218"/><stop offset="0.35948" stop-color="#fff" stop-opacity="0.44309"/><stop offset="0.58203" stop-color="#fff" stop-opacity="0.68218"/><stop offset="0.76954" stop-color="#fff" stop-opacity="0.85464"/><stop offset="0.91475" stop-color="#fff" stop-opacity="0.96065"/><stop offset="1" stop-color="#fff"/></linearGradient><linearGradient id="linear-gradient-2" x1="8" x2="8" y2="16" gradientUnits="userSpaceOnUse"><stop offset="0" stop-color="#ffec00"/><stop offset="0.4268" stop-color="#fdd713"/><stop offset="1" stop-color="#fbb533"/></linearGradient><linearGradient id="linear-gradient-3" x1="11.00002" y1="11.21418" x2="11.00002" y2="6.61418" gradientUnits="userSpaceOnUse"><stop offset="0" stop-color="#fdcd1a" stop-opacity="0.2"/><stop offset="0.23944" stop-color="#fdc81e" stop-opacity="0.37476"/><stop offset="0.7778" stop-color="#fcbc28" stop-opacity="0.81228"/><stop offset="1" stop-color="#fcb72c"/></linearGradient><linearGradient id="linear-gradient-4" x1="5.00002" y1="11.21418" x2="5.00002" y2="6.61418" xlink:href="#linear-gradient-3"/><linearGradient id="linear-gradient-5" x1="3.25165" y1="16.32927" x2="6.74839" y2="16.32927" gradientUnits="userSpaceOnUse"><stop offset="0" stop-color="#ff0" stop-opacity="0.6"/><stop offset="0.04837" stop-color="#ff0" stop-opacity="0.64814"/><stop offset="0.25672" stop-color="#ff0" stop-opacity="0.83801"/><stop offset="0.41568" stop-color="#ff0" stop-opacity="0.95584"/><stop offset="0.50538" stop-color="#ff0"/><stop offset="0.66083" stop-color="#ff0" stop-opacity="0.88806"/><stop offset="0.99603" stop-color="#ff0" stop-opacity="0.60353"/><stop offset="1" stop-color="#ff0" stop-opacity="0.6"/></linearGradient><linearGradient id="linear-gradient-6" x1="9.25294" y1="16.32927" x2="12.7471" y2="16.32927" xlink:href="#linear-gradient-5"/><linearGradient id="linear-gradient-7" x1="6.0039" y1="21.94814" x2="10.0039" y2="21.94814" xlink:href="#linear-gradient-5"/><symbol id="New_Symbol_3" data-name="New Symbol 3" viewBox="0 0 9.449 6.394"><g class="cls-4"><ellipse class="cls-5" cx="4.72431" cy="3.19706" rx="4.72431" ry="3.19706"/></g></symbol><symbol id="New_Symbol" data-name="New Symbol" viewBox="0 0 15.992 15.992"><path class="cls-1" d="M7.99609.25A7.74609,7.74609,0,1,1,.25,7.99609,7.75486,7.75486,0,0,1,7.99609.25m0-.25a7.99609,7.99609,0,1,0,7.99609,7.99609A7.99609,7.99609,0,0,0,7.99609,0Z"/></symbol><symbol id="New_Symbol_1" data-name="New Symbol 1" viewBox="0 0 15.5 15.5"><g class="cls-2"><path class="cls-3" d="M7.75.25a7.5,7.5,0,1,1-7.5,7.5A7.5085,7.5085,0,0,1,7.75.25m0-.25A7.75,7.75,0,1,0,15.5,7.75,7.75,7.75,0,0,0,7.75,0Z"/></g></symbol></defs><title>Compent-Uintra_icons-ver2.0_sleeping</title><circle class="cls-6" cx="8" cy="8" r="8"/><use width="9.44863" height="6.39412" transform="translate(3.27959 0.25296)" xlink:href="#New_Symbol_3"/><use width="15.99218" height="15.99218" transform="translate(0.00782 0)" xlink:href="#New_Symbol"/><use id="New_Symbol_1-3" data-name="New Symbol 1" width="15.5" height="15.5" transform="translate(0.25391 0.24609)" xlink:href="#New_Symbol_1"/><path class="cls-7" d="M7,12.8083H4.6674v-.3325l1.3044-1.6754H4.7967v-.592H6.9902v.3966L5.7538,12.2173H7Z" transform="translate(0 -8)"/><path class="cls-7" d="M10.9978,11.8397H7.7032v-.4696l1.843-2.3662H7.8863V8.1681h3.0972v.5596L9.2382,11.0039h1.7596Z" transform="translate(0 -8)"/><path class="cls-7" d="M16,14.1876H11.3438v-.6632l2.6039-3.3436H11.6032V9h4.3766v.7907L13.513,13.0068H16Z" transform="translate(0 -8)"/><g class="cls-8"><circle class="cls-9" cx="11.00002" cy="8.91418" r="2.3"/><circle class="cls-10" cx="5.00002" cy="8.91418" r="2.3"/></g><g class="cls-11"><path class="cls-12" d="M6.74051,16.57583a1.6744,1.6744,0,0,0-1.71731-1.3835,1.76388,1.76388,0,0,0-1.76593,1.417.34487.34487,0,0,0,.05187.25582,7.62711,7.62711,0,0,0,1.67707.60109,8.19992,8.19992,0,0,0,1.74057-.64664A.58653.58653,0,0,0,6.74051,16.57583Z" transform="translate(0 -8)"/></g><g class="cls-11"><path class="cls-13" d="M12.74261,16.57583a1.6744,1.6744,0,0,0-1.71731-1.3835,1.76388,1.76388,0,0,0-1.76593,1.417.43211.43211,0,0,0,.03532.25582,5.77692,5.77692,0,0,0,1.69363.60109,7.76307,7.76307,0,0,0,1.7-.64664A.399.399,0,0,0,12.74261,16.57583Z" transform="translate(0 -8)"/></g><path class="cls-14" d="M11,17.0004a1.711,1.711,0,0,0,.8734-.2301,4.35745,4.35745,0,0,0,.4086-.2501.30327.30327,0,0,1,.2678-.0313.298.298,0,0,1,.1743.3808,1.44208,1.44208,0,0,1-.3607.5354A2.03,2.03,0,0,1,11,17.9996a2.03,2.03,0,0,1-1.3634-.5945,1.4408,1.4408,0,0,1-.3607-.5354.29807.29807,0,0,1,.1743-.3808.30328.30328,0,0,1,.2678.0313,4.32837,4.32837,0,0,0,.4086.2501A1.711,1.711,0,0,0,11,17.0004Z" transform="translate(0 -8)"/><path class="cls-14" d="M5,17.0004a1.711,1.711,0,0,0,.8734-.2301,4.34283,4.34283,0,0,0,.4086-.2501.30326.30326,0,0,1,.2678-.0313.298.298,0,0,1,.1743.3808,1.44208,1.44208,0,0,1-.3607.5354A2.03,2.03,0,0,1,5,17.9996a2.03,2.03,0,0,1-1.3634-.5945,1.44082,1.44082,0,0,1-.3607-.5354.29807.29807,0,0,1,.1743-.3808.30327.30327,0,0,1,.2678.0313,4.32838,4.32838,0,0,0,.4086.2501A1.711,1.711,0,0,0,5,17.0004Z" transform="translate(0 -8)"/><path class="cls-15" d="M8.0039,22.45969c-.93333,0-2,.40953-2-1.07488h4C10.0039,22.86209,8.93723,22.45969,8.0039,22.45969Z" transform="translate(0 -8)"/><path class="cls-14" d="M8.0039,21.941c-.9113,0-1.704.2757-1.9528-.3405-.2859-.7081.7721-1.6029,1.9528-1.6029s2.2387.8948,1.9528,1.6029C9.7079,22.2167,8.9152,21.941,8.0039,21.941Z" transform="translate(0 -8)"/></svg>