<svg id="surprised-2" xmlns="http://www.w3.org/2000/svg" xmlns:xlink="http://www.w3.org/1999/xlink" viewBox="0 0 16 16"><defs><style>.cls-1{fill:url(#linear-gradient);}.cls-2{opacity:0.8;}.cls-3{fill:url(#linear-gradient-2);}.cls-4{fill:#ffc600;}.cls-5{opacity:0.3;}.cls-6{fill:#fff;}.cls-7{fill:#333;}.cls-8{opacity:0.55;fill:url(#linear-gradient-3);}</style><linearGradient id="linear-gradient" x1="8" y1="0.00008" x2="8" y2="16.00008" gradientUnits="userSpaceOnUse"><stop offset="0" stop-color="#ffec00"/><stop offset="0.24465" stop-color="#fee308"/><stop offset="0.64545" stop-color="#fdca1c"/><stop offset="1" stop-color="#fbaf33"/></linearGradient><linearGradient id="linear-gradient-2" x1="8" y1="6.65032" x2="8" y2="0.25308" gradientUnits="userSpaceOnUse"><stop offset="0" stop-color="#fff" stop-opacity="0"/><stop offset="0.11016" stop-color="#fff" stop-opacity="0.14218"/><stop offset="0.35948" stop-color="#fff" stop-opacity="0.44309"/><stop offset="0.58203" stop-color="#fff" stop-opacity="0.68218"/><stop offset="0.76954" stop-color="#fff" stop-opacity="0.85464"/><stop offset="0.91475" stop-color="#fff" stop-opacity="0.96065"/><stop offset="1" stop-color="#fff"/></linearGradient><linearGradient id="linear-gradient-3" x1="6.33232" y1="12.32258" x2="9.66768" y2="12.32258" gradientUnits="userSpaceOnUse"><stop offset="0" stop-color="#ff0" stop-opacity="0.6"/><stop offset="0.14519" stop-color="#ff0" stop-opacity="0.69979"/><stop offset="0.45316" stop-color="#ff0" stop-opacity="0.95427"/><stop offset="0.50538" stop-color="#ff0"/><stop offset="1" stop-color="#ff0" stop-opacity="0.6"/></linearGradient></defs><title>surprised</title><circle class="cls-1" cx="8" cy="8.00008" r="8"/><g class="cls-2"><ellipse class="cls-3" cx="8" cy="3.4517" rx="4.72662" ry="3.19862"/></g><path class="cls-4" d="M8,0.25012A7.74988,7.74988,0,1,1,.25012,8,7.75865,7.75865,0,0,1,8,.25012M8,0a8,8,0,1,0,8,8A8,8,0,0,0,8,0H8Z"/><g id="_Group_" data-name="&lt;Group&gt;"><g class="cls-5"><path class="cls-6" d="M8,0.49633A7.50367,7.50367,0,1,1,.49633,8,7.51217,7.51217,0,0,1,8,.49633m0-.25012A7.75379,7.75379,0,1,0,15.75379,8,7.75379,7.75379,0,0,0,8,.24621H8Z"/></g></g><path class="cls-7" d="M3.47707,2.40211A3.81407,3.81407,0,0,1,3.91539,1.984a5.36349,5.36349,0,0,1,1.10392-.727,4.78714,4.78714,0,0,1,1.24-.42867A3.13521,3.13521,0,0,1,6.84687.77222,0.14938,0.14938,0,0,0,6.87552.47559a2.127,2.127,0,0,0-.668.0027,4.37132,4.37132,0,0,0-1.3653.42442,5.31692,5.31692,0,0,0-1.16736.814A2.89893,2.89893,0,0,0,3.23325,2.21a0.16152,0.16152,0,0,0,.03757.21656,0.14654,0.14654,0,0,0,.20585-0.024Z"/><path class="cls-7" d="M12.52333,2.40263a0.14654,0.14654,0,0,0,.20585.024A0.16152,0.16152,0,0,0,12.76675,2.21a2.89893,2.89893,0,0,0-.44163-0.49337,5.31692,5.31692,0,0,0-1.16736-.814A4.37132,4.37132,0,0,0,9.79246.47829a2.127,2.127,0,0,0-.668-0.0027,0.14938,0.14938,0,0,0,.02865.29663,3.13521,3.13521,0,0,1,.58752.0561,4.78714,4.78714,0,0,1,1.24.42867,5.36349,5.36349,0,0,1,1.10392.727,3.81407,3.81407,0,0,1,.43831.41809Z"/><path class="cls-8" d="M9.66768,11.00175c0,1.66527-.60445,2.64167-1.66768,2.64167-1.04367,0-1.66769-1.05879-1.66769-2.64167H9.66768Z"/><ellipse class="cls-7" cx="8" cy="11.00175" rx="1.66768" ry="2.00122"/><ellipse class="cls-7" cx="6" cy="4.99613" rx="1" ry="1.25"/><ellipse class="cls-7" cx="10" cy="4.99613" rx="1" ry="1.25"/></svg>