<?xml version="1.0" encoding="iso-8859-1"?>
<!-- Generator: Adobe Illustrator 16.0.0, SVG Export Plug-In . SVG Version: 6.00 Build 0)  -->
<!DOCTYPE svg PUBLIC "-//W3C//DTD SVG 1.1//EN" "http://www.w3.org/Graphics/SVG/1.1/DTD/svg11.dtd">
<svg version="1.1" id="Capa_1" xmlns="http://www.w3.org/2000/svg" xmlns:xlink="http://www.w3.org/1999/xlink" x="0px" y="0px"
	 width="548.29px" height="548.291px" viewBox="0 0 548.29 548.291" style="enable-background:new 0 0 548.29 548.291;"
	 xml:space="preserve">
<g>
	<path d="M486.2,196.121h-13.164v-63.525c0-0.399-0.064-0.795-0.116-1.2c-0.021-2.52-0.824-5-2.551-6.96L364.656,3.677
		c-0.031-0.034-0.064-0.044-0.085-0.075c-0.629-0.707-1.364-1.292-2.141-1.796c-0.231-0.157-0.462-0.286-0.704-0.419
		c-0.672-0.365-1.386-0.672-2.121-0.893c-0.199-0.052-0.377-0.134-0.576-0.188C358.229,0.118,357.4,0,356.562,0H96.757
		C84.893,0,75.256,9.649,75.256,21.502v174.613H62.093c-16.972,0-30.733,13.756-30.733,30.73v159.81
		c0,16.966,13.761,30.736,30.733,30.736h13.163V526.79c0,11.854,9.637,21.501,21.501,21.501h354.777
		c11.853,0,21.502-9.647,21.502-21.501V417.392H486.2c16.966,0,30.729-13.764,30.729-30.731v-159.81
		C516.93,209.877,503.166,196.121,486.2,196.121z M85.975,392.205l53.4-174.7h51.84l54.174,174.7h-42.51l-13.475-44.841H139.38
		l-12.444,44.841H85.975z M451.534,520.968H96.757V417.392h354.777V520.968z M268.691,392.205v-174.7h39.659v174.7H268.691z
		 M444.94,289.821v32.138h-62.731v70.246h-39.663v-174.7H449.34v32.396h-67.131v39.919H444.94z M451.534,196.121H96.757V21.507
		h249.053v110.006c0,5.94,4.818,10.751,10.751,10.751h94.973V196.121z"/>
	<path d="M172.808,280.75c-3.11-10.38-6.218-23.335-8.814-33.708h-0.522c-2.591,10.373-5.181,23.592-8.037,33.708l-10.368,37.065
		h38.623L172.808,280.75z"/>
</g>
<g>
</g>
<g>
</g>
<g>
</g>
<g>
</g>
<g>
</g>
<g>
</g>
<g>
</g>
<g>
</g>
<g>
</g>
<g>
</g>
<g>
</g>
<g>
</g>
<g>
</g>
<g>
</g>
<g>
</g>
</svg>
