<?xml version="1.0" encoding="iso-8859-1"?>
<!-- Generator: Adobe Illustrator 16.0.0, SVG Export Plug-In . SVG Version: 6.00 Build 0)  -->
<!DOCTYPE svg PUBLIC "-//W3C//DTD SVG 1.1//EN" "http://www.w3.org/Graphics/SVG/1.1/DTD/svg11.dtd">
<svg version="1.1" id="Capa_1" xmlns="http://www.w3.org/2000/svg" xmlns:xlink="http://www.w3.org/1999/xlink" x="0px" y="0px"
	 width="550.801px" height="550.801px" viewBox="0 0 550.801 550.801" style="enable-background:new 0 0 550.801 550.801;"
	 xml:space="preserve">
<g>
	<g>
		<path d="M131.847,277.373c-2.9-9.68-5.806-21.759-8.218-31.425h-0.488c-2.412,9.666-4.833,21.985-7.488,31.425l-9.677,34.562
			h36.018L131.847,277.373z"/>
		<path d="M403.487,244.976c-7.488,0-12.566,0.72-15.225,1.46v48.085c3.144,0.738,7.003,0.971,12.329,0.971
			c19.575,0,31.662-9.903,31.662-26.578C432.249,253.919,421.854,244.976,403.487,244.976z"/>
		<path d="M488.427,197.019h-13.226v-63.816c0-0.401-0.063-0.799-0.116-1.205c-0.021-2.531-0.833-5.021-2.563-6.992L366.32,3.694
			c-0.026-0.031-0.059-0.045-0.079-0.076c-0.633-0.707-1.371-1.295-2.151-1.804c-0.232-0.155-0.465-0.287-0.707-0.422
			c-0.675-0.366-1.393-0.675-2.131-0.896c-0.2-0.053-0.379-0.135-0.58-0.188C359.871,0.119,359.037,0,358.193,0H97.201
			c-11.918,0-21.6,9.693-21.6,21.601v175.413H62.375c-17.046,0-30.871,13.818-30.871,30.873v160.545
			c0,17.038,13.824,30.87,30.871,30.87h13.226V529.2c0,11.907,9.682,21.601,21.6,21.601h356.4c11.907,0,21.601-9.693,21.601-21.601
			V419.302h13.226c17.044,0,30.87-13.827,30.87-30.87v-160.54C519.297,210.832,505.471,197.019,488.427,197.019z M97.201,21.605
			h250.193v110.51c0,5.967,4.841,10.8,10.8,10.8h95.407v54.108h-356.4V21.605z M261.869,312.895
			c-27.071-9.429-44.719-24.405-44.719-48.089c0-27.799,23.203-49.077,61.636-49.077c18.362,0,31.904,3.879,41.576,8.222
			l-8.216,29.727c-6.529-3.138-18.131-7.734-34.077-7.734c-15.958,0-23.691,7.253-23.691,15.699
			c0,10.399,9.187,14.993,30.206,22.972c28.775,10.646,42.307,25.623,42.307,48.578c0,27.322-21.03,50.525-65.757,50.525
			c-18.603,0-36.975-4.841-46.159-9.914l7.494-30.454c9.903,5.078,25.133,10.146,40.845,10.146c16.915,0,25.861-7.014,25.861-17.649
			C289.175,325.709,281.444,319.897,261.869,312.895z M89.069,381.302h-38.19l49.789-162.92h48.344l50.517,162.92h-39.641
			l-12.566-41.808h-46.654L89.069,381.302z M453.601,523.353h-356.4V419.302h356.4V523.353z M453.759,306.619
			c-12.566,11.834-31.177,17.154-52.935,17.154c-4.83,0-9.187-0.237-12.562-0.732v58.261H351.76V220.564
			c11.349-1.94,27.307-3.38,49.792-3.38c22.729,0,38.918,4.351,49.797,13.038c10.395,8.219,17.393,21.758,17.393,37.703
			C468.741,283.891,463.431,297.428,453.759,306.619z"/>
	</g>
</g>
<g>
</g>
<g>
</g>
<g>
</g>
<g>
</g>
<g>
</g>
<g>
</g>
<g>
</g>
<g>
</g>
<g>
</g>
<g>
</g>
<g>
</g>
<g>
</g>
<g>
</g>
<g>
</g>
<g>
</g>
</svg>
