<?xml version="1.0" encoding="iso-8859-1"?>
<!-- Generator: Adobe Illustrator 16.0.0, SVG Export Plug-In . SVG Version: 6.00 Build 0)  -->
<!DOCTYPE svg PUBLIC "-//W3C//DTD SVG 1.1//EN" "http://www.w3.org/Graphics/SVG/1.1/DTD/svg11.dtd">
<svg version="1.1" id="Capa_1" xmlns="http://www.w3.org/2000/svg" xmlns:xlink="http://www.w3.org/1999/xlink" x="0px" y="0px"
	 width="548.29px" height="548.291px" viewBox="0 0 548.29 548.291" style="enable-background:new 0 0 548.29 548.291;"
	 xml:space="preserve">
<g>
	<path d="M255.263,248.424c-7.729,0-12.734,0.687-15.689,1.37v100.258c2.96,0.688,7.74,0.688,12.06,0.688
		c31.365,0.221,51.83-17.066,51.83-53.665C303.688,265.248,285.054,248.424,255.263,248.424z"/>
	<path d="M486.2,196.121h-13.164V132.59c0-0.399-0.064-0.795-0.116-1.2c-0.021-2.52-0.824-5-2.551-6.96L364.656,3.677
		c-0.031-0.034-0.064-0.044-0.085-0.075c-0.629-0.707-1.364-1.292-2.141-1.796c-0.231-0.157-0.462-0.286-0.704-0.419
		c-0.672-0.365-1.386-0.672-2.121-0.893c-0.199-0.052-0.377-0.134-0.576-0.188C358.229,0.118,357.4,0,356.562,0H96.757
		C84.893,0,75.256,9.649,75.256,21.502v174.613H62.093c-16.972,0-30.733,13.756-30.733,30.73v159.81
		c0,16.966,13.761,30.736,30.733,30.736h13.163V526.79c0,11.854,9.637,21.501,21.501,21.501h354.777
		c11.853,0,21.502-9.647,21.502-21.501V417.392H486.2c16.966,0,30.729-13.764,30.729-30.731v-159.81
		C516.93,209.872,503.166,196.121,486.2,196.121z M96.757,21.502h249.053v110.006c0,5.94,4.818,10.751,10.751,10.751h94.973v53.861
		H96.757V21.502z M340.287,295.94c0,29.34-10.682,49.567-25.453,62.071c-16.142,13.427-40.705,19.778-70.716,19.778
		c-17.953,0-30.683-1.122-39.331-2.268V225.009c12.735-2.047,29.329-3.181,46.841-3.181c29.092,0,47.965,5.228,62.749,16.362
		C330.294,250.02,340.287,268.894,340.287,295.94z M62.447,301.853c0-52.295,37.289-81.393,83.674-81.393
		c17.953,0,31.601,3.634,37.74,6.821l-7.052,27.507c-7.048-2.945-16.814-5.677-29.092-5.677c-27.515,0-48.883,16.593-48.883,50.693
		c0,30.698,18.184,50.027,49.097,50.027c10.458,0,22.061-2.268,28.878-5.008l5.235,27.065c-6.375,3.171-20.695,6.583-39.331,6.583
		C89.734,378.472,62.447,345.507,62.447,301.853z M451.534,520.962H96.757v-103.57h354.777V520.962z M443.302,376.206
		c-2.487-4.316-6.126-16.831-10.671-35.702c-4.101-19.104-10.688-24.331-24.788-24.552h-10.452v60.254H363.06V225.014
		c11.146-1.812,27.738-3.182,46.152-3.182c22.73,0,38.647,3.397,49.565,12.045c9.086,7.279,14.09,17.966,14.09,32.053
		c0,19.555-13.869,32.973-27.057,37.749v0.672c10.699,4.319,16.6,14.551,20.464,28.651c4.786,17.286,9.554,37.292,12.515,43.203
		H443.302z"/>
	<path d="M413.076,247.525c-8.414,0-13.187,0.678-15.695,1.135v42.289h13.648c17.28,0,27.507-8.656,27.507-22.06
		C438.536,254.788,428.982,247.746,413.076,247.525z"/>
</g>
<g>
</g>
<g>
</g>
<g>
</g>
<g>
</g>
<g>
</g>
<g>
</g>
<g>
</g>
<g>
</g>
<g>
</g>
<g>
</g>
<g>
</g>
<g>
</g>
<g>
</g>
<g>
</g>
<g>
</g>
</svg>
