<?xml version="1.0" encoding="iso-8859-1"?>
<!-- Generator: Adobe Illustrator 16.0.0, SVG Export Plug-In . SVG Version: 6.00 Build 0)  -->
<!DOCTYPE svg PUBLIC "-//W3C//DTD SVG 1.1//EN" "http://www.w3.org/Graphics/SVG/1.1/DTD/svg11.dtd">
<svg version="1.1" id="Capa_1" xmlns="http://www.w3.org/2000/svg" xmlns:xlink="http://www.w3.org/1999/xlink" x="0px" y="0px"
	 width="548.29px" height="548.291px" viewBox="0 0 548.29 548.291" style="enable-background:new 0 0 548.29 548.291;"
	 xml:space="preserve">
<g>
	<path d="M486.2,196.121h-13.164v-63.525c0-0.399-0.064-0.795-0.116-1.2c-0.021-2.52-0.829-4.997-2.551-6.96L364.656,3.677
		c-0.031-0.031-0.064-0.044-0.085-0.075c-0.629-0.704-1.364-1.29-2.141-1.796c-0.231-0.154-0.462-0.286-0.704-0.419
		c-0.672-0.365-1.386-0.672-2.121-0.893c-0.199-0.052-0.377-0.134-0.576-0.186C358.229,0.118,357.4,0,356.562,0H96.757
		C84.893,0,75.256,9.649,75.256,21.502v174.613H62.09c-16.963,0-30.729,13.756-30.729,30.733v159.812
		c0,16.961,13.766,30.731,30.729,30.731h13.166V526.79c0,11.854,9.637,21.501,21.501,21.501h354.777
		c11.853,0,21.502-9.647,21.502-21.501V417.392H486.2c16.977,0,30.729-13.764,30.729-30.731V226.854
		C516.93,209.872,503.177,196.121,486.2,196.121z M96.757,21.507h249.053v110.006c0,5.94,4.818,10.751,10.751,10.751h94.973v53.861
		H96.757V21.507z M346.524,273.156c0,14.796-4.934,27.342-13.891,35.867c-11.663,10.982-28.935,15.916-49.103,15.916
		c-4.483,0-8.515-0.221-11.667-0.672v54.026h-33.838V229.218c10.541-1.794,25.323-3.139,46.177-3.139
		c21.081,0,36.095,4.043,46.173,12.105C340.025,245.806,346.524,258.364,346.524,273.156z M181.968,352.288
		c10.31,0,21.753-2.246,28.473-4.934l5.155,26.678c-6.278,3.14-20.389,6.498-38.772,6.498c-52.245,0-79.143-32.504-79.143-75.539
		c0-51.562,36.776-80.255,82.501-80.255c17.712,0,31.15,3.59,37.208,6.729l-6.95,27.12c-6.951-2.919-16.578-5.607-28.693-5.607
		c-27.132,0-48.203,16.367-48.203,49.998C133.545,333.232,151.49,352.288,181.968,352.288z M451.534,520.968H96.757V417.392h354.777
		V520.968z M462.662,378.293h-94.375v-151.09h34.29V349.6h60.085V378.293L462.662,378.293z"/>
	<path d="M285.998,251.854c-6.95,0-11.666,0.672-14.133,1.345v44.612c2.932,0.672,6.512,0.903,11.446,0.903
		c18.163,0,29.366-9.188,29.366-24.665C312.677,260.158,303.027,251.854,285.998,251.854z"/>
</g>
<g>
</g>
<g>
</g>
<g>
</g>
<g>
</g>
<g>
</g>
<g>
</g>
<g>
</g>
<g>
</g>
<g>
</g>
<g>
</g>
<g>
</g>
<g>
</g>
<g>
</g>
<g>
</g>
<g>
</g>
</svg>
