<?xml version="1.0" encoding="iso-8859-1"?>
<!-- Generator: Adobe Illustrator 16.0.0, SVG Export Plug-In . SVG Version: 6.00 Build 0)  -->
<!DOCTYPE svg PUBLIC "-//W3C//DTD SVG 1.1//EN" "http://www.w3.org/Graphics/SVG/1.1/DTD/svg11.dtd">
<svg version="1.1" id="Capa_1" xmlns="http://www.w3.org/2000/svg" xmlns:xlink="http://www.w3.org/1999/xlink" x="0px" y="0px"
	 width="550.801px" height="550.801px" viewBox="0 0 550.801 550.801" style="enable-background:new 0 0 550.801 550.801;"
	 xml:space="preserve">
<g>
	<g>
		<path d="M488.427,197.019h-13.226v-63.816c0-0.401-0.063-0.799-0.116-1.205c-0.021-2.531-0.833-5.021-2.563-6.992L366.325,3.694
			c-0.031-0.031-0.063-0.045-0.084-0.076c-0.633-0.707-1.371-1.295-2.151-1.804c-0.232-0.155-0.465-0.287-0.707-0.422
			c-0.675-0.366-1.393-0.675-2.131-0.896c-0.2-0.053-0.379-0.135-0.58-0.188C359.871,0.119,359.037,0,358.193,0H97.201
			c-11.918,0-21.6,9.693-21.6,21.601v175.413H62.375c-17.041,0-30.871,13.818-30.871,30.873v160.545
			c0,17.038,13.83,30.87,30.871,30.87h13.226V529.2c0,11.907,9.682,21.601,21.6,21.601h356.4c11.907,0,21.601-9.693,21.601-21.601
			V419.302h13.226c17.054,0,30.87-13.827,30.87-30.87v-160.54C519.297,210.832,505.48,197.019,488.427,197.019z M97.201,21.605
			h250.193v110.51c0,5.967,4.841,10.8,10.8,10.8h95.407v54.108h-356.4V21.605z M257.353,312.736
			c-27.464-9.566-45.349-24.764-45.349-48.769c0-28.187,23.517-49.755,62.49-49.755c18.636,0,32.347,3.921,42.167,8.337
			l-8.354,30.133c-6.612-3.19-18.372-7.842-34.538-7.842c-16.179,0-24.013,7.351-24.013,15.926c0,10.547,9.315,15.192,30.639,23.282
			c29.146,10.789,42.879,25.992,42.879,49.275c0,27.695-21.321,51.215-66.675,51.215c-18.869,0-37.494-4.894-46.808-10.04
			l7.602-30.897c10.038,5.157,25.495,10.294,41.417,10.294c17.152,0,26.217-7.093,26.217-17.872
			C285.027,325.709,277.194,319.824,257.353,312.736z M62.765,301.947c0-56.371,40.202-87.734,90.184-87.734
			c19.377,0,34.069,3.921,40.679,7.349l-7.604,29.647c-7.57-3.18-18.117-6.112-31.345-6.112c-29.658,0-52.695,17.877-52.695,54.636
			c0,33.096,19.596,53.931,52.927,53.931c11.285,0,23.781-2.452,31.113-5.405l5.643,29.173c-6.845,3.438-22.307,7.099-42.377,7.099
			C92.188,384.534,62.765,349.007,62.765,301.947z M453.601,523.353h-356.4V419.302h356.4V523.353z M435.007,382.087
			c-2.689-4.656-6.613-18.135-11.528-38.49c-4.397-20.577-11.506-26.209-26.715-26.452H385.5v64.942h-36.999V219.104
			c12.003-1.959,29.88-3.428,49.75-3.428c24.5,0,41.671,3.684,53.431,12.983c9.798,7.844,15.192,19.369,15.192,34.564
			c0,21.067-14.961,35.527-29.157,40.685v0.733c11.507,4.656,17.877,15.678,22.054,30.876c5.131,18.626,10.289,40.194,13.474,46.569
			H435.007z"/>
		<path d="M402.406,243.383c-9.07,0-14.217,0.725-16.906,1.215v45.589h14.713c18.615,0,29.637-9.324,29.637-23.789
			C429.85,251.208,419.576,243.604,402.406,243.383z"/>
	</g>
</g>
<g>
</g>
<g>
</g>
<g>
</g>
<g>
</g>
<g>
</g>
<g>
</g>
<g>
</g>
<g>
</g>
<g>
</g>
<g>
</g>
<g>
</g>
<g>
</g>
<g>
</g>
<g>
</g>
<g>
</g>
</svg>
