<?xml version="1.0" encoding="iso-8859-1"?>
<!-- Generator: Adobe Illustrator 16.0.0, SVG Export Plug-In . SVG Version: 6.00 Build 0)  -->
<!DOCTYPE svg PUBLIC "-//W3C//DTD SVG 1.1//EN" "http://www.w3.org/Graphics/SVG/1.1/DTD/svg11.dtd">
<svg version="1.1" id="Capa_1" xmlns="http://www.w3.org/2000/svg" xmlns:xlink="http://www.w3.org/1999/xlink" x="0px" y="0px"
	 width="550.801px" height="550.801px" viewBox="0 0 550.801 550.801" style="enable-background:new 0 0 550.801 550.801;"
	 xml:space="preserve">
<g>
	<path d="M276.795,294.058c-1.824-6.539-3.628-14.724-5.146-21.268h-0.298c-1.506,6.544-3.017,14.897-4.67,21.268l-6.043,23.409
		h22.473L276.795,294.058z"/>
	<path d="M488.426,197.019H475.2v-63.816c0-0.401-0.063-0.799-0.116-1.205c-0.021-2.534-0.827-5.023-2.562-6.992L366.325,3.691
		c-0.032-0.031-0.063-0.042-0.085-0.073c-0.633-0.707-1.371-1.298-2.151-1.804c-0.231-0.158-0.464-0.287-0.706-0.422
		c-0.676-0.366-1.393-0.675-2.131-0.896c-0.2-0.053-0.38-0.135-0.58-0.19C359.87,0.119,359.037,0,358.193,0H97.2
		c-11.918,0-21.6,9.693-21.6,21.601v175.413H62.377c-17.049,0-30.873,13.818-30.873,30.87v160.542
		c0,17.044,13.824,30.876,30.873,30.876h13.224V529.2c0,11.907,9.682,21.601,21.6,21.601h356.4c11.907,0,21.6-9.693,21.6-21.601
		V419.302h13.226c17.044,0,30.871-13.827,30.871-30.87V227.89C519.297,210.838,505.47,197.019,488.426,197.019z M97.2,21.605
		h250.193v110.51c0,5.967,4.841,10.8,10.8,10.8h95.407v54.108H97.2V21.605z M357.919,318.12
		c-16.886-6.386-27.886-16.532-27.886-32.573c0-18.818,14.471-33.221,38.443-33.221c11.465,0,19.912,2.624,25.945,5.566
		l-5.126,20.123c-4.071-2.125-11.316-5.231-21.268-5.231s-14.776,4.91-14.776,10.631c0,7.04,5.732,10.146,18.858,15.546
		c17.935,7.204,26.403,17.35,26.403,32.901c0,18.488-13.136,34.203-41.043,34.203c-11.596,0-23.061-3.28-28.793-6.713l4.667-20.619
		c6.186,3.438,15.684,6.877,25.497,6.877c10.558,0,16.137-4.752,16.137-11.955C374.974,326.79,370.143,322.861,357.919,318.12z
		 M319.012,364.427h-24.732l-7.847-28.308h-29.109l-7.238,28.308h-23.822l31.061-110.297h30.164L319.012,364.427z M219.167,343.48
		v20.946h-63.495V254.13h23.074v89.351H219.167L219.167,343.48z M76.191,364.427V254.13h62.121v20.448H99.26v25.208h36.503v20.292
		H99.26v44.35H76.191L76.191,364.427z M453.601,523.353H97.2V419.302h356.4V523.353z M497.887,364.427h-22.929v-46.143h-37.843
		v46.143h-23.087V254.13h23.087v42.386h37.843V254.13h22.929V364.427z"/>
</g>
<g>
</g>
<g>
</g>
<g>
</g>
<g>
</g>
<g>
</g>
<g>
</g>
<g>
</g>
<g>
</g>
<g>
</g>
<g>
</g>
<g>
</g>
<g>
</g>
<g>
</g>
<g>
</g>
<g>
</g>
</svg>
