<?xml version="1.0" encoding="iso-8859-1"?>
<!-- Generator: Adobe Illustrator 16.0.0, SVG Export Plug-In . SVG Version: 6.00 Build 0)  -->
<!DOCTYPE svg PUBLIC "-//W3C//DTD SVG 1.1//EN" "http://www.w3.org/Graphics/SVG/1.1/DTD/svg11.dtd">
<svg version="1.1" id="Capa_1" xmlns="http://www.w3.org/2000/svg" xmlns:xlink="http://www.w3.org/1999/xlink" x="0px" y="0px"
	 width="548.29px" height="548.291px" viewBox="0 0 548.29 548.291" style="enable-background:new 0 0 548.29 548.291;"
	 xml:space="preserve">
<g>
	<path d="M299.269,264.104c0-11.024-8.43-16.864-23.344-16.864c-7.136,0-11.244,0.43-14.05,0.861v33.94h10.809
		C289.978,282.041,299.269,274.913,299.269,264.104z"/>
	<path d="M407.392,247.67c-7.996,0-12.541,0.651-14.914,1.082v40.208h12.966c16.437,0,26.164-8.222,26.164-20.974
		C431.607,254.589,422.526,247.88,407.392,247.67z"/>
	<path d="M486.2,196.121h-13.164v-63.525c0-0.399-0.064-0.795-0.116-1.2c-0.021-2.52-0.824-5-2.551-6.96L364.656,3.677
		c-0.031-0.034-0.064-0.044-0.085-0.075c-0.629-0.707-1.364-1.292-2.141-1.796c-0.231-0.157-0.462-0.286-0.704-0.419
		c-0.672-0.365-1.386-0.672-2.121-0.893c-0.199-0.052-0.377-0.134-0.576-0.188C358.229,0.118,357.4,0,356.562,0H96.757
		C84.893,0,75.256,9.649,75.256,21.502v174.613H62.093c-16.972,0-30.733,13.756-30.733,30.73v159.81
		c0,16.966,13.761,30.736,30.733,30.736h13.163V526.79c0,11.854,9.637,21.501,21.501,21.501h354.777
		c11.853,0,21.502-9.647,21.502-21.501V417.392H486.2c16.966,0,30.729-13.764,30.729-30.731v-159.81
		C516.93,209.877,503.166,196.121,486.2,196.121z M96.757,21.507h249.053v110.006c0,5.94,4.818,10.751,10.751,10.751h94.973v53.861
		H96.757V21.507z M337.327,327.443c0,13.182-6.057,23.56-15.14,30.919c-10.594,8.425-28.315,13.182-57.286,13.182
		c-16.213,0-28.318-1.077-35.673-2.157V226.261c8.651-1.73,26.158-3.027,42.591-3.027c20.11,0,32.426,1.94,43.021,8.221
		c10.156,5.396,17.511,15.345,17.511,28.525c0,12.977-7.569,25.084-24,31.143v0.431
		C324.996,296.093,337.327,308.628,337.327,327.443z M95.598,351.875c-13.402-12.537-20.753-31.561-20.539-52.972
		c0.221-48.432,35.455-76.104,83.232-76.104c18.809,0,33.289,3.688,40.428,7.139l-6.918,26.383
		c-7.997-3.47-17.942-6.268-33.94-6.268c-27.452,0-48.206,15.559-48.206,47.117c0,30.052,18.809,47.784,45.831,47.784
		c7.567,0,13.619-0.86,16.218-2.156v-30.479h-22.486v-25.732h54.252v76.741c-10.158,3.47-29.397,8.216-48.641,8.216
		C128.243,371.543,108.999,364.833,95.598,351.875z M451.534,520.968H96.757V417.392h354.777V520.968z M436.143,370.038
		c-2.374-4.121-5.838-16.007-10.162-33.938c-3.896-18.163-10.164-23.145-23.565-23.354h-9.948v57.293h-32.641V226.261
		c10.588-1.73,26.372-3.027,43.886-3.027c21.611,0,36.751,3.247,47.123,11.455c8.646,6.918,13.408,17.084,13.408,30.49
		c0,18.584-13.192,31.34-25.728,35.885v0.651c10.162,4.105,15.779,13.837,19.459,27.234c4.536,16.431,9.076,35.455,11.889,41.081
		h-33.721V370.038z"/>
	<path d="M273.114,305.6h-11.239v41.081c3.242,0.431,7.132,0.431,12.756,0.431c14.915,0,28.107-5.627,28.107-20.97
		C302.733,311.438,289.546,305.6,273.114,305.6z"/>
</g>
<g>
</g>
<g>
</g>
<g>
</g>
<g>
</g>
<g>
</g>
<g>
</g>
<g>
</g>
<g>
</g>
<g>
</g>
<g>
</g>
<g>
</g>
<g>
</g>
<g>
</g>
<g>
</g>
<g>
</g>
</svg>
