<?xml version="1.0" encoding="iso-8859-1"?>
<!-- Generator: Adobe Illustrator 16.0.0, SVG Export Plug-In . SVG Version: 6.00 Build 0)  -->
<!DOCTYPE svg PUBLIC "-//W3C//DTD SVG 1.1//EN" "http://www.w3.org/Graphics/SVG/1.1/DTD/svg11.dtd">
<svg version="1.1" id="Capa_1" xmlns="http://www.w3.org/2000/svg" xmlns:xlink="http://www.w3.org/1999/xlink" x="0px" y="0px"
	 width="550.801px" height="550.801px" viewBox="0 0 550.801 550.801" style="enable-background:new 0 0 550.801 550.801;"
	 xml:space="preserve">
<g>
	<path d="M289.649,306.677c0,17.608,8.264,30.032,21.89,30.032c13.743,0,21.616-13.088,21.616-30.575
		c0-16.142-7.731-30.026-21.759-30.026C297.649,276.107,289.649,289.18,289.649,306.677z"/>
	<path d="M141.32,324.285c0-9.07-8.145-12.678-18.285-12.678h-6.94v25.365c2.004,0.27,4.409,0.27,7.873,0.27
		C133.176,337.242,141.32,333.767,141.32,324.285z"/>
	<path d="M193.926,306.677c0,17.608,8.279,30.032,21.888,30.032c13.742,0,21.621-13.088,21.621-30.575
		c0-16.142-7.744-30.026-21.756-30.026C201.928,276.107,193.926,289.18,193.926,306.677z"/>
	<path d="M488.426,197.014H475.2v-63.817c0-0.401-0.063-0.799-0.116-1.205c-0.021-2.534-0.827-5.023-2.562-6.993L366.325,3.694
		c-0.032-0.034-0.063-0.045-0.085-0.076c-0.633-0.707-1.371-1.298-2.151-1.804c-0.231-0.158-0.464-0.287-0.706-0.422
		c-0.676-0.366-1.393-0.675-2.131-0.896c-0.2-0.053-0.38-0.135-0.58-0.19C359.87,0.119,359.037,0,358.193,0H97.2
		c-11.918,0-21.6,9.693-21.6,21.601v175.413H62.377c-17.049,0-30.873,13.818-30.873,30.87v160.542
		c0,17.044,13.824,30.876,30.873,30.876h13.224V529.2c0,11.907,9.682,21.601,21.6,21.601h356.4c11.907,0,21.6-9.693,21.6-21.601
		V419.302h13.226c17.044,0,30.871-13.827,30.871-30.87v-160.54C519.297,210.832,505.47,197.014,488.426,197.014z M78.319,351.391
		H57.9v-89.96h20.418V351.391z M97.2,21.601h250.193v110.51c0,5.967,4.841,10.8,10.8,10.8h95.407v54.108H97.2V21.601z
		 M388.558,301.198c2.004-3.47,4.135-6.666,6.139-9.883l20.424-29.885h24.959l-29.763,38.302l31.36,51.658H417.92l-22.021-38.854
		l-7.73,9.481v29.373h-20.161v-89.96h20.161v39.768H388.558z M354.639,305.459c0,29.5-17.882,47.387-44.175,47.387
		c-26.689,0-42.309-20.145-42.309-45.773c0-26.968,17.212-47.118,43.78-47.118C339.557,259.968,354.639,280.658,354.639,305.459z
		 M258.926,305.459c0,29.5-17.885,47.387-44.178,47.387c-26.691,0-42.309-20.145-42.309-45.773
		c0-26.968,17.215-47.118,43.777-47.118C243.844,259.968,258.926,280.658,258.926,305.459z M95.942,350.99v-88.362
		c5.342-1.067,16.153-1.872,26.294-1.872c12.408,0,20.023,1.208,26.562,5.076c6.275,3.324,10.805,9.471,10.805,17.615
		c0,8.011-4.664,15.483-14.813,19.228v0.253c10.278,2.816,17.885,10.552,17.885,22.164c0,8.143-3.731,14.55-9.342,19.085
		c-6.539,5.215-17.479,8.147-35.369,8.147C107.958,352.318,100.486,351.654,95.942,350.99z M453.601,523.347H97.2V419.302h356.4
		V523.347z M471.994,352.72c-10.272,0-20.419-2.669-25.492-5.479l4.146-16.816c5.463,2.805,13.88,5.61,22.56,5.61
		c9.339,0,14.275-3.865,14.275-9.74c0-5.621-4.271-8.817-15.088-12.692c-14.944-5.2-24.689-13.469-24.689-26.558
		c0-15.354,12.814-27.09,34.045-27.09c10.136,0,17.613,2.128,22.95,4.538l-4.535,16.424c-3.602-1.729-10.009-4.281-18.815-4.281
		s-13.078,4.013-13.078,8.674c0,5.732,5.067,8.264,16.674,12.684c15.89,5.874,23.361,14.143,23.361,26.82
		C508.297,339.905,496.685,352.72,471.994,352.72z"/>
	<path d="M139.188,285.984c0-6.793-5.208-10.415-14.42-10.415c-4.401,0-6.932,0.274-8.672,0.538v20.961h6.671
		C133.447,297.068,139.188,292.655,139.188,285.984z"/>
</g>
<g>
</g>
<g>
</g>
<g>
</g>
<g>
</g>
<g>
</g>
<g>
</g>
<g>
</g>
<g>
</g>
<g>
</g>
<g>
</g>
<g>
</g>
<g>
</g>
<g>
</g>
<g>
</g>
<g>
</g>
</svg>
