<?xml version="1.0" encoding="iso-8859-1"?>
<!-- Generator: Adobe Illustrator 16.0.0, SVG Export Plug-In . SVG Version: 6.00 Build 0)  -->
<!DOCTYPE svg PUBLIC "-//W3C//DTD SVG 1.1//EN" "http://www.w3.org/Graphics/SVG/1.1/DTD/svg11.dtd">
<svg version="1.1" id="Capa_1" xmlns="http://www.w3.org/2000/svg" xmlns:xlink="http://www.w3.org/1999/xlink" x="0px" y="0px"
	 width="548.29px" height="548.291px" viewBox="0 0 548.29 548.291" style="enable-background:new 0 0 548.29 548.291;"
	 xml:space="preserve">
<g>
	<path d="M486.2,196.121h-13.164v-63.525c0-0.399-0.064-0.795-0.116-1.2c-0.021-2.52-0.824-5-2.551-6.96L364.656,3.677
		c-0.031-0.034-0.064-0.044-0.085-0.075c-0.629-0.707-1.364-1.292-2.141-1.796c-0.231-0.157-0.462-0.286-0.704-0.419
		c-0.672-0.365-1.386-0.672-2.121-0.893c-0.199-0.052-0.377-0.134-0.576-0.188C358.229,0.118,357.4,0,356.562,0H96.757
		C84.893,0,75.256,9.649,75.256,21.502v174.613H62.093c-16.972,0-30.733,13.756-30.733,30.73v159.81
		c0,16.966,13.761,30.736,30.733,30.736h13.163V526.79c0,11.854,9.637,21.501,21.501,21.501h354.777
		c11.853,0,21.502-9.647,21.502-21.501V417.392H486.2c16.966,0,30.729-13.764,30.729-30.731v-159.81
		C516.93,209.877,503.166,196.121,486.2,196.121z M96.757,21.507h249.053v110.006c0,5.94,4.818,10.751,10.751,10.751h94.973v53.861
		H96.757V21.507z M245.334,340.142v-20.685l51.378-82.704h38.851v79.588h16.295v23.811h-16.295v32.363h-30.08v-32.363h-60.149
		V340.142z M74.5,372.509l8.981-140.771h42.399l13.786,46.995c4.386,16.29,8.776,33.838,11.906,50.326h0.627
		c3.968-16.278,8.775-34.872,13.37-50.534l15.035-46.787h41.562l7.73,140.771h-31.124l-2.084-53.88
		c-0.63-16.909-1.252-37.386-1.252-57.859h-0.631c-4.38,17.963-10.228,38.017-15.658,54.51l-17.132,54.945H137.16L122.125,315.7
		c-4.596-16.493-9.402-36.546-12.74-54.93h-0.42c-0.837,19.014-1.462,40.725-2.504,58.279l-2.509,53.46H74.5z M451.534,520.968
		H96.757V417.392h354.777V520.968z M440.604,372.509h-37.175L358.31,231.738h34.882l17.124,59.521
		c4.808,16.707,9.186,32.798,12.535,50.337h0.624c3.555-16.909,7.943-33.63,12.746-49.702l17.959-60.15h33.836L440.604,372.509z"/>
	<path d="M305.483,286.256c0-8.142,0.421-16.502,1.046-25.271h-0.836c-4.378,8.769-7.936,16.698-12.535,25.271L274.99,315.92v0.421
		h30.488v-30.085H305.483z"/>
</g>
<g>
</g>
<g>
</g>
<g>
</g>
<g>
</g>
<g>
</g>
<g>
</g>
<g>
</g>
<g>
</g>
<g>
</g>
<g>
</g>
<g>
</g>
<g>
</g>
<g>
</g>
<g>
</g>
<g>
</g>
</svg>
