<?xml version="1.0" encoding="iso-8859-1"?>
<!-- Generator: Adobe Illustrator 16.0.0, SVG Export Plug-In . SVG Version: 6.00 Build 0)  -->
<!DOCTYPE svg PUBLIC "-//W3C//DTD SVG 1.1//EN" "http://www.w3.org/Graphics/SVG/1.1/DTD/svg11.dtd">
<svg version="1.1" id="Capa_1" xmlns="http://www.w3.org/2000/svg" xmlns:xlink="http://www.w3.org/1999/xlink" x="0px" y="0px"
	 width="550.801px" height="550.801px" viewBox="0 0 550.801 550.801" style="enable-background:new 0 0 550.801 550.801;"
	 xml:space="preserve">
<g>
	<path d="M303.993,286.912c-2.447-8.132-4.884-18.312-6.919-26.449h-0.411c-2.036,8.142-4.071,18.523-6.308,26.449l-8.142,29.094
		h30.322L303.993,286.912z"/>
	<path d="M488.426,197.014H475.2v-63.817c0-0.401-0.063-0.799-0.116-1.205c-0.021-2.534-0.827-5.023-2.562-6.993L366.325,3.694
		c-0.032-0.034-0.063-0.045-0.085-0.076c-0.633-0.707-1.371-1.298-2.151-1.804c-0.231-0.158-0.464-0.287-0.706-0.422
		c-0.676-0.366-1.393-0.675-2.131-0.896c-0.2-0.053-0.38-0.135-0.58-0.19C359.87,0.119,359.037,0,358.193,0H97.2
		c-11.918,0-21.6,9.693-21.6,21.601v175.413H62.377c-17.049,0-30.873,13.818-30.873,30.87v160.542
		c0,17.044,13.824,30.876,30.873,30.876h13.224V529.2c0,11.907,9.682,21.601,21.6,21.601h356.4c11.907,0,21.6-9.693,21.6-21.601
		V419.302h13.226c17.044,0,30.871-13.827,30.871-30.87v-160.54C519.297,210.832,505.47,197.014,488.426,197.014z M97.2,21.601
		h250.193v110.51c0,5.967,4.841,10.8,10.8,10.8h95.407v54.108H97.2V21.601z M360.946,374.388h-33.36l-10.589-35.2H277.75l-9.77,35.2
		h-32.144l41.914-137.111h40.682L360.946,374.388z M71.276,374.388l8.743-137.111h41.299l13.424,45.765
		c4.271,15.868,8.543,32.965,11.588,49.033h0.612c3.87-15.873,8.54-33.972,13.022-49.223l14.639-45.57h40.489l7.523,137.112h-30.31
		l-2.035-52.481c-0.612-16.475-1.227-36.418-1.227-56.357h-0.611c-4.271,17.486-9.967,37.015-15.248,53.093l-16.688,53.494h-24.203
		l-14.639-53.083c-4.482-16.089-9.152-35.611-12.414-53.504h-0.4c-0.82,18.516-1.435,39.672-2.444,56.758l-2.437,52.081H71.276
		V374.388z M453.601,523.347H97.2V419.302h356.4V523.347z M446.576,374.388l-12.414-24.821c-5.072-9.562-8.332-16.686-12.202-24.627
		h-0.401c-2.848,7.941-6.307,15.061-10.578,24.627l-11.391,24.821h-35.396l39.667-69.382l-38.254-67.729h35.606l12.019,25.027
		c4.061,8.335,7.104,15.037,10.367,22.773h0.396c3.265-8.743,5.901-14.85,9.366-22.773l11.591-25.027h35.396l-38.654,66.922
		l40.7,70.189H446.576z"/>
</g>
<g>
</g>
<g>
</g>
<g>
</g>
<g>
</g>
<g>
</g>
<g>
</g>
<g>
</g>
<g>
</g>
<g>
</g>
<g>
</g>
<g>
</g>
<g>
</g>
<g>
</g>
<g>
</g>
<g>
</g>
</svg>
