<?xml version="1.0" encoding="iso-8859-1"?>
<!-- Generator: Adobe Illustrator 16.0.0, SVG Export Plug-In . SVG Version: 6.00 Build 0)  -->
<!DOCTYPE svg PUBLIC "-//W3C//DTD SVG 1.1//EN" "http://www.w3.org/Graphics/SVG/1.1/DTD/svg11.dtd">
<svg version="1.1" id="Capa_1" xmlns="http://www.w3.org/2000/svg" xmlns:xlink="http://www.w3.org/1999/xlink" x="0px" y="0px"
	 width="550.801px" height="550.801px" viewBox="0 0 550.801 550.801" style="enable-background:new 0 0 550.801 550.801;"
	 xml:space="preserve">
<g>
	<path d="M488.426,197.021H475.2v-63.825c0-0.398-0.063-0.799-0.116-1.203c-0.021-2.533-0.827-5.022-2.562-6.995L366.319,3.694
		c-0.031-0.031-0.062-0.042-0.089-0.074c-0.628-0.709-1.371-1.297-2.146-1.803c-0.232-0.158-0.464-0.288-0.707-0.422
		c-0.675-0.369-1.392-0.675-2.136-0.896c-0.2-0.056-0.374-0.135-0.574-0.19C359.87,0.119,359.026,0,358.188,0H97.2
		c-11.918,0-21.6,9.695-21.6,21.601v175.415H62.375c-17.046,0-30.871,13.819-30.871,30.871v160.545
		c0,17.043,13.824,30.87,30.871,30.87h13.226V529.2c0,11.907,9.682,21.601,21.6,21.601h356.4c11.907,0,21.6-9.693,21.6-21.601
		V419.308h13.226c17.044,0,30.871-13.833,30.871-30.876v-160.54C519.297,210.835,505.47,197.021,488.426,197.021z M453.601,523.347
		H97.2V419.308h356.4V523.347z M100.607,376.65l9.677-151.777h45.723l14.866,50.659c4.725,17.571,9.45,36.481,12.83,54.274h0.675
		c4.282-17.571,9.461-37.6,14.413-54.496l16.21-50.438h44.822l8.327,151.777h-33.558l-2.252-58.103
		c-0.675-18.246-1.35-40.311-1.35-62.377h-0.675c-4.736,19.356-11.032,40.978-16.886,58.78l-18.473,59.221h-26.795l-16.21-58.772
		c-4.957-17.793-10.131-39.414-13.737-59.224h-0.454c-0.896,20.484-1.571,43.909-2.7,62.83l-2.7,57.655h-31.754V376.65z
		 M332.354,312.91c-25.218-8.775-41.655-22.729-41.655-44.803c0-25.896,21.616-45.724,57.418-45.724
		c17.122,0,29.736,3.618,38.733,7.668l-7.646,27.696c-6.086-2.921-16.901-7.214-31.763-7.214c-14.86,0-22.063,6.774-22.063,14.652
		c0,9.672,8.559,13.953,28.149,21.389c26.805,9.904,39.408,23.879,39.408,45.257c0,25.45-19.596,47.076-61.256,47.076
		c-17.339,0-34.451-4.509-43.005-9.244l6.977-28.36c9.233,4.725,23.414,9.449,38.059,9.449c15.762,0,24.089-6.528,24.089-16.442
		C357.798,324.854,350.595,319.449,332.354,312.91z M416.138,376.65V224.873h34.457V376.65H416.138z M453.601,197.021H97.2V21.601
		h250.193v110.513c0,5.967,4.841,10.8,10.8,10.8h95.407V197.021z"/>
</g>
<g>
</g>
<g>
</g>
<g>
</g>
<g>
</g>
<g>
</g>
<g>
</g>
<g>
</g>
<g>
</g>
<g>
</g>
<g>
</g>
<g>
</g>
<g>
</g>
<g>
</g>
<g>
</g>
<g>
</g>
</svg>
