<?xml version="1.0" encoding="iso-8859-1"?>
<!-- Generator: Adobe Illustrator 16.0.0, SVG Export Plug-In . SVG Version: 6.00 Build 0)  -->
<!DOCTYPE svg PUBLIC "-//W3C//DTD SVG 1.1//EN" "http://www.w3.org/Graphics/SVG/1.1/DTD/svg11.dtd">
<svg version="1.1" id="Capa_1" xmlns="http://www.w3.org/2000/svg" xmlns:xlink="http://www.w3.org/1999/xlink" x="0px" y="0px"
	 width="550.801px" height="550.801px" viewBox="0 0 550.801 550.801" style="enable-background:new 0 0 550.801 550.801;"
	 xml:space="preserve">
<g>
	<path d="M488.432,197.014h-13.226v-63.817c0-0.401-0.063-0.799-0.11-1.205c-0.021-2.531-0.834-5.021-2.568-6.993L366.325,3.694
		c-0.031-0.031-0.063-0.045-0.084-0.076c-0.633-0.707-1.371-1.295-2.151-1.804c-0.232-0.155-0.465-0.285-0.707-0.422
		c-0.675-0.366-1.393-0.675-2.131-0.896c-0.2-0.053-0.379-0.135-0.58-0.188C359.871,0.119,359.037,0,358.193,0H97.201
		c-11.918,0-21.6,9.693-21.6,21.601v175.413H62.378c-17.049,0-30.874,13.818-30.874,30.873v160.545
		c0,17.038,13.824,30.87,30.874,30.87h13.223V529.2c0,11.907,9.682,21.601,21.6,21.601h356.4c11.907,0,21.601-9.693,21.601-21.601
		V419.302h13.226c17.044,0,30.87-13.832,30.87-30.87V227.887C519.297,210.832,505.48,197.014,488.432,197.014z M97.201,21.601
		h250.193v110.51c0,5.97,4.841,10.8,10.8,10.8h95.407v54.108h-356.4V21.601z M226.187,316.316v59.29h-32.173V233.901h32.173v54.45
		h52.769v-54.45h31.957v141.705h-31.957v-59.29H226.187z M68.089,260.809v-26.902h108.907v26.902h-38.689v114.809h-32.168V260.809
		H68.089z M453.601,523.347h-356.4V419.302h356.4V523.347z M460.81,375.617l-2.104-54.243c-0.633-17.033-1.26-37.647-1.26-58.242
		h-0.628c-4.419,18.08-10.304,38.267-15.768,54.867l-17.244,55.292h-25.017l-15.141-54.875
		c-4.625-16.596-9.455-36.793-12.825-55.284h-0.416c-0.844,19.135-1.477,40.998-2.531,58.648l-2.516,53.837h-29.642l9.038-141.711
		h42.678l13.875,47.306c4.419,16.4,8.833,34.056,11.981,50.667h0.633c3.997-16.4,8.833-35.11,13.457-50.878l15.141-47.095h41.839
		l7.778,141.711H460.81z"/>
</g>
<g>
</g>
<g>
</g>
<g>
</g>
<g>
</g>
<g>
</g>
<g>
</g>
<g>
</g>
<g>
</g>
<g>
</g>
<g>
</g>
<g>
</g>
<g>
</g>
<g>
</g>
<g>
</g>
<g>
</g>
</svg>
