<?xml version="1.0" encoding="iso-8859-1"?>
<!-- Generator: Adobe Illustrator 16.0.0, SVG Export Plug-In . SVG Version: 6.00 Build 0)  -->
<!DOCTYPE svg PUBLIC "-//W3C//DTD SVG 1.1//EN" "http://www.w3.org/Graphics/SVG/1.1/DTD/svg11.dtd">
<svg version="1.1" id="Capa_1" xmlns="http://www.w3.org/2000/svg" xmlns:xlink="http://www.w3.org/1999/xlink" x="0px" y="0px"
	 width="548.291px" height="548.291px" viewBox="0 0 548.291 548.291" style="enable-background:new 0 0 548.291 548.291;"
	 xml:space="preserve">
<g>
	<path d="M486.201,196.116h-13.166V132.59c0-0.399-0.062-0.795-0.115-1.2c-0.021-2.522-0.825-5-2.552-6.96L364.657,3.677
		c-0.033-0.034-0.064-0.044-0.085-0.075c-0.63-0.704-1.364-1.292-2.143-1.796c-0.229-0.157-0.461-0.286-0.702-0.419
		c-0.672-0.365-1.387-0.672-2.121-0.893c-0.2-0.052-0.379-0.134-0.577-0.188C358.23,0.118,357.401,0,356.562,0H96.757
		C84.894,0,75.256,9.649,75.256,21.502v174.613H62.092c-16.971,0-30.732,13.756-30.732,30.73v159.81
		c0,16.966,13.761,30.736,30.732,30.736h13.164V526.79c0,11.854,9.638,21.501,21.501,21.501h354.776
		c11.853,0,21.501-9.647,21.501-21.501V417.392h13.166c16.966,0,30.729-13.764,30.729-30.731V226.854
		C516.93,209.872,503.167,196.116,486.201,196.116z M96.757,21.502h249.054v110.006c0,5.94,4.817,10.751,10.751,10.751h94.972
		v53.861H96.757V21.502z M314.445,354.23c9.959,0,20.977-2.152,27.46-4.76l4.966,25.732c-6.048,3.028-19.669,6.267-37.386,6.267
		c-50.385,0-76.322-31.35-76.322-72.851c0-49.723,35.452-77.397,79.566-77.397c17.069,0,30.047,3.456,35.874,6.477l-6.688,26.164
		c-6.708-2.811-16-5.396-27.67-5.396c-26.158,0-46.476,15.784-46.476,48.199C267.759,335.857,285.053,354.23,314.445,354.23z
		 M91.749,233.604h36.116l17.717,61.606c4.979,17.293,9.515,33.938,12.977,52.102h0.646c3.677-17.523,8.208-34.814,13.187-51.45
		l18.598-62.257h35.014l-49.078,145.697h-38.475L91.749,233.604z M451.534,520.962H96.757v-103.57h354.776V520.962z
		 M457.585,260.621h-55.99v33.289h52.32v26.813h-52.32v58.578h-33.066V233.604h89.057V260.621z"/>
</g>
<g>
</g>
<g>
</g>
<g>
</g>
<g>
</g>
<g>
</g>
<g>
</g>
<g>
</g>
<g>
</g>
<g>
</g>
<g>
</g>
<g>
</g>
<g>
</g>
<g>
</g>
<g>
</g>
<g>
</g>
</svg>
