<?xml version="1.0" encoding="iso-8859-1"?>
<!-- Generator: Adobe Illustrator 16.0.0, SVG Export Plug-In . SVG Version: 6.00 Build 0)  -->
<!DOCTYPE svg PUBLIC "-//W3C//DTD SVG 1.1//EN" "http://www.w3.org/Graphics/SVG/1.1/DTD/svg11.dtd">
<svg version="1.1" id="Capa_1" xmlns="http://www.w3.org/2000/svg" xmlns:xlink="http://www.w3.org/1999/xlink" x="0px" y="0px"
	 width="550.801px" height="550.801px" viewBox="0 0 550.801 550.801" style="enable-background:new 0 0 550.801 550.801;"
	 xml:space="preserve">
<g>
	<path d="M488.427,197.014h-13.226v-63.817c0-0.401-0.063-0.799-0.116-1.205c-0.021-2.531-0.828-5.021-2.563-6.993L366.325,3.694
		c-0.031-0.031-0.063-0.045-0.084-0.076c-0.633-0.707-1.371-1.295-2.151-1.804c-0.232-0.155-0.465-0.285-0.707-0.422
		c-0.675-0.366-1.393-0.675-2.131-0.896c-0.2-0.053-0.379-0.135-0.58-0.188C359.871,0.119,359.037,0,358.193,0H97.201
		c-11.918,0-21.6,9.693-21.6,21.601v175.413H62.378c-17.044,0-30.874,13.818-30.874,30.873v160.545
		c0,17.038,13.83,30.87,30.874,30.87h13.223V529.2c0,11.907,9.682,21.601,21.6,21.601h356.4c11.907,0,21.601-9.693,21.601-21.601
		V419.302h13.226c17.054,0,30.87-13.832,30.87-30.87V227.887C519.297,210.832,505.48,197.014,488.427,197.014z M97.201,21.601
		h250.193v110.51c0,5.97,4.841,10.8,10.8,10.8h95.407v54.108h-356.4V21.601z M336.394,356.527v30.512H236.04v-160.65h36.471v130.139
		H336.394z M78.037,387.044l46.467-81.279l-44.803-79.37h41.713l14.062,29.323c4.77,9.774,8.345,17.637,12.16,26.691h0.478
		c3.808-10.243,6.905-17.396,10.956-26.691l13.587-29.323h41.47l-45.277,78.416l47.672,82.233h-41.958l-14.531-29.077
		c-5.951-11.206-9.78-19.544-14.299-28.846h-0.488c-3.33,9.302-7.369,17.64-12.382,28.846l-13.355,29.077H78.037z M453.601,523.347
		h-356.4V419.302h356.4V523.347z M441.979,387.044c-2.637-4.529-6.429-17.634-11.201-37.415
		c-4.303-20.028-11.195-25.513-25.977-25.755h-10.969v63.165h-35.997V228.541c11.687-1.915,29.078-3.338,48.39-3.338
		c23.825,0,40.521,3.576,51.943,12.636c9.561,7.62,14.797,18.826,14.797,33.604c0,20.495-14.544,34.56-28.371,39.575v0.706
		c11.201,4.524,17.402,15.262,21.452,30.032c4.999,18.114,10.015,39.092,13.11,45.294h-37.178V387.044z"/>
	<path d="M410.274,252.131c-8.817,0-13.832,0.72-16.442,1.205v44.323h14.296c18.114,0,28.835-9.054,28.835-23.118
		C436.969,259.762,426.959,252.374,410.274,252.131z"/>
</g>
<g>
</g>
<g>
</g>
<g>
</g>
<g>
</g>
<g>
</g>
<g>
</g>
<g>
</g>
<g>
</g>
<g>
</g>
<g>
</g>
<g>
</g>
<g>
</g>
<g>
</g>
<g>
</g>
<g>
</g>
</svg>
