<?xml version="1.0" encoding="iso-8859-1"?>
<!-- Generator: Adobe Illustrator 16.0.0, SVG Export Plug-In . SVG Version: 6.00 Build 0)  -->
<!DOCTYPE svg PUBLIC "-//W3C//DTD SVG 1.1//EN" "http://www.w3.org/Graphics/SVG/1.1/DTD/svg11.dtd">
<svg version="1.1" id="Capa_1" xmlns="http://www.w3.org/2000/svg" xmlns:xlink="http://www.w3.org/1999/xlink" x="0px" y="0px"
	 width="550.801px" height="550.801px" viewBox="0 0 550.801 550.801" style="enable-background:new 0 0 550.801 550.801;"
	 xml:space="preserve">
<g>
	<path d="M488.427,197.019h-13.226v-63.816c0-0.401-0.063-0.799-0.116-1.205c-0.021-2.531-0.833-5.021-2.563-6.992L366.32,3.694
		c-0.026-0.031-0.059-0.045-0.079-0.076c-0.633-0.707-1.371-1.295-2.151-1.804c-0.232-0.155-0.465-0.287-0.707-0.422
		c-0.675-0.366-1.393-0.675-2.131-0.896c-0.2-0.053-0.379-0.135-0.58-0.188C359.871,0.119,359.037,0,358.193,0H97.201
		c-11.918,0-21.6,9.693-21.6,21.601v175.413H62.375c-17.046,0-30.871,13.818-30.871,30.873v160.545
		c0,17.038,13.824,30.87,30.871,30.87h13.226V529.2c0,11.907,9.682,21.601,21.6,21.601h356.4c11.907,0,21.601-9.693,21.601-21.601
		V419.302h13.226c17.044,0,30.87-13.827,30.87-30.87v-160.54C519.297,210.832,505.471,197.019,488.427,197.019z M97.201,21.605
		h250.193v110.51c0,5.967,4.841,10.8,10.8,10.8h95.407v54.108h-356.4V21.605z M328.6,302.791c0,49.765-30.175,79.95-74.541,79.95
		c-45.045,0-71.386-34.003-71.386-77.251c0-45.485,29.051-79.489,73.865-79.489C303.149,226.001,328.6,260.912,328.6,302.791z
		 M70.958,380.258V228.48h92.781v28.15h-58.319v34.675h54.496v27.934h-54.496v61.024H70.958V380.258z M453.601,523.353h-356.4
		V419.302h356.4V523.353z M476.799,380.258h-36.033l-32.432-58.557c-9.008-16.211-18.911-35.807-26.347-53.591l-0.675,0.221
		c0.896,20.053,1.35,41.441,1.35,66.206v45.721h-31.524V228.48h40.078l31.53,55.611c9.007,15.989,18.02,34.91,24.77,52.033h0.675
		c-2.241-20.055-2.927-40.537-2.927-63.284v-44.36h31.535V380.258z"/>
	<path d="M218.928,304.815c0,29.727,13.964,50.673,36.935,50.673c23.187,0,36.476-22.075,36.476-51.58
		c0-27.242-13.062-50.664-36.703-50.664C232.438,253.244,218.928,275.318,218.928,304.815z"/>
</g>
<g>
</g>
<g>
</g>
<g>
</g>
<g>
</g>
<g>
</g>
<g>
</g>
<g>
</g>
<g>
</g>
<g>
</g>
<g>
</g>
<g>
</g>
<g>
</g>
<g>
</g>
<g>
</g>
<g>
</g>
</svg>
