<?xml version="1.0" encoding="iso-8859-1"?>
<!-- Generator: Adobe Illustrator 16.0.0, SVG Export Plug-In . SVG Version: 6.00 Build 0)  -->
<!DOCTYPE svg PUBLIC "-//W3C//DTD SVG 1.1//EN" "http://www.w3.org/Graphics/SVG/1.1/DTD/svg11.dtd">
<svg version="1.1" id="Capa_1" xmlns="http://www.w3.org/2000/svg" xmlns:xlink="http://www.w3.org/1999/xlink" x="0px" y="0px"
	 width="550.801px" height="550.801px" viewBox="0 0 550.801 550.801" style="enable-background:new 0 0 550.801 550.801;"
	 xml:space="preserve">
<g>
	<path d="M414.482,311.502h-10.885v39.752c3.143,0.422,6.908,0.422,12.351,0.422c14.443,0,27.2-5.432,27.2-20.282
		C443.148,317.145,430.392,311.502,414.482,311.502z"/>
	<path d="M439.805,271.329c0-10.687-8.163-16.326-22.602-16.326c-6.908,0-10.885,0.422-13.605,0.833V288.7h10.463
		C430.798,288.7,439.805,281.792,439.805,271.329z"/>
	<path d="M272.793,256.258c-7.114,0-11.726,0.63-14.447,1.252v92.277c2.716,0.654,7.125,0.654,11.098,0.654
		c28.885,0.185,47.711-15.715,47.711-49.401C317.366,271.738,300.196,256.258,272.793,256.258z"/>
	<path d="M171.688,302.928c0-25.323-12.134-47.092-34.111-47.092c-21.558,0-34.105,20.514-34.105,47.925
		c0,27.633,12.97,47.081,34.322,47.081C159.348,350.842,171.688,330.328,171.688,302.928z"/>
	<path d="M488.426,197.014H475.2v-63.817c0-0.401-0.063-0.799-0.116-1.205c-0.021-2.534-0.833-5.023-2.562-6.993L366.319,3.694
		c-0.031-0.034-0.068-0.045-0.089-0.076c-0.628-0.707-1.371-1.298-2.146-1.804c-0.232-0.158-0.464-0.287-0.707-0.422
		c-0.675-0.366-1.392-0.675-2.136-0.896c-0.2-0.053-0.374-0.135-0.574-0.19C359.87,0.119,359.026,0,358.188,0H97.2
		c-11.918,0-21.6,9.693-21.6,21.601v175.413H62.375c-17.046,0-30.871,13.818-30.871,30.873v160.539
		c0,17.044,13.824,30.876,30.871,30.876h13.226V529.2c0,11.907,9.682,21.601,21.6,21.601h356.4c11.907,0,21.6-9.693,21.6-21.601
		V419.302h13.226c17.044,0,30.871-13.827,30.871-30.87v-160.54C519.297,210.832,505.47,197.014,488.426,197.014z M97.2,21.601
		h250.193v110.51c0,5.967,4.841,10.8,10.8,10.8h95.407v54.108H97.2V21.601z M351.059,299.985c0,27-9.835,45.636-23.436,57.143
		c-14.865,12.351-37.457,18.204-65.084,18.204c-16.53,0-28.255-1.044-36.208-2.088V234.7c11.718-1.88,27-2.933,43.113-2.933
		c26.786,0,44.157,4.823,57.757,15.072C341.856,257.727,351.059,275.092,351.059,299.985z M69.773,304.383
		c0-42.271,27-73.883,68.644-73.883c43.313,0,66.967,32.452,66.967,71.384c0,46.242-28.039,74.281-69.271,74.281
		C94.263,376.165,69.773,344.566,69.773,304.383z M453.601,523.347H97.2V419.302h356.4V523.347z M461.99,362.57
		c-10.257,8.163-27.416,12.762-55.471,12.762c-15.688,0-27.406-1.044-34.521-2.088V234.7c8.374-1.669,25.318-2.933,41.218-2.933
		c19.464,0,31.397,1.901,41.649,7.955c9.829,5.242,16.948,14.861,16.948,27.63c0,12.541-7.319,24.268-23.224,30.122v0.433
		c16.115,4.388,28.044,16.527,28.044,34.731C476.635,345.4,470.781,355.451,461.99,362.57z"/>
</g>
<g>
</g>
<g>
</g>
<g>
</g>
<g>
</g>
<g>
</g>
<g>
</g>
<g>
</g>
<g>
</g>
<g>
</g>
<g>
</g>
<g>
</g>
<g>
</g>
<g>
</g>
<g>
</g>
<g>
</g>
</svg>
