<?xml version="1.0" encoding="iso-8859-1"?>
<!-- Generator: Adobe Illustrator 16.0.0, SVG Export Plug-In . SVG Version: 6.00 Build 0)  -->
<!DOCTYPE svg PUBLIC "-//W3C//DTD SVG 1.1//EN" "http://www.w3.org/Graphics/SVG/1.1/DTD/svg11.dtd">
<svg version="1.1" id="Capa_1" xmlns="http://www.w3.org/2000/svg" xmlns:xlink="http://www.w3.org/1999/xlink" x="0px" y="0px"
	 width="550.801px" height="550.801px" viewBox="0 0 550.801 550.801" style="enable-background:new 0 0 550.801 550.801;"
	 xml:space="preserve">
<g>
	<path d="M163.967,301.377c0-25.871-12.406-48.117-34.863-48.117c-22.021,0-34.852,20.959-34.852,48.961
		c0,28.234,13.257,48.126,35.074,48.126C151.346,350.347,163.967,329.385,163.967,301.377z"/>
	<path d="M267.253,253.692c-7.259,0-11.974,0.633-14.747,1.266v94.312c2.779,0.633,7.272,0.633,11.333,0.633
		c29.518,0.222,48.761-16.026,48.761-50.462C312.8,269.515,295.271,253.692,267.253,253.692z"/>
	<path d="M488.426,197.021H475.2v-63.825c0-0.398-0.063-0.799-0.116-1.203c-0.021-2.533-0.827-5.022-2.562-6.995L366.325,3.694
		c-0.032-0.031-0.063-0.042-0.085-0.074c-0.633-0.709-1.371-1.297-2.151-1.803c-0.231-0.158-0.464-0.288-0.706-0.422
		c-0.676-0.369-1.393-0.675-2.131-0.896c-0.2-0.056-0.38-0.138-0.58-0.19C359.87,0.119,359.037,0,358.193,0H97.2
		c-11.918,0-21.6,9.695-21.6,21.601v175.413H62.377c-17.049,0-30.873,13.818-30.873,30.873v160.545
		c0,17.043,13.824,30.87,30.873,30.87h13.224V529.2c0,11.907,9.682,21.601,21.6,21.601h356.4c11.907,0,21.6-9.693,21.6-21.601
		V419.302h13.226c17.044,0,30.871-13.827,30.871-30.87v-160.54C519.297,210.832,505.47,197.021,488.426,197.021z M97.2,21.601
		h250.193v110.513c0,5.967,4.841,10.8,10.8,10.8h95.407v54.108H97.2V21.601z M347.225,298.382c0,27.575-10.041,46.617-23.946,58.377
		c-15.183,12.604-38.275,18.595-66.49,18.595c-16.896,0-28.88-1.065-37.012-2.136V231.673c11.986-1.917,27.588-3.008,44.052-3.008
		c27.371,0,45.111,4.925,59.018,15.39C337.816,255.18,347.225,272.927,347.225,298.382z M59.833,302.875
		c0-43.203,27.577-75.492,70.123-75.492c44.266,0,68.431,33.141,68.431,72.913c0,47.25-28.648,75.906-70.772,75.906
		C84.845,376.202,59.833,343.913,59.833,302.875z M453.601,523.347H97.2V419.302h356.4V523.347z M489.006,367.232
		c-10.046,3.417-29.083,8.121-48.104,8.121c-26.305,0-45.331-6.629-58.578-19.454c-13.257-12.419-20.534-31.229-20.329-52.397
		c0.222-47.893,35.068-75.265,82.335-75.265c18.583,0,32.927,3.628,39.973,7.059l-6.846,26.093
		c-7.904-3.43-17.75-6.209-33.565-6.209c-27.158,0-47.688,15.398-47.688,46.619c0,29.722,18.604,47.25,45.331,47.25
		c7.493,0,13.479-0.844,16.031-2.136V316.76h-22.223v-25.449h53.662V367.232z"/>
</g>
<g>
</g>
<g>
</g>
<g>
</g>
<g>
</g>
<g>
</g>
<g>
</g>
<g>
</g>
<g>
</g>
<g>
</g>
<g>
</g>
<g>
</g>
<g>
</g>
<g>
</g>
<g>
</g>
<g>
</g>
</svg>
