<?xml version="1.0" encoding="iso-8859-1"?>
<!-- Generator: Adobe Illustrator 16.0.0, SVG Export Plug-In . SVG Version: 6.00 Build 0)  -->
<!DOCTYPE svg PUBLIC "-//W3C//DTD SVG 1.1//EN" "http://www.w3.org/Graphics/SVG/1.1/DTD/svg11.dtd">
<svg version="1.1" id="Capa_1" xmlns="http://www.w3.org/2000/svg" xmlns:xlink="http://www.w3.org/1999/xlink" x="0px" y="0px"
	 width="550.801px" height="550.801px" viewBox="0 0 550.801 550.801" style="enable-background:new 0 0 550.801 550.801;"
	 xml:space="preserve">
<g>
	<path d="M283.849,255.717c-7.583,0-12.503,0.686-15.404,1.35v98.5c2.895,0.675,7.583,0.675,11.829,0.675
		c30.817,0.222,50.92-16.77,50.92-52.719C331.436,272.241,313.105,255.717,283.849,255.717z"/>
	<path d="M437.537,255.274c-6.918,0-11.622,0.675-14.074,1.339v44.442c2.911,0.69,6.48,0.896,11.401,0.896
		c18.088,0,29.262-9.139,29.262-24.563C464.126,263.532,454.508,255.274,437.537,255.274z"/>
	<path d="M488.426,197.021H475.2v-63.825c0-0.398-0.063-0.799-0.116-1.203c-0.021-2.533-0.827-5.022-2.562-6.995L366.325,3.694
		c-0.032-0.031-0.063-0.042-0.085-0.074c-0.633-0.709-1.371-1.297-2.151-1.803c-0.231-0.158-0.464-0.288-0.706-0.422
		c-0.676-0.369-1.393-0.675-2.131-0.896c-0.2-0.056-0.38-0.138-0.58-0.19C359.87,0.119,359.037,0,358.193,0H97.2
		c-11.918,0-21.6,9.695-21.6,21.601v175.413H62.377c-17.049,0-30.873,13.818-30.873,30.873v160.545
		c0,17.043,13.824,30.87,30.873,30.87h13.224V529.2c0,11.907,9.682,21.601,21.6,21.601h356.4c11.907,0,21.6-9.693,21.6-21.601
		V419.302h13.226c17.044,0,30.871-13.827,30.871-30.87v-160.54C519.297,210.832,505.47,197.021,488.426,197.021z M97.2,21.601
		h250.193v110.513c0,5.967,4.841,10.8,10.8,10.8h95.407v54.108H97.2V21.601z M367.385,302.405c0,28.83-10.488,48.69-25.022,60.972
		c-15.857,13.168-39.973,19.443-69.461,19.443c-17.648,0-30.148-1.118-38.636-2.246V232.725c12.512-2.014,28.809-3.132,46.014-3.132
		c28.587,0,47.129,5.136,61.646,16.086C357.556,257.289,367.385,275.827,367.385,302.405z M67.171,307.094
		c0-45.117,28.809-78.851,73.269-78.851c46.235,0,71.474,34.625,71.474,76.177c0,49.365-29.943,79.275-73.942,79.275
		C93.309,383.695,67.171,349.978,67.171,307.094z M453.601,523.347H97.2V419.302h356.4V523.347z M483.996,312.24
		c-11.611,10.938-28.813,15.853-48.911,15.853c-4.466,0-8.495-0.222-11.622-0.675v53.842H389.75V232.725
		c10.483-1.793,25.238-3.132,46-3.132c21.009,0,35.959,4.029,46.031,12.062c9.588,7.594,16.074,20.095,16.074,34.837
		C497.855,291.231,492.93,303.745,483.996,312.24z"/>
	<path d="M175.949,305.527c0-27.031-12.955-50.258-36.4-50.258c-23.011,0-36.408,21.898-36.408,51.155
		c0,29.489,13.851,50.262,36.63,50.262C162.768,356.686,175.949,334.784,175.949,305.527z"/>
</g>
<g>
</g>
<g>
</g>
<g>
</g>
<g>
</g>
<g>
</g>
<g>
</g>
<g>
</g>
<g>
</g>
<g>
</g>
<g>
</g>
<g>
</g>
<g>
</g>
<g>
</g>
<g>
</g>
<g>
</g>
</svg>
