<?xml version="1.0" encoding="iso-8859-1"?>
<!-- Generator: Adobe Illustrator 16.0.0, SVG Export Plug-In . SVG Version: 6.00 Build 0)  -->
<!DOCTYPE svg PUBLIC "-//W3C//DTD SVG 1.1//EN" "http://www.w3.org/Graphics/SVG/1.1/DTD/svg11.dtd">
<svg version="1.1" id="Capa_1" xmlns="http://www.w3.org/2000/svg" xmlns:xlink="http://www.w3.org/1999/xlink" x="0px" y="0px"
	 width="550.801px" height="550.801px" viewBox="0 0 550.801 550.801" style="enable-background:new 0 0 550.801 550.801;"
	 xml:space="preserve">
<g>
	<path d="M488.426,197.021H475.2v-63.819c0-0.398-0.063-0.799-0.116-1.202c-0.021-2.534-0.827-5.023-2.562-6.993L366.319,3.694
		c-0.031-0.031-0.062-0.042-0.089-0.076c-0.628-0.707-1.371-1.295-2.146-1.804c-0.232-0.155-0.464-0.285-0.707-0.419
		c-0.675-0.367-1.392-0.675-2.136-0.896c-0.2-0.056-0.374-0.135-0.574-0.19C359.87,0.119,359.026,0,358.188,0H97.2
		c-11.918,0-21.6,9.693-21.6,21.601v175.415H62.375c-17.046,0-30.871,13.816-30.871,30.871v160.545
		c0,17.038,13.824,30.87,30.871,30.87h13.226V529.2c0,11.907,9.682,21.601,21.6,21.601h356.4c11.907,0,21.6-9.693,21.6-21.601
		V419.308h13.226c17.044,0,30.871-13.833,30.871-30.876v-160.54C519.297,210.838,505.47,197.021,488.426,197.021z M453.601,523.353
		H97.2V419.308h356.4V523.353z M160.948,378.518V228.757c10.579-1.814,25.444-3.164,46.385-3.164
		c21.167,0,36.255,4.071,46.385,12.171c9.682,7.657,16.21,20.271,16.21,35.132s-4.952,27.464-13.958,36.028
		c-11.707,11.031-29.046,15.988-49.312,15.988c-4.503,0-8.553-0.221-11.712-0.675v54.28H160.948z M386.606,349.692v28.825h-94.801
		V226.731h34.452v122.961H386.606z M453.601,197.021H97.2V21.605h250.193v110.513c0,5.967,4.841,10.8,10.8,10.8h95.407V197.021z"/>
	<path d="M235.937,273.792c0-13.954-9.682-22.296-26.8-22.296c-6.981,0-11.707,0.675-14.186,1.35v44.813
		c2.927,0.675,6.529,0.907,11.486,0.907C224.673,298.566,235.937,289.338,235.937,273.792z"/>
</g>
<g>
</g>
<g>
</g>
<g>
</g>
<g>
</g>
<g>
</g>
<g>
</g>
<g>
</g>
<g>
</g>
<g>
</g>
<g>
</g>
<g>
</g>
<g>
</g>
<g>
</g>
<g>
</g>
<g>
</g>
</svg>
