<?xml version="1.0" standalone="no"?>
<!DOCTYPE svg PUBLIC "-//W3C//DTD SVG 1.1//EN" "http://www.w3.org/Graphics/SVG/1.1/DTD/svg11.dtd" >
<svg xmlns="http://www.w3.org/2000/svg">
<metadata>Generated by IcoMoon</metadata>
<defs>
<font id="icomoon" horiz-adv-x="1024">
<font-face units-per-em="1024" ascent="960" descent="-64" />
<missing-glyph horiz-adv-x="1024" />
<glyph unicode="&#x20;" horiz-adv-x="512" d="" />
<glyph unicode="&#xe900;" glyph-name="arrow-left" d="M704 729.2l-41.4 38.8-342.6-320 342.6-320 41.4 38.6-301 281.4z" />
<glyph unicode="&#xe901;" glyph-name="arrow-right" d="M320 729.2l41.4 38.8 342.6-320-342.6-320-41.4 38.6 301 281.4z" />
<glyph unicode="&#xe902;" glyph-name="house-icon" horiz-adv-x="1078" d="M431.158 29.642v323.368h215.579v-323.368h269.474v431.158h161.684l-538.947 485.053-538.947-485.053h161.684v-431.158h269.474z" />
<glyph unicode="&#xe903;" glyph-name="bell-icon" d="M763.4 521c0 195.2-105 261.6-203.2 276.4 0 1 0.2 2 0.2 3.2 0 24.6-21.8 44.2-48.4 44.2s-47.6-19.6-47.6-44.2c0-1.2 0-2.2 0.2-3.2-98.4-15-204-81.6-204-276.8 0-227.6-56.6-252-132.6-316h768c-75.6 64.2-132.6 88.8-132.6 316.4zM512.4 76.8c53.6 0 97.6 39.8 103.4 86h-206.8c5.6-46.2 49.8-86 103.4-86z" />
<glyph unicode="&#xe904;" glyph-name="comment" d="M0 960h1024v-731.52c-83.2-19.2-166.4-37.12-250.24-53.76-5.76-80-12.16-159.36-18.56-238.72h-12.16c-104.32 76.16-192.64 177.92-310.4 233.6-141.44 33.92-288 31.36-432.64 37.76v752.64z" />
<glyph unicode="&#xe905;" glyph-name="fullscreen" d="M1024 928c0 17.856-14.144 32-32 32h-287.52c-18.176 0-31.712-14.336-31.744-32.512 0-18.144 13.568-31.488 31.744-31.488h255.52l-0.512-256.736c0-18.176 13.824-32 32-32 18.176 0.032 32 13.824 32 32l0.512 288.256c0 0.096-0.032 0.16-0.032 0.224 0 0.096 0.032 0.16 0.032 0.256zM320.512 960h-287.52c-0.096 0-0.16-0.032-0.256-0.032-0.064 0-0.16 0.032-0.224 0.032-17.856 0-32-14.144-32-32l-0.512-288.256c0-18.176 14.336-31.744 32.512-31.744 18.144 0 31.488 13.568 31.488 31.744l0.512 256.256h256c18.176 0 32 13.824 32 32-0.032 18.176-13.856 32-32 32zM319.52 0h-255.52v256c0 18.176-13.824 32-32 32s-32-13.824-32-32v-287.52c0-0.096 0.032-0.16 0.032-0.224 0-0.096-0.032-0.16-0.032-0.256 0-17.856 14.144-32 32-32h287.52c18.176 0 31.712 14.336 31.744 32.512 0 18.144-13.568 31.488-31.744 31.488zM991.488 287.264c-18.176 0-31.52-13.568-31.488-31.744v-255.52h-256c-18.176 0-32-13.824-32-32s13.824-32 32-32h287.52c0.096 0 0.16 0.032 0.224 0.032 0.096 0.032 0.16-0.032 0.256-0.032 17.856 0 32 14.144 32 32v287.52c0 18.176-14.336 31.744-32.512 31.744z" />
<glyph unicode="&#xe906;" glyph-name="checkmark-icon" d="M923.2 753.6l-109.8 86.6c-3.4 2.8-7.6 4.8-12.4 4.8s-9.2-2-12.6-5l-399.4-513.2s-157 151-161.4 155.4c-4.4 4.4-10.2 11.8-19 11.8s-12.8-6.2-17.4-10.8c-3.4-3.6-59.4-62.4-87-91.6-1.6-1.8-2.6-2.8-4-4.2-2.4-3.4-4-7.2-4-11.4 0-4.4 1.6-8 4-11.4l5.6-5.2s278.6-267.6 283.2-272.2c4.6-4.6 10.2-10.4 18.4-10.4 8 0 14.6 8.6 18.4 12.4l498.2 640c2.4 3.4 4 7.2 4 11.6 0 5-2 9.2-4.8 12.8z" />
<glyph unicode="&#xe907;" glyph-name="icon-close" d="M794.624 743.936l-286.72-287.744-287.744 287.744-19.456-19.456 286.72-287.744-286.72-287.744 19.456-19.456 287.744 287.744 286.72-287.744 20.48 19.456-287.744 287.744 287.744 287.744z" />
<glyph unicode="&#xe908;" glyph-name="like" d="M95.616 576.16h-64c-17.696 0-32-14.304-32-32v-576c0-17.696 14.304-32 32-32l64 0.64c17.696 0 32 14.304 32 32v576c0 17.664-14.304 31.36-32 31.36zM1020.064 554.272c-4.448 8.064-12.48 14.752-23.872 19.872-2.88 1.28-5.92 2.144-9.024 2.56-27.168 3.488-155.52 31.392-379.904 31.392 29.024 90.368 32.352 105.376 32.352 192.064 0 96-59.072 158.944-96.064 159.84-17.536 0-31.776-14.112-31.968-31.616-1.44-126.208-62.592-285.568-227.328-353.408-17.344-5.472-28.992-20.64-28.992-37.824l0.256-504.992c0-27.008 29.472-32 29.472-32 9.12-2.688 16.832-5.664 161.984-40.64 2.464-0.576 97.664-23.36 193.664-23.36h190.976c36 0 52.992 12 63.584 31.936 1.28 2.56 128 259.648 128.768 570.688 0.032 5.408-1.312 10.752-3.904 15.488z" />
<glyph unicode="&#xe909;" glyph-name="logout-icon" d="M402.286 149.943q0-2.286 0.571-11.429t0.286-15.143-1.714-13.429-5.714-11.143-11.714-3.714h-182.857q-68 0-116.286 48.286t-48.286 116.286v402.286q0 68 48.286 116.286t116.286 48.286h182.857q7.429 0 12.857-5.429t5.429-12.857q0-2.286 0.571-11.429t0.286-15.143-1.714-13.429-5.714-11.143-11.714-3.714h-182.857q-37.714 0-64.571-26.857t-26.857-64.571v-402.286q0-37.714 26.857-64.571t64.571-26.857h178.286l6.571-0.571 6.571-1.714 4.571-3.143 4-5.143 1.143-7.714zM932.571 460.8q0-14.857-10.857-25.714l-310.857-310.857q-10.857-10.857-25.714-10.857t-25.714 10.857-10.857 25.714v164.571h-256q-14.857 0-25.714 10.857t-10.857 25.714v219.429q0 14.857 10.857 25.714t25.714 10.857h256v164.571q0 14.857 10.857 25.714t25.714 10.857 25.714-10.857l310.857-310.857q10.857-10.857 10.857-25.714z" />
<glyph unicode="&#xe90a;" d="M185.783 733.989c98.743 285.257 550.766 285.989 650.24 0.731 98.743-297.691-181.394-539.063-276.48-798.72h-102.4c-82.651 264.777-372.297 498.834-271.36 797.989zM446.903 742.766c-174.811-81.189-56.32-356.937 122.149-283.063 187.246 73.874 63.634 361.326-122.149 283.063z" />
<glyph unicode="&#xe90b;" d="M446.903 742.766c185.783 78.263 309.394-209.189 122.149-283.063-178.469-73.874-296.96 201.874-122.149 283.063z" />
<glyph unicode="&#xe90c;" glyph-name="play" d="M512-64c-282.77 0-512 229.23-512 512s229.23 512 512 512c282.77 0 512-229.23 512-512s-229.23-512-512-512zM302.344 704v-512l511.47 256-511.47 256z" />
<glyph unicode="&#xe90d;" glyph-name="search-icon" d="M621.664 287.136c-43.808-31.483-98.527-50.348-157.652-50.348-150.221 0-272 121.779-272 272s121.779 272 272 272c150.221 0 272-121.779 272-272 0-59.125-18.865-113.844-50.903-158.466l0.556 0.814 178.72-178.72c17.6-17.6 17.472-45.76 0-63.232l-0.768-0.768c-8.097-8.078-19.273-13.073-31.616-13.073s-23.519 4.995-31.617 13.073l-178.719 178.719zM464 300.8c114.875 0 208 93.125 208 208s-93.125 208-208 208v0c-114.875 0-208-93.125-208-208s93.125-208 208-208v0z" />
<glyph unicode="&#xe90e;" glyph-name="umbraco-logo-icon" d="M168.356 460.807c0 190.031 153.856 344.061 343.644 344.061 189.785 0 343.641-154.030 343.641-344.061 0-190.034-153.859-344.071-343.641-344.071-189.788-0.003-343.644 154.037-343.644 344.071zM505.023 343.122c-33.785-0.031-60.297 2.311-79.38 7.158-20.995 5.318-35.468 16.951-43.411 34.891-7.95 17.934-11.718 45.548-11.325 82.818 0.174 20.091 1.386 39.554 3.639 58.388 2.249 18.845 4.502 34.403 6.752 46.681l2.362 12.199c0.056 0.331 0.087 0.713 0.087 1.102 0 3.436-2.483 6.292-5.752 6.873l-0.042 0.006-44.414 6.878c-0.334 0.056-0.718 0.089-1.11 0.089-3.285 0-6.041-2.269-6.785-5.325l-0.010-0.048c-0.734-2.847-1.198-4.963-2.529-11.728-2.186-9.83-4.805-24.808-6.986-39.928l-0.492-4.158c-2.584-18.336-4.26-38.622-5.007-60.812 0 0-1.075-4.946 0-42.568 1.075-37.615 7.537-67.656 19.398-90.136 11.848-22.477 31.949-38.653 60.3-48.521 28.355-9.861 67.816-14.698 118.395-14.486h6.574c50.579-0.212 90.033 4.625 118.391 14.486 28.358 9.868 48.452 26.040 60.307 48.521 11.858 22.477 18.316 52.521 19.391 90.136 1.075 37.622 0 42.568 0 42.568-0.754 22.19-2.42 42.476-5.007 60.812-2.662 19.229-5.281 34.208-8.328 49.030l0.849-4.944c-1.335 6.765-1.792 8.881-2.519 11.728-0.758 3.105-3.516 5.373-6.804 5.373-0.394 0-0.78-0.033-1.156-0.095l0.041 0.006-44.401-6.878c-3.315-0.582-5.802-3.439-5.802-6.877 0-0.39 0.032-0.772 0.093-1.144l-0.006 0.041 2.365-12.199c2.249-12.281 4.495-27.839 6.748-46.681 2.253-18.835 3.465-38.298 3.639-58.388 0.396-37.27-3.386-64.884-11.325-82.818-7.943-17.94-22.415-29.573-43.414-34.891-19.081-4.847-45.599-7.188-79.377-7.158h-13.947z" />
<glyph unicode="&#xe90f;" glyph-name="user-profile-icon" d="M561.322 407.403c35.371 18.091 59.883 54.485 59.883 96.853v92.331c0 60.203-48.981 109.184-109.205 109.184s-109.184-48.981-109.184-109.184v-92.309c0-42.389 24.512-78.784 59.861-96.875-120.32-12.48-234.069-71.211-234.069-184.107 0-4.139 3.349-7.467 7.467-7.467h551.85c4.124 0 7.467 3.343 7.467 7.467v0c0 112.875-113.771 171.627-234.069 184.107z" />
<glyph unicode="&#xe910;" glyph-name="time" d="M512 960c-281.6 0-512-230.4-512-512s230.4-512 512-512c281.6 0 512 230.4 512 512s-230.4 512-512 512v0zM512 38.4c-225.28 0-409.6 184.32-409.6 409.6s184.32 409.6 409.6 409.6c225.28 0 409.6-184.32 409.6-409.6s-184.32-409.6-409.6-409.6zM537.6 704v-266.24l230.4-138.24-40.96-66.56-266.24 163.84v307.2h76.8z" />
<glyph unicode="&#xe912;" glyph-name="cancel" d="M156.8 816c-316.8-316.8-92.8-867.2 355.2-867.2 262.4 0 512 249.6 512 512 0 448-550.4 672-867.2 355.2zM732.8 681.6c83.2-86.4 144-348.8 80-348.8-9.6 0-118.4 102.4-236.8 224-195.2 201.6-204.8 224-80 224 73.6 0 179.2-44.8 236.8-99.2zM448 364.8c195.2-201.6 204.8-224 80-224-169.6 0-336 160-336 323.2s3.2 163.2 256-99.2z" />
<glyph unicode="&#xe913;" glyph-name="link" d="M435.332 537.466c8.675 8.681 20.248 13.455 32.579 13.455s23.904-4.78 32.579-13.455l88.179-88.179c3.055-3.050 7.195-4.768 11.507-4.768s8.459 1.715 11.507 4.768l88.178 88.179c3.057 3.050 4.769 7.195 4.769 11.507 0 4.314-1.715 8.459-4.769 11.507l-88.178 88.179c-38.418 38.407-89.483 59.554-143.78 59.554s-105.362-21.149-143.78-59.549l-264.547-264.547c-38.418-38.418-59.577-89.488-59.577-143.803 0-54.32 21.159-105.374 59.582-143.764l88.174-88.172c38.386-38.418 89.444-59.579 143.758-59.579s105.385 21.161 143.806 59.579l149.081 149.079c4.796 4.796 6.113 12.062 3.314 18.236-2.652 5.842-8.468 9.549-14.815 9.549-0.363 0-0.722-0.012-1.090-0.037-5.246-0.353-10.564-0.527-15.81-0.527-41.407 0-82.13 11.007-117.759 31.836-2.56 1.496-5.394 2.223-8.207 2.223-4.211 0-8.378-1.633-11.514-4.768l-94.392-94.392c-8.691-8.69-20.259-13.482-32.574-13.482-12.321 0-23.899 4.785-32.59 13.482l-88.179 88.179c-8.702 8.681-13.493 20.232-13.503 32.531-0.005 12.328 4.785 23.916 13.503 32.634l264.547 264.542zM964.421 825.065l-88.179 88.179c-38.389 38.402-89.442 59.556-143.757 59.556s-105.385-21.149-143.801-59.55l-149.086-149.145c-4.796-4.796-6.113-12.067-3.31-18.241 2.654-5.837 8.47-9.542 14.812-9.542 0.363 0 0.732 0.011 1.101 0.037 5.296 0.358 10.661 0.537 15.957 0.537 41.489 0 82.119-11.003 117.505-31.82 2.571-1.514 5.42-2.246 8.245-2.246 4.211 0 8.378 1.633 11.514 4.768l94.456 94.456c8.675 8.681 20.248 13.455 32.579 13.455s23.904-4.78 32.579-13.455l88.179-88.179c17.948-17.97 17.948-47.223-0.005-65.203l-264.537-264.538c-8.677-8.697-20.227-13.482-32.531-13.482-12.333 0-23.927 4.791-32.65 13.493l-88.16 88.164c-3.055 3.050-7.193 4.769-11.507 4.769s-8.459-1.715-11.507-4.769l-88.179-88.179c-6.358-6.358-6.358-16.661 0-23.019l88.179-88.179c38.418-38.418 89.483-59.577 143.78-59.577 54.299 0 105.364 21.159 143.781 59.577l264.544 264.546c38.418 38.4 59.579 89.47 59.579 143.796s-21.163 105.394-59.581 143.796z" />
<glyph unicode="&#xe914;" glyph-name="star" d="M1022.323 578.211c-5.348 19.444-23.546 33.268-43.737 33.268-107.848 0-215.696 0-323.544 0-30.82 94.84-61.64 189.68-92.438 284.52-2.334 7.093-4.6 14.186-6.935 21.257-0.045 0.113-0.113 0.204-0.136 0.34-3.377 10.968-10.991 20.577-20.917 26.514-0.204 0.136-0.408 0.295-0.612 0.408-1.904 1.11-3.921 1.972-5.96 2.787-0.838 0.34-1.632 0.703-2.493 0.974-0.499 0.181-0.997 0.476-1.518 0.612-1.020 0.272-1.994 0.295-2.991 0.499-1.586 0.34-3.195 0.657-4.827 0.816-1.224 0.113-2.402 0.113-3.626 0.136-1.813 0.023-3.626 0-5.462-0.204-1.020-0.113-1.994-0.317-2.991-0.499-1.382-0.249-2.765-0.317-4.17-0.703-0.748-0.204-1.405-0.589-2.13-0.838-0.227-0.068-0.453-0.181-0.68-0.272-13.642-4.85-24.452-16.498-28.69-30.208-0.045-0.136-0.113-0.249-0.159-0.385-33.132-101.933-66.218-203.866-99.372-305.777-100.415 0-200.807 0-301.222 0-7.456 0-14.889 0-22.345 0-20.169 0-38.344-13.824-43.715-33.268-5.801-21.098 4.17-39.069 20.826-51.193 86.047-62.501 172.072-125.003 258.119-187.504-31.251-96.2-62.501-192.399-93.798-288.599-2.289-7.071-4.6-14.164-6.912-21.257-11.671-35.896 34.129-74.762 66.603-51.171 88.517 64.314 177.012 128.606 265.529 192.921 82.489-59.963 164.979-119.859 247.468-179.822 6.028-4.351 12.033-8.725 18.062-13.099 32.497-23.591 78.251 15.274 66.581 51.171-33.54 103.316-67.147 206.586-100.709 309.901 79.996 58.105 160.016 116.233 240.035 174.361 6.028 4.374 12.033 8.747 18.062 13.144 16.656 12.101 26.605 30.072 20.804 51.171zM534.866 266.27c-11.807 8.589-33.925 8.589-45.777 0-59.827-43.488-119.655-86.954-179.482-130.419 20.305 62.501 40.61 124.98 60.915 187.459 2.312 7.071 4.6 14.164 6.912 21.257 6.708 20.622-4.782 39.522-20.826 51.171-57.38 41.698-114.76 83.373-172.162 125.071 64.994 0 129.989 0 194.983 0 7.456 0 14.889 0 22.345 0 20.872 0 37.415 13.96 43.715 33.268 22.163 68.19 44.327 136.425 66.49 204.614 19.829-61.119 39.681-122.216 59.555-183.312 2.312-7.093 4.578-14.164 6.912-21.257 6.277-19.308 22.843-33.268 43.715-33.268 72.45 0 144.9 0 217.327 0-51.352-37.301-102.681-74.603-154.033-111.904-6.051-4.374-12.056-8.77-18.107-13.144-16.045-11.694-27.557-30.548-20.826-51.171 22.594-69.595 45.21-139.167 67.827-208.739-53.799 39.092-107.621 78.161-161.398 117.253-6.028 4.374-12.033 8.747-18.084 13.121z" />
<glyph unicode="&#xe915;" glyph-name="plus" d="M1024 494.558h-478.242v478.242h-67.516v-478.242h-478.242v-67.516h478.242v-478.242h67.516v478.242h478.242z" />
<glyph unicode="&#xe916;" glyph-name="small-calendar" d="M938.688 876.8h-138.688v64c0 17.696-14.304 32-32 32s-32-14.304-32-32v-64h-192v64c0 17.696-14.336 32-32 32s-32-14.304-32-32v-64h-192v64c0 17.696-14.336 32-32 32s-32-14.304-32-32v-64h-138.656c-47.136 0-85.344-38.176-85.344-85.312v-757.344c0-47.136 38.208-85.344 85.344-85.344h853.344c47.136 0 85.312 38.208 85.312 85.344v757.344c0 47.136-38.176 85.312-85.312 85.312zM960 34.144c0-11.776-9.568-21.344-21.312-21.344h-853.344c-11.776 0-21.344 9.568-21.344 21.344v757.344c0 11.744 9.568 21.312 21.344 21.312h138.656v-64c0-17.696 14.336-32 32-32s32 14.304 32 32v64h192v-64c0-17.696 14.336-32 32-32s32 14.304 32 32v64h192v-64c0-17.696 14.304-32 32-32s32 14.304 32 32v64h138.688c11.744 0 21.312-9.568 21.312-21.312v-757.344zM224 588.8h128v-96h-128v96zM224 428.8h128v-96h-128v96zM224 268.8h128v-96h-128v96zM448 268.8h128v-96h-128v96zM448 428.8h128v-96h-128v96zM448 588.8h128v-96h-128v96zM672 268.8h128v-96h-128v96zM672 428.8h128v-96h-128v96zM672 588.8h128v-96h-128v96z" />
<glyph unicode="&#xe917;" glyph-name="lightning" d="M424.233 857.574h292.553l-167.172-341.312h235.435l-477.836-477.836 97.517 341.312h-165.779z" />
</font>
</defs>
</svg>
