<svg xmlns="http://www.w3.org/2000/svg" id="Layer_1" data-name="Layer 1" viewBox="0 0 550 149.86">
    <defs>
        <style>
            .cls-1{fill:#4c6cf4}
        </style>
    </defs>
    <path d="M160.3 170c0 15.7-8.71 22.09-20.06 22.09s-20.06-6.38-20.06-22.09v-54H93.73v56.34c0 31 21.89 44.38 46.51 44.38s46.41-13.37 46.41-44.38V116H160.3zM173.43 100.72a16.61 16.61 0 0 0 16.92-16.82 16.87 16.87 0 1 0-33.74 0 16.53 16.53 0 0 0 16.82 16.82z" class="cls-1" transform="translate(-93.73 -66.87)"/>
    <path d="M116.61 49.14h26.45v98.18h-26.45z" class="cls-1"/>
    <path d="M355.33 151.68v62.52h-26.45v-54c0-14.18-7.09-22-19.15-22-11.35 0-20.77 7.4-20.77 22.19v53.8h-26.44V116h25.74v11.55c7-10.44 17.73-14.19 28.88-14.19 22.28.02 38.19 15.52 38.19 38.32zM447.53 139.52H412v35.87c0 12.26 6.48 16.72 14.69 16.72 6.28 0 13.07-3.14 18.44-6.38l9.73 20.67c-8.61 5.88-18.54 10.33-32.52 10.33-24.32 0-36.78-13.78-36.78-39.21v-38h-18.99V116h18.95V86.83H412V116h35.57zM537.34 115.51l-4 26.24a42.92 42.92 0 0 0-16-3.14c-12.26 0-20.67 7.5-20.67 22.09v53.5h-26.4V116h25.63v10.74c6.18-9.22 15.6-13.38 27.66-13.38a40.15 40.15 0 0 1 13.78 2.15zM643.73 214.2H617.9v-10.84c-6.38 7.9-15.91 13.37-29.38 13.37-27.05 0-47.52-22.19-47.52-51.67s20.47-51.67 47.52-51.67c13.48 0 22.9 5.47 29.38 13.48V116h25.84zM568 165.06c0 15 9.83 27.05 25.33 27.05 15.1 0 25.33-11.55 25.33-27.05S608.47 138 593.38 138c-15.51 0-25.38 12.06-25.38 27.06z" class="cls-1" transform="translate(-93.73 -66.87)"/>
</svg>
