<?xml version="1.0" encoding="iso-8859-1"?>
<!-- Generator: Adobe Illustrator 16.0.0, SVG Export Plug-In . SVG Version: 6.00 Build 0)  -->
<!DOCTYPE svg PUBLIC "-//W3C//DTD SVG 1.1//EN" "http://www.w3.org/Graphics/SVG/1.1/DTD/svg11.dtd">
<svg version="1.1" id="Capa_1" xmlns="http://www.w3.org/2000/svg" xmlns:xlink="http://www.w3.org/1999/xlink" x="0px" y="0px"
	 width="550.801px" height="550.801px" viewBox="0 0 550.801 550.801" style="enable-background:new 0 0 550.801 550.801;"
	 xml:space="preserve">
<g>
	<path d="M160.376,280.769c-2.618-8.754-5.244-19.686-7.44-28.426h-0.438c-2.18,8.741-4.364,19.894-6.776,28.426l-8.738,31.261
		h32.574L160.376,280.769z"/>
	<path d="M488.426,197.019H475.2v-63.816c0-0.401-0.063-0.799-0.116-1.205c-0.021-2.534-0.827-5.023-2.562-6.992L366.325,3.691
		c-0.032-0.031-0.063-0.042-0.085-0.073c-0.633-0.707-1.371-1.298-2.151-1.804c-0.231-0.158-0.464-0.287-0.706-0.422
		c-0.676-0.366-1.393-0.675-2.131-0.896c-0.2-0.053-0.38-0.135-0.58-0.19C359.87,0.119,359.037,0,358.193,0H97.2
		c-11.918,0-21.6,9.693-21.6,21.601v175.413H62.377c-17.049,0-30.873,13.818-30.873,30.87v160.542
		c0,17.044,13.824,30.876,30.873,30.876h13.224V529.2c0,11.907,9.682,21.601,21.6,21.601h356.4c11.907,0,21.6-9.693,21.6-21.601
		V419.302h13.226c17.044,0,30.871-13.827,30.871-30.87V227.89C519.297,210.838,505.47,197.019,488.426,197.019z M97.2,21.605
		h250.193v110.51c0,5.967,4.841,10.8,10.8,10.8h95.407v54.108H97.2V21.605z M365.07,374.794h-35.85l-11.374-37.831h-42.209
		l-10.491,37.831h-34.56l45.059-147.374h43.746L365.07,374.794z M87.125,374.794l45.041-147.374h43.735l45.715,147.374h-35.878
		l-11.362-37.831h-42.211l-10.486,37.831H87.125z M453.601,523.353H97.2V419.302h356.4V523.353z M482.52,258.027
		c-6.781-2.835-16.173-5.464-27.98-5.464c-26.457,0-47.028,15.958-47.028,48.756c0,29.521,17.502,48.104,47.25,48.104
		c10.046,0,21.199-2.184,27.759-4.814l5.026,26.019c-6.112,3.069-19.897,6.35-37.821,6.35c-50.947,0-77.203-31.704-77.203-73.687
		c0-50.295,35.875-78.289,80.488-78.289c17.266,0,30.396,3.499,36.303,6.571L482.52,258.027z"/>
	<path d="M303.846,280.769c-2.616-8.754-5.242-19.686-7.436-28.426h-0.443c-2.178,8.741-4.366,19.894-6.781,28.426l-8.733,31.261
		h32.579L303.846,280.769z"/>
</g>
<g>
</g>
<g>
</g>
<g>
</g>
<g>
</g>
<g>
</g>
<g>
</g>
<g>
</g>
<g>
</g>
<g>
</g>
<g>
</g>
<g>
</g>
<g>
</g>
<g>
</g>
<g>
</g>
<g>
</g>
</svg>
