<?xml version="1.0" encoding="iso-8859-1"?>
<!-- Generator: Adobe Illustrator 16.0.0, SVG Export Plug-In . SVG Version: 6.00 Build 0)  -->
<!DOCTYPE svg PUBLIC "-//W3C//DTD SVG 1.1//EN" "http://www.w3.org/Graphics/SVG/1.1/DTD/svg11.dtd">
<svg version="1.1" id="Capa_1" xmlns="http://www.w3.org/2000/svg" xmlns:xlink="http://www.w3.org/1999/xlink" x="0px" y="0px"
	 width="550.801px" height="550.801px" viewBox="0 0 550.801 550.801" style="enable-background:new 0 0 550.801 550.801;"
	 xml:space="preserve">
<g>
	<path d="M348.997,313.369h-12.445v45.468c3.586,0.479,7.895,0.479,14.111,0.479c16.521,0,31.113-6.217,31.113-23.219
		C381.782,319.834,367.185,313.369,348.997,313.369z"/>
	<path d="M377.948,267.435c0-12.205-9.334-18.673-25.84-18.673c-7.905,0-12.451,0.479-15.557,0.96v37.565h11.96
		C367.649,287.287,377.948,279.387,377.948,267.435z"/>
	<path d="M488.427,197.019h-13.226v-63.822c0-0.401-0.063-0.799-0.116-1.205c-0.021-2.531-0.828-5.023-2.563-6.993L366.325,3.694
		c-0.031-0.034-0.063-0.045-0.084-0.076c-0.633-0.709-1.371-1.298-2.151-1.804c-0.232-0.158-0.465-0.287-0.707-0.422
		c-0.675-0.366-1.393-0.675-2.131-0.896c-0.2-0.053-0.379-0.135-0.58-0.19C359.871,0.119,359.037,0,358.193,0H97.201
		c-11.918,0-21.6,9.693-21.6,21.601v175.413H62.378c-17.049,0-30.874,13.818-30.874,30.87v160.542
		c0,17.044,13.824,30.876,30.874,30.876h13.223V529.2c0,11.907,9.682,21.601,21.6,21.601h356.4c11.907,0,21.601-9.693,21.601-21.601
		V419.302h13.226c17.044,0,30.87-13.827,30.87-30.87V227.89C519.297,210.832,505.471,197.019,488.427,197.019z M453.601,523.347
		h-356.4V419.302h356.4V523.347z M133.851,383.97V225.559c13.397-2.157,30.86-3.364,49.296-3.364
		c30.631,0,50.485,5.508,66.036,17.23c16.751,12.453,27.282,32.303,27.282,60.787c0,30.865-11.248,52.159-26.799,65.322
		c-16.994,14.117-42.833,20.814-74.424,20.814C156.337,386.354,142.94,385.162,133.851,383.97z M420.067,337.543
		c0,14.597-6.703,26.071-16.754,34.214c-11.739,9.334-31.356,14.597-63.408,14.597c-17.956,0-31.355-1.191-39.487-2.384V225.559
		c9.571-1.917,28.956-3.364,47.134-3.364c22.254,0,35.901,2.154,47.619,9.104c11.254,5.982,19.386,16.983,19.386,31.59
		c0,14.346-8.375,27.741-26.558,34.449v0.475C406.425,302.844,420.067,316.723,420.067,337.543z M453.601,197.019h-356.4V21.601
		h250.193v110.51c0,5.967,4.841,10.8,10.8,10.8h95.407V197.019z"/>
	<path d="M186.965,250.204c-8.126,0-13.397,0.712-16.5,1.424V357.16c3.104,0.717,8.126,0.717,12.683,0.717
		c33.017,0.242,54.546-17.951,54.546-56.468C237.941,267.909,218.324,250.204,186.965,250.204z"/>
</g>
<g>
</g>
<g>
</g>
<g>
</g>
<g>
</g>
<g>
</g>
<g>
</g>
<g>
</g>
<g>
</g>
<g>
</g>
<g>
</g>
<g>
</g>
<g>
</g>
<g>
</g>
<g>
</g>
<g>
</g>
</svg>
