<?xml version="1.0" encoding="iso-8859-1"?>
<!-- Generator: Adobe Illustrator 16.0.0, SVG Export Plug-In . SVG Version: 6.00 Build 0)  -->
<!DOCTYPE svg PUBLIC "-//W3C//DTD SVG 1.1//EN" "http://www.w3.org/Graphics/SVG/1.1/DTD/svg11.dtd">
<svg version="1.1" id="Capa_1" xmlns="http://www.w3.org/2000/svg" xmlns:xlink="http://www.w3.org/1999/xlink" x="0px" y="0px"
	 width="550.801px" height="550.801px" viewBox="0 0 550.801 550.801" style="enable-background:new 0 0 550.801 550.801;"
	 xml:space="preserve">
<g>
	<path d="M488.426,197.019H475.2v-63.824c0-0.398-0.063-0.799-0.116-1.202c-0.021-2.534-0.827-5.023-2.562-6.996L366.325,3.691
		c-0.032-0.031-0.063-0.042-0.085-0.073c-0.633-0.709-1.371-1.298-2.151-1.804c-0.231-0.158-0.464-0.287-0.706-0.422
		c-0.676-0.369-1.393-0.675-2.131-0.896c-0.2-0.056-0.38-0.135-0.58-0.19C359.87,0.116,359.037,0,358.193,0H97.2
		c-11.915,0-21.6,9.693-21.6,21.601v175.413H62.377c-17.049,0-30.873,13.818-30.873,30.87v160.542
		c0,17.044,13.824,30.871,30.873,30.871h13.224V529.2c0,11.907,9.685,21.601,21.6,21.601h356.4c11.907,0,21.6-9.693,21.6-21.601
		V419.302h13.226c17.05,0,30.871-13.827,30.871-30.87V227.89C519.297,210.832,505.48,197.019,488.426,197.019z M97.2,21.601h250.193
		v110.51c0,5.967,4.841,10.8,10.8,10.8h95.407v54.108H97.2V21.601z M366.325,376.998h-31.15l-2.094-53.937
		c-0.627-16.928-1.255-37.415-1.255-57.913h-0.628c-4.393,17.973-10.246,38.064-15.678,54.56l-17.139,54.98h-24.88l-15.05-54.559
		c-4.606-16.506-9.413-36.577-12.756-54.986h-0.414c-0.839,19.042-1.463,40.769-2.513,58.329l-2.51,53.521h-29.473l8.986-140.896
		h42.438l13.798,47.018c4.393,16.311,8.78,33.871,11.918,50.393h0.628c3.965-16.311,8.774-34.91,13.378-50.582l15.051-46.828h41.607
		L366.325,376.998z M68.392,376.376V237.982c11.707-1.88,26.968-2.932,43.065-2.932c26.758,0,44.107,4.822,57.705,15.048
		c14.634,10.866,23.826,28.229,23.826,53.114c0,26.957-9.822,45.562-23.409,57.063c-14.845,12.324-37.423,18.188-65.016,18.188
		C88.038,378.465,76.336,377.41,68.392,376.376z M453.601,523.347H97.2V419.302h356.4V523.347z M479.029,312.394
		c-10.869,10.257-26.969,14.855-45.784,14.855c-4.188,0-7.942-0.211-10.874-0.644v50.393h-31.566V237.982
		c9.824-1.674,23.625-2.932,43.062-2.932c19.654,0,33.66,3.757,43.073,11.285c8.986,7.105,15.051,18.812,15.051,32.619
		C491.991,292.755,487.393,304.446,479.029,312.394z"/>
	<path d="M435.55,259.09c-6.486,0-10.869,0.611-13.168,1.25v41.608c2.71,0.622,6.064,0.844,10.657,0.844
		c16.934,0,27.385-8.575,27.385-23.02C460.424,266.828,451.438,259.09,435.55,259.09z"/>
	<path d="M159.124,304.246c0.211-29.268-16.941-44.734-44.323-44.734c-7.106,0-11.707,0.611-14.429,1.247v92.192
		c2.716,0.623,7.106,0.623,11.085,0.623C140.306,353.795,159.124,337.891,159.124,304.246z"/>
</g>
<g>
</g>
<g>
</g>
<g>
</g>
<g>
</g>
<g>
</g>
<g>
</g>
<g>
</g>
<g>
</g>
<g>
</g>
<g>
</g>
<g>
</g>
<g>
</g>
<g>
</g>
<g>
</g>
<g>
</g>
</svg>
