<?xml version="1.0" encoding="iso-8859-1"?>
<!-- Generator: Adobe Illustrator 16.0.0, SVG Export Plug-In . SVG Version: 6.00 Build 0)  -->
<!DOCTYPE svg PUBLIC "-//W3C//DTD SVG 1.1//EN" "http://www.w3.org/Graphics/SVG/1.1/DTD/svg11.dtd">
<svg version="1.1" id="Capa_1" xmlns="http://www.w3.org/2000/svg" xmlns:xlink="http://www.w3.org/1999/xlink" x="0px" y="0px"
	 width="548.291px" height="548.291px" viewBox="0 0 548.291 548.291" style="enable-background:new 0 0 548.291 548.291;"
	 xml:space="preserve">
<g>
	<path d="M486.201,196.121h-13.166v-63.525c0-0.399-0.062-0.795-0.115-1.2c-0.021-2.522-0.825-5-2.552-6.96L364.657,3.675
		c-0.033-0.031-0.064-0.042-0.085-0.073c-0.63-0.704-1.364-1.292-2.143-1.796c-0.229-0.157-0.461-0.286-0.702-0.419
		c-0.672-0.365-1.387-0.672-2.121-0.893c-0.2-0.052-0.379-0.134-0.577-0.188C358.23,0.118,357.401,0,356.562,0H96.757
		C84.894,0,75.256,9.649,75.256,21.502v174.613H62.092c-16.971,0-30.732,13.756-30.732,30.73v159.81
		c0,16.966,13.761,30.736,30.732,30.736h13.164V526.79c0,11.854,9.638,21.501,21.501,21.501h354.776
		c11.853,0,21.501-9.647,21.501-21.501V417.392h13.166c16.966,0,30.729-13.764,30.729-30.731v-159.81
		C516.93,209.877,503.167,196.121,486.201,196.121z M96.757,21.507h249.054v110.006c0,5.94,4.817,10.751,10.751,10.751h94.972
		v53.861H96.757V21.507z M333.437,350.63v30.488h-100.29V220.568h36.447V350.63H333.437L333.437,350.63z M201.459,283.701v29.532
		h-59.08v38.11h65.982v29.786H105.928V220.568h99.096v29.779H142.38v33.354H201.459z M451.534,520.968H96.757V417.392h354.776
		V520.968z M453.03,250.347h-61.708v36.68h57.649v29.535h-57.649v64.557h-36.45V220.568h98.158V250.347z"/>
</g>
<g>
</g>
<g>
</g>
<g>
</g>
<g>
</g>
<g>
</g>
<g>
</g>
<g>
</g>
<g>
</g>
<g>
</g>
<g>
</g>
<g>
</g>
<g>
</g>
<g>
</g>
<g>
</g>
<g>
</g>
</svg>
