<?xml version="1.0" encoding="iso-8859-1"?>
<!-- Generator: Adobe Illustrator 16.0.0, SVG Export Plug-In . SVG Version: 6.00 Build 0)  -->
<!DOCTYPE svg PUBLIC "-//W3C//DTD SVG 1.1//EN" "http://www.w3.org/Graphics/SVG/1.1/DTD/svg11.dtd">
<svg version="1.1" id="Capa_1" xmlns="http://www.w3.org/2000/svg" xmlns:xlink="http://www.w3.org/1999/xlink" x="0px" y="0px"
	 width="550.801px" height="550.801px" viewBox="0 0 550.801 550.801" style="enable-background:new 0 0 550.801 550.801;"
	 xml:space="preserve">
<g>
	<path d="M302.896,291.342c0-8.189,0.416-16.601,1.049-25.429h-0.838c-4.409,8.828-7.989,16.807-12.614,25.429l-18.289,29.854v0.422
		h30.692V291.342z"/>
	<path d="M421.021,260.453H420.6c-2.1,8.408-4.198,19.124-6.519,27.329l-8.405,30.059H437l-8.833-30.059
		C425.651,279.366,423.131,268.856,421.021,260.453z"/>
	<path d="M488.426,197.014H475.2v-63.817c0-0.401-0.063-0.799-0.116-1.205c-0.021-2.534-0.827-5.023-2.562-6.993L366.325,3.694
		c-0.032-0.034-0.063-0.045-0.085-0.076c-0.633-0.707-1.371-1.298-2.151-1.804c-0.231-0.158-0.464-0.287-0.706-0.422
		c-0.676-0.366-1.393-0.675-2.131-0.896c-0.2-0.053-0.38-0.135-0.58-0.19C359.87,0.119,359.037,0,358.193,0H97.2
		c-11.918,0-21.6,9.693-21.6,21.601v175.413H62.377c-17.049,0-30.873,13.818-30.873,30.87v160.542
		c0,17.044,13.824,30.876,30.873,30.876h13.224V529.2c0,11.907,9.682,21.601,21.6,21.601h356.4c11.907,0,21.6-9.693,21.6-21.601
		V419.302h13.226c17.044,0,30.871-13.827,30.871-30.87v-160.54C519.297,210.832,505.47,197.014,488.426,197.014z M97.2,21.601
		h250.193v110.51c0,5.967,4.841,10.8,10.8,10.8h95.407v54.108H97.2V21.601z M242.359,345.584v-20.813l51.709-83.244h39.098v80.091
		h16.395v23.967h-16.395v32.574h-30.27v-32.574H242.359z M70.422,378.158l9.041-141.671h42.67l13.872,47.292
		c4.414,16.4,8.831,34.062,11.984,50.657h0.63c3.997-16.385,8.83-35.101,13.452-50.868l15.138-47.081h41.832l7.778,141.671h-31.322
		l-2.102-54.231c-0.63-17.028-1.257-37.632-1.257-58.235h-0.63c-4.414,18.087-10.304,38.264-15.762,54.871l-17.244,55.297h-25.017
		l-15.138-54.865c-4.627-16.611-9.46-36.793-12.825-55.297h-0.419c-0.844,19.132-1.469,41.006-2.518,58.662l-2.526,53.81H70.422
		V378.158z M453.601,523.347H97.2V419.302h356.4V523.347z M452.557,378.158l-10.927-36.36h-40.574l-10.093,36.36H357.75
		l43.306-141.671h42.051l43.933,141.671H452.557z"/>
</g>
<g>
</g>
<g>
</g>
<g>
</g>
<g>
</g>
<g>
</g>
<g>
</g>
<g>
</g>
<g>
</g>
<g>
</g>
<g>
</g>
<g>
</g>
<g>
</g>
<g>
</g>
<g>
</g>
<g>
</g>
</svg>
