<?xml version="1.0" encoding="iso-8859-1"?>
<!-- Generator: Adobe Illustrator 16.0.0, SVG Export Plug-In . SVG Version: 6.00 Build 0)  -->
<!DOCTYPE svg PUBLIC "-//W3C//DTD SVG 1.1//EN" "http://www.w3.org/Graphics/SVG/1.1/DTD/svg11.dtd">
<svg version="1.1" id="Capa_1" xmlns="http://www.w3.org/2000/svg" xmlns:xlink="http://www.w3.org/1999/xlink" x="0px" y="0px"
	 width="548.291px" height="548.291px" viewBox="0 0 548.291 548.291" style="enable-background:new 0 0 548.291 548.291;"
	 xml:space="preserve">
<g>
	<path d="M486.201,196.116h-13.166V132.59c0-0.399-0.062-0.795-0.115-1.2c-0.021-2.522-0.825-5-2.552-6.96L364.657,3.677
		c-0.033-0.034-0.064-0.044-0.085-0.075c-0.63-0.704-1.364-1.292-2.143-1.796c-0.229-0.157-0.461-0.286-0.702-0.419
		c-0.672-0.365-1.387-0.672-2.121-0.893c-0.2-0.052-0.379-0.134-0.577-0.188C358.23,0.118,357.401,0,356.562,0H96.757
		C84.894,0,75.256,9.649,75.256,21.502v174.613H62.092c-16.971,0-30.732,13.756-30.732,30.73v159.81
		c0,16.966,13.761,30.736,30.732,30.736h13.164V526.79c0,11.854,9.638,21.501,21.501,21.501h354.776
		c11.853,0,21.501-9.647,21.501-21.501V417.392h13.166c16.966,0,30.729-13.764,30.729-30.731V226.854
		C516.93,209.872,503.167,196.116,486.201,196.116z M96.757,21.502h249.054v110.006c0,5.94,4.817,10.751,10.751,10.751h94.972
		v53.861H96.757V21.502z M310.14,237.605v141.036h-32.016V237.605H310.14z M253.667,378.652h-31.184l-2.097-53.985
		c-0.622-16.946-1.252-37.466-1.252-57.967h-0.622c-4.394,17.998-10.257,38.082-15.704,54.617l-17.147,55.029h-24.903
		l-15.074-54.608c-4.602-16.526-9.413-36.632-12.756-55.038H132.5c-0.829,19.037-1.456,40.812-2.506,58.386l-2.509,53.566H97.978
		l9-141.042h42.481l13.798,47.087c4.391,16.314,8.795,33.9,11.934,50.425h0.628c3.979-16.314,8.795-34.939,13.391-50.636
		l15.066-46.876h41.643L253.667,378.652z M451.534,520.962H96.757v-103.57h354.776V520.962z M439.041,361.894
		c-14.873,12.363-37.461,18.222-65.082,18.222c-16.531,0-28.254-1.046-36.206-2.095V239.484c11.733-1.879,26.998-2.919,43.114-2.919
		c26.776,0,44.152,4.811,57.753,15.069c14.657,10.874,23.858,28.245,23.858,53.148C462.467,331.78,452.63,350.398,439.041,361.894z"
		/>
	<path d="M384.214,261.051c-7.118,0-11.732,0.627-14.446,1.247v92.286c2.714,0.629,7.112,0.629,11.088,0.629
		c28.87,0.199,47.706-15.696,47.706-49.392C428.783,276.528,411.623,261.051,384.214,261.051z"/>
</g>
<g>
</g>
<g>
</g>
<g>
</g>
<g>
</g>
<g>
</g>
<g>
</g>
<g>
</g>
<g>
</g>
<g>
</g>
<g>
</g>
<g>
</g>
<g>
</g>
<g>
</g>
<g>
</g>
<g>
</g>
</svg>
