<?xml version="1.0" encoding="iso-8859-1"?>
<!-- Generator: Adobe Illustrator 16.0.0, SVG Export Plug-In . SVG Version: 6.00 Build 0)  -->
<!DOCTYPE svg PUBLIC "-//W3C//DTD SVG 1.1//EN" "http://www.w3.org/Graphics/SVG/1.1/DTD/svg11.dtd">
<svg version="1.1" id="Capa_1" xmlns="http://www.w3.org/2000/svg" xmlns:xlink="http://www.w3.org/1999/xlink" x="0px" y="0px"
	 width="550.801px" height="550.801px" viewBox="0 0 550.801 550.801" style="enable-background:new 0 0 550.801 550.801;"
	 xml:space="preserve">
<g>
	<path d="M488.426,197.021H475.2v-63.825c0-0.398-0.063-0.799-0.116-1.203c-0.021-2.533-0.827-5.022-2.562-6.995L366.325,3.694
		c-0.032-0.031-0.063-0.042-0.085-0.074c-0.633-0.709-1.371-1.297-2.151-1.803c-0.231-0.158-0.464-0.288-0.706-0.422
		c-0.676-0.369-1.393-0.675-2.131-0.896c-0.2-0.056-0.38-0.138-0.58-0.19C359.87,0.119,359.037,0,358.193,0H97.2
		c-11.918,0-21.6,9.695-21.6,21.601v175.413H62.377c-17.049,0-30.873,13.818-30.873,30.873v160.545
		c0,17.043,13.824,30.87,30.873,30.87h13.224V529.2c0,11.907,9.682,21.601,21.6,21.601h356.4c11.907,0,21.6-9.693,21.6-21.601
		V419.302h13.226c17.044,0,30.871-13.827,30.871-30.87v-160.54C519.297,210.832,505.47,197.021,488.426,197.021z M97.2,21.601
		h250.193v110.513c0,5.967,4.841,10.8,10.8,10.8h95.407v54.108H97.2V21.601z M277.652,315.489
		c-22.513-7.847-37.188-20.319-37.188-40.005c0-23.121,19.298-40.811,51.263-40.811c15.272,0,26.525,3.219,34.562,6.837
		l-6.834,24.722c-5.427-2.615-15.072-6.431-28.34-6.431s-19.699,6.03-19.699,13.067c0,8.648,7.642,12.456,25.126,19.101
		c23.925,8.849,35.179,21.305,35.179,40.405c0,22.707-17.486,42.003-54.678,42.003c-15.472,0-30.749-4.029-38.388-8.243
		l6.225-25.322c8.245,4.219,20.909,8.438,33.977,8.438c14.066,0,21.502-5.822,21.502-14.671
		C300.365,326.142,293.932,321.306,277.652,315.489z M70.778,372.363l8.646-135.475h40.809l13.268,45.225
		c4.216,15.668,8.44,32.553,11.459,48.447h0.599c3.823-15.684,8.44-33.576,12.862-48.647l14.478-45.024h39.999l7.436,135.475
		h-29.956l-2.007-51.864c-0.596-16.284-1.205-35.986-1.205-55.677h-0.599c-4.224,17.287-9.851,36.577-15.084,52.46l-16.474,52.86
		h-23.923l-14.471-52.46c-4.424-15.884-9.046-35.185-12.263-52.861h-0.406c-0.805,18.289-1.408,39.192-2.413,56.078l-2.41,51.464
		H70.778z M453.601,523.347H97.2V419.302h356.4V523.347z M465.613,366.135c-9.45,3.217-27.338,7.646-45.225,7.646
		c-24.723,0-42.615-6.232-55.076-18.304c-12.456-11.649-19.296-29.347-19.09-49.254c0.2-45.024,32.959-70.751,77.388-70.751
		c17.481,0,30.95,3.42,37.584,6.637l-6.434,24.521c-7.431-3.217-16.68-5.819-31.551-5.819c-25.529,0-44.83,14.47-44.83,43.809
		c0,27.938,17.487,44.429,42.615,44.429c7.04,0,12.672-0.801,15.076-2.004v-28.35h-20.903v-23.92h50.456v71.359H465.613z"/>
</g>
<g>
</g>
<g>
</g>
<g>
</g>
<g>
</g>
<g>
</g>
<g>
</g>
<g>
</g>
<g>
</g>
<g>
</g>
<g>
</g>
<g>
</g>
<g>
</g>
<g>
</g>
<g>
</g>
<g>
</g>
</svg>
