<?xml version="1.0" encoding="iso-8859-1"?>
<!-- Generator: Adobe Illustrator 16.0.0, SVG Export Plug-In . SVG Version: 6.00 Build 0)  -->
<!DOCTYPE svg PUBLIC "-//W3C//DTD SVG 1.1//EN" "http://www.w3.org/Graphics/SVG/1.1/DTD/svg11.dtd">
<svg version="1.1" id="Capa_1" xmlns="http://www.w3.org/2000/svg" xmlns:xlink="http://www.w3.org/1999/xlink" x="0px" y="0px"
	 width="548.291px" height="548.291px" viewBox="0 0 548.291 548.291" style="enable-background:new 0 0 548.291 548.291;"
	 xml:space="preserve">
<g>
	<path d="M170.647,303.827c0-27.429-13.131-50.983-36.929-50.983c-23.329,0-36.922,22.205-36.922,51.874
		c0,29.906,14.045,50.993,37.158,50.993C157.296,355.71,170.647,333.501,170.647,303.827z"/>
	<path d="M486.201,196.124h-13.166V132.59c0-0.396-0.062-0.795-0.115-1.196c-0.021-2.523-0.825-5-2.552-6.963L364.657,3.677
		c-0.033-0.031-0.064-0.042-0.085-0.073c-0.63-0.707-1.364-1.292-2.143-1.795c-0.229-0.157-0.461-0.286-0.702-0.421
		c-0.672-0.366-1.387-0.671-2.121-0.892c-0.2-0.055-0.379-0.136-0.577-0.188C358.23,0.118,357.401,0,356.562,0H96.757
		C84.894,0,75.256,9.651,75.256,21.502v174.613H62.092c-16.971,0-30.732,13.756-30.732,30.733v159.812
		c0,16.968,13.761,30.731,30.732,30.731h13.164V526.79c0,11.854,9.638,21.501,21.501,21.501h354.776
		c11.853,0,21.501-9.647,21.501-21.501V417.392h13.166c16.966,0,30.729-13.764,30.729-30.731V226.854
		C516.93,209.872,503.167,196.124,486.201,196.124z M96.757,21.502h249.054v110.009c0,5.939,4.817,10.75,10.751,10.75h94.972v53.861
		H96.757V21.502z M364.854,300.656c0,29.218-10.645,49.386-25.385,61.849c-16.08,13.363-40.557,19.705-70.453,19.705
		c-17.898,0-30.59-1.122-39.202-2.268V229.966c12.683-2.049,29.226-3.194,46.676-3.194c29.004,0,47.813,5.221,62.533,16.326
		C354.872,254.875,364.854,273.668,364.854,300.656z M60.313,305.411c0-45.777,29.231-79.982,74.313-79.982
		c46.906,0,72.505,35.119,72.505,77.253c0,50.063-30.355,80.442-74.999,80.442C86.812,383.124,60.313,348.907,60.313,305.411z
		 M451.534,520.962H96.757v-103.57h354.776V520.962z M480.882,256.219h-58.693v34.919h54.826v28.09h-54.826v61.397h-34.656V227.917
		h93.35V256.219z"/>
	<path d="M280.109,253.29c-7.693,0-12.683,0.672-15.628,1.354v99.934c2.945,0.671,7.704,0.671,12.004,0.671
		c31.263,0.231,51.656-16.986,51.656-53.46C328.367,270.072,309.799,253.29,280.109,253.29z"/>
</g>
<g>
</g>
<g>
</g>
<g>
</g>
<g>
</g>
<g>
</g>
<g>
</g>
<g>
</g>
<g>
</g>
<g>
</g>
<g>
</g>
<g>
</g>
<g>
</g>
<g>
</g>
<g>
</g>
<g>
</g>
</svg>
