<?xml version="1.0" encoding="iso-8859-1"?>
<!-- Generator: Adobe Illustrator 16.0.0, SVG Export Plug-In . SVG Version: 6.00 Build 0)  -->
<!DOCTYPE svg PUBLIC "-//W3C//DTD SVG 1.1//EN" "http://www.w3.org/Graphics/SVG/1.1/DTD/svg11.dtd">
<svg version="1.1" id="Capa_1" xmlns="http://www.w3.org/2000/svg" xmlns:xlink="http://www.w3.org/1999/xlink" x="0px" y="0px"
	 width="550.801px" height="550.801px" viewBox="0 0 550.801 550.801" style="enable-background:new 0 0 550.801 550.801;"
	 xml:space="preserve">
<g>
	<path d="M488.426,197.014H475.2v-63.817c0-0.401-0.063-0.799-0.116-1.205c-0.021-2.534-0.827-5.023-2.562-6.993L366.325,3.694
		c-0.032-0.034-0.063-0.045-0.085-0.076c-0.633-0.707-1.371-1.298-2.151-1.804c-0.231-0.158-0.464-0.287-0.706-0.422
		c-0.676-0.366-1.393-0.675-2.131-0.896c-0.2-0.053-0.38-0.135-0.58-0.19C359.87,0.119,359.037,0,358.193,0H97.2
		c-11.918,0-21.6,9.693-21.6,21.601v175.413H62.377c-17.049,0-30.873,13.818-30.873,30.87v160.542
		c0,17.044,13.824,30.876,30.873,30.876h13.224V529.2c0,11.907,9.682,21.601,21.6,21.601h356.4c11.907,0,21.6-9.693,21.6-21.601
		V419.302h13.226c17.044,0,30.871-13.827,30.871-30.87v-160.54C519.297,210.832,505.47,197.014,488.426,197.014z M97.2,21.601
		h250.193v110.51c0,5.967,4.841,10.8,10.8,10.8h95.407v54.108H97.2V21.601z M324.105,341.762
		c4.968,17.982,9.94,38.791,13.016,44.939h-36.904c-2.6-4.492-6.386-17.497-11.121-37.125
		c-4.256-19.886-11.114-25.317-25.774-25.555h-10.887v62.68H216.72V229.413c11.588-1.901,28.862-3.309,48.022-3.309
		c23.652,0,40.21,3.541,51.564,12.527c9.46,7.559,14.66,18.689,14.66,33.349c0,20.348-14.423,34.301-28.145,39.264v0.712
		C313.938,316.459,320.093,327.102,324.105,341.762z M82.864,379.371l7.333-29.795c9.698,4.957,24.598,9.925,39.97,9.925
		c16.559,0,25.31-6.86,25.31-17.265c0-9.936-7.565-15.609-26.723-22.465c-26.494-9.229-43.756-23.899-43.756-47.082
		c0-27.189,22.708-48.012,60.312-48.012c17.977,0,31.224,3.784,40.685,8.045l-8.042,29.091c-6.383-3.066-17.745-7.56-33.349-7.56
		c-15.612,0-23.182,7.09-23.182,15.367c0,10.178,8.991,14.67,29.563,22.475c28.146,10.399,41.396,25.07,41.396,47.535
		c0,26.736-20.577,49.434-64.333,49.434C109.833,389.064,91.855,384.339,82.864,379.371z M453.601,523.347H97.2V419.302h356.4
		V523.347z M467.428,257.553H423.9v129.148h-36.187V257.553h-42.814v-30.268h122.518v30.268H467.428z"/>
	<path d="M268.759,252.827c-8.751,0-13.717,0.707-16.319,1.184v43.991h14.196c17.972,0,28.624-8.985,28.624-22.952
		C295.26,260.402,285.325,253.06,268.759,252.827z"/>
</g>
<g>
</g>
<g>
</g>
<g>
</g>
<g>
</g>
<g>
</g>
<g>
</g>
<g>
</g>
<g>
</g>
<g>
</g>
<g>
</g>
<g>
</g>
<g>
</g>
<g>
</g>
<g>
</g>
<g>
</g>
</svg>
