<?xml version="1.0" encoding="iso-8859-1"?>
<!-- Generator: Adobe Illustrator 16.0.0, SVG Export Plug-In . SVG Version: 6.00 Build 0)  -->
<!DOCTYPE svg PUBLIC "-//W3C//DTD SVG 1.1//EN" "http://www.w3.org/Graphics/SVG/1.1/DTD/svg11.dtd">
<svg version="1.1" id="Capa_1" xmlns="http://www.w3.org/2000/svg" xmlns:xlink="http://www.w3.org/1999/xlink" x="0px" y="0px"
	 width="550.801px" height="550.801px" viewBox="0 0 550.801 550.801" style="enable-background:new 0 0 550.801 550.801;"
	 xml:space="preserve">
<g>
	<path d="M488.432,197.014h-13.226v-63.817c0-0.401-0.063-0.799-0.11-1.205c-0.021-2.531-0.834-5.021-2.568-6.993L366.325,3.694
		c-0.031-0.031-0.063-0.045-0.084-0.076c-0.633-0.707-1.371-1.295-2.151-1.804c-0.232-0.155-0.465-0.285-0.707-0.422
		c-0.675-0.366-1.393-0.675-2.131-0.896c-0.2-0.053-0.379-0.135-0.58-0.188C359.871,0.119,359.037,0,358.193,0H97.201
		c-11.918,0-21.6,9.693-21.6,21.601v175.413H62.378c-17.049,0-30.874,13.818-30.874,30.873v160.545
		c0,17.038,13.824,30.87,30.874,30.87h13.223V529.2c0,11.907,9.682,21.601,21.6,21.601h356.4c11.907,0,21.601-9.693,21.601-21.601
		V419.302h13.226c17.044,0,30.87-13.832,30.87-30.87V227.887C519.297,210.832,505.48,197.014,488.432,197.014z M453.601,523.347
		h-356.4V419.302h356.4V523.347z M133.97,223.009h40.872l20.073,69.757c5.632,19.586,10.76,38.433,14.681,59.005h0.741
		c4.153-19.828,9.292-39.419,14.932-58.261l21.044-70.501h39.651l-55.562,164.979h-43.561L133.97,223.009z M425.963,339.763
		c0,14.939-6.855,26.679-17.139,35c-11.997,9.55-32.058,14.939-64.869,14.939c-18.346,0-32.062-1.239-40.384-2.447V225.213
		c9.793-1.948,29.616-3.417,48.221-3.417c22.766,0,36.703,2.191,48.705,9.292c11.502,6.12,19.823,17.384,19.823,32.312
		c0,14.684-8.569,28.395-27.164,35.234v0.496C412.004,304.288,425.963,318.474,425.963,339.763z M453.601,197.014h-356.4V21.601
		h250.193v110.51c0,5.97,4.841,10.8,10.8,10.8h95.407V197.014z"/>
	<path d="M353.269,315.041h-12.72v46.512c3.66,0.485,8.079,0.485,14.438,0.485c16.891,0,31.81-6.36,31.81-23.736
		C386.792,321.648,371.878,315.041,353.269,315.041z"/>
	<path d="M382.884,268.047c0-12.48-9.545-19.08-26.431-19.08c-8.078,0-12.725,0.488-15.915,0.973v38.433h12.234
		C372.358,288.362,382.884,280.289,382.884,268.047z"/>
</g>
<g>
</g>
<g>
</g>
<g>
</g>
<g>
</g>
<g>
</g>
<g>
</g>
<g>
</g>
<g>
</g>
<g>
</g>
<g>
</g>
<g>
</g>
<g>
</g>
<g>
</g>
<g>
</g>
<g>
</g>
</svg>
