<?xml version="1.0" encoding="iso-8859-1"?>
<!-- Generator: Adobe Illustrator 16.0.0, SVG Export Plug-In . SVG Version: 6.00 Build 0)  -->
<!DOCTYPE svg PUBLIC "-//W3C//DTD SVG 1.1//EN" "http://www.w3.org/Graphics/SVG/1.1/DTD/svg11.dtd">
<svg version="1.1" id="Capa_1" xmlns="http://www.w3.org/2000/svg" xmlns:xlink="http://www.w3.org/1999/xlink" x="0px" y="0px"
	 width="550.801px" height="550.801px" viewBox="0 0 550.801 550.801" style="enable-background:new 0 0 550.801 550.801;"
	 xml:space="preserve">
<g>
	<path d="M488.427,197.021h-13.226v-63.819c0-0.398-0.063-0.799-0.116-1.202c-0.021-2.534-0.828-5.023-2.563-6.995L366.325,3.694
		c-0.031-0.031-0.063-0.042-0.084-0.076c-0.633-0.707-1.371-1.295-2.151-1.804c-0.232-0.155-0.465-0.285-0.707-0.419
		c-0.675-0.369-1.393-0.675-2.131-0.896c-0.2-0.056-0.379-0.135-0.58-0.19C359.871,0.119,359.037,0,358.193,0H97.201
		c-11.918,0-21.6,9.693-21.6,21.601v175.415H62.378c-17.049,0-30.874,13.816-30.874,30.871v160.545
		c0,17.038,13.824,30.87,30.874,30.87h13.223V529.2c0,11.907,9.682,21.601,21.6,21.601h356.4c11.907,0,21.601-9.693,21.601-21.601
		V419.302h13.226c17.044,0,30.87-13.827,30.87-30.87v-160.54C519.297,210.838,505.471,197.021,488.427,197.021z M97.201,21.605
		h250.193v110.513c0,5.967,4.841,10.8,10.8,10.8h95.407v54.108h-356.4V21.605z M322.641,351.839v30.628H221.899V221.184h36.616
		v130.655H322.641z M95.788,382.467V221.184h98.587v29.911h-61.981v36.851h57.91v29.669h-57.91v64.853H95.788L95.788,382.467z
		 M453.601,523.353h-356.4V419.302h356.4V523.353z M409.283,382.467h-42.594l-51.69-161.283h39.968l19.617,68.196
		c5.505,19.148,10.525,37.568,14.354,57.676h0.729c4.061-19.385,9.091-38.527,14.591-56.953l20.583-68.918h38.76L409.283,382.467z"
		/>
</g>
<g>
</g>
<g>
</g>
<g>
</g>
<g>
</g>
<g>
</g>
<g>
</g>
<g>
</g>
<g>
</g>
<g>
</g>
<g>
</g>
<g>
</g>
<g>
</g>
<g>
</g>
<g>
</g>
<g>
</g>
</svg>
