<?xml version="1.0" encoding="iso-8859-1"?>
<!-- Generator: Adobe Illustrator 16.0.0, SVG Export Plug-In . SVG Version: 6.00 Build 0)  -->
<!DOCTYPE svg PUBLIC "-//W3C//DTD SVG 1.1//EN" "http://www.w3.org/Graphics/SVG/1.1/DTD/svg11.dtd">
<svg version="1.1" id="Capa_1" xmlns="http://www.w3.org/2000/svg" xmlns:xlink="http://www.w3.org/1999/xlink" x="0px" y="0px"
	 width="550.801px" height="550.801px" viewBox="0 0 550.801 550.801" style="enable-background:new 0 0 550.801 550.801;"
	 xml:space="preserve">
<g>
	<path d="M488.427,197.014h-13.226v-63.817c0-0.401-0.063-0.799-0.116-1.205c-0.021-2.531-0.828-5.021-2.563-6.993L366.325,3.694
		c-0.031-0.031-0.063-0.045-0.084-0.076c-0.633-0.707-1.371-1.295-2.151-1.804c-0.232-0.155-0.465-0.285-0.707-0.422
		c-0.675-0.366-1.393-0.675-2.131-0.896c-0.2-0.053-0.379-0.135-0.58-0.188C359.871,0.119,359.037,0,358.193,0H97.201
		c-11.918,0-21.6,9.693-21.6,21.601v175.413H62.378c-17.044,0-30.874,13.818-30.874,30.873v160.545
		c0,17.038,13.83,30.87,30.874,30.87h13.223V529.2c0,11.907,9.682,21.601,21.6,21.601h356.4c11.907,0,21.601-9.693,21.601-21.601
		V419.302h13.226c17.054,0,30.87-13.832,30.87-30.87V227.887C519.297,210.832,505.48,197.014,488.427,197.014z M97.201,21.601
		h250.193v110.51c0,5.97,4.841,10.8,10.8,10.8h95.407v54.108h-356.4V21.601z M368.14,301.578c0,23.098-8.406,39.039-20.039,48.874
		c-12.73,10.567-32.062,15.583-55.688,15.583c-14.144,0-24.166-0.896-30.987-1.793V245.722c10.038-1.614,23.095-2.511,36.893-2.511
		c22.918,0,37.778,4.127,49.412,12.889C360.271,265.42,368.14,280.273,368.14,301.578z M162.984,328.43v36.34h-25.073V244.107h31.86
		l25.072,44.224c7.161,12.714,14.32,27.749,19.699,41.354h0.53c-1.793-15.926-2.333-32.227-2.333-50.299v-35.279h25.072v120.667
		h-28.647l-25.785-46.543c-7.148-12.889-15.027-28.461-20.936-42.609l-0.541,0.179C162.623,291.727,162.984,308.739,162.984,328.43z
		 M86.886,364.774V244.107h27.412v120.667H86.886z M453.601,523.347h-356.4V419.302h356.4V523.347z M472.69,350.452
		c-12.709,10.567-32.041,15.577-55.677,15.577c-14.154,0-24.179-0.896-30.977-1.793V245.722c10.02-1.614,23.098-2.511,36.883-2.511
		c22.918,0,37.789,4.127,49.423,12.889c12.524,9.326,20.393,24.174,20.393,45.479C492.74,324.676,484.324,340.611,472.69,350.452z"
		/>
	<path d="M301.188,264.157c-6.096,0-10.029,0.541-12.35,1.076v78.954c2.32,0.537,6.085,0.537,9.481,0.537
		c24.7,0.18,40.816-13.426,40.816-42.25C339.314,277.404,324.634,264.157,301.188,264.157z"/>
	<path d="M425.778,264.157c-6.075,0-10.015,0.541-12.351,1.076v78.954c2.336,0.537,6.096,0.537,9.492,0.537
		c24.701,0.18,40.832-13.426,40.832-42.25C463.926,277.404,449.245,264.157,425.778,264.157z"/>
</g>
<g>
</g>
<g>
</g>
<g>
</g>
<g>
</g>
<g>
</g>
<g>
</g>
<g>
</g>
<g>
</g>
<g>
</g>
<g>
</g>
<g>
</g>
<g>
</g>
<g>
</g>
<g>
</g>
<g>
</g>
</svg>
