<?xml version="1.0" encoding="iso-8859-1"?>
<!-- Generator: Adobe Illustrator 16.0.0, SVG Export Plug-In . SVG Version: 6.00 Build 0)  -->
<!DOCTYPE svg PUBLIC "-//W3C//DTD SVG 1.1//EN" "http://www.w3.org/Graphics/SVG/1.1/DTD/svg11.dtd">
<svg version="1.1" id="Capa_1" xmlns="http://www.w3.org/2000/svg" xmlns:xlink="http://www.w3.org/1999/xlink" x="0px" y="0px"
	 width="548.291px" height="548.291px" viewBox="0 0 548.291 548.291" style="enable-background:new 0 0 548.291 548.291;"
	 xml:space="preserve">
<g>
	<path d="M304.035,262.261c-7.16,0-11.785,0.63-14.53,1.271v92.861c2.745,0.631,7.16,0.631,11.172,0.631
		c29.05,0.214,48.017-15.802,48.017-49.691C348.886,277.852,331.626,262.261,304.035,262.261z"/>
	<path d="M486.201,196.124h-13.166V132.59c0-0.396-0.062-0.795-0.115-1.196c-0.021-2.523-0.825-5-2.552-6.963L364.657,3.677
		c-0.033-0.031-0.064-0.042-0.085-0.073c-0.63-0.707-1.364-1.292-2.143-1.795c-0.229-0.157-0.461-0.286-0.702-0.421
		c-0.672-0.366-1.387-0.671-2.121-0.892c-0.2-0.055-0.379-0.134-0.577-0.188C358.23,0.118,357.401,0,356.562,0H96.757
		C84.894,0,75.256,9.651,75.256,21.502v174.616H62.09c-16.963,0-30.729,13.756-30.729,30.73v159.812
		c0,16.968,13.766,30.731,30.729,30.731h13.166V526.79c0,11.854,9.638,21.501,21.501,21.501h354.776
		c11.853,0,21.501-9.647,21.501-21.501V417.397h13.166c16.976,0,30.729-13.769,30.729-30.736V226.854
		C516.93,209.874,503.176,196.124,486.201,196.124z M96.757,21.502h249.054v110.009c0,5.939,4.817,10.75,10.751,10.75h94.972v53.861
		H96.757V21.502z M382.798,306.273c0,27.175-9.901,45.911-23.592,57.501c-14.94,12.426-37.7,18.311-65.481,18.311
		c-16.645,0-28.443-1.062-36.443-2.101V240.573c11.79-1.903,27.174-2.963,43.395-2.963c26.95,0,44.42,4.857,58.122,15.181
		C373.528,263.734,382.798,281.21,382.798,306.273z M75.938,380.615l9.053-141.939h42.75l13.912,47.376
		c4.417,16.431,8.843,34.121,12.008,50.762h0.619c3.998-16.431,8.848-35.171,13.48-50.962l15.157-47.176h41.904l7.798,141.939
		h-31.381l-2.103-54.327c-0.641-17.06-1.268-37.694-1.268-58.333h-0.63c-4.417,18.097-10.32,38.319-15.782,54.964l-17.276,55.386
		H139.12l-15.157-54.972c-4.641-16.642-9.483-36.851-12.854-55.384h-0.431c-0.836,19.151-1.466,41.063-2.519,58.754l-2.533,53.912
		H75.938z M451.534,520.962H96.757V417.397h354.776V520.962z M490.641,265.004H436.1v32.429h50.96v26.12H436.1v57.062h-32.21
		V238.675h86.751V265.004L490.641,265.004z"/>
</g>
<g>
</g>
<g>
</g>
<g>
</g>
<g>
</g>
<g>
</g>
<g>
</g>
<g>
</g>
<g>
</g>
<g>
</g>
<g>
</g>
<g>
</g>
<g>
</g>
<g>
</g>
<g>
</g>
<g>
</g>
</svg>
