<?xml version="1.0" encoding="iso-8859-1"?>
<!-- Generator: Adobe Illustrator 16.0.0, SVG Export Plug-In . SVG Version: 6.00 Build 0)  -->
<!DOCTYPE svg PUBLIC "-//W3C//DTD SVG 1.1//EN" "http://www.w3.org/Graphics/SVG/1.1/DTD/svg11.dtd">
<svg version="1.1" id="Capa_1" xmlns="http://www.w3.org/2000/svg" xmlns:xlink="http://www.w3.org/1999/xlink" x="0px" y="0px"
	 width="550.801px" height="550.801px" viewBox="0 0 550.801 550.801" style="enable-background:new 0 0 550.801 550.801;"
	 xml:space="preserve">
<g>
	<path d="M488.427,197.021h-13.226v-63.819c0-0.398-0.063-0.799-0.116-1.202c-0.021-2.534-0.828-5.023-2.563-6.995L366.325,3.694
		c-0.031-0.031-0.063-0.042-0.084-0.076c-0.633-0.707-1.371-1.295-2.151-1.804c-0.232-0.155-0.465-0.285-0.707-0.419
		c-0.675-0.369-1.393-0.675-2.131-0.896c-0.2-0.056-0.379-0.135-0.58-0.19C359.871,0.119,359.037,0,358.193,0H97.201
		c-11.918,0-21.6,9.693-21.6,21.601v175.415H62.378c-17.049,0-30.874,13.816-30.874,30.871v160.545
		c0,17.038,13.824,30.87,30.874,30.87h13.223V529.2c0,11.907,9.682,21.601,21.6,21.601h356.4c11.907,0,21.601-9.693,21.601-21.601
		V419.302h13.226c17.044,0,30.87-13.827,30.87-30.87v-160.54C519.297,210.838,505.471,197.021,488.427,197.021z M97.201,21.605
		h250.193v110.513c0,5.967,4.841,10.8,10.8,10.8h95.407v54.108h-356.4V21.605z M381.561,228.016l-38.85,150.48h-36.84
		l-12.726-64.747c-2.9-15.177-5.357-29.257-7.146-46.449h-0.442c-2.682,16.981-5.139,31.272-8.709,46.449l-14.283,64.747h-37.286
		l-35.722-150.48h36.397l11.388,62.056c3.343,17.871,6.462,37.294,8.925,52.471h0.448c2.458-16.295,6.027-34.378,9.824-52.903
		l12.723-61.623h36.165l12.061,63.416c3.354,17.624,5.806,33.697,8.036,50.445h0.443c2.236-16.748,5.585-34.388,8.706-52.238
		l12.282-61.623H381.561z M74.564,371.577l6.924-28.139c9.152,4.693,23.219,9.376,37.729,9.376c15.628,0,23.883-6.476,23.883-16.295
		c0-9.376-7.138-14.739-25.228-21.221c-24.996-8.69-41.299-22.544-41.299-44.418c0-25.682,21.437-45.333,56.932-45.333
		c16.973,0,29.468,3.575,38.398,7.581l-7.591,27.467c-6.033-2.9-16.751-7.14-31.488-7.14c-14.731,0-21.876,6.697-21.876,14.515
		c0,9.608,8.485,13.843,27.915,21.216c26.562,9.813,39.068,23.678,39.068,44.877c0,25.228-19.425,46.659-60.729,46.659
		C100.014,380.727,83.047,376.271,74.564,371.577z M453.601,523.353h-356.4V419.302h356.4V523.353z M491.195,255.923h-57.823v34.37
		h54.031v27.695h-54.031v60.508h-34.151v-150.48h91.975V255.923z"/>
</g>
<g>
</g>
<g>
</g>
<g>
</g>
<g>
</g>
<g>
</g>
<g>
</g>
<g>
</g>
<g>
</g>
<g>
</g>
<g>
</g>
<g>
</g>
<g>
</g>
<g>
</g>
<g>
</g>
<g>
</g>
</svg>
