<?xml version="1.0" encoding="iso-8859-1"?>
<!-- Generator: Adobe Illustrator 16.0.0, SVG Export Plug-In . SVG Version: 6.00 Build 0)  -->
<!DOCTYPE svg PUBLIC "-//W3C//DTD SVG 1.1//EN" "http://www.w3.org/Graphics/SVG/1.1/DTD/svg11.dtd">
<svg version="1.1" id="Capa_1" xmlns="http://www.w3.org/2000/svg" xmlns:xlink="http://www.w3.org/1999/xlink" x="0px" y="0px"
	 width="550.801px" height="550.801px" viewBox="0 0 550.801 550.801" style="enable-background:new 0 0 550.801 550.801;"
	 xml:space="preserve">
<g>
	<path d="M488.427,197.019h-13.226v-63.816c0-0.401-0.063-0.799-0.116-1.205c-0.021-2.531-0.833-5.021-2.563-6.992L366.32,3.694
		c-0.026-0.031-0.059-0.045-0.079-0.076c-0.633-0.707-1.371-1.295-2.151-1.804c-0.232-0.155-0.465-0.287-0.707-0.422
		c-0.675-0.366-1.393-0.675-2.131-0.896c-0.2-0.053-0.379-0.135-0.58-0.188C359.871,0.119,359.037,0,358.193,0H97.201
		c-11.918,0-21.6,9.693-21.6,21.601v175.413H62.375c-17.046,0-30.871,13.818-30.871,30.873v160.545
		c0,17.038,13.824,30.87,30.871,30.87h13.226V529.2c0,11.907,9.682,21.601,21.6,21.601h356.4c11.907,0,21.601-9.693,21.601-21.601
		V419.302h13.226c17.044,0,30.87-13.827,30.87-30.87v-160.54C519.297,210.832,505.471,197.019,488.427,197.019z M97.201,21.605
		h250.193v110.51c0,5.967,4.841,10.8,10.8,10.8h95.407v54.108h-356.4V21.605z M213.517,229.598h39.187l15.535,36.472
		c4.725,11.029,7.879,19.129,11.707,29.054h0.459c3.375-9.461,6.972-18.246,11.475-29.054l15.314-36.472h38.512l-49.992,88.496
		v63.276h-34.235v-62.158L213.517,229.598z M142.565,317.641c-25.223-8.785-41.665-22.75-41.665-44.811
		c0-25.903,21.615-45.71,57.428-45.71c17.112,0,29.726,3.597,38.728,7.646l-7.651,27.707c-6.086-2.932-16.886-7.204-31.751-7.204
		c-14.871,0-22.075,6.75-22.075,14.628c0,9.68,8.559,13.951,28.149,21.397c26.8,9.903,39.417,23.867,39.417,45.256
		c0,25.455-19.599,47.076-61.253,47.076c-17.345,0-34.462-4.503-43.016-9.229l6.982-28.382c9.233,4.726,23.424,9.461,38.058,9.461
		c15.762,0,24.094-6.528,24.094-16.442C168.01,329.569,160.807,324.169,142.565,317.641z M453.601,523.353h-356.4V419.302h356.4
		V523.353z M392.787,383.627c-17.339,0-34.456-4.503-43.01-9.229l6.982-28.382c9.229,4.726,23.414,9.461,38.053,9.461
		c15.768,0,24.1-6.528,24.1-16.442c0-9.466-7.214-14.866-25.449-21.395c-25.229-8.785-41.66-22.75-41.66-44.811
		c0-25.903,21.61-45.71,57.428-45.71c17.112,0,29.721,3.597,38.733,7.646l-7.663,27.707c-6.074-2.932-16.885-7.204-31.746-7.204
		c-14.871,0-22.074,6.75-22.074,14.628c0,9.68,8.554,13.951,28.149,21.397c26.8,9.903,39.408,23.867,39.408,45.256
		C454.038,362.006,434.447,383.627,392.787,383.627z"/>
</g>
<g>
</g>
<g>
</g>
<g>
</g>
<g>
</g>
<g>
</g>
<g>
</g>
<g>
</g>
<g>
</g>
<g>
</g>
<g>
</g>
<g>
</g>
<g>
</g>
<g>
</g>
<g>
</g>
<g>
</g>
</svg>
