<?xml version="1.0" encoding="utf-8"?>
<!-- Generator: Adobe Illustrator 21.0.2, SVG Export Plug-In . SVG Version: 6.00 Build 0)  -->
<svg version="1.1" id="Layer_1" xmlns="http://www.w3.org/2000/svg" xmlns:xlink="http://www.w3.org/1999/xlink" x="0px" y="0px"
	 viewBox="0 0 16 16" style="enable-background:new 0 0 16 16;" xml:space="preserve">
<style type="text/css">
	.st0{fill:#FFC838;}
	.st1{fill:#333333;}
	.st2{fill:#FFFFFF;}
</style>
<title>Compent-Uintra_icons_laughing</title>
<g id="Layer_2">
	<g id="laughing">
		<circle class="st0" cx="8" cy="8" r="8"/>
		<path class="st1" d="M8.7,6.3c0.1-0.2,0.2-0.4,0.3-0.6c0.2-0.2,0.3-0.4,0.6-0.5C9.7,5.2,9.9,5.1,10,5.1C10.2,5,10.3,5,10.5,5
			c0.2,0,0.3,0,0.4,0.1c0.1,0,0.3,0.1,0.4,0.2c0.2,0.1,0.4,0.3,0.6,0.5c0.1,0.2,0.2,0.4,0.3,0.6l0,0c0,0.1,0,0.3-0.2,0.3
			c-0.1,0-0.1,0-0.2,0c0,0-0.2-0.1-0.5-0.3c-0.1-0.1-0.3-0.2-0.4-0.2c-0.1,0-0.2,0-0.2-0.1c-0.2,0-0.3,0-0.5,0c-0.1,0-0.2,0-0.2,0.1
			C9.9,6.1,9.7,6.2,9.6,6.3C9.5,6.4,9.3,6.4,9.3,6.5L9.1,6.6C9,6.7,8.8,6.7,8.8,6.5C8.7,6.5,8.7,6.4,8.7,6.3L8.7,6.3z"/>
		<path class="st1" d="M3.8,6.3c0.1-0.2,0.2-0.4,0.3-0.6c0.2-0.2,0.3-0.4,0.6-0.5C4.7,5.2,4.9,5.1,5,5.1C5.2,5,5.4,5,5.5,5
			C5.7,5,5.8,5,6,5.1c0.1,0,0.3,0.1,0.4,0.2c0.2,0.1,0.4,0.3,0.6,0.5c0.1,0.2,0.2,0.4,0.3,0.6l0,0c0,0.1,0,0.3-0.2,0.3
			c-0.1,0-0.1,0-0.2,0c0,0-0.2-0.1-0.5-0.3C6.3,6.2,6.1,6.1,6,6.1C5.9,6,5.8,6,5.7,6C5.6,6,5.4,6,5.3,6C5.2,6,5.1,6,5,6.1
			C4.9,6.1,4.7,6.2,4.6,6.3C4.5,6.4,4.3,6.4,4.3,6.5L4.1,6.6C4,6.7,3.9,6.7,3.8,6.5C3.7,6.5,3.7,6.4,3.8,6.3L3.8,6.3z"/>
		<path class="st1" d="M8,9.1C6.9,9,5.9,8.9,4.8,8.6C4.3,8.4,3.7,8.6,3.5,9c-0.2,0.6-0.1,1.2,0.3,1.8c0.8,1.5,2.5,2.4,4.2,2.4h0
			c1.7,0.1,3.4-0.8,4.2-2.4c0.3-0.5,0.5-1.2,0.3-1.8c-0.2-0.5-0.8-0.6-1.3-0.4C10.1,8.9,9.1,9,8,9.1"/>
		<path class="st2" d="M8,11.2c-2.7,0-3.4-1.3-3.5-1.7c0,0,0,0,0.1,0C5.7,9.8,6.8,10,8,10c1.2,0,2.3-0.2,3.4-0.5c0.1,0,0.1,0,0.1,0
			C11.4,9.9,10.7,11.2,8,11.2z"/>
	</g>
</g>
</svg>
