<?xml version="1.0" encoding="utf-8"?>
<!-- Generator: Adobe Illustrator 21.0.2, SVG Export Plug-In . SVG Version: 6.00 Build 0)  -->
<svg version="1.1" id="Layer_1" xmlns="http://www.w3.org/2000/svg" xmlns:xlink="http://www.w3.org/1999/xlink" x="0px" y="0px"
	 viewBox="0 0 16 16" style="enable-background:new 0 0 16 16;" xml:space="preserve">
<style type="text/css">
	.st0{fill:#FFC838;}
	.st1{fill:#333333;}
	.st2{fill:#E15263;}
</style>
<title>Compent-Uintra_icons_inlove</title>
<g id="Layer_2">
	<g id="Layer_21">
		<circle class="st0" cx="8" cy="8" r="8"/>
		<path class="st1" d="M11.7,10.1c-0.3-0.6-0.9-0.4-1.1-0.3c-1.7,0.5-3.5,0.4-5.2,0c-0.4-0.2-0.9,0-1.1,0.4
			c-0.3,0.6,0.3,1.5,0.3,1.5c0.7,1.2,2,1.9,3.4,1.8c1.4,0,2.7-0.6,3.4-1.8C11.4,11.5,12,10.7,11.7,10.1z"/>
		<path class="st2" d="M4,3c0.3-1,1.3-1.6,2.4-1.3c0.2,0.1,0.4,0.1,0.5,0.2c1,0.7,1.1,2.1,0.5,3.2C6.7,6.2,6,7.2,5,8
			C3.8,7.7,2.7,7,1.7,6.2c-1-0.8-1.4-2.1-0.8-3.1C1.5,2.2,2.7,2,3.6,2.6C3.7,2.7,3.9,2.9,4,3z"/>
		<path class="st2" d="M12,3c-0.3-1-1.3-1.6-2.4-1.3C9.5,1.7,9.3,1.8,9.1,1.9c-1,0.7-1.1,2.1-0.5,3.2C9.3,6.2,10,7.2,11,8
			c1.2-0.3,2.3-1,3.3-1.8c1-0.8,1.4-2.1,0.8-3.1c-0.5-0.9-1.8-1.1-2.7-0.5C12.3,2.7,12.1,2.9,12,3z"/>
	</g>
</g>
</svg>
