<svg xmlns="http://www.w3.org/2000/svg" viewBox="0 0 15.99219 15.99219"><defs><style>.cls-1{fill:#ffc838;}.cls-2{fill:#333;}</style></defs><title>Compent-Uintra_icons_happy</title><g id="Layer_2" data-name="Layer 2"><g id="happy"><circle class="cls-1" cx="7.99609" cy="7.99609" r="7.99609"/><ellipse class="cls-2" cx="5.99219" cy="6" rx="1" ry="1.16813"/><ellipse class="cls-2" cx="9.99219" cy="6" rx="1" ry="1.16813"/><path class="cls-2" d="M4.65478,9.97487a1.95356,1.95356,0,0,0,.22579.21865,4.18847,4.18847,0,0,0,.68863.472,4.90266,4.90266,0,0,0,1.09568.44936,4.4568,4.4568,0,0,0,1.33122.17926l.35942-.00815c.108-.01252.20829-.01106.3229-.03232a4.15657,4.15657,0,0,0,.6489-.1388,4.90265,4.90265,0,0,0,1.09568-.44936,4.18845,4.18845,0,0,0,.68863-.472c.14781-.13014.21814-.20732.21814-.20732l.00731-.008a.33263.33263,0,0,1,.54678.36579,3.22226,3.22226,0,0,1-.95649,1.08,4.68258,4.68258,0,0,1-1.28065.6883,5.21761,5.21761,0,0,1-.80022.20482c-.13451.02977-.29116.04036-.438.05931l-.41242.02464a5.53571,5.53571,0,0,1-1.65061-.28877,4.68258,4.68258,0,0,1-1.28065-.6883,3.70809,3.70809,0,0,1-.73766-.72955A1.57165,1.57165,0,0,1,4.116,10.3553l-.02027-.05663a.32841.32841,0,0,1,.55906-.3238Z"/></g></g></svg>