<svg xmlns="http://www.w3.org/2000/svg" viewBox="0 0 16 16"><defs><style>.cls-1{fill:#ffc838;}.cls-2{fill:#333;}</style></defs><title>Compent-Uintra_icons_relaxed-2</title><g id="Layer_2" data-name="Layer 2"><g id="relaxed-2"><circle class="cls-1" cx="8" cy="8" r="8"/><path class="cls-2" d="M5.58552,9.88251a1.41809,1.41809,0,0,0,.16808.16068,3.33724,3.33724,0,0,0,.50125.35109,3.59957,3.59957,0,0,0,.78932.341,2.91051,2.91051,0,0,0,.9519.13555l.26273-.00541c.07428-.00883.14175-.00738.225-.02361a2.74194,2.74194,0,0,0,.4642-.10654,3.59957,3.59957,0,0,0,.78932-.341,2.7562,2.7562,0,0,0,.66224-.50033.34051.34051,0,0,1,.48008-.03768.34619.34619,0,0,1,.09729.37928,2.48154,2.48154,0,0,1-.6905.90489,3.45944,3.45944,0,0,1-.98118.59839,3.82286,3.82286,0,0,1-.6317.1815c-.10574.0257-.23345.03782-.353.0538l-.32446.02259a4.00875,4.00875,0,0,1-1.30916-.25789,3.45945,3.45945,0,0,1-.98118-.59839,2.80817,2.80817,0,0,1-.53847-.615,1.42433,1.42433,0,0,1-.14495-.27846l-.01663-.07483a.334.334,0,0,1,.57984-.28966Z"/><path class="cls-2" d="M8.74686,7.33709a1.79965,1.79965,0,0,1,.31271-.59339A2.02536,2.02536,0,0,1,9.613,6.24493a1.64434,1.64434,0,0,1,.41565-.17749,1.93912,1.93912,0,0,1,.49414-.06692,2.17074,2.17074,0,0,1,.44858.06692,1.64434,1.64434,0,0,1,.41565.17749,2.02536,2.02536,0,0,1,.55341.49876,1.83,1.83,0,0,1,.31448.59583l.00409.01688a.24576.24576,0,0,1-.385.25542s-.19838-.14673-.46362-.31385a1.94941,1.94941,0,0,0-.44055-.21529,1.47735,1.47735,0,0,0-.23279-.0622,1.33542,1.33542,0,0,0-.474,0,1.47735,1.47735,0,0,0-.23279.0622,1.94941,1.94941,0,0,0-.44055.21529c-.12636.08746-.25427.16-.32912.22065l-.13627.09564a.24668.24668,0,0,1-.382-.2578Z"/><path class="cls-2" d="M3.75239,7.33709a1.79964,1.79964,0,0,1,.31271-.59339,2.02535,2.02535,0,0,1,.55341-.49876,1.64436,1.64436,0,0,1,.41565-.17749,1.93912,1.93912,0,0,1,.49414-.06692,2.17074,2.17074,0,0,1,.44858.06692,1.64436,1.64436,0,0,1,.41565.17749,2.02535,2.02535,0,0,1,.55341.49876,1.83,1.83,0,0,1,.31448.59583l.00409.01688a.24576.24576,0,0,1-.385.25542s-.19838-.14673-.46362-.31385a1.9494,1.9494,0,0,0-.44055-.21529,1.47735,1.47735,0,0,0-.23279-.0622,1.33542,1.33542,0,0,0-.474,0,1.47735,1.47735,0,0,0-.23279.0622,1.94939,1.94939,0,0,0-.44055.21529c-.12637.08746-.25427.16-.32912.22065l-.13627.09564a.24668.24668,0,0,1-.382-.2578Z"/></g></g></svg>