<svg xmlns="http://www.w3.org/2000/svg" viewBox="0 0 16 16"><defs><style>.cls-1{fill:#ffc838;}.cls-2{fill:#333;}</style></defs><title>Compent-Uintra_icons_sad-1</title><g id="Layer_2" data-name="Layer 2"><g id="sad-1"><circle class="cls-1" cx="8" cy="8" r="8"/><ellipse class="cls-2" cx="6" cy="7.5" rx="1" ry="1.25"/><ellipse class="cls-2" cx="10" cy="7.5" rx="1" ry="1.25"/><path class="cls-2" d="M9.99811,12.87288a1.42255,1.42255,0,0,0-.157-.13987,3.10787,3.10787,0,0,0-.43677-.3,3.52526,3.52526,0,0,0-.64772-.29381,2.92787,2.92787,0,0,0-.37008-.08649,2.35109,2.35109,0,0,0-.7653,0,2.92781,2.92781,0,0,0-.37008.08649,3.52526,3.52526,0,0,0-.64772.29381,2.83129,2.83129,0,0,0-.58953.432.24573.24573,0,0,1-.34735.01083.25436.25436,0,0,1-.07269-.22722,2.02981,2.02981,0,0,1,.46511-.84473,2.61976,2.61976,0,0,1,.79331-.60821,2.52245,2.52245,0,0,1,.54787-.19818,3.24264,3.24264,0,0,1,.58-.075,2.93637,2.93637,0,0,1,.62746.075,2.52247,2.52247,0,0,1,.54787.19818,2.61977,2.61977,0,0,1,.79331.60821,2.396,2.396,0,0,1,.37823.58686,1.06777,1.06777,0,0,1,.08267.25l.00178.06388a.23829.23829,0,0,1-.41337.16816Z"/><path class="cls-2" d="M6.87742,2.48672l-.082.15252a2.91744,2.91744,0,0,1-.27483.4,4.85279,4.85279,0,0,1-1.08316.94325,4.34067,4.34067,0,0,1-1.32878.55146,2.368,2.368,0,0,1-.66363.0585l-.00768-.00074A.14931.14931,0,0,1,3.445,4.29392,2.985,2.985,0,0,0,4.02634,4.19a4.413,4.413,0,0,0,1.201-.543,4.47835,4.47835,0,0,0,1.0198-.84109,2.8671,2.8671,0,0,0,.36188-.47753.1557.1557,0,0,1,.27275.1502Z"/><path class="cls-2" d="M9.39095,2.32836a2.8671,2.8671,0,0,0,.36188.47753,4.47836,4.47836,0,0,0,1.0198.84109,4.413,4.413,0,0,0,1.201.543,2.985,2.985,0,0,0,.58135.1039.14932.14932,0,0,1,.00771.29778l-.00771.00073a2.368,2.368,0,0,1-.66363-.0585,4.34067,4.34067,0,0,1-1.32878-.55146,4.85278,4.85278,0,0,1-1.08316-.94325,2.91749,2.91749,0,0,1-.27483-.4l-.082-.15252-.00431-.008a.15569.15569,0,0,1,.27266-.15036Z"/></g></g></svg>