<svg xmlns="http://www.w3.org/2000/svg" viewBox="0 0 16 16"><defs><style>.cls-1{fill:#ffc838;}.cls-2{fill:#333;}</style></defs><title>Compent-Uintra_icons_skeptical-2</title><g id="Layer_2" data-name="Layer 2"><g id="skeptical-1"><circle class="cls-1" cx="8" cy="8" r="8"/><path class="cls-2" d="M7.41743,5.175a5.75636,5.75636,0,0,0-.395-.45581A6.02349,6.02349,0,0,0,6.0365,3.8486a4.39938,4.39938,0,0,0-1.13026-.6219,2.87955,2.87955,0,0,0-.5543-.14314.18685.18685,0,0,1,.01129-.372L4.37274,2.711a2.20822,2.20822,0,0,1,.66578.09394,4.30256,4.30256,0,0,1,1.28832.643,6.49293,6.49293,0,0,1,1.03344.97508,4.298,4.298,0,0,1,.37323.52435l.00819.01442a.19445.19445,0,0,1-.32429.21317Z"/><path class="cls-2" d="M9.75,13.00586H6.25a.5.5,0,0,1,0-1h3.5a.5.5,0,0,1,0,1Z"/><path class="cls-2" d="M12.75,5.75h-4a.25.25,0,0,1,0-.5h4a.25.25,0,0,1,0,.5Z"/><circle class="cls-2" cx="6" cy="8" r="1"/><circle class="cls-2" cx="10" cy="8" r="1"/></g></g></svg>