<svg xmlns="http://www.w3.org/2000/svg" viewBox="0 0 16 16"><defs><style>.cls-1{fill:#ffc838;}.cls-2{fill:#333;}</style></defs><title>Compent-Uintra_icons_wink</title><g id="Layer_2" data-name="Layer 2"><g id="wink"><circle class="cls-1" cx="8" cy="8" r="8"/><ellipse class="cls-2" cx="5.5" cy="8.5" rx="1" ry="1.16813"/><path class="cls-2" d="M8,11.856a4.32765,4.32765,0,0,0,1.36384-.2215c.19193-.0645.3583-.128.47143-.17892a.77933.77933,0,0,0,.184-.09057.245.245,0,0,1,.38722.18756l.00392.08237a.83527.83527,0,0,1-.08129.25653,1.94339,1.94339,0,0,1-.39851.573,2.47068,2.47068,0,0,1-.8107.55538,2.77348,2.77348,0,0,1-2.23982,0,2.47068,2.47068,0,0,1-.8107-.55538,1.94339,1.94339,0,0,1-.39851-.573.83527.83527,0,0,1-.08129-.25653l.00392-.08237a.245.245,0,0,1,.38722-.18756.77933.77933,0,0,0,.184.09057c.11313.051.2795.11442.47143.17892A4.32765,4.32765,0,0,0,8,11.856Z"/><path class="cls-2" d="M2.78251,6.60672a3.45825,3.45825,0,0,1,.33269-.56A4.76907,4.76907,0,0,1,4.135,5.0329a4.00322,4.00322,0,0,1,1.3058-.61718,2.3936,2.3936,0,0,1,.66158-.08147l.00879.00053a.14926.14926,0,0,1,.00313.29774,3.0454,3.0454,0,0,0-.57914.124A3.99938,3.99938,0,0,0,4.36508,5.355a4.3915,4.3915,0,0,0-.96312.90842,4.06026,4.06026,0,0,0-.34915.49831.15525.15525,0,0,1-.278-.13723Z"/><path class="cls-2" d="M12.98243,7.5633a2.61913,2.61913,0,0,0-.43909-.309,3.6621,3.6621,0,0,0-1.10017-.42381A4.937,4.937,0,0,0,9.719,6.73089a.14948.14948,0,0,1-.06444-.291l.00557-.00168a2.86381,2.86381,0,0,1,.584-.09487,4.56619,4.56619,0,0,1,1.28928.10171,4.0384,4.0384,0,0,1,1.20041.50438,2.38155,2.38155,0,0,1,.45615.38137l.01555.01839a.15489.15489,0,0,1-.223.21409Z"/><path class="cls-2" d="M8.788,8.88611A.636.636,0,0,1,8.8794,8.7502a1.77983,1.77983,0,0,1,.31648-.314,2.15034,2.15034,0,0,1,1.30218-.436,2.3865,2.3865,0,0,1,.73571.12553,2.23026,2.23026,0,0,1,.56647.31045,1.5726,1.5726,0,0,1,.41029.45183l.00456.00879a.25084.25084,0,0,1-.30062.354s-.205-.067-.4719-.13616a3.10017,3.10017,0,0,0-.44567-.08346,3.51767,3.51767,0,0,0-.49884-.03094,3.77041,3.77041,0,0,0-.94451.11441c-.12931.04116-.25525.06383-.33475.09533l-.13955.04276a.25011.25011,0,0,1-.30468-.334Z"/></g></g></svg>