<svg xmlns="http://www.w3.org/2000/svg" viewBox="0 0 16 16"><defs><style>.cls-1{fill:#ffc838;}.cls-2{fill:#333;}</style></defs><title>Compent-Uintra_icons_sad-2</title><g id="Layer_2" data-name="Layer 2"><g id="sad-2"><circle class="cls-1" cx="8" cy="8" r="8"/><path class="cls-2" d="M9.81679,13.73524a1.06011,1.06011,0,0,0-.14649-.11648,3.80791,3.80791,0,0,0-.40284-.25958,2.75128,2.75128,0,0,0-.59172-.25315,2.58821,2.58821,0,0,0-.33159-.0756,1.927,1.927,0,0,0-.31427-.02731,1.90539,1.90539,0,0,0-.36623.02731,2.58819,2.58819,0,0,0-.33159.0756,2.75127,2.75127,0,0,0-.59172.25315,3.35912,3.35912,0,0,0-.54369.36682l-.01366.01208a.32743.32743,0,0,1-.46219-.02831.33079.33079,0,0,1-.07041-.304,2.04417,2.04417,0,0,1,.48628-.78222,2.796,2.796,0,0,1,.76444-.564,2.44056,2.44056,0,0,1,.52445-.18515,3.18685,3.18685,0,0,1,.55236-.07024,2.85006,2.85006,0,0,1,.60431.07024,2.44056,2.44056,0,0,1,.52445.18515,2.796,2.796,0,0,1,.76444.564,2.27757,2.27757,0,0,1,.38552.53847.997.997,0,0,1,.09514.23451l.00724.08287a.31954.31954,0,0,1-.54223.25579Z"/><path class="cls-2" d="M7.24982,8.52272l-.09251.14716a2.5502,2.5502,0,0,1-.296.37388,3.18527,3.18527,0,0,1-1.219.77548,3.86419,3.86419,0,0,1-.75752.16533,2.95231,2.95231,0,0,1-.6792-.01281A2.5714,2.5714,0,0,1,3.573,9.805l-.0161-.00734A.34277.34277,0,0,1,3.746,9.14628a3.65569,3.65569,0,0,0,1.59932-.17667,3.33729,3.33729,0,0,0,.97282-.51878c.11822-.09438.22071-.17483.28545-.23781l.10557-.10462.01054-.01045a.34187.34187,0,0,1,.53007.42478Z"/><path class="cls-2" d="M9.29083,8.1084l.10557.10462c.06475.063.16724.14343.28545.23781a3.3373,3.3373,0,0,0,.97281.51878,3.65569,3.65569,0,0,0,1.59932.17667.34283.34283,0,0,1,.18959.65134l-.01651.00743a2.57139,2.57139,0,0,1-.63257.16671,2.9523,2.9523,0,0,1-.6792.01281,3.86419,3.86419,0,0,1-.75752-.16533,3.18528,3.18528,0,0,1-1.219-.77548,2.55023,2.55023,0,0,1-.296-.37388l-.09251-.14716a.34191.34191,0,0,1,.53-.425Z"/></g></g></svg>