<svg xmlns="http://www.w3.org/2000/svg" viewBox="0 0 16 16"><defs><style>.cls-1{fill:#ffc838;}.cls-2{fill:#333;}</style></defs><title>Compent-Uintra_icons_surprised-1</title><g id="Layer_2" data-name="Layer 2"><g id="surprised-1"><circle class="cls-1" cx="8" cy="8" r="8"/><ellipse class="cls-2" cx="5.5" cy="7" rx="1" ry="1.25"/><ellipse class="cls-2" cx="10.5" cy="7" rx="1" ry="1.25"/><path class="cls-2" d="M2.25692,4.6563A3.68867,3.68867,0,0,1,2.6,4.11,5.31433,5.31433,0,0,1,3.60986,3.10835a4.36919,4.36919,0,0,1,1.27161-.65207,2.49543,2.49543,0,0,1,.64928-.11717l.008,0a.1493.1493,0,0,1,.02269.297,3.27909,3.27909,0,0,0-.5689.156A4.45328,4.45328,0,0,0,3.845,3.42677a4.93719,4.93719,0,0,0-.96233.90522,4.41192,4.41192,0,0,0-.35989.48687.15535.15535,0,0,1-.27338-.14662Z"/><path class="cls-2" d="M13.47723,4.81886a4.41188,4.41188,0,0,0-.35989-.48687,4.93718,4.93718,0,0,0-.96233-.90522A4.45329,4.45329,0,0,0,11.00746,2.792a3.27909,3.27909,0,0,0-.5689-.156.14931.14931,0,0,1,.02266-.297l.008.00006a2.49543,2.49543,0,0,1,.64928.11717,4.36919,4.36919,0,0,1,1.27161.65207A5.31433,5.31433,0,0,1,13.4,4.11a3.68859,3.68859,0,0,1,.34305.54631l.0072.01524a.15534.15534,0,0,1-.273.14731Z"/><ellipse class="cls-2" cx="7.99219" cy="11.50049" rx="1.25" ry="1.5"/></g></g></svg>