<svg xmlns="http://www.w3.org/2000/svg" viewBox="0 0 16 16"><defs><style>.cls-1{fill:#ffc838;}.cls-2{fill:#333;}</style></defs><title>Compent-Uintra_icons_relaxed-1</title><g id="Layer_2" data-name="Layer 2"><g id="relaxed-1"><circle class="cls-1" cx="8" cy="8" r="8"/><path class="cls-2" d="M5.47142,10.06218a1.33731,1.33731,0,0,0,.21113.14473,4.965,4.965,0,0,0,.56695.30018,4.23031,4.23031,0,0,0,1.74666.39l.25949-.00535c.07025-.00872.13205-.00642.21379-.02245a4.4596,4.4596,0,0,0,.45867-.08155,4.934,4.934,0,0,0,.81471-.28061,4.28012,4.28012,0,0,0,.77307-.43678l.01074-.00815a.25267.25267,0,0,1,.40067.25022,2.13957,2.13957,0,0,1-.594.99194,3.23816,3.23816,0,0,1-1.62933.88882,3.75733,3.75733,0,0,1-.37205.05655l-.33576.02324a3.50032,3.50032,0,0,1-1.35962-.292,3.08805,3.08805,0,0,1-.97752-.67659,2.451,2.451,0,0,1-.484-.68246,1.2275,1.2275,0,0,1-.105-.30134l-.00317-.06479a.24318.24318,0,0,1,.40455-.19355Z"/><path class="cls-2" d="M12.95066,5.91027a.8638.8638,0,0,1-.1001.15528,2.273,2.273,0,0,1-.34594.37634,2.31524,2.31524,0,0,1-.63983.39263,2.73824,2.73824,0,0,1-.88145.17049,3.13091,3.13091,0,0,1-.42979-.05189,2.6772,2.6772,0,0,1-.41835-.1186,2.31524,2.31524,0,0,1-.63983-.39263,2.01234,2.01234,0,0,1-.44874-.53434l-.00812-.01618a.29334.29334,0,0,1,.41485-.382,5.497,5.497,0,0,0,.49532.25984,2.81036,2.81036,0,0,0,.48949.17278,1.71751,1.71751,0,0,0,.27414.05341,2.11135,2.11135,0,0,0,.30433.01021,1.82458,1.82458,0,0,0,.271-.01021,1.71751,1.71751,0,0,0,.27414-.05341,2.81036,2.81036,0,0,0,.48949-.17278c.14007-.07132.27219-.12932.3542-.18125l.14383-.08131a.294.294,0,0,1,.41592.36927Z"/><path class="cls-2" d="M6.953,5.91027a.8638.8638,0,0,1-.1001.15528,2.273,2.273,0,0,1-.34594.37634,2.31524,2.31524,0,0,1-.63983.39263,2.73826,2.73826,0,0,1-.88145.17049,3.1309,3.1309,0,0,1-.42979-.05189,2.67719,2.67719,0,0,1-.41835-.1186,2.31524,2.31524,0,0,1-.63983-.39263A2.01235,2.01235,0,0,1,3.049,5.90754l-.00812-.01618a.29334.29334,0,0,1,.41485-.382,5.497,5.497,0,0,0,.49532.25984,2.81037,2.81037,0,0,0,.48949.17278,1.71753,1.71753,0,0,0,.27414.05341,2.11135,2.11135,0,0,0,.30433.01021,1.82458,1.82458,0,0,0,.271-.01021A1.71753,1.71753,0,0,0,5.56416,5.942a2.81037,2.81037,0,0,0,.48949-.17278c.14007-.07132.27219-.12932.3542-.18125l.14383-.08131a.294.294,0,0,1,.41592.36927Z"/></g></g></svg>