<svg xmlns="http://www.w3.org/2000/svg" viewBox="0 0 16.00781 16"><defs><style>.cls-1{fill:#ffc838;}.cls-2{fill:#333;}.cls-3{fill:#00408b;}</style></defs><title>Compent-Uintra_icons_sleeping</title><g id="Layer_2" data-name="Layer 2"><g id="sleeping"><circle class="cls-1" cx="8" cy="8" r="8"/><path class="cls-2" d="M8.00394,13.941c-.91128,0-1.704.2757-1.9528-.34049-.2859-.7081.77206-1.60292,1.9528-1.60292s2.23869.89482,1.9528,1.60292C9.70794,14.21666,8.91521,13.941,8.00394,13.941Z"/><path class="cls-3" d="M7,4.8083H4.6674V4.47578L5.97184,2.80033H4.79666v-.592H6.99013V2.605L5.75378,4.21726H7Z"/><path class="cls-3" d="M10.99781,3.83971H7.70321V3.37014l1.843-2.36622H7.88632V.16812h3.09716V.72771L9.23823,3.00391h1.75958Z"/><path class="cls-3" d="M16.00781,6.18757H11.35165V5.52438l2.60388-3.3436H11.611V1h4.37665v.79073L13.52084,5.00679h2.487Z"/><path class="cls-2" d="M12.71555,8.889a.71049.71049,0,0,1-.07448.14756,1.978,1.978,0,0,1-.27767.36854,1.92516,1.92516,0,0,1-.55648.40674,2.14694,2.14694,0,0,1-.82634.18779,2.46971,2.46971,0,0,1-.40132-.0568,2.07662,2.07662,0,0,1-.38618-.131,1.92516,1.92516,0,0,1-.55648-.40674,1.74691,1.74691,0,0,1-.35462-.519l-.00611-.01643A.29616.29616,0,0,1,9.718,8.5202s.18083.12085.4251.25127a2.127,2.127,0,0,0,.4064.16778,1.11611,1.11611,0,0,0,.22042.05165,1.46479,1.46479,0,0,0,.24948.00948,1.18873,1.18873,0,0,0,.21064-.00948,1.11611,1.11611,0,0,0,.22042-.05165,2.127,2.127,0,0,0,.4064-.16778c.1173-.06893.233-.12609.3023-.17536l.12525-.0788a.2962.2962,0,0,1,.44266.33159Z"/><path class="cls-2" d="M6.71555,8.889a.71046.71046,0,0,1-.07448.14756,1.97794,1.97794,0,0,1-.27767.36854,1.92515,1.92515,0,0,1-.55648.40674,2.14694,2.14694,0,0,1-.82634.18779,2.46973,2.46973,0,0,1-.40132-.0568,2.07662,2.07662,0,0,1-.38618-.131,1.92516,1.92516,0,0,1-.55648-.40674,1.74691,1.74691,0,0,1-.35462-.519l-.00611-.01643A.29616.29616,0,0,1,3.718,8.5202s.18083.12085.4251.25127a2.127,2.127,0,0,0,.4064.16778,1.11613,1.11613,0,0,0,.22042.05165,1.4648,1.4648,0,0,0,.24948.00948,1.18874,1.18874,0,0,0,.21064-.00948,1.11613,1.11613,0,0,0,.22042-.05165,2.127,2.127,0,0,0,.4064-.16778c.1173-.06893.233-.12609.3023-.17536l.12526-.0788a.2962.2962,0,0,1,.44266.33159Z"/></g></g></svg>