<svg xmlns="http://www.w3.org/2000/svg" viewBox="0 0 16 16"><defs><style>.cls-1{fill:#ffc838;}.cls-2{fill:#333;}.cls-3{fill:#e15263;}</style></defs><title>Compent-Uintra_icons_hungry-2</title><g id="Layer_2" data-name="Layer 2"><g id="hungry-2"><circle class="cls-1" cx="8" cy="8" r="8"/><path class="cls-2" d="M7.99995,10.49906l-.3845-.009c-.09809-.01719-.17718.00236-.2982-.01673-.2259-.0179-.45032-.042-.67195-.074a12.30845,12.30845,0,0,1-1.26149-.259,10.10128,10.10128,0,0,1-1.34195-.46445l-.03477-.01556a.36012.36012,0,0,0-.4789.19386.38938.38938,0,0,0-.02954.17223,2.24543,2.24543,0,0,0,.12245.52931,3.586,3.586,0,0,0,.69983,1.17475A4.45965,4.45965,0,0,0,5.84283,12.889a4.6737,4.6737,0,0,0,1.03331.3561,4.45965,4.45965,0,0,0,.59837.09826c.21519.01919.26514.01947.52544.03233h-.0038c.2603-.01286.31025-.01315.52544-.03233A4.45965,4.45965,0,0,0,9.12,13.24507a4.6737,4.6737,0,0,0,1.03331-.3561,4.45965,4.45965,0,0,0,1.5219-1.15849,3.586,3.586,0,0,0,.69983-1.17475,2.24543,2.24543,0,0,0,.12245-.52931.38938.38938,0,0,0-.02954-.17223.36012.36012,0,0,0-.4789-.19386l-.03477.01556a10.10128,10.10128,0,0,1-1.34195.46445,12.30845,12.30845,0,0,1-1.26149.259c-.22163.032-.44605.05614-.67195.074-.121.01908-.20011-.00046-.2982.01673l-.3845.009"/><path class="cls-3" d="M9.4668,10.99414c-.23291.0332-.47607.05762-.7207.07715a1.16682,1.16682,0,0,1-.18457.01074H8.5293a.87909.87909,0,0,1-.12451.00781l-.36768.00879H7.96533l-.36768-.00879L7.47314,11.082h-.0293a1.50831,1.50831,0,0,1-.228-.01465c-.2041-.01562-.44678-.04-.687-.07422-.18213-.0235-.358-.05768-.53271-.09161V14a2,2,0,0,0,4,0V10.90289C9.82159,10.93665,9.64722,10.97083,9.4668,10.99414Z"/><path class="cls-2" d="M8.746,7.33657a1.79965,1.79965,0,0,1,.31271-.59339,2.02535,2.02535,0,0,1,.55341-.49876,1.64433,1.64433,0,0,1,.41565-.17749A1.93912,1.93912,0,0,1,10.52188,6a2.17074,2.17074,0,0,1,.44858.06692,1.64433,1.64433,0,0,1,.41565.17749,2.02536,2.02536,0,0,1,.55341.49876A1.83,1.83,0,0,1,12.254,7.339l.00409.01688a.24576.24576,0,0,1-.385.25542s-.19838-.14673-.46362-.31385a1.94941,1.94941,0,0,0-.44055-.21529,1.47735,1.47735,0,0,0-.23279-.0622,1.33542,1.33542,0,0,0-.474,0,1.47735,1.47735,0,0,0-.23279.0622,1.94941,1.94941,0,0,0-.44055.21529c-.12636.08746-.25427.16-.32912.22065l-.13627.09564a.24668.24668,0,0,1-.382-.2578Z"/><path class="cls-2" d="M3.746,7.33657a1.79965,1.79965,0,0,1,.31271-.59339,2.02535,2.02535,0,0,1,.55341-.49876,1.64433,1.64433,0,0,1,.41565-.17749A1.93912,1.93912,0,0,1,5.52188,6a2.17074,2.17074,0,0,1,.44858.06692,1.64433,1.64433,0,0,1,.41565.17749,2.02535,2.02535,0,0,1,.55341.49876A1.83,1.83,0,0,1,7.254,7.339l.00409.01688a.24576.24576,0,0,1-.385.25542s-.19838-.14673-.46362-.31385a1.94941,1.94941,0,0,0-.44055-.21529A1.47735,1.47735,0,0,0,5.73612,7.02a1.33542,1.33542,0,0,0-.474,0,1.47735,1.47735,0,0,0-.23279.0622,1.94941,1.94941,0,0,0-.44055.21529c-.12636.08746-.25427.16-.32912.22065l-.13627.09564a.24668.24668,0,0,1-.382-.2578Z"/></g></g></svg>