<svg xmlns="http://www.w3.org/2000/svg" viewBox="0 0 16 16"><defs><style>.cls-1{fill:#ffc838;}.cls-2{fill:#333;}</style></defs><title>Compent-Uintra_icons_angry</title><g id="Layer_2" data-name="Layer 2"><g id="angry"><circle class="cls-1" cx="8" cy="8" r="8"/><ellipse class="cls-2" cx="6" cy="9.5" rx="1" ry="1.25"/><ellipse class="cls-2" cx="10" cy="9.5" rx="1" ry="1.25"/><path class="cls-2" d="M5.77709,13.838a1.27346,1.27346,0,0,1,.03323-.253,1.948,1.948,0,0,1,.28681-.63721,2.36517,2.36517,0,0,1,1.89952-1.04844,2.77185,2.77185,0,0,1,.638.10215,2.25882,2.25882,0,0,1,.54052.25065,2.34265,2.34265,0,0,1,.721.69564,1.67139,1.67139,0,0,1,.3223.89483.14793.14793,0,0,1-.14721.14865.15924.15924,0,0,1-.09642-.0352,4.58886,4.58886,0,0,0-.64324-.43832,4.159,4.159,0,0,0-.64681-.29467,3.20649,3.20649,0,0,0-.35008-.09327,1.50631,1.50631,0,0,0-.33806-.03047,2.839,2.839,0,0,0-1.33495.41841c-.18878.108-.35285.2204-.46041.29705-.11134.07594-.18719.15143-.18508.14589a.14.14,0,0,1-.23558-.08747Z"/><path class="cls-2" d="M8.81265,8.57815l.09448-.14437a3.03036,3.03036,0,0,1,.30311-.38389,4.9767,4.9767,0,0,1,1.149-.89443,3.7955,3.7955,0,0,1,1.40549-.44431,1.98793,1.98793,0,0,1,.50312.01292l.19041.03405a.22363.22363,0,0,1-.057.44307l-.01667-.00141a2.45823,2.45823,0,0,0-.55468.03777,3.73768,3.73768,0,0,0-1.18713.43955,4.41226,4.41226,0,0,0-1.04838.751,3.76321,3.76321,0,0,0-.40707.4294.23365.23365,0,0,1-.38062-.27038Z"/><path class="cls-2" d="M6.81265,8.85755a3.76323,3.76323,0,0,0-.40707-.4294,4.4123,4.4123,0,0,0-1.04838-.751,3.73768,3.73768,0,0,0-1.18713-.43955,2.45823,2.45823,0,0,0-.55468-.03777l-.01568.00131a.22362.22362,0,0,1-.058-.443l.19041-.03405a1.98793,1.98793,0,0,1,.50312-.01292,3.7955,3.7955,0,0,1,1.40549.44431,4.97669,4.97669,0,0,1,1.149.89443,3.03045,3.03045,0,0,1,.30311.38389l.09448.14437.00541.00826a.23364.23364,0,0,1-.38011.27114Z"/></g></g></svg>