<?xml version="1.0" encoding="utf-8"?>
<!-- Generator: Adobe Illustrator 21.0.2, SVG Export Plug-In . SVG Version: 6.00 Build 0)  -->
<svg version="1.1" id="Layer_1" xmlns="http://www.w3.org/2000/svg" xmlns:xlink="http://www.w3.org/1999/xlink" x="0px" y="0px"
	 viewBox="0 0 16 16" style="enable-background:new 0 0 16 16;" xml:space="preserve">
<style type="text/css">
	.st0{fill:#FFC838;}
	.st1{fill:#333333;}
	.st2{fill:#FFFFFF;}
</style>
<title>Compent-Uintra_icons_great</title>
<g id="Layer_2">
	<g id="great">
		
			<ellipse transform="matrix(1 -1.902928e-03 1.902928e-03 1 -1.520897e-02 1.523793e-02)" class="st0" cx="8" cy="8" rx="8" ry="8"/>
		<path class="st1" d="M9.5,11.2c0-0.4,0.3-0.7,0.7-0.7c0.1,0,0.4-0.2,0.9-0.8c0.1-0.2,0.2-0.3,0.4-0.5C10.3,9.5,9.1,9.6,8,9.6
			c-1.2,0-2.3-0.1-3.4-0.4C4.1,9,3.5,9.2,3.3,9.6c-0.2,0.6,0,1.3,0.3,1.8C4.6,13,6.2,13.8,8,13.8h0c0.5,0,1-0.1,1.5-0.2L9.5,11.2z"
			/>
		
			<ellipse transform="matrix(1 -1.902928e-03 1.902928e-03 1 -1.047608e-02 1.047609e-02)" class="st1" cx="5.5" cy="5.5" rx="1" ry="1.5"/>
		
			<ellipse transform="matrix(1 -1.902928e-03 1.902928e-03 1 -1.044711e-02 1.999073e-02)" class="st1" cx="10.5" cy="5.5" rx="1" ry="1.5"/>
		<path class="st0" d="M13.6,15c-1.4,0-2-1-3.4-1c-0.1,0-0.2-0.1-0.2-0.2l0-2.6c0-0.1,0.1-0.2,0.2-0.2c0.4,0,1-0.7,1.2-1
			c0.3-0.4,0.6-0.9,0.7-1c0.1-0.2,0.4-0.8,0.5-0.9C12.8,8,12.9,8,13,8c0.2,0,0.4,0.1,0.5,0.3c0.1,0.4,0,0.8-0.2,1.1
			C13.2,9.7,13,9.9,13,10l2.1,0c0.2,0,0.4,0.1,0.6,0.3c0.2,0.2,0.3,0.4,0.3,0.6c0,0.2,0,0.3-0.1,0.5c0,0.1-0.1,0.2-0.2,0.2
			c0,0,0,0.1,0,0.1c0,0.1,0.1,0.2,0.1,0.3c0,0.2-0.1,0.5-0.2,0.7c0,0.1,0.1,0.2,0.1,0.3c0,0.2,0,0.3-0.1,0.5c0,0.1-0.1,0.2-0.2,0.3
			c0,0.1,0,0.1,0,0.2c0,0.4-0.1,1.1-1.2,1.1L13.6,15z"/>
		<path class="st2" d="M15.2,9.5l-1.3,0c0.2-0.4,0.3-1,0.1-1.4c-0.2-0.4-0.5-0.6-1-0.6c-0.3,0-0.5,0.1-0.7,0.3
			C12.2,8,12,8.2,11.9,8.4c-0.1,0.1-0.1,0.3-0.2,0.3c0,0-0.1,0.1-0.1,0.2c-0.1,0.2-0.4,0.6-0.6,0.8c-0.2,0.3-0.5,0.6-0.8,0.8
			c-0.7,0.2-1.5,0.2-2.3,0.2c-1.2,0-2.5-0.2-3.6-0.6c0,0,0.7,1.9,3.6,1.9c0.5,0,1-0.1,1.5-0.2l0,2c0,0.4,0.3,0.7,0.7,0.7
			c0.5,0,1.1,0.2,1.5,0.4c0,0,0.1,0,0.1,0.1c0.2-0.1,0.3-0.2,0.5-0.3c-0.7-0.4-1.4-0.6-2.2-0.7c-0.1,0-0.2-0.1-0.2-0.2l0-2.6
			c0-0.1,0.1-0.2,0.2-0.2c0.4,0,1-0.7,1.2-1c0.3-0.4,0.6-0.9,0.7-1c0.1-0.2,0.4-0.8,0.5-0.9C12.8,8,12.9,8,13,8
			c0.2,0,0.4,0.1,0.5,0.3c0.1,0.4,0,0.8-0.2,1.1C13.2,9.7,13,9.9,13,10l2.1,0l0,0c0.2,0,0.4,0.1,0.5,0.2c0-0.2,0.1-0.3,0.1-0.5
			C15.6,9.6,15.4,9.5,15.2,9.5z"/>
	</g>
</g>
</svg>
