<svg xmlns="http://www.w3.org/2000/svg" viewBox="0 0 16 16"><defs><style>.cls-1{fill:#ffc838;}.cls-2{fill:#333;}</style></defs><title>Compent-Uintra_icons_skeptical-2_1</title><g id="Layer_2" data-name="Layer 2"><g id="skeptical-2"><circle class="cls-1" cx="8" cy="8" r="8"/><path class="cls-2" d="M7.4939,5.37218s-.16475-.1882-.41931-.44523a7.669,7.669,0,0,0-.99491-.88315,4.29864,4.29864,0,0,0-1.12786-.64462,2.54691,2.54691,0,0,0-.55957-.14151A.14925.14925,0,0,1,4.3997,2.96l.00919-.00041a2.12681,2.12681,0,0,1,.65367.10372,4.23358,4.23358,0,0,1,1.255.66411,8.04184,8.04184,0,0,1,1.02023.95474c.25234.28891.39569.49077.39569.49077l.00458.00646a.15575.15575,0,0,1-.24418.19277Z"/><path class="cls-2" d="M9.50781,12h-3a.5.5,0,0,1,0-1h3a.5.5,0,0,1,0,1Z"/><path class="cls-2" d="M11.75781,8h-2.5a.5.5,0,0,1,0-1h2.5a.5.5,0,0,1,0,1Z"/><path class="cls-2" d="M6.75781,8h-2.5a.5.5,0,0,1,0-1h2.5a.5.5,0,0,1,0,1Z"/><path class="cls-2" d="M12.958,5.7002h-4a.2002.2002,0,1,1,0-.40039h4a.2002.2002,0,1,1,0,.40039Z"/></g></g></svg>