<?xml version="1.0" encoding="utf-8"?>
<!-- Generator: Adobe Illustrator 19.2.1, SVG Export Plug-In . SVG Version: 6.00 Build 0)  -->
<svg version="1.1" id="great" xmlns="http://www.w3.org/2000/svg" xmlns:xlink="http://www.w3.org/1999/xlink" x="0px" y="0px"
	 viewBox="0 0 16 16" style="enable-background:new 0 0 16 16;" xml:space="preserve">
<style type="text/css">
	.st0{fill:#FFC838;}
	.st1{fill:#333333;}
	.st2{fill:#FFFFFF;}
</style>
<title>Compent-Uintra_icons_great</title>
<g>
	<ellipse transform="matrix(1 -0.0019 0.0019 1 -0.0152 0.0152)" class="st0" cx="8" cy="8" rx="8" ry="8"/>
</g>
<g>
	<path class="st1" d="M8,13.7676c1.894,0,3.4456-0.8145,4.3674-2.2939c0.1758-0.2822,0.6128-1.2246,0.3301-1.835
		c-0.3086-0.6665-1.0107-0.4922-1.2759-0.4258C10.2205,9.5137,9.1465,9.6543,8,9.6494C6.8535,9.6543,5.7795,9.5137,4.5784,9.2129
		C4.3132,9.1465,3.6111,8.9722,3.3025,9.6387c-0.2827,0.6104,0.1543,1.5527,0.3301,1.835C4.5544,12.9531,6.106,13.7676,8,13.7676z"
		/>
</g>
<g>
	<ellipse transform="matrix(1 -0.0019 0.0019 1 -0.0105 0.0105)" class="st1" cx="5.5" cy="5.5105" rx="1" ry="1.5"/>
	<ellipse transform="matrix(1 -0.0019 0.0019 1 -0.0104 0.02)" class="st1" cx="10.5" cy="5.5" rx="1" ry="1.5"/>
</g>
<path class="st2" d="M10.2695,10.4625c-0.6575,0.1386-1.3505,0.2168-2.2684,0.2185c-1.5535,0.003-2.4668-0.2106-3.6462-0.5758
	c0,0,0.7165,1.911,3.6487,1.9055c0.5939-0.0011,1.0752-0.0934,1.4993-0.2194C9.503,11.7913,10.4011,10.3916,10.2695,10.4625z"/>
<g>
	<path class="st2" d="M12.7535,7.4941c-0.1436,0-0.4165,0.0118-0.6586,0.2667c-0.1733,0.1647-0.2345,0.4829-0.4517,0.8941
		c-0.1931,0.3657-0.5172,0.8532-0.7164,1.1096c-0.4243,0.546-0.6073,0.6668-0.8213,0.7308
		c-0.1618,0.0484-0.2728,0.0501-0.3996,0.1781c-0.1266,0.1278-0.196,0.3252-0.1952,0.5051l-0.0036,2.379
		c0.0015,0.3729,0.3041,0.674,0.6747,0.674c0.5542,0,0.9356,0.1883,1.3773,0.4063c0.4736,0.2338,1.0105,0.4341,1.7669,0.4341
		l0.4779-0.0023c0.7149-0.0029,1.092-0.2971,1.2825-0.5434c0.1902-0.2459,0.2902-0.5642,0.2893-0.9205
		c0.0504-0.0678,0.0949-0.142,0.133-0.2222c0.098-0.2073,0.147-0.4218,0.1461-0.6386c-0.0003-0.0654-0.0051-0.13-0.0146-0.1936
		c0.1166-0.2105,0.1768-0.4456,0.1758-0.6922c-0.0004-0.0987-0.0128-0.2018-0.037-0.308c0.0208-0.0358,0.0404-0.0733,0.0586-0.1126
		c0.1103-0.2384,0.1633-0.4565,0.1625-0.6679c-0.0014-0.3419-0.1357-0.6531-0.3885-0.9c-0.2483-0.2431-0.5557-0.3718-0.8884-0.3718
		l-1.0565,0.0034c0.1224-0.4059,0.209-1.1016-0.0038-1.4817C13.4559,7.6511,13.1716,7.4941,12.7535,7.4941z"/>
</g>
<path class="st0" d="M13.3207,14.5737c-1.2903,0-1.8136-0.8404-3.1442-0.8404c-0.0972,0-0.1761-0.0783-0.1765-0.1751l0.0036-2.3817
	c-0.0004-0.0968,0.0779-0.1761,0.1751-0.1765c0.3975-0.0016,0.9152-0.6453,1.1363-0.9298C11.5987,9.705,11.8059,9.3765,12.0078,9
	c0.1718-0.3202,0.3385-0.7901,0.443-0.9001C12.5218,8.0251,12.6117,8,12.7483,8c0.2262,0,0.3555,0.0826,0.474,0.2943
	c0.1063,0.1898,0.0667,0.6064-0.0459,1.0233C13.1127,9.5538,13.0263,9.8854,13,10.0029l1.7148-0.0058
	c0.2039-0.0008,0.3869,0.0767,0.5434,0.2299c0.1575,0.1539,0.2384,0.3376,0.2384,0.5457c0,0.2509-0.1172,0.5333-0.2761,0.6809
	c0.0529,0.0847,0.0919,0.2553,0.0919,0.4075c0,0.2239-0.0711,0.4233-0.2139,0.5955c0.0485,0.111,0.0494,0.3535,0.0339,0.4782
	c-0.0208,0.1671-0.1227,0.3671-0.2714,0.4903c0.0071,0.0625,0.0108,0.1229,0.011,0.1799c0.0014,0.3591-0.1366,0.9626-1.076,0.9664
	L13.3207,14.5737z"/>
</svg>
