<?xml version="1.0" encoding="utf-8"?>
<!-- Generator: Adobe Illustrator 19.2.1, SVG Export Plug-In . SVG Version: 6.00 Build 0)  -->
<svg version="1.1" id="happy" xmlns="http://www.w3.org/2000/svg" xmlns:xlink="http://www.w3.org/1999/xlink" x="0px" y="0px"
	 viewBox="0 0 16 16" style="enable-background:new 0 0 16 16;" xml:space="preserve">
<style type="text/css">
	.st0{fill:#333333;}
	.st1{fill:#FFC838;}
</style>
<title>Compent-Uintra_icons_happy</title>
<path class="st0" d="M8,12.4"/>
<circle class="st1" cx="8" cy="8" r="8"/>
<g>
	<ellipse class="st0" cx="6" cy="6" rx="1" ry="1.1681"/>
	<ellipse class="st0" cx="10" cy="6" rx="1" ry="1.1681"/>
</g>
<path class="st0" d="M8.0039,12.401"/>
<path class="st0" d="M8,11.2941c-0.4637,0-1.0079-0.0853-1.3312-0.1793c-0.414-0.1203-0.7967-0.2692-1.0957-0.4494
	c-0.4829-0.291-0.7064-0.4949-0.9141-0.6873C4.5202,9.8495,4.3249,9.8326,4.1891,9.9564c-0.1105,0.1007-0.1034,0.2534-0.0568,0.3876
	c0.076,0.2188,0.2912,0.6011,0.9296,1.0867c0.3377,0.2569,0.7856,0.4894,1.2874,0.6815C6.8706,12.3118,7.3804,12.401,8,12.401
	s1.1294-0.0892,1.6506-0.2888c0.5018-0.1921,0.9497-0.4246,1.2874-0.6815c0.6384-0.4856,0.8536-0.868,0.9296-1.0867
	c0.0466-0.1342,0.0537-0.2869-0.0568-0.3876c-0.1358-0.1237-0.331-0.1068-0.4699,0.0218c-0.2076,0.1924-0.4311,0.3963-0.9141,0.6873
	c-0.299,0.1801-0.6817,0.3291-1.0957,0.4494C9.0079,11.2088,8.4637,11.2941,8,11.2941z"/>
<path class="st0" d="M7.9961,11.2941"/>
</svg>
