<svg id="laughing" xmlns="http://www.w3.org/2000/svg" xmlns:xlink="http://www.w3.org/1999/xlink" viewBox="0 0 16 16"><defs><style>.cls-1{fill:url(#linear-gradient);}.cls-2{opacity:0.8;}.cls-3{fill:url(#linear-gradient-2);}.cls-4{fill:#ffc600;}.cls-5{opacity:0.3;}.cls-6{fill:#fff;}.cls-10,.cls-7,.cls-9{opacity:0.55;}.cls-8{fill:url(#linear-gradient-3);}.cls-10,.cls-12,.cls-9{isolation:isolate;}.cls-9{fill:url(#linear-gradient-4);}.cls-10{fill:url(#linear-gradient-5);}.cls-11{fill:#333;}.cls-12{fill:#a9eaf8;opacity:0.6;}</style><linearGradient id="linear-gradient" x1="8" y1="15.89" x2="8" y2="-0.11" gradientTransform="matrix(1, 0, 0, -1, 0, 15.88999)" gradientUnits="userSpaceOnUse"><stop offset="0" stop-color="#ffec00"/><stop offset="0.4268" stop-color="#fdd713"/><stop offset="1" stop-color="#fbb533"/></linearGradient><linearGradient id="linear-gradient-2" x1="7.99995" y1="9.24292" x2="7.99995" y2="15.63704" gradientTransform="matrix(1, 0, 0, -1, 0, 15.88999)" gradientUnits="userSpaceOnUse"><stop offset="0" stop-color="#fff" stop-opacity="0"/><stop offset="0.11016" stop-color="#fff" stop-opacity="0.14218"/><stop offset="0.35948" stop-color="#fff" stop-opacity="0.44309"/><stop offset="0.58203" stop-color="#fff" stop-opacity="0.68218"/><stop offset="0.76954" stop-color="#fff" stop-opacity="0.85464"/><stop offset="0.91475" stop-color="#fff" stop-opacity="0.96065"/><stop offset="1" stop-color="#fff"/></linearGradient><linearGradient id="linear-gradient-3" x1="2.6036" y1="4.93048" x2="13.39384" y2="4.93048" gradientTransform="matrix(1, 0, 0, -1, 0, 15.88999)" gradientUnits="userSpaceOnUse"><stop offset="0" stop-color="#ff0" stop-opacity="0.6"/><stop offset="0.14519" stop-color="#ff0" stop-opacity="0.69979"/><stop offset="0.45316" stop-color="#ff0" stop-opacity="0.95427"/><stop offset="0.50538" stop-color="#ff0"/><stop offset="1" stop-color="#ff0" stop-opacity="0.6"/></linearGradient><linearGradient id="linear-gradient-4" x1="8.47524" y1="10.75357" x2="12.0003" y2="10.75357" xlink:href="#linear-gradient-3"/><linearGradient id="linear-gradient-5" x1="4.00788" y1="10.75357" x2="7.53294" y2="10.75357" xlink:href="#linear-gradient-3"/></defs><title>laughing</title><circle class="cls-1" cx="8" cy="7.99999" r="8"/><g class="cls-2"><ellipse class="cls-3" cx="7.99995" cy="3.45001" rx="4.72431" ry="3.19706"/></g><path class="cls-4" d="M8,.25A7.74609,7.74609,0,1,1,.25386,7.99608,7.74609,7.74609,0,0,1,8,.25M8,0a7.99609,7.99609,0,1,0,7.996,7.99618V7.99608A7.99609,7.99609,0,0,0,8,0Z"/><g id="_Group_" data-name=" Group "><g class="cls-5"><path class="cls-6" d="M8,.49608a7.5,7.5,0,1,1-7.5,7.5h0a7.5085,7.5085,0,0,1,7.5-7.5m0-.25a7.75,7.75,0,1,0,7.75,7.75A7.75,7.75,0,0,0,8,.24608Z"/></g></g><g class="cls-7"><path class="cls-8" d="M8.00012,13.4539a5.2992,5.2992,0,0,0,4.96245-3.02276,5.0425,5.0425,0,0,0,.43126-1.77671c.00973-.2524-10.80027-.25241-10.79022,0a5.05448,5.05448,0,0,0,.43392,1.77673A5.30583,5.30583,0,0,0,8.00012,13.4539Z"/></g><path class="cls-6" d="M8.00006,12.46874a5.239,5.239,0,0,0,4.6878-2.30067c.18657-.27829.673-1.23319.37294-1.83512-.3275-.65726-1.14814-.45981-1.42958-.39433a15.43471,15.43471,0,0,1-3.63116.38483A15.43477,15.43477,0,0,1,4.3689,7.93862c-.28144-.06548-1.10526-.26293-1.43276.39433-.3.60194.18944,1.55674.376,1.83512A5.25328,5.25328,0,0,0,8.00006,12.46874Z"/><path class="cls-9" d="M11.99512,5.3401a.4775.4775,0,0,1-.0384.26948.42349.42349,0,0,1-.51642.1,3.07429,3.07429,0,0,0-1.22629-.249,2.39359,2.39359,0,0,0-1.18547.24891.4211.4211,0,0,1-.51052-.1.50141.50141,0,0,1-.0383-.2695,2.8902,2.8902,0,0,1,1.7577-.82438A2.88911,2.88911,0,0,1,11.99512,5.3401Z"/><path class="cls-10" d="M7.52776,5.3401a.4775.4775,0,0,1-.0384.26948.42349.42349,0,0,1-.51642.1,3.07429,3.07429,0,0,0-1.22629-.249,2.39359,2.39359,0,0,0-1.18547.24891.4211.4211,0,0,1-.51052-.1.50141.50141,0,0,1-.0383-.2695,2.8902,2.8902,0,0,1,1.7577-.82438A2.88911,2.88911,0,0,1,7.52776,5.3401Z"/><path class="cls-11" d="M5.77059,4.01347a1.83094,1.83094,0,0,1,1.4404.70791,1.30441,1.30441,0,0,1,.3173.56245.26051.26051,0,0,1-.0384.1976.25168.25168,0,0,1-.3436.0602c-.128-.0799-.3361-.2424-.4655-.3252a1.71454,1.71454,0,0,0-.9102-.2895,1.71454,1.71454,0,0,0-.9102.2895c-.1294.0829-.3375.2454-.4655.3252a.25161.25161,0,0,1-.3437-.0602.26082.26082,0,0,1-.0383-.1976,1.30441,1.30441,0,0,1,.3173-.56245A1.83094,1.83094,0,0,1,5.77059,4.01347Z"/><path class="cls-11" d="M10.23742,4.01347a1.83094,1.83094,0,0,1,1.4404.70791,1.30449,1.30449,0,0,1,.3173.56255.26052.26052,0,0,1-.0384.1976.25168.25168,0,0,1-.3436.0602c-.128-.0799-.3361-.2424-.4655-.3252a1.57538,1.57538,0,0,0-1.8204-.0001c-.1294.0829-.3375.2454-.4655.3252a.25161.25161,0,0,1-.3437-.0602.26082.26082,0,0,1-.0383-.1976,1.30441,1.30441,0,0,1,.3173-.56245A1.83094,1.83094,0,0,1,10.23742,4.01347Z"/><path class="cls-12" d="M8.00031,9.45881a12.35118,12.35118,0,0,0,4.30279-.61706c.18135-.07373.25855.14179.26426.12808a1.02793,1.02793,0,0,0,.03142-.6914c-.02618-.05841-.06783-.0573-.20229-.0573a1.62234,1.62234,0,0,0-.38831.06464,15.39626,15.39626,0,0,1-4.00806.475,15.38369,15.38369,0,0,1-4.00006-.4729,1.65677,1.65677,0,0,0-.39764-.06671c-.13641,0-.15947.0018-.20374.04554a.83145.83145,0,0,0,.01629.72609c.00562.0142.10013-.224.28385-.14949A12.37188,12.37188,0,0,0,8.00031,9.45881Z"/><path class="cls-11" d="M12.39649,8.26819c.13446,0,.14328.01967.16946.07808a2.236,2.236,0,0,1-.34525,1.393,4.752,4.752,0,0,1-4.22058,2.28847A4.75186,4.75186,0,0,1,3.77955,9.73949,2.24666,2.24666,0,0,1,3.431,8.34621c.02548-.05678.035-.078.17145-.078A1.657,1.657,0,0,1,4,8.33489a15.38451,15.38451,0,0,0,4.00009.47293,15.39721,15.39721,0,0,0,4.00806-.475,1.62286,1.62286,0,0,1,.38828-.06462h0m0-.8a2.37482,2.37482,0,0,0-.59659.09216A14.60363,14.60363,0,0,1,8,8.00782a14.60349,14.60349,0,0,1-3.7998-.44746,2.38231,2.38231,0,0,0-.5979-.09216.91147.91147,0,0,0-.9014.55067,2.84132,2.84132,0,0,0,.39346,2.13379A5.5488,5.5488,0,0,0,8,12.82776a5.53348,5.53348,0,0,0,4.90552-2.67511,2.84161,2.84161,0,0,0,.39026-2.13379A.90981.90981,0,0,0,12.39643,7.46819Z"/></svg>