<?xml version="1.0" encoding="utf-8"?>
<!-- Generator: Adobe Illustrator 19.2.1, SVG Export Plug-In . SVG Version: 6.00 Build 0)  -->
<svg version="1.1" id="laughing" xmlns="http://www.w3.org/2000/svg" xmlns:xlink="http://www.w3.org/1999/xlink" x="0px" y="0px"
	 viewBox="0 0 16 16" style="enable-background:new 0 0 16 16;" xml:space="preserve">
<style type="text/css">
	.st0{fill:#FFC838;}
	.st1{fill:#333333;}
	.st2{fill:#FFFFFF;}
</style>
<title>Compent-Uintra_icons_laughing</title>
<circle class="st0" cx="8" cy="8" r="8"/>
<g>
	<path class="st1" d="M8,13.1407c1.8032,0,3.2803-0.8105,4.1579-2.2828c0.1673-0.2809,0.5834-1.2187,0.3142-1.8261
		c-0.2938-0.6633-0.9623-0.4898-1.2147-0.4237C10.1139,8.9075,9.0915,9.0475,8,9.0426C6.9085,9.0475,5.8861,8.9075,4.7425,8.6082
		C4.4901,8.5421,3.8216,8.3686,3.5279,9.0319c-0.2692,0.6074,0.1469,1.5452,0.3142,1.8261C4.7197,12.3303,6.1968,13.1407,8,13.1407z
		"/>
</g>
<path class="st2" d="M8,11.1903c-2.6914,0-3.4149-1.3345-3.5206-1.6915c0,0,0.0239,0.0072,0.1157,0.0297
	C5.8715,9.8497,6.7915,10.0001,8,10.0001s2.1285-0.1504,3.4048-0.4717c0.0918-0.0225,0.1157-0.0297,0.1157-0.0297
	C11.4149,9.8558,10.6914,11.1903,8,11.1903z"/>
<g>
	<ellipse class="st1" cx="6" cy="6" rx="1" ry="1.1681"/>
	<ellipse class="st1" cx="10" cy="6" rx="1" ry="1.1681"/>
</g>
</svg>
