<svg id="sad-2" xmlns="http://www.w3.org/2000/svg" viewBox="0 0 16 16"><title>Compent-Uintra_icons_sad-2</title><circle cx="8" cy="8" r="8" fill="#ffc838"/><path d="M8,19.80425a2.47885,2.47885,0,0,1,1.09888.25539,2.7079,2.7079,0,0,1,.76444.564,1.917,1.917,0,0,1,.48628.78222,0.34023,0.34023,0,0,1-.07041.304,0.329,0.329,0,0,1-.46219.02831,3.802,3.802,0,0,0-.55736-0.3789,2.4062,2.4062,0,0,0-2.5193,0,3.802,3.802,0,0,0-.55736.3789,0.329,0.329,0,0,1-.46219-0.02831,0.34023,0.34023,0,0,1-.07041-0.304,1.917,1.917,0,0,1,.48628-0.78222,2.7079,2.7079,0,0,1,.76444-0.564A2.47885,2.47885,0,0,1,8,19.80425Z" transform="translate(0 -8)" fill="#333"/><path d="M7.24982,16.52272a2.00564,2.00564,0,0,1-.38853.521,3.51362,3.51362,0,0,1-1.219.77548,3.44117,3.44117,0,0,1-.75752.16533,3.08868,3.08868,0,0,1-.6792-0.01281,2.04347,2.04347,0,0,1-.64867-0.17405,0.34618,0.34618,0,0,1-.16971-0.45408A0.35354,0.35354,0,0,1,3.746,17.14628a3.08139,3.08139,0,0,0,1.59932-.17667,4.21244,4.21244,0,0,0,.97282-0.51878,4.65622,4.65622,0,0,0,.40157-0.35289,0.34323,0.34323,0,0,1,.48347.00218A0.35982,0.35982,0,0,1,7.24982,16.52272Z" transform="translate(0 -8)" fill="#333"/><path d="M8.75014,16.52272a2.00564,2.00564,0,0,0,.38853.521,3.51362,3.51362,0,0,0,1.219.77548,3.44117,3.44117,0,0,0,.75752.16533,3.08868,3.08868,0,0,0,.6792-0.01281,2.04347,2.04347,0,0,0,.64867-0.17405,0.34618,0.34618,0,0,0,.16971-0.45408,0.35354,0.35354,0,0,0-.35889-0.19735,3.08139,3.08139,0,0,1-1.59932-.17667,4.21244,4.21244,0,0,1-.97282-0.51878,4.65622,4.65622,0,0,1-.40157-0.35289,0.34323,0.34323,0,0,0-.48347.00218A0.35982,0.35982,0,0,0,8.75014,16.52272Z" transform="translate(0 -8)" fill="#333"/></svg>