<svg id="skeptical" xmlns="http://www.w3.org/2000/svg" viewBox="0 0 16 16"><title>Compent-Uintra_icons_skeptical-1</title><circle cx="8" cy="8" r="8" fill="#ffc838"/><path d="M7.41743,13.175a5.84417,5.84417,0,0,0-.395-0.45581A6.62872,6.62872,0,0,0,6.0365,11.8486a4.70045,4.70045,0,0,0-1.124-.62828,3.06007,3.06007,0,0,0-.56057-0.13676,0.18685,0.18685,0,0,1,.01129-0.372,2.16543,2.16543,0,0,1,.6753.09341,4.00548,4.00548,0,0,1,1.28832.643,6.06449,6.06449,0,0,1,1.03344.97508,2.9923,2.9923,0,0,1,.38142.53877A0.19445,0.19445,0,0,1,7.41743,13.175Z" transform="translate(0 -8)" fill="#333"/><path d="M9.75,21.00586H6.25a0.5,0.5,0,0,1,0-1h3.5A0.5,0.5,0,0,1,9.75,21.00586Z" transform="translate(0 -8)" fill="#333"/><path d="M12.75,13.75h-4a0.25,0.25,0,0,1,0-.5h4A0.25,0.25,0,0,1,12.75,13.75Z" transform="translate(0 -8)" fill="#333"/><circle cx="6" cy="8" r="1" fill="#333"/><circle cx="10" cy="8" r="1" fill="#333"/></svg>