<svg id="happy" xmlns="http://www.w3.org/2000/svg" xmlns:xlink="http://www.w3.org/1999/xlink" viewBox="0 0 16 16"><defs><style>.cls-1{fill:url(#linear-gradient);}.cls-2{opacity:0.8;}.cls-3{fill:url(#linear-gradient-2);}.cls-4{fill:#ffc600;}.cls-5{opacity:0.3;}.cls-6{fill:#fff;}.cls-7{opacity:0.55;fill:url(#linear-gradient-3);}.cls-8{fill:#333;}</style><linearGradient id="linear-gradient" x1="7.99609" y1="0.00007" x2="7.99609" y2="15.99226" gradientUnits="userSpaceOnUse"><stop offset="0" stop-color="#ffec00"/><stop offset="0.24465" stop-color="#fee308"/><stop offset="0.64545" stop-color="#fdca1c"/><stop offset="1" stop-color="#fbaf33"/></linearGradient><linearGradient id="linear-gradient-2" x1="7.99609" y1="6.64707" x2="7.99609" y2="0.25295" gradientUnits="userSpaceOnUse"><stop offset="0" stop-color="#fff" stop-opacity="0"/><stop offset="0.11016" stop-color="#fff" stop-opacity="0.14218"/><stop offset="0.35948" stop-color="#fff" stop-opacity="0.44309"/><stop offset="0.58203" stop-color="#fff" stop-opacity="0.68218"/><stop offset="0.76954" stop-color="#fff" stop-opacity="0.85464"/><stop offset="0.91475" stop-color="#fff" stop-opacity="0.96065"/><stop offset="1" stop-color="#fff"/></linearGradient><linearGradient id="linear-gradient-3" x1="4.09805" y1="11.63288" x2="11.89414" y2="11.63288" gradientUnits="userSpaceOnUse"><stop offset="0" stop-color="#ff0" stop-opacity="0.6"/><stop offset="0.14519" stop-color="#ff0" stop-opacity="0.69979"/><stop offset="0.45316" stop-color="#ff0" stop-opacity="0.95427"/><stop offset="0.50538" stop-color="#ff0"/><stop offset="1" stop-color="#ff0" stop-opacity="0.6"/></linearGradient></defs><title>happy</title><circle class="cls-1" cx="7.99609" cy="7.99617" r="7.99609"/><g class="cls-2"><ellipse class="cls-3" cx="7.99609" cy="3.45001" rx="4.72431" ry="3.19706"/></g><path class="cls-4" d="M7.99609.25A7.74609,7.74609,0,1,1,.25,7.99609,7.75486,7.75486,0,0,1,7.99609.25m0-.25a7.99609,7.99609,0,1,0,7.99609,7.99609A7.99609,7.99609,0,0,0,7.99609,0Z"/><g id="_Group_" data-name="&lt;Group&gt;"><g class="cls-5"><path class="cls-6" d="M7.99609.49609a7.5,7.5,0,1,1-7.5,7.5,7.5085,7.5085,0,0,1,7.5-7.5m0-.25a7.75,7.75,0,1,0,7.75,7.75,7.75,7.75,0,0,0-7.75-7.75Z"/></g></g><path class="cls-7" d="M7.99614,11.74316a6.629,6.629,0,0,1-2.13734-.44749A5.33552,5.33552,0,0,1,4.098,10.18757c0,1.338,1.82006,2.89062,3.89149,2.89062,2.10112,0,3.9046-1.54869,3.9046-2.89062,0,0-.95643.67917-1.70324,1.17844A5.72685,5.72685,0,0,1,7.99614,11.74316Z"/><circle class="cls-8" cx="6" cy="6" r="1"/><circle class="cls-8" cx="10" cy="6" r="1"/><path class="cls-8" d="M7.99614,11.288a5.36891,5.36891,0,0,1-1.3312-.1793,4.72493,4.72493,0,0,1-1.0957-.4494,4.88437,4.88437,0,0,1-.9141-.6873.33984.33984,0,0,0-.4699-.0217.34907.34907,0,0,0-.0568.3876,2.50273,2.50273,0,0,0,.9296,1.0867,5.28335,5.28335,0,0,0,1.2874.6815,4.42,4.42,0,0,0,1.6507.2888,4.41909,4.41909,0,0,0,1.6506-.2888,5.28329,5.28329,0,0,0,1.2874-.6815,2.50327,2.50327,0,0,0,.9296-1.0867.34907.34907,0,0,0-.0568-.3876.33994.33994,0,0,0-.4699.0218,4.87739,4.87739,0,0,1-.9141.6873,4.72926,4.72926,0,0,1-1.0957.4494A5.37239,5.37239,0,0,1,7.99614,11.288Z"/></svg>