<?xml version="1.0" encoding="utf-8"?>
<!-- Generator: Adobe Illustrator 19.2.1, SVG Export Plug-In . SVG Version: 6.00 Build 0)  -->
<svg version="1.1" id="wink" xmlns="http://www.w3.org/2000/svg" xmlns:xlink="http://www.w3.org/1999/xlink" x="0px" y="0px"
	 viewBox="0 0 16 16" style="enable-background:new 0 0 16 16;" xml:space="preserve">
<style type="text/css">
	.st0{fill:#FFC838;}
	.st1{fill:#333333;}
</style>
<title>Compent-Uintra_icons_wink</title>
<circle class="st0" cx="8" cy="8" r="8"/>
<g>
	<ellipse class="st1" cx="5.5027" cy="8.5042" rx="1.0005" ry="1.1687"/>
</g>
<path class="st1" d="M7.9961,11.8618c0.4839,0,0.9752-0.0925,1.3645-0.2216c0.192-0.0645,0.5034-0.1898,0.6558-0.2696
	c0.0458-0.024,0.0819-0.0432,0.131-0.0455c0.1352-0.0064,0.25,0.0979,0.2565,0.2331c0,0,0.0075,0.1581-0.0774,0.3391
	c-0.07,0.1583-0.1958,0.3693-0.3987,0.5733c-0.1989,0.2072-0.4745,0.4132-0.8111,0.5557c-0.3338,0.1512-0.7276,0.2363-1.1205,0.2363
	s-0.7866-0.085-1.1205-0.2363c-0.3365-0.1424-0.6122-0.3484-0.8111-0.5557c-0.2029-0.2039-0.3287-0.415-0.3987-0.5733
	c-0.0849-0.1809-0.0774-0.3391-0.0774-0.3391c0.0064-0.1352,0.1213-0.2396,0.2565-0.2331c0.049,0.0023,0.0851,0.0215,0.131,0.0455
	c0.1524,0.0799,0.4637,0.2051,0.6558,0.2696C7.0209,11.7693,7.5122,11.8618,7.9961,11.8618z"/>
<g>
	<g>
		<path class="st1" d="M3.1167,6.0497C3.3462,5.729,3.7101,5.344,4.1371,5.0354c0.4267-0.3084,0.9202-0.5166,1.3064-0.6175
			c0.3167-0.0827,0.5245-0.0882,0.6707-0.081c0.0824,0.0041,0.145,0.0758,0.14,0.1581C6.2496,4.5701,6.1901,4.627,6.1173,4.6348
			C5.9294,4.6549,5.7434,4.6946,5.5379,4.7588C5.1932,4.8667,4.762,5.081,4.3672,5.3576C3.971,5.6353,3.6301,5.9843,3.4036,6.2665
			C3.2506,6.4571,3.1293,6.6326,3.0543,6.765C3.012,6.8397,2.9172,6.8659,2.8426,6.8236c-0.0695-0.0393-0.097-0.1242-0.0664-0.1959
			C2.7762,6.6278,2.8805,6.3798,3.1167,6.0497z"/>
	</g>
</g>
<g>
	<g>
		<path class="st1" d="M12.9888,7.567c-0.1002-0.0895-0.175-0.1517-0.4393-0.3092c-0.2747-0.1636-0.6772-0.3292-1.1007-0.424
			c-0.423-0.0947-0.8449-0.139-1.1845-0.1339C10.0531,6.7031,9.858,6.7168,9.7237,6.7342C9.6418,6.7447,9.5664,6.6885,9.555,6.6067
			C9.5447,6.5329,9.5902,6.4642,9.6592,6.4431c0.1429-0.0437,0.2942-0.0779,0.5898-0.0966c0.391-0.0248,0.8293-0.0091,1.2899,0.1018
			c0.4601,0.1107,0.9002,0.3045,1.201,0.5046c0.3106,0.2091,0.3721,0.2819,0.4719,0.4c0.0553,0.0654,0.0471,0.1631-0.0183,0.2184
			C13.1333,7.6222,13.0462,7.6183,12.9888,7.567z"/>
	</g>
</g>
<path class="st1" d="M8.8837,8.7545C8.9539,8.668,9.0577,8.5527,9.207,8.4403c0.2969-0.2233,0.7834-0.4458,1.2962-0.4362
	c0.2289,0.0043,0.5229,0.0489,0.7361,0.1256c0.2264,0.0814,0.4192,0.1999,0.5667,0.3106c0.2313,0.1734,0.3436,0.3232,0.4151,0.4608
	c0.0639,0.123,0.0159,0.2745-0.1071,0.3384c-0.062,0.0322-0.132,0.0358-0.1936,0.0158c-0.1168-0.038-0.2051-0.0671-0.4721-0.1362
	c-0.131-0.0419-0.2877-0.063-0.4459-0.0835c-0.1738-0.0226-0.3028-0.0331-0.4991-0.031C10.162,9.0084,9.829,9.0532,9.5582,9.1191
	c-0.1848,0.045-0.3566,0.1011-0.4745,0.1382C8.9518,9.2987,8.8116,9.2235,8.7711,9.0913C8.7535,9.0338,8.7584,8.975,8.7789,8.9231
	C8.797,8.8769,8.812,8.8429,8.8837,8.7545z"/>
</svg>
