<svg id="Layer_22" data-name="Layer 22" xmlns="http://www.w3.org/2000/svg" xmlns:xlink="http://www.w3.org/1999/xlink" viewBox="0 0 16 16"><defs><style>.cls-1{fill:url(#linear-gradient);}.cls-2{opacity:0.8;}.cls-3{fill:url(#linear-gradient-2);}.cls-4{fill:#ffc600;}.cls-5{opacity:0.3;}.cls-6{fill:#fff;}.cls-7{opacity:0.75;fill:url(#linear-gradient-3);}.cls-8{fill:#333;}</style><linearGradient id="linear-gradient" x1="8" x2="8" y2="16" gradientUnits="userSpaceOnUse"><stop offset="0" stop-color="#ffec00"/><stop offset="0.4268" stop-color="#fdd713"/><stop offset="1" stop-color="#fbb533"/></linearGradient><linearGradient id="linear-gradient-2" x1="8.00391" y1="6.64708" x2="8.00391" y2="0.25296" gradientUnits="userSpaceOnUse"><stop offset="0" stop-color="#fff" stop-opacity="0"/><stop offset="0.11016" stop-color="#fff" stop-opacity="0.14218"/><stop offset="0.35948" stop-color="#fff" stop-opacity="0.44309"/><stop offset="0.58203" stop-color="#fff" stop-opacity="0.68218"/><stop offset="0.76954" stop-color="#fff" stop-opacity="0.85464"/><stop offset="0.91475" stop-color="#fff" stop-opacity="0.96065"/><stop offset="1" stop-color="#fff"/></linearGradient><linearGradient id="linear-gradient-3" x1="4.50567" y1="12.00388" x2="11.52518" y2="12.00388" gradientUnits="userSpaceOnUse"><stop offset="0" stop-color="#ff0" stop-opacity="0.6"/><stop offset="0.04837" stop-color="#ff0" stop-opacity="0.64814"/><stop offset="0.25672" stop-color="#ff0" stop-opacity="0.83801"/><stop offset="0.41568" stop-color="#ff0" stop-opacity="0.95584"/><stop offset="0.50538" stop-color="#ff0"/><stop offset="0.66083" stop-color="#ff0" stop-opacity="0.88806"/><stop offset="0.99603" stop-color="#ff0" stop-opacity="0.60353"/><stop offset="1" stop-color="#ff0" stop-opacity="0.6"/></linearGradient></defs><title>neutral</title><circle class="cls-1" cx="8" cy="8" r="8"/><g class="cls-2"><ellipse class="cls-3" cx="8.00391" cy="3.45002" rx="4.72431" ry="3.19706"/></g><path class="cls-4" d="M8.00391,0.25A7.74609,7.74609,0,1,1,.25782,7.99609,7.75486,7.75486,0,0,1,8.00391.25m0-.25A7.99609,7.99609,0,1,0,16,7.99609,7.99609,7.99609,0,0,0,8.00391,0h0Z"/><g id="_Group_" data-name="&lt;Group&gt;"><g class="cls-5"><path class="cls-6" d="M8.00391,0.49609a7.5,7.5,0,1,1-7.5,7.5,7.5085,7.5085,0,0,1,7.5-7.5m0-.25a7.75,7.75,0,1,0,7.75,7.75,7.75,7.75,0,0,0-7.75-7.75h0Z"/></g></g><path class="cls-7" d="M10.71349,12.50389H5.31743c-0.81176,0-.81176-0.44773-0.81176-1h7.01951C11.52518,12.05616,11.52518,12.50389,10.71349,12.50389Z"/><path class="cls-8" d="M11.01391,12l-6.009.001a0.50049,0.50049,0,0,1,0-1.001h6.009A0.50012,0.50012,0,1,1,11.01391,12Z"/><ellipse class="cls-8" cx="10.01542" cy="7" rx="1" ry="1.16813"/><ellipse class="cls-8" cx="6.01542" cy="7" rx="1" ry="1.16813"/></svg>