<svg id="skeptical-2" xmlns="http://www.w3.org/2000/svg" xmlns:xlink="http://www.w3.org/1999/xlink" viewBox="0 0 16 16"><defs><style>.cls-1{fill:url(#linear-gradient);}.cls-2{opacity:0.8;}.cls-3{fill:url(#linear-gradient-2);}.cls-4{fill:#ffc600;}.cls-5{opacity:0.3;}.cls-6{fill:#fff;}.cls-7{opacity:0.75;fill:url(#linear-gradient-3);}.cls-8{fill:#333;}</style><linearGradient id="linear-gradient" x1="8" x2="8" y2="16" gradientUnits="userSpaceOnUse"><stop offset="0" stop-color="#ffec00"/><stop offset="0.4268" stop-color="#fdd713"/><stop offset="1" stop-color="#fbb533"/></linearGradient><linearGradient id="linear-gradient-2" x1="8.00001" y1="6.64708" x2="8.00001" y2="0.25296" gradientUnits="userSpaceOnUse"><stop offset="0" stop-color="#fff" stop-opacity="0"/><stop offset="0.11016" stop-color="#fff" stop-opacity="0.14218"/><stop offset="0.35948" stop-color="#fff" stop-opacity="0.44309"/><stop offset="0.58203" stop-color="#fff" stop-opacity="0.68218"/><stop offset="0.76954" stop-color="#fff" stop-opacity="0.85464"/><stop offset="0.91475" stop-color="#fff" stop-opacity="0.96065"/><stop offset="1" stop-color="#fff"/></linearGradient><linearGradient id="linear-gradient-3" x1="5.48249" y1="12.00001" x2="10.52127" y2="12.00001" gradientUnits="userSpaceOnUse"><stop offset="0" stop-color="#ff0" stop-opacity="0.6"/><stop offset="0.04837" stop-color="#ff0" stop-opacity="0.64814"/><stop offset="0.25672" stop-color="#ff0" stop-opacity="0.83801"/><stop offset="0.41568" stop-color="#ff0" stop-opacity="0.95584"/><stop offset="0.50538" stop-color="#ff0"/><stop offset="0.66083" stop-color="#ff0" stop-opacity="0.88806"/><stop offset="0.99603" stop-color="#ff0" stop-opacity="0.60353"/><stop offset="1" stop-color="#ff0" stop-opacity="0.6"/></linearGradient></defs><title>skeptical</title><circle class="cls-1" cx="8" cy="8" r="8"/><g class="cls-2"><ellipse class="cls-3" cx="8.00001" cy="3.45002" rx="4.72431" ry="3.19706"/></g><path class="cls-4" d="M8,0.25A7.74609,7.74609,0,1,1,.25392,7.99609,7.75486,7.75486,0,0,1,8,.25M8,0A7.99609,7.99609,0,1,0,15.9961,7.99609,7.99609,7.99609,0,0,0,8,0H8Z"/><g id="_Group_" data-name="&lt;Group&gt;"><g class="cls-5"><path class="cls-6" d="M8,0.49609a7.5,7.5,0,1,1-7.5,7.5,7.5085,7.5085,0,0,1,7.5-7.5m0-.25a7.75,7.75,0,1,0,7.75,7.75A7.75,7.75,0,0,0,8,.24609H8Z"/></g></g><path class="cls-7" d="M9.70959,12.5H6.29425c-0.81176,0-.81176-0.44773-0.81176-1h5.03878C10.52127,12.0523,10.52127,12.5,9.70959,12.5Z"/><path class="cls-8" d="M10.02127,12H5.98249a0.5,0.5,0,0,1,0-1h4.03878A0.5,0.5,0,0,1,10.02127,12Z"/><circle class="cls-8" cx="6" cy="7" r="1"/><circle class="cls-8" cx="10" cy="7" r="1"/><path class="cls-8" d="M7.41743,4.46654a5.84417,5.84417,0,0,0-.395-0.45581A6.62872,6.62872,0,0,0,6.0365,3.14014a4.70045,4.70045,0,0,0-1.124-.62828A3.06007,3.06007,0,0,0,4.35193,2.3751a0.18685,0.18685,0,0,1,.01129-0.372,2.16543,2.16543,0,0,1,.6753.09341,4.00548,4.00548,0,0,1,1.28832.643,6.06449,6.06449,0,0,1,1.03344.97508,2.9923,2.9923,0,0,1,.38142.53877A0.19445,0.19445,0,0,1,7.41743,4.46654Z"/><path class="cls-8" d="M12.25863,4.75H8.74829a0.25,0.25,0,0,1,0-.5h3.51034A0.25,0.25,0,0,1,12.25863,4.75Z"/></svg>