<svg id="wink" xmlns="http://www.w3.org/2000/svg" xmlns:xlink="http://www.w3.org/1999/xlink" viewBox="0 0 16 16"><defs><style>.cls-1{fill:url(#linear-gradient);}.cls-2{opacity:0.8;}.cls-3{fill:url(#linear-gradient-2);}.cls-4{fill:#ffc600;}.cls-5{opacity:0.3;}.cls-6{fill:#fff;}.cls-7{opacity:0.55;fill:url(#linear-gradient-3);}.cls-8{fill:#333;}.cls-9{opacity:0.6;fill:url(#linear-gradient-4);}</style><linearGradient id="linear-gradient" x1="8" x2="8" y2="15.99999" gradientUnits="userSpaceOnUse"><stop offset="0" stop-color="#ffec00"/><stop offset="0.4268" stop-color="#fdd713"/><stop offset="1" stop-color="#fbb533"/></linearGradient><linearGradient id="linear-gradient-2" x1="8" y1="6.65032" x2="8" y2="0.25308" gradientUnits="userSpaceOnUse"><stop offset="0" stop-color="#fff" stop-opacity="0"/><stop offset="0.11016" stop-color="#fff" stop-opacity="0.14218"/><stop offset="0.35948" stop-color="#fff" stop-opacity="0.44309"/><stop offset="0.58203" stop-color="#fff" stop-opacity="0.68218"/><stop offset="0.76954" stop-color="#fff" stop-opacity="0.85464"/><stop offset="0.91475" stop-color="#fff" stop-opacity="0.96065"/><stop offset="1" stop-color="#fff"/></linearGradient><linearGradient id="linear-gradient-3" x1="4.39927" y1="6.16557" x2="7.40755" y2="6.16557" gradientUnits="userSpaceOnUse"><stop offset="0" stop-color="#ff0" stop-opacity="0.6"/><stop offset="0.14519" stop-color="#ff0" stop-opacity="0.69979"/><stop offset="0.45316" stop-color="#ff0" stop-opacity="0.95427"/><stop offset="0.50538" stop-color="#ff0"/><stop offset="1" stop-color="#ff0" stop-opacity="0.6"/></linearGradient><linearGradient id="linear-gradient-4" x1="53.43117" y1="-19.1895" x2="58.36004" y2="-19.1895" gradientTransform="matrix(0.99194, -0.12675, 0.12675, 0.99194, -46.30885, 36.80192)" xlink:href="#linear-gradient-3"/></defs><title>wink</title><circle class="cls-1" cx="8" cy="8" r="8"/><g class="cls-2"><ellipse class="cls-3" cx="8" cy="3.4517" rx="4.72662" ry="3.19862"/></g><path class="cls-4" d="M8,0.25012A7.74988,7.74988,0,1,1,.25012,8,7.75865,7.75865,0,0,1,8,.25012M8,0a8,8,0,1,0,8,8A8,8,0,0,0,8,0H8Z"/><g id="_Group_" data-name="&lt;Group&gt;"><g class="cls-5"><path class="cls-6" d="M8,0.49634A7.50366,7.50366,0,1,1,.49634,8,7.51216,7.51216,0,0,1,8,.49634m0-.25012A7.75378,7.75378,0,1,0,15.75378,8,7.75377,7.75377,0,0,0,8,.24622H8Z"/></g></g><path class="cls-7" d="M7.40359,6.28622a0.98927,0.98927,0,0,1-.03278.363,0.32189,0.32189,0,0,1-.4408.10188,2.26726,2.26726,0,0,0-1.04673-.25376A1.77132,1.77132,0,0,0,4.8714,6.751a0.32023,0.32023,0,0,1-.43577-0.10188,1.03947,1.03947,0,0,1-.03269-0.363,2.39127,2.39127,0,0,1,1.50032-.75164A2.39038,2.39038,0,0,1,7.40359,6.28622Z"/><path class="cls-8" d="M5.90127,5.15447a1.58868,1.58868,0,0,1,1.22749.61368,1.10838,1.10838,0,0,1,.2704.50592,0.20965,0.20965,0,0,1-.03272.16316,0.219,0.219,0,0,1-.29281.04971C6.96454,6.421,6.7872,6.28679,6.67693,6.21842a1.49335,1.49335,0,0,0-.77566-0.239,1.49335,1.49335,0,0,0-.77566.239C5.01534,6.28687,4.838,6.42105,4.72892,6.48695A0.21889,0.21889,0,0,1,4.436,6.43724a0.20989,0.20989,0,0,1-.03264-0.16316,1.10838,1.10838,0,0,1,.2704-0.50592A1.58868,1.58868,0,0,1,5.90127,5.15447Z"/><path class="cls-9" d="M9.26971,11.32022a0.94053,0.94053,0,0,1-.35045.77914A3.1261,3.1261,0,0,1,5.873,12.115,3.62418,3.62418,0,0,1,4.01572,9.08652a7.504,7.504,0,0,0,2.33517,1.99569A6.39247,6.39247,0,0,0,9.26971,11.32022Z"/><path class="cls-8" d="M6.24816,10.64238a4.4902,4.4902,0,0,0,2.57427.34929,0.34481,0.34481,0,0,1,.3346.06127,0.408,0.408,0,0,1-.21029.67874,4.29712,4.29712,0,0,1-3.0562-.11894A2.92655,2.92655,0,0,1,4.01572,9.08652a1.02244,1.02244,0,0,1,.03235-0.38164,0.32367,0.32367,0,0,1,.36628-0.2762,0.328,0.328,0,0,1,.24572.20233A2.83481,2.83481,0,0,0,6.24816,10.64238Z"/><ellipse class="cls-8" cx="11" cy="6" rx="1.00049" ry="1.15"/></svg>